<?xml version="1.0" encoding="UTF-8"?>
<svg xmlns="http://www.w3.org/2000/svg" xmlns:xlink="http://www.w3.org/1999/xlink" viewBox="0 0 55.32 72.56">
  <defs>
    <style>
      .cls-1, .cls-2 {
        fill: #fbe1a9;
      }

      .cls-2, .cls-3, .cls-4, .cls-5, .cls-6, .cls-7, .cls-8, .cls-9, .cls-10 {
        stroke: #fbe1a9;
        stroke-miterlimit: 10;
      }

      .cls-2, .cls-3, .cls-5, .cls-8 {
        stroke-width: .25px;
      }

      .cls-11 {
        mix-blend-mode: color-burn;
        opacity: .72;
      }

      .cls-12 {
        isolation: isolate;
      }

      .cls-13 {
        mix-blend-mode: multiply;
      }

      .cls-3, .cls-4 {
        fill: #211006;
      }

      .cls-4, .cls-6, .cls-9, .cls-10 {
        stroke-width: .5px;
      }

      .cls-5, .cls-6, .cls-7, .cls-8, .cls-10 {
        fill: none;
      }

      .cls-7 {
        stroke-width: .75px;
      }

      .cls-14 {
        fill: url(#_名称未設定グラデーション_838);
      }

      .cls-8, .cls-9, .cls-10 {
        stroke-linecap: round;
      }

      .cls-9 {
        fill: #ad5f2b;
      }

      .cls-15 {
        fill: #cf8b2e;
      }
    </style>
    <linearGradient id="_名称未設定グラデーション_838" data-name="名称未設定グラデーション 838" x1="-7.28" y1="16.11" x2="62.6" y2="56.46" gradientUnits="userSpaceOnUse">
      <stop offset="0" stop-color="#664b31"/>
      <stop offset=".08" stop-color="#46372b"/>
      <stop offset=".31" stop-color="#a6935c"/>
      <stop offset=".56" stop-color="#e0e0d4"/>
      <stop offset=".64" stop-color="#b29b78"/>
      <stop offset=".67" stop-color="#a38358"/>
      <stop offset=".96" stop-color="#674c32"/>
    </linearGradient>
  </defs>
  <g class="cls-12">
    <g id="_レイヤー_2" data-name="レイヤー 2">
      <g id="_レイヤー_2-2" data-name="レイヤー 2">
        <g>
          <g>
            <g>
              <rect class="cls-4" x=".25" y=".25" width="54.82" height="72.06" rx="3.84" ry="3.84"/>
              <rect class="cls-6" x="4.94" y="4.63" width="45.5" height="62.94" rx="3.84" ry="3.84"/>
              <path class="cls-1" d="M5.45,2.56c-.11,0-.46-.02-.53,0-.04.01-.06.04-.06.04,0-.01,0,.13,0,.18.39,1.11,2.23.47,1.7-.7-.29-.72-1.43-.52-2.04-.56,0,0-2.43-.04-2.43-.04-.18,0-.41.12-.4.29,0,.01-.06,2.04-.07,2.05-.03.14-.21.04-.11-.08,0,0,.74-1.49.74-1.49,0,0,.01-.02.02-.03.43-.25,1.12-.66,1.54-.9,0,0,.07-.06.01.01-.04.1.09.14.09.12,0,0-.01,0-.01,0-.06,0-1.87.04-1.92.04-.15,0-.28.16-.28.38,0-.05.03,2.41.03,2.4,0,0,.02,1.19.02,1.19.04.72.94,1.14,1.49.67.55-.37.37-1.42-.25-1.55-.11,0-.19-.04-.22.05-.01.06,0,.42,0,.52.01.32-.5.34-.5.01,0,0,0-.31,0-.31-.03-.24.05-.65.39-.74.2-.04.27-.01.42,0,1.04.27,1.22,1.74.4,2.33-.79.65-2.06.04-2.09-.96,0-.77.03-2.84.04-3.63,0-.28.22-.62.53-.61,0,0,1.89,0,1.89,0,.02,0,.05,0,.06,0,0-.02.1.05.06.13-.09.1-.06.04-.09.07-.42.23-1.11.61-1.53.84.05-.09-.74,1.49-.73,1.48,0,0-.12-.08-.11-.09-.03-.65-.04-1.27-.03-1.95,0-.14.08-.29.2-.38.13-.09.26-.11.39-.13.81,0,2.87-.05,3.65-.05,1.85.11,1.55,2.79-.27,2.54-.83-.04-1.63-1.28-.71-1.66.29-.06.43-.02.68-.03.33,0,.32.51,0,.5h0Z"/>
              <path class="cls-1" d="M4.49,4.42c.22,2.37.28,4.25-2.75,3.89,0,0,.16-.16.16-.16v24.72c0,.19-.32.21-.31,0,0,0,0-24.72,0-24.72v-.16h.16c1.69-.07,2.42-.34,2.39-2.18,0,0,.04-1.39.04-1.39,0-.19.3-.2.31,0h0Z"/>
              <path class="cls-1" d="M4.62,4c2.15-.06,3.93.14,3.78-2.62,0,0,0-.18,0-.18h16.82c.22,0,.23.35,0,.35,0,0-16.64,0-16.64,0,0,0,.18-.18.18-.18.42,3.02-1.77,3.19-4.14,2.98-.22-.01-.21-.35.01-.35h0Z"/>
              <path class="cls-1" d="M3.42,9.3c.09,4.54.15,9.08.14,13.62,0,2.27-.02,4.54-.13,6.82-.22,2.18-.03,4.94-1.86,6.5-.07.06-.18-.03-.12-.11,1.24-1.85,1.36-4.18,1.53-6.41.13-2.26.17-4.53.19-6.79l.09-13.61c0-.1.17-.11.17,0h0Z"/>
              <ellipse class="cls-9" cx="2.49" cy="36.18" rx=".46" ry=".26"/>
              <ellipse class="cls-9" cx="53.07" cy="36.18" rx=".46" ry=".26"/>
              <path class="cls-1" d="M9.69,3.64c3.13-.05,6.26-.06,9.37-.23,2.89-.25,6.17-.38,8.38-2.47.08-.06.11-.18.31-.11.2.07.29.29.04.46-2.3,2.17-5.73,2.31-8.71,2.53-3.14.16-6.26.11-9.39.07-.16,0-.17-.26,0-.26h0Z"/>
              <path class="cls-1" d="M50.04,2.06h.31c1.4-.03.67,1.65-.34,1.69-1.82.25-2.11-2.43-.27-2.54.78,0,2.86.04,3.66.05.27,0,.59.2.59.5,0,.68,0,1.3-.03,1.95.02.01-.11.09-.11.09,0,0-.78-1.56-.73-1.48-.43-.23-1.11-.61-1.53-.84-.03-.03,0,.02-.09-.07-.04-.08.07-.15.06-.13.02,0,.04,0,.06,0,0,0,1.89-.01,1.9,0,.31,0,.53.33.52.61,0,0,.03,2.41.03,2.41v1.22c-.02,1-1.29,1.61-2.08.96-.82-.58-.64-2.06.4-2.33.28-.09.7.04.78.36.07.29.02.43.03.68,0,.32-.5.33-.5,0,0-.11.02-.47,0-.53-.02-.09-.11-.06-.22-.05-1.13.38-.47,2.15.68,1.67.75-.29.53-1.37.58-1.98,0,0,.04-2.45.03-2.4,0-.22-.13-.38-.28-.38,0,0-1.89-.04-1.89-.04,0,0-.04,0-.04,0,0,.02.13-.02.09-.12-.06-.08.01,0,.01-.01l.1.06c.26.17,1.25.7,1.46.87,0,0,.74,1.49.74,1.49.1.13-.1.23-.11.07,0,0-.06-2.07-.06-2.03,0-.2-.22-.3-.4-.3,0,0-2.43.04-2.43.04l-1.2.02c-.73.02-1.21.91-.71,1.48.42.61,1.67.31,1.6-.42-.05-.06-.15-.04-.29-.04,0,0-.3,0-.3,0-.33.01-.34-.51,0-.5h0Z"/>
              <path class="cls-1" d="M51.32,4.43c.1,2.34-.33,3.59,2.59,3.57,0,.13,0,24.73,0,24.87,0,.19-.32.21-.31,0,0,0,0-24.72,0-24.72l.16.16c-.93.09-2.31.06-2.66-1.02-.28-.97-.16-1.9-.09-2.87.01-.19.31-.18.31,0h0Z"/>
              <path class="cls-1" d="M50.89,4.35c-2.38.21-4.56.04-4.14-2.98,0,0,.18.18.18.18,0,0-16.64,0-16.64,0-.22,0-.23-.35,0-.35,0,0,16.64,0,16.64,0h.18s0,.18,0,.18c-.03,1.79.48,2.51,2.32,2.57.48.03.97.04,1.46.05.1,0,.18.08.18.18,0,.09-.07.17-.16.18h0Z"/>
              <path class="cls-1" d="M52.25,9.3l.09,13.61c.02,2.27.07,4.54.19,6.79.17,2.24.28,4.57,1.53,6.41.05.07-.05.18-.12.11-1.83-1.56-1.64-4.32-1.86-6.5-.11-2.28-.13-4.55-.13-6.82-.02-4.54.05-9.08.14-13.62,0-.1.17-.11.17,0h0Z"/>
              <path class="cls-1" d="M45.81,3.9c-3.13.04-6.26.09-9.39-.07-2.98-.22-6.41-.37-8.71-2.53-.06-.08-.19-.1-.13-.29.03-.09.09-.15.18-.17.2-.07.23.05.31.11,2.21,2.09,5.49,2.22,8.38,2.47,3.11.17,6.24.17,9.37.23.16,0,.17.26,0,.26h0Z"/>
              <path class="cls-1" d="M5.44,70.29s-.31,0-.31,0c-1.4.03-.67-1.64.34-1.69,1.82-.25,2.11,2.43.27,2.54-.78,0-2.86-.04-3.66-.05-.27,0-.59-.2-.59-.5,0-.68,0-1.3.03-1.95-.02-.01.11-.09.11-.09,0,0,.78,1.56.73,1.48.43.23,1.11.61,1.53.84.03.03,0-.02.09.07.04.08-.07.15-.06.13-.02,0-.04,0-.06,0,0,0-1.89.01-1.9,0-.31,0-.53-.33-.52-.61,0,0-.03-2.41-.03-2.41v-1.22c.15-1.81,2.84-1.49,2.58.31-.03.97-1.75,1.71-1.71.32,0,0,0-.3,0-.3,0-.32.5-.33.5,0,0,.11-.02.47,0,.53.02.09.11.06.22.05,1.13-.38.47-2.15-.68-1.67-.75.29-.53,1.37-.58,1.98,0,0-.04,2.45-.03,2.4,0,.22.13.38.28.38,0,0,1.89.04,1.89.04h.03s.03,0,0,0c0-.02-.11.04-.08.13.06.08-.01,0-.01.01l-.1-.06c-.26-.17-1.25-.7-1.46-.87,0,0-.74-1.49-.74-1.49-.1-.13.1-.23.11-.07,0,0,.06,2.07.06,2.03,0,.2.22.3.4.3,0,0,2.43-.04,2.43-.04l1.2-.02c.73-.02,1.21-.91.71-1.48-.42-.61-1.67-.31-1.6.42.05.06.15.04.29.04,0,0,.3,0,.3,0,.33-.01.34.51,0,.5h0Z"/>
              <path class="cls-1" d="M4.16,67.92c-.1-2.34.33-3.59-2.59-3.57,0,0,0-.16,0-.16v-24.72c0-.19.32-.21.31,0,0,0,0,24.72,0,24.72l-.16-.16c.93-.09,2.31-.06,2.66,1.02.28.97.16,1.9.09,2.87-.01.19-.31.18-.31,0h0Z"/>
              <path class="cls-1" d="M4.59,68.01c2.38-.21,4.56-.04,4.14,2.98,0,0-.18-.18-.18-.18,0,0,16.64,0,16.64,0,.22,0,.23.35,0,.35,0,0-16.64,0-16.64,0h-.18s0-.18,0-.18c.03-1.79-.48-2.51-2.32-2.57-.48-.03-.97-.04-1.46-.05-.1,0-.18-.08-.18-.18,0-.09.07-.17.16-.18h0Z"/>
              <path class="cls-1" d="M3.23,63.06l-.09-13.61c-.02-2.27-.07-4.54-.19-6.79-.17-2.24-.28-4.57-1.53-6.41-.05-.07.05-.18.12-.11,1.83,1.56,1.64,4.32,1.86,6.5.11,2.28.13,4.55.13,6.82.02,4.54-.05,9.08-.14,13.62,0,.1-.17.11-.17,0h0Z"/>
              <ellipse class="cls-9" cx="2.47" cy="36.18" rx=".46" ry=".26"/>
              <ellipse class="cls-9" cx="53.05" cy="36.18" rx=".46" ry=".26"/>
              <path class="cls-1" d="M9.67,68.45c3.13-.04,6.26-.09,9.39.07,2.98.22,6.41.37,8.71,2.53.06.08.19.1.13.29-.03.09-.09.15-.18.17-.2.07-.23-.05-.31-.11-2.21-2.09-5.49-2.22-8.38-2.47-3.11-.17-6.24-.17-9.37-.23-.16,0-.17-.26,0-.26h0Z"/>
              <path class="cls-10" d="M49.02,56.08c-2.26-.27-4.03-.62-3.99.59.02.78.97.62,1.36,1.59.6,1.51-2.19,2.08-2.64,1.1-.5-1.08-2.48-2.29-4.04-2.38-2.8-.17-3,1.44-3.73,1.57-1.8.31-1.82-.28-4.27.14-2.76.47-.78,1.81-2.88,2.27-6.34,1.38-14.39.84-14.66-.54-.11-.52.88-.9.74-1.38-.28-.96-4.56-.58-8.69,0"/>
              <path class="cls-8" d="M49.02,53.36c-2.26-.27-1.84-.74-3.09-.28-.95.35-.26.89-1.6,1.31-1.41.45-1.28-.62-2.31-.29q-.76.24-2.33.15c-2.8-.17-3,1.44-3.73,1.57-1.8.31-1.82-.28-4.27.14-2.76.47-.78,1.81-2.88,2.27-6.34,1.38-11.94.7-12.22-.68-.11-.52-1.56-.75-1.7-1.23-.28-.96-4.56-.58-8.69,0"/>
              <path class="cls-8" d="M48.85,50.44c-1.74-.31-2.84.9-4.95,1.03-.8.05-2.63-.16-4.19-.25-2.8-.17-4.92.29-6.03.74-1.58.64-.96,3.02-3.41,3.44-2.76.47-.19,1.79-7.83.54"/>
              <path class="cls-1" d="M50.03,69.79c.11,0,.46.02.53,0,.04-.01.06-.04.06-.04,0,.01,0-.13,0-.18-.39-1.11-2.23-.47-1.7.7.29.72,1.43.52,2.04.56,0,0,2.43.04,2.43.04.18,0,.41-.12.4-.29,0-.01.06-2.04.07-2.05.03-.14.21-.04.11.08,0,0-.74,1.49-.74,1.49,0,0-.01.02-.02.03-.43.25-1.12.66-1.54.9,0,0-.07.06-.01-.01.04-.1-.09-.14-.09-.12,0,0,.01,0,.01,0,.06,0,1.87-.04,1.92-.04.15,0,.28-.16.28-.38,0,.05-.03-2.41-.03-2.4,0,0-.02-1.19-.02-1.19-.04-.72-.94-1.14-1.49-.67-.55.37-.37,1.42.25,1.55.11,0,.19.04.22-.05.01-.06,0-.42,0-.52-.01-.32.5-.34.5-.01,0,0,0,.31,0,.31.03.24-.05.65-.39.74-.2.04-.27.01-.42,0-1.04-.27-1.22-1.74-.4-2.33.79-.65,2.06-.04,2.09.96,0,.77-.03,2.84-.04,3.63,0,.28-.22.62-.53.61,0,0-1.89,0-1.89,0-.02,0-.05,0-.06,0,0,.02-.1-.05-.06-.13.09-.1.06-.04.09-.07.42-.23,1.11-.61,1.53-.84-.05.09.74-1.49.73-1.48,0,0,.11.08.11.08h0c.03.66.04,1.28.03,1.96,0,.14-.08.29-.2.38-.13.09-.26.11-.39.13-.81,0-2.87.05-3.65.05-1.85-.11-1.55-2.79.27-2.54.83.04,1.63,1.28.71,1.66-.29.06-.43.02-.68.03-.33,0-.32-.51,0-.5h0Z"/>
              <path class="cls-1" d="M50.99,67.93c-.22-2.37-.28-4.25,2.75-3.89,0,0-.16.16-.16.16v-24.72c0-.19.32-.21.31,0,0,0,0,24.72,0,24.72v.16h-.16c-1.69.07-2.42.34-2.39,2.18,0,0-.04,1.39-.04,1.39,0,.19-.3.2-.31,0h0Z"/>
              <path class="cls-1" d="M50.86,68.36c-2.15.06-3.93-.14-3.78,2.62,0,0,0,.18,0,.18h-16.82c-.22,0-.23-.35,0-.35,0,0,16.64,0,16.64,0,0,0-.18.18-.18.18-.42-3.02,1.77-3.19,4.14-2.98.22.01.21.35-.01.35h0Z"/>
              <path class="cls-1" d="M52.06,63.06c-.09-4.54-.15-9.08-.14-13.62,0-2.27.02-4.54.13-6.82.22-2.18.03-4.94,1.86-6.5.07-.06.18.03.12.11-1.24,1.85-1.36,4.18-1.53,6.41-.13,2.26-.17,4.53-.19,6.79l-.09,13.61c0,.1-.17.11-.17,0h0Z"/>
              <path class="cls-1" d="M45.79,68.71c-3.13.05-6.26.06-9.37.23-2.89.25-6.17.38-8.38,2.47-.08.06-.11.18-.31.11-.2-.07-.29-.29-.04-.46,2.3-2.17,5.73-2.31,8.71-2.53,3.14-.16,6.26-.11,9.39-.07.16,0,.17.26,0,.26h0Z"/>
            </g>
            <line class="cls-7" x1="5.05" y1="29.53" x2="50.44" y2="29.53"/>
            <line class="cls-5" x1="5.05" y1="30.26" x2="50.44" y2="30.26"/>
            <line class="cls-5" x1="5.05" y1="30.77" x2="50.44" y2="30.77"/>
            <line class="cls-5" x1="4.92" y1="31.54" x2="50.31" y2="31.54"/>
            <line class="cls-5" x1="4.92" y1="32.87" x2="50.31" y2="32.87"/>
            <line class="cls-5" x1="32.56" y1="34.04" x2="50.51" y2="34.04"/>
            <line class="cls-5" x1="8.76" y1="34.05" x2="31.7" y2="34.04"/>
            <line class="cls-5" x1="39.76" y1="35.05" x2="50.44" y2="35.05"/>
            <line class="cls-5" x1="12.97" y1="34.98" x2="34.96" y2="35.02"/>
            <line class="cls-5" x1="17.01" y1="37.3" x2="43.73" y2="37.3"/>
            <line class="cls-5" x1="14.16" y1="37.3" x2="15.76" y2="37.3"/>
            <line class="cls-5" x1="10.85" y1="40.14" x2="23.24" y2="40.14"/>
            <line class="cls-5" x1="26.37" y1="40.14" x2="32.56" y2="40.14"/>
            <line class="cls-5" x1="21.58" y1="42.52" x2="30.92" y2="42.52"/>
            <path class="cls-3" d="M18.32,55.82c-1.16-.2-2.51-.53-2.56-1.07-.05-.57,1.38-.75.54-1.04-.84-.29-1.68.72-4.47.85"/>
            <line class="cls-5" x1="30.14" y1="23.38" x2="27.88" y2="14.93"/>
            <path class="cls-5" d="M24.35,21.85l-2.21-2.21"/>
            <path class="cls-5" d="M27.44,24.94c-.71-.71-1.42-1.42-2.13-2.13"/>
            <path class="cls-5" d="M25.89,27.64c-2.2-.59-4.4-1.18-6.6-1.77"/>
            <path class="cls-5" d="M42.73,26.24l3.23-.87"/>
            <path class="cls-5" d="M37.51,27.64c1.41-.38,2.82-.76,4.23-1.13"/>
            <path class="cls-5" d="M40.01,20.88l2.13-2.13"/>
            <path class="cls-5" d="M35.95,24.94c1.03-1.03,2.06-2.06,3.09-3.09"/>
            <path class="cls-5" d="M33.26,23.38c.57-2.14,1.15-4.28,1.72-6.42"/>
            <line class="cls-5" x1="32.22" y1="23.2" x2="32.99" y2="14.48"/>
            <path class="cls-5" d="M31.17,23.2c-.12-1.34-.23-2.68-.35-4.02"/>
            <line class="cls-5" x1="30.14" y1="23.38" x2="27.88" y2="14.93"/>
            <path class="cls-5" d="M27.19,19.53c-.47-1-.94-2.01-1.4-3.01"/>
            <path class="cls-5" d="M29.16,23.74l-1.4-3.01"/>
            <line class="cls-5" x1="28.25" y1="24.27" x2="23.23" y2="17.1"/>
            <path class="cls-5" d="M24.35,21.85c-.74-.74-1.47-1.47-2.21-2.21"/>
            <path class="cls-5" d="M27.44,24.94c-.71-.71-1.42-1.42-2.13-2.13"/>
            <path class="cls-5" d="M26.77,25.74c-1.45-1.02-2.9-2.03-4.35-3.05"/>
            <path class="cls-5" d="M21.04,24.23l-2.73-1.27"/>
            <path class="cls-5" d="M26.24,26.65l-3.97-1.85"/>
            <path class="cls-5" d="M25.89,27.64c-2.2-.59-4.4-1.18-6.6-1.77"/>
            <path class="cls-5" d="M21.69,28.32c-1.57-.14-3.14-.27-4.7-.41"/>
            <path class="cls-5" d="M25.7,28.67l-3-.26"/>
            <line class="cls-5" x1="37.69" y1="28.67" x2="46.41" y2="27.91"/>
            <path class="cls-5" d="M42.73,26.24c1.08-.29,2.16-.58,3.23-.87"/>
            <path class="cls-5" d="M37.51,27.64c1.41-.38,2.82-.76,4.23-1.13"/>
            <path class="cls-5" d="M37.15,26.65c2.21-1.03,4.41-2.06,6.62-3.09"/>
            <path class="cls-5" d="M40.72,22.87l3.07-2.15"/>
            <path class="cls-5" d="M36.63,25.74l2.47-1.73"/>
            <path class="cls-5" d="M40.01,20.88c.71-.71,1.42-1.42,2.13-2.13"/>
            <path class="cls-5" d="M35.95,24.94c1.03-1.03,2.06-2.06,3.09-3.09"/>
            <path class="cls-5" d="M35.15,24.27c.71-1.01,1.41-2.01,2.12-3.02"/>
            <path class="cls-5" d="M36.09,19.77c.62-1.32,1.23-2.64,1.85-3.97"/>
            <path class="cls-5" d="M34.24,23.74c.47-1.01.94-2.02,1.42-3.03"/>
            <path class="cls-5" d="M33.26,23.38c.57-2.14,1.15-4.28,1.72-6.42"/>
            <line class="cls-5" x1="32.22" y1="23.2" x2="32.99" y2="14.48"/>
            <path class="cls-5" d="M31.17,23.2c-.12-1.34-.23-2.68-.35-4.02"/>
            <line class="cls-5" x1="30.14" y1="23.38" x2="27.88" y2="14.93"/>
            <path class="cls-5" d="M27.19,19.53l-1.4-3.01"/>
            <path class="cls-5" d="M29.16,23.74l-1.4-3.01"/>
            <line class="cls-5" x1="28.25" y1="24.27" x2="23.23" y2="17.1"/>
            <path class="cls-5" d="M24.35,21.85l-2.21-2.21"/>
            <path class="cls-5" d="M27.44,24.94c-.71-.71-1.42-1.42-2.13-2.13"/>
            <path class="cls-2" d="M30.51,29.3c.75-.01,1.5.05,2.25.05.73,0,1.46-.05,2.19.05.01-.08.03-.17.03-.25,0-1.81-1.47-3.28-3.28-3.28s-3.25,1.45-3.27,3.24c.49,0,.98.05,1.46.13.18.03.35.07.53.1.03-.02.06-.04.1-.04Z"/>
          </g>
          <g class="cls-13">
            <g>
              <rect class="cls-14" x=".25" y=".25" width="54.82" height="72.06" rx="3.84" ry="3.84"/>
              <rect class="cls-14" x="4.94" y="4.63" width="45.5" height="62.94" rx="3.84" ry="3.84"/>
              <g>
                <path class="cls-14" d="M5.46,2.31h-.5c-.15,0-.33.1-.34.26-.04.64.6.98,1.11.98.66,0,1.19-.58,1.1-1.24-.07-.55-.59-.95-1.15-.95h-3.15s-.42,0-.42,0c-.28.02-.47.13-.5.4v.81s-.01,1.19-.02,1.19l.74-1.5s1.61-.91,1.6-.91l-1.93.02c-.27.02-.39.22-.41.49v.42s0,3.1,0,3.1c0,.56.4,1.06.97,1.14.67.09,1.26-.44,1.26-1.09,0-.5-.35-1.14-1-1.09-.17.01-.27.19-.27.33v.49"/>
                <path class="cls-14" d="M5.45,2.56c-.11,0-.46-.02-.53,0-.04.01-.06.04-.06.04,0-.01,0,.13,0,.18.39,1.11,2.23.47,1.7-.7-.29-.72-1.43-.52-2.04-.56,0,0-2.43-.04-2.43-.04-.18,0-.41.12-.4.29,0,.01-.06,2.04-.07,2.05-.03.14-.21.04-.11-.08,0,0,.74-1.49.74-1.49,0,0,.01-.02.02-.03.43-.25,1.12-.66,1.54-.9,0,0,.07-.06.01.01-.04.1.09.14.09.12,0,0-.01,0-.01,0-.06,0-1.87.04-1.92.04-.15,0-.28.16-.28.38,0-.05.03,2.41.03,2.4,0,0,.02,1.19.02,1.19.04.72.94,1.14,1.49.67.55-.37.37-1.42-.25-1.55-.11,0-.19-.04-.22.05-.01.06,0,.42,0,.52.01.32-.5.34-.5.01,0,0,0-.31,0-.31-.03-.24.05-.65.39-.74.2-.04.27-.01.42,0,1.04.27,1.22,1.74.4,2.33-.79.65-2.06.04-2.09-.96,0-.77.03-2.84.04-3.63,0-.28.22-.62.53-.61,0,0,1.89,0,1.89,0,.02,0,.05,0,.06,0,0-.02.1.05.06.13-.09.1-.06.04-.09.07-.42.23-1.11.61-1.53.84.05-.09-.74,1.49-.73,1.48,0,0-.12-.08-.11-.09-.03-.65-.04-1.27-.03-1.95,0-.14.08-.29.2-.38.13-.09.26-.11.39-.13.81,0,2.87-.05,3.65-.05,1.85.11,1.55,2.79-.27,2.54-.83-.04-1.63-1.28-.71-1.66.29-.06.43-.02.68-.03.33,0,.32.51,0,.5h0Z"/>
              </g>
              <g>
                <path class="cls-14" d="M4.34,4.43c.09,3.08.03,3.76-2.59,3.73v24.72"/>
                <path class="cls-14" d="M4.49,4.42c.22,2.37.28,4.25-2.75,3.89,0,0,.16-.16.16-.16v24.72c0,.19-.32.21-.31,0,0,0,0-24.72,0-24.72v-.16h.16c1.69-.07,2.42-.34,2.39-2.18,0,0,.04-1.39.04-1.39,0-.19.3-.2.31,0h0Z"/>
              </g>
              <g>
                <path class="cls-14" d="M4.62,4.17c3.58.14,4.02-.54,3.96-2.8h16.64"/>
                <path class="cls-14" d="M4.62,4c2.15-.06,3.93.14,3.78-2.62,0,0,0-.18,0-.18h16.82c.22,0,.23.35,0,.35,0,0-16.64,0-16.64,0,0,0,.18-.18.18-.18.42,3.02-1.77,3.19-4.14,2.98-.22-.01-.21-.35.01-.35h0Z"/>
              </g>
              <g>
                <path class="cls-14" d="M3.34,9.3c.1,21.55.09,24.79-1.84,26.88"/>
                <path class="cls-14" d="M3.42,9.3c.09,4.54.15,9.08.14,13.62,0,2.27-.02,4.54-.13,6.82-.22,2.18-.03,4.94-1.86,6.5-.07.06-.18-.03-.12-.11,1.24-1.85,1.36-4.18,1.53-6.41.13-2.26.17-4.53.19-6.79l.09-13.61c0-.1.17-.11.17,0h0Z"/>
              </g>
              <ellipse class="cls-14" cx="2.49" cy="36.18" rx=".46" ry=".26"/>
              <ellipse class="cls-14" cx="53.07" cy="36.18" rx=".46" ry=".26"/>
              <g>
                <path class="cls-14" d="M9.69,3.77c10.02,0,15.54,0,18.13-2.85"/>
                <path class="cls-14" d="M9.69,3.64c3.13-.05,6.26-.06,9.37-.23,2.89-.25,6.17-.38,8.38-2.47.08-.06.11-.18.31-.11.2.07.29.29.04.46-2.3,2.17-5.73,2.31-8.71,2.53-3.14.16-6.26.11-9.39.07-.16,0-.17-.26,0-.26h0Z"/>
              </g>
              <g>
                <path class="cls-14" d="M50.04,2.31h.5c.15,0,.33.1.34.26.04.64-.6.98-1.11.98-.66,0-1.19-.58-1.1-1.24.07-.55.59-.95,1.15-.95h3.15s.42,0,.42,0c.28.02.47.13.5.4v.81s.01,1.19.02,1.19l-.74-1.5s-1.61-.91-1.6-.91l1.93.02c.27.02.39.22.41.49v.42s0,3.1,0,3.1c0,.56-.4,1.06-.97,1.14-.67.09-1.26-.44-1.26-1.09,0-.5.35-1.14,1-1.09.17.01.27.19.27.33v.49"/>
                <path class="cls-14" d="M50.04,2.06h.31c1.4-.03.67,1.65-.34,1.69-1.82.25-2.11-2.43-.27-2.54.78,0,2.86.04,3.66.05.27,0,.59.2.59.5,0,.68,0,1.3-.03,1.95.02.01-.11.09-.11.09,0,0-.78-1.56-.73-1.48-.43-.23-1.11-.61-1.53-.84-.03-.03,0,.02-.09-.07-.04-.08.07-.15.06-.13.02,0,.04,0,.06,0,0,0,1.89-.01,1.9,0,.31,0,.53.33.52.61,0,0,.03,2.41.03,2.41v1.22c-.02,1-1.29,1.61-2.08.96-.82-.58-.64-2.06.4-2.33.28-.09.7.04.78.36.07.29.02.43.03.68,0,.32-.5.33-.5,0,0-.11.02-.47,0-.53-.02-.09-.11-.06-.22-.05-1.13.38-.47,2.15.68,1.67.75-.29.53-1.37.58-1.98,0,0,.04-2.45.03-2.4,0-.22-.13-.38-.28-.38,0,0-1.89-.04-1.89-.04,0,0-.04,0-.04,0,0,.02.13-.02.09-.12-.06-.08.01,0,.01-.01l.1.06c.26.17,1.25.7,1.46.87,0,0,.74,1.49.74,1.49.1.13-.1.23-.11.07,0,0-.06-2.07-.06-2.03,0-.2-.22-.3-.4-.3,0,0-2.43.04-2.43.04l-1.2.02c-.73.02-1.21.91-.71,1.48.42.61,1.67.31,1.6-.42-.05-.06-.15-.04-.29-.04,0,0-.3,0-.3,0-.33.01-.34-.51,0-.5h0Z"/>
              </g>
              <g>
                <path class="cls-14" d="M51.16,4.43c-.09,3.08-.03,3.76,2.59,3.73v24.72"/>
                <path class="cls-14" d="M51.32,4.43c.1,2.34-.33,3.59,2.59,3.57,0,.13,0,24.73,0,24.87,0,.19-.32.21-.31,0,0,0,0-24.72,0-24.72l.16.16c-.93.09-2.31.06-2.66-1.02-.28-.97-.16-1.9-.09-2.87.01-.19.31-.18.31,0h0Z"/>
              </g>
              <g>
                <path class="cls-14" d="M50.88,4.17c-3.58.14-4.02-.54-3.96-2.8h-16.64"/>
                <path class="cls-14" d="M50.89,4.35c-2.38.21-4.56.04-4.14-2.98,0,0,.18.18.18.18,0,0-16.64,0-16.64,0-.22,0-.23-.35,0-.35,0,0,16.64,0,16.64,0h.18s0,.18,0,.18c-.03,1.79.48,2.51,2.32,2.57.48.03.97.04,1.46.05.1,0,.18.08.18.18,0,.09-.07.17-.16.18h0Z"/>
              </g>
              <g>
                <path class="cls-14" d="M52.17,9.3c-.1,21.55-.09,24.79,1.84,26.88"/>
                <path class="cls-14" d="M52.25,9.3l.09,13.61c.02,2.27.07,4.54.19,6.79.17,2.24.28,4.57,1.53,6.41.05.07-.05.18-.12.11-1.83-1.56-1.64-4.32-1.86-6.5-.11-2.28-.13-4.55-.13-6.82-.02-4.54.05-9.08.14-13.62,0-.1.17-.11.17,0h0Z"/>
              </g>
              <g>
                <path class="cls-14" d="M45.81,3.77c-10.02,0-15.54,0-18.13-2.85"/>
                <path class="cls-14" d="M45.81,3.9c-3.13.04-6.26.09-9.39-.07-2.98-.22-6.41-.37-8.71-2.53-.06-.08-.19-.1-.13-.29.03-.09.09-.15.18-.17.2-.07.23.05.31.11,2.21,2.09,5.49,2.22,8.38,2.47,3.11.17,6.24.17,9.37.23.16,0,.17.26,0,.26h0Z"/>
              </g>
              <g>
                <path class="cls-14" d="M5.44,70.04h-.5c-.15,0-.33-.1-.34-.26-.04-.64.6-.98,1.11-.98.66,0,1.19.58,1.1,1.24-.07.55-.59.95-1.15.95h-3.15s-.42,0-.42,0c-.28-.02-.47-.13-.5-.4v-.81s-.01-1.19-.02-1.19l.74,1.5s1.61.91,1.6.91l-1.93-.02c-.27-.02-.39-.22-.41-.49v-.42s0-3.1,0-3.1c0-.56.4-1.06.97-1.14.67-.09,1.26.44,1.26,1.09,0,.5-.35,1.14-1,1.09-.17-.01-.27-.19-.27-.33v-.49"/>
                <path class="cls-14" d="M5.44,70.29s-.31,0-.31,0c-1.4.03-.67-1.64.34-1.69,1.82-.25,2.11,2.43.27,2.54-.78,0-2.86-.04-3.66-.05-.27,0-.59-.2-.59-.5,0-.68,0-1.3.03-1.95-.02-.01.11-.09.11-.09,0,0,.78,1.56.73,1.48.43.23,1.11.61,1.53.84.03.03,0-.02.09.07.04.08-.07.15-.06.13-.02,0-.04,0-.06,0,0,0-1.89.01-1.9,0-.31,0-.53-.33-.52-.61,0,0-.03-2.41-.03-2.41v-1.22c.15-1.81,2.84-1.49,2.58.31-.03.97-1.75,1.71-1.71.32,0,0,0-.3,0-.3,0-.32.5-.33.5,0,0,.11-.02.47,0,.53.02.09.11.06.22.05,1.13-.38.47-2.15-.68-1.67-.75.29-.53,1.37-.58,1.98,0,0-.04,2.45-.03,2.4,0,.22.13.38.28.38,0,0,1.89.04,1.89.04h.03s.03,0,0,0c0-.02-.11.04-.08.13.06.08-.01,0-.01.01l-.1-.06c-.26-.17-1.25-.7-1.46-.87,0,0-.74-1.49-.74-1.49-.1-.13.1-.23.11-.07,0,0,.06,2.07.06,2.03,0,.2.22.3.4.3,0,0,2.43-.04,2.43-.04l1.2-.02c.73-.02,1.21-.91.71-1.48-.42-.61-1.67-.31-1.6.42.05.06.15.04.29.04,0,0,.3,0,.3,0,.33-.01.34.51,0,.5h0Z"/>
              </g>
              <g>
                <path class="cls-14" d="M4.32,67.93c.09-3.08.03-3.76-2.59-3.73v-24.72"/>
                <path class="cls-14" d="M4.16,67.92c-.1-2.34.33-3.59-2.59-3.57,0,0,0-.16,0-.16v-24.72c0-.19.32-.21.31,0,0,0,0,24.72,0,24.72l-.16-.16c.93-.09,2.31-.06,2.66,1.02.28.97.16,1.9.09,2.87-.01.19-.31.18-.31,0h0Z"/>
              </g>
              <g>
                <path class="cls-14" d="M4.6,68.18c3.58-.14,4.02.54,3.96,2.8h16.64"/>
                <path class="cls-14" d="M4.59,68.01c2.38-.21,4.56-.04,4.14,2.98,0,0-.18-.18-.18-.18,0,0,16.64,0,16.64,0,.22,0,.23.35,0,.35,0,0-16.64,0-16.64,0h-.18s0-.18,0-.18c.03-1.79-.48-2.51-2.32-2.57-.48-.03-.97-.04-1.46-.05-.1,0-.18-.08-.18-.18,0-.09.07-.17.16-.18h0Z"/>
              </g>
              <g>
                <path class="cls-14" d="M3.31,63.06c.1-21.55.09-24.79-1.84-26.88"/>
                <path class="cls-14" d="M3.23,63.06l-.09-13.61c-.02-2.27-.07-4.54-.19-6.79-.17-2.24-.28-4.57-1.53-6.41-.05-.07.05-.18.12-.11,1.83,1.56,1.64,4.32,1.86,6.5.11,2.28.13,4.55.13,6.82.02,4.54-.05,9.08-.14,13.62,0,.1-.17.11-.17,0h0Z"/>
              </g>
              <ellipse class="cls-14" cx="2.47" cy="36.18" rx=".46" ry=".26"/>
              <ellipse class="cls-14" cx="53.05" cy="36.18" rx=".46" ry=".26"/>
              <g>
                <path class="cls-14" d="M9.67,68.58c10.02,0,15.54,0,18.13,2.85"/>
                <path class="cls-14" d="M9.67,68.45c3.13-.04,6.26-.09,9.39.07,2.98.22,6.41.37,8.71,2.53.06.08.19.1.13.29-.03.09-.09.15-.18.17-.2.07-.23-.05-.31-.11-2.21-2.09-5.49-2.22-8.38-2.47-3.11-.17-6.24-.17-9.37-.23-.16,0-.17-.26,0-.26h0Z"/>
              </g>
              <path class="cls-14" d="M49.02,56.08c-2.26-.27-4.03-.62-3.99.59.02.78.97.62,1.36,1.59.6,1.51-2.19,2.08-2.64,1.1-.5-1.08-2.48-2.29-4.04-2.38-2.8-.17-3,1.44-3.73,1.57-1.8.31-1.82-.28-4.27.14-2.76.47-.78,1.81-2.88,2.27-6.34,1.38-14.39.84-14.66-.54-.11-.52.88-.9.74-1.38-.28-.96-4.56-.58-8.69,0"/>
              <path class="cls-14" d="M49.02,53.36c-2.26-.27-1.84-.74-3.09-.28-.95.35-.26.89-1.6,1.31-1.41.45-1.28-.62-2.31-.29q-.76.24-2.33.15c-2.8-.17-3,1.44-3.73,1.57-1.8.31-1.82-.28-4.27.14-2.76.47-.78,1.81-2.88,2.27-6.34,1.38-11.94.7-12.22-.68-.11-.52-1.56-.75-1.7-1.23-.28-.96-4.56-.58-8.69,0"/>
              <path class="cls-14" d="M48.85,50.44c-1.74-.31-2.84.9-4.95,1.03-.8.05-2.63-.16-4.19-.25-2.8-.17-4.92.29-6.03.74-1.58.64-.96,3.02-3.41,3.44-2.76.47-.19,1.79-7.83.54"/>
              <g>
                <path class="cls-14" d="M50.02,70.04h.5c.15,0,.33-.1.34-.26.04-.64-.6-.98-1.11-.98-.66,0-1.19.58-1.1,1.24.07.55.59.95,1.15.95h3.15s.42,0,.42,0c.28-.02.47-.13.5-.4v-.81s.01-1.19.02-1.19l-.74,1.5s-1.61.91-1.6.91l1.93-.02c.27-.02.39-.22.41-.49v-.42s0-3.1,0-3.1c0-.56-.4-1.06-.97-1.14-.67-.09-1.26.44-1.26,1.09,0,.5.35,1.14,1,1.09.17-.01.27-.19.27-.33v-.49"/>
                <path class="cls-14" d="M50.03,69.79c.11,0,.46.02.53,0,.04-.01.06-.04.06-.04,0,.01,0-.13,0-.18-.39-1.11-2.23-.47-1.7.7.29.72,1.43.52,2.04.56,0,0,2.43.04,2.43.04.18,0,.41-.12.4-.29,0-.01.06-2.04.07-2.05.03-.14.21-.04.11.08,0,0-.74,1.49-.74,1.49,0,0-.01.02-.02.03-.43.25-1.12.66-1.54.9,0,0-.07.06-.01-.01.04-.1-.09-.14-.09-.12,0,0,.01,0,.01,0,.06,0,1.87-.04,1.92-.04.15,0,.28-.16.28-.38,0,.05-.03-2.41-.03-2.4,0,0-.02-1.19-.02-1.19-.04-.72-.94-1.14-1.49-.67-.55.37-.37,1.42.25,1.55.11,0,.19.04.22-.05.01-.06,0-.42,0-.52-.01-.32.5-.34.5-.01,0,0,0,.31,0,.31.03.24-.05.65-.39.74-.2.04-.27.01-.42,0-1.04-.27-1.22-1.74-.4-2.33.79-.65,2.06-.04,2.09.96,0,.77-.03,2.84-.04,3.63,0,.28-.22.62-.53.61,0,0-1.89,0-1.89,0-.02,0-.05,0-.06,0,0,.02-.1-.05-.06-.13.09-.1.06-.04.09-.07.42-.23,1.11-.61,1.53-.84-.05.09.74-1.49.73-1.48,0,0,.11.08.11.08h0c.03.66.04,1.28.03,1.96,0,.14-.08.29-.2.38-.13.09-.26.11-.39.13-.81,0-2.87.05-3.65.05-1.85-.11-1.55-2.79.27-2.54.83.04,1.63,1.28.71,1.66-.29.06-.43.02-.68.03-.33,0-.32-.51,0-.5h0Z"/>
              </g>
              <g>
                <path class="cls-14" d="M51.14,67.93c-.09-3.08-.03-3.76,2.59-3.73v-24.72"/>
                <path class="cls-14" d="M50.99,67.93c-.22-2.37-.28-4.25,2.75-3.89,0,0-.16.16-.16.16v-24.72c0-.19.32-.21.31,0,0,0,0,24.72,0,24.72v.16h-.16c-1.69.07-2.42.34-2.39,2.18,0,0-.04,1.39-.04,1.39,0,.19-.3.2-.31,0h0Z"/>
              </g>
              <g>
                <path class="cls-14" d="M50.86,68.18c-3.58-.14-4.02.54-3.96,2.8h-16.64"/>
                <path class="cls-14" d="M50.86,68.36c-2.15.06-3.93-.14-3.78,2.62,0,0,0,.18,0,.18h-16.82c-.22,0-.23-.35,0-.35,0,0,16.64,0,16.64,0,0,0-.18.18-.18.18-.42-3.02,1.77-3.19,4.14-2.98.22.01.21.35-.01.35h0Z"/>
              </g>
              <g>
                <path class="cls-14" d="M52.14,63.06c-.1-21.55-.09-24.79,1.84-26.88"/>
                <path class="cls-14" d="M52.06,63.06c-.09-4.54-.15-9.08-.14-13.62,0-2.27.02-4.54.13-6.82.22-2.18.03-4.94,1.86-6.5.07-.06.18.03.12.11-1.24,1.85-1.36,4.18-1.53,6.41-.13,2.26-.17,4.53-.19,6.79l-.09,13.61c0,.1-.17.11-.17,0h0Z"/>
              </g>
              <g>
                <path class="cls-14" d="M45.79,68.58c-10.02,0-15.54,0-18.13,2.85"/>
                <path class="cls-14" d="M45.79,68.71c-3.13.05-6.26.06-9.37.23-2.89.25-6.17.38-8.38,2.47-.08.06-.11.18-.31.11-.2-.07-.29-.29-.04-.46,2.3-2.17,5.73-2.31,8.71-2.53,3.14-.16,6.26-.11,9.39-.07.16,0,.17.26,0,.26h0Z"/>
              </g>
            </g>
            <line class="cls-14" x1="32.56" y1="34.04" x2="50.51" y2="34.04"/>
            <line class="cls-14" x1="8.76" y1="34.05" x2="31.7" y2="34.04"/>
            <line class="cls-14" x1="39.76" y1="35.05" x2="50.44" y2="35.05"/>
            <line class="cls-14" x1="12.97" y1="34.98" x2="34.96" y2="35.02"/>
            <line class="cls-14" x1="17.01" y1="37.3" x2="43.73" y2="37.3"/>
            <line class="cls-14" x1="14.16" y1="37.3" x2="15.76" y2="37.3"/>
            <path class="cls-14" d="M18.32,55.82c-1.16-.2-2.51-.53-2.56-1.07-.05-.57,1.38-.75.54-1.04-.84-.29-1.68.72-4.47.85"/>
            <line class="cls-14" x1="30.14" y1="23.38" x2="27.88" y2="14.93"/>
            <path class="cls-14" d="M24.35,21.85l-2.21-2.21"/>
            <path class="cls-14" d="M27.44,24.94c-.71-.71-1.42-1.42-2.13-2.13"/>
            <path class="cls-14" d="M25.89,27.64c-2.2-.59-4.4-1.18-6.6-1.77"/>
            <path class="cls-14" d="M42.73,26.24l3.23-.87"/>
            <path class="cls-14" d="M37.51,27.64c1.41-.38,2.82-.76,4.23-1.13"/>
            <path class="cls-14" d="M40.01,20.88l2.13-2.13"/>
            <path class="cls-14" d="M35.95,24.94c1.03-1.03,2.06-2.06,3.09-3.09"/>
            <path class="cls-14" d="M33.26,23.38c.57-2.14,1.15-4.28,1.72-6.42"/>
            <line class="cls-14" x1="32.22" y1="23.2" x2="32.99" y2="14.48"/>
            <path class="cls-14" d="M31.17,23.2c-.12-1.34-.23-2.68-.35-4.02"/>
            <line class="cls-14" x1="30.14" y1="23.38" x2="27.88" y2="14.93"/>
            <path class="cls-14" d="M27.19,19.53c-.47-1-.94-2.01-1.4-3.01"/>
            <path class="cls-14" d="M29.16,23.74l-1.4-3.01"/>
            <line class="cls-14" x1="28.25" y1="24.27" x2="23.23" y2="17.1"/>
            <path class="cls-14" d="M24.35,21.85c-.74-.74-1.47-1.47-2.21-2.21"/>
            <path class="cls-14" d="M27.44,24.94c-.71-.71-1.42-1.42-2.13-2.13"/>
            <path class="cls-14" d="M26.77,25.74c-1.45-1.02-2.9-2.03-4.35-3.05"/>
            <path class="cls-14" d="M21.04,24.23l-2.73-1.27"/>
            <path class="cls-14" d="M26.24,26.65l-3.97-1.85"/>
            <path class="cls-14" d="M25.89,27.64c-2.2-.59-4.4-1.18-6.6-1.77"/>
            <path class="cls-14" d="M21.69,28.32c-1.57-.14-3.14-.27-4.7-.41"/>
            <path class="cls-14" d="M25.7,28.67l-3-.26"/>
            <line class="cls-14" x1="37.69" y1="28.67" x2="46.41" y2="27.91"/>
            <path class="cls-14" d="M42.73,26.24c1.08-.29,2.16-.58,3.23-.87"/>
            <path class="cls-14" d="M37.51,27.64c1.41-.38,2.82-.76,4.23-1.13"/>
            <path class="cls-14" d="M37.15,26.65c2.21-1.03,4.41-2.06,6.62-3.09"/>
            <path class="cls-14" d="M40.72,22.87l3.07-2.15"/>
            <path class="cls-14" d="M36.63,25.74l2.47-1.73"/>
            <path class="cls-14" d="M40.01,20.88c.71-.71,1.42-1.42,2.13-2.13"/>
            <path class="cls-14" d="M35.95,24.94c1.03-1.03,2.06-2.06,3.09-3.09"/>
            <path class="cls-14" d="M35.15,24.27c.71-1.01,1.41-2.01,2.12-3.02"/>
            <path class="cls-14" d="M36.09,19.77c.62-1.32,1.23-2.64,1.85-3.97"/>
            <path class="cls-14" d="M34.24,23.74c.47-1.01.94-2.02,1.42-3.03"/>
            <path class="cls-14" d="M33.26,23.38c.57-2.14,1.15-4.28,1.72-6.42"/>
            <line class="cls-14" x1="32.22" y1="23.2" x2="32.99" y2="14.48"/>
            <path class="cls-14" d="M31.17,23.2c-.12-1.34-.23-2.68-.35-4.02"/>
            <line class="cls-14" x1="30.14" y1="23.38" x2="27.88" y2="14.93"/>
            <path class="cls-14" d="M27.19,19.53l-1.4-3.01"/>
            <path class="cls-14" d="M29.16,23.74l-1.4-3.01"/>
            <line class="cls-14" x1="28.25" y1="24.27" x2="23.23" y2="17.1"/>
            <path class="cls-14" d="M24.35,21.85l-2.21-2.21"/>
            <path class="cls-14" d="M27.44,24.94c-.71-.71-1.42-1.42-2.13-2.13"/>
            <path class="cls-14" d="M30.51,29.3c.75-.01,1.5.05,2.25.05.73,0,1.46-.05,2.19.05.01-.08.03-.17.03-.25,0-1.81-1.47-3.28-3.28-3.28s-3.25,1.45-3.27,3.24c.49,0,.98.05,1.46.13.18.03.35.07.53.1.03-.02.06-.04.1-.04Z"/>
          </g>
          <g class="cls-11">
            <g>
              <rect class="cls-15" x=".25" y=".25" width="54.82" height="72.06" rx="3.84" ry="3.84"/>
              <rect class="cls-15" x="4.94" y="4.63" width="45.5" height="62.94" rx="3.84" ry="3.84"/>
              <g>
                <path class="cls-15" d="M5.46,2.31h-.5c-.15,0-.33.1-.34.26-.04.64.6.98,1.11.98.66,0,1.19-.58,1.1-1.24-.07-.55-.59-.95-1.15-.95h-3.15s-.42,0-.42,0c-.28.02-.47.13-.5.4v.81s-.01,1.19-.02,1.19l.74-1.5s1.61-.91,1.6-.91l-1.93.02c-.27.02-.39.22-.41.49v.42s0,3.1,0,3.1c0,.56.4,1.06.97,1.14.67.09,1.26-.44,1.26-1.09,0-.5-.35-1.14-1-1.09-.17.01-.27.19-.27.33v.49"/>
                <path class="cls-15" d="M5.45,2.56c-.11,0-.46-.02-.53,0-.04.01-.06.04-.06.04,0-.01,0,.13,0,.18.39,1.11,2.23.47,1.7-.7-.29-.72-1.43-.52-2.04-.56,0,0-2.43-.04-2.43-.04-.18,0-.41.12-.4.29,0,.01-.06,2.04-.07,2.05-.03.14-.21.04-.11-.08,0,0,.74-1.49.74-1.49,0,0,.01-.02.02-.03.43-.25,1.12-.66,1.54-.9,0,0,.07-.06.01.01-.04.1.09.14.09.12,0,0-.01,0-.01,0-.06,0-1.87.04-1.92.04-.15,0-.28.16-.28.38,0-.05.03,2.41.03,2.4,0,0,.02,1.19.02,1.19.04.72.94,1.14,1.49.67.55-.37.37-1.42-.25-1.55-.11,0-.19-.04-.22.05-.01.06,0,.42,0,.52.01.32-.5.34-.5.01,0,0,0-.31,0-.31-.03-.24.05-.65.39-.74.2-.04.27-.01.42,0,1.04.27,1.22,1.74.4,2.33-.79.65-2.06.04-2.09-.96,0-.77.03-2.84.04-3.63,0-.28.22-.62.53-.61,0,0,1.89,0,1.89,0,.02,0,.05,0,.06,0,0-.02.1.05.06.13-.09.1-.06.04-.09.07-.42.23-1.11.61-1.53.84.05-.09-.74,1.49-.73,1.48,0,0-.12-.08-.11-.09-.03-.65-.04-1.27-.03-1.95,0-.14.08-.29.2-.38.13-.09.26-.11.39-.13.81,0,2.87-.05,3.65-.05,1.85.11,1.55,2.79-.27,2.54-.83-.04-1.63-1.28-.71-1.66.29-.06.43-.02.68-.03.33,0,.32.51,0,.5h0Z"/>
              </g>
              <g>
                <path class="cls-15" d="M4.34,4.43c.09,3.08.03,3.76-2.59,3.73v24.72"/>
                <path class="cls-15" d="M4.49,4.42c.22,2.37.28,4.25-2.75,3.89,0,0,.16-.16.16-.16v24.72c0,.19-.32.21-.31,0,0,0,0-24.72,0-24.72v-.16h.16c1.69-.07,2.42-.34,2.39-2.18,0,0,.04-1.39.04-1.39,0-.19.3-.2.31,0h0Z"/>
              </g>
              <g>
                <path class="cls-15" d="M4.62,4.17c3.58.14,4.02-.54,3.96-2.8h16.64"/>
                <path class="cls-15" d="M4.62,4c2.15-.06,3.93.14,3.78-2.62,0,0,0-.18,0-.18h16.82c.22,0,.23.35,0,.35,0,0-16.64,0-16.64,0,0,0,.18-.18.18-.18.42,3.02-1.77,3.19-4.14,2.98-.22-.01-.21-.35.01-.35h0Z"/>
              </g>
              <g>
                <path class="cls-15" d="M3.34,9.3c.1,21.55.09,24.79-1.84,26.88"/>
                <path class="cls-15" d="M3.42,9.3c.09,4.54.15,9.08.14,13.62,0,2.27-.02,4.54-.13,6.82-.22,2.18-.03,4.94-1.86,6.5-.07.06-.18-.03-.12-.11,1.24-1.85,1.36-4.18,1.53-6.41.13-2.26.17-4.53.19-6.79l.09-13.61c0-.1.17-.11.17,0h0Z"/>
              </g>
              <ellipse class="cls-15" cx="2.49" cy="36.18" rx=".46" ry=".26"/>
              <ellipse class="cls-15" cx="53.07" cy="36.18" rx=".46" ry=".26"/>
              <g>
                <path class="cls-15" d="M9.69,3.77c10.02,0,15.54,0,18.13-2.85"/>
                <path class="cls-15" d="M9.69,3.64c3.13-.05,6.26-.06,9.37-.23,2.89-.25,6.17-.38,8.38-2.47.08-.06.11-.18.31-.11.2.07.29.29.04.46-2.3,2.17-5.73,2.31-8.71,2.53-3.14.16-6.26.11-9.39.07-.16,0-.17-.26,0-.26h0Z"/>
              </g>
              <g>
                <path class="cls-15" d="M50.04,2.31h.5c.15,0,.33.1.34.26.04.64-.6.98-1.11.98-.66,0-1.19-.58-1.1-1.24.07-.55.59-.95,1.15-.95h3.15s.42,0,.42,0c.28.02.47.13.5.4v.81s.01,1.19.02,1.19l-.74-1.5s-1.61-.91-1.6-.91l1.93.02c.27.02.39.22.41.49v.42s0,3.1,0,3.1c0,.56-.4,1.06-.97,1.14-.67.09-1.26-.44-1.26-1.09,0-.5.35-1.14,1-1.09.17.01.27.19.27.33v.49"/>
                <path class="cls-15" d="M50.04,2.06h.31c1.4-.03.67,1.65-.34,1.69-1.82.25-2.11-2.43-.27-2.54.78,0,2.86.04,3.66.05.27,0,.59.2.59.5,0,.68,0,1.3-.03,1.95.02.01-.11.09-.11.09,0,0-.78-1.56-.73-1.48-.43-.23-1.11-.61-1.53-.84-.03-.03,0,.02-.09-.07-.04-.08.07-.15.06-.13.02,0,.04,0,.06,0,0,0,1.89-.01,1.9,0,.31,0,.53.33.52.61,0,0,.03,2.41.03,2.41v1.22c-.02,1-1.29,1.61-2.08.96-.82-.58-.64-2.06.4-2.33.28-.09.7.04.78.36.07.29.02.43.03.68,0,.32-.5.33-.5,0,0-.11.02-.47,0-.53-.02-.09-.11-.06-.22-.05-1.13.38-.47,2.15.68,1.67.75-.29.53-1.37.58-1.98,0,0,.04-2.45.03-2.4,0-.22-.13-.38-.28-.38,0,0-1.89-.04-1.89-.04,0,0-.04,0-.04,0,0,.02.13-.02.09-.12-.06-.08.01,0,.01-.01l.1.06c.26.17,1.25.7,1.46.87,0,0,.74,1.49.74,1.49.1.13-.1.23-.11.07,0,0-.06-2.07-.06-2.03,0-.2-.22-.3-.4-.3,0,0-2.43.04-2.43.04l-1.2.02c-.73.02-1.21.91-.71,1.48.42.61,1.67.31,1.6-.42-.05-.06-.15-.04-.29-.04,0,0-.3,0-.3,0-.33.01-.34-.51,0-.5h0Z"/>
              </g>
              <g>
                <path class="cls-15" d="M51.16,4.43c-.09,3.08-.03,3.76,2.59,3.73v24.72"/>
                <path class="cls-15" d="M51.32,4.43c.1,2.34-.33,3.59,2.59,3.57,0,.13,0,24.73,0,24.87,0,.19-.32.21-.31,0,0,0,0-24.72,0-24.72l.16.16c-.93.09-2.31.06-2.66-1.02-.28-.97-.16-1.9-.09-2.87.01-.19.31-.18.31,0h0Z"/>
              </g>
              <g>
                <path class="cls-15" d="M50.88,4.17c-3.58.14-4.02-.54-3.96-2.8h-16.64"/>
                <path class="cls-15" d="M50.89,4.35c-2.38.21-4.56.04-4.14-2.98,0,0,.18.18.18.18,0,0-16.64,0-16.64,0-.22,0-.23-.35,0-.35,0,0,16.64,0,16.64,0h.18s0,.18,0,.18c-.03,1.79.48,2.51,2.32,2.57.48.03.97.04,1.46.05.1,0,.18.08.18.18,0,.09-.07.17-.16.18h0Z"/>
              </g>
              <g>
                <path class="cls-15" d="M52.17,9.3c-.1,21.55-.09,24.79,1.84,26.88"/>
                <path class="cls-15" d="M52.25,9.3l.09,13.61c.02,2.27.07,4.54.19,6.79.17,2.24.28,4.57,1.53,6.41.05.07-.05.18-.12.11-1.83-1.56-1.64-4.32-1.86-6.5-.11-2.28-.13-4.55-.13-6.82-.02-4.54.05-9.08.14-13.62,0-.1.17-.11.17,0h0Z"/>
              </g>
              <g>
                <path class="cls-15" d="M45.81,3.77c-10.02,0-15.54,0-18.13-2.85"/>
                <path class="cls-15" d="M45.81,3.9c-3.13.04-6.26.09-9.39-.07-2.98-.22-6.41-.37-8.71-2.53-.06-.08-.19-.1-.13-.29.03-.09.09-.15.18-.17.2-.07.23.05.31.11,2.21,2.09,5.49,2.22,8.38,2.47,3.11.17,6.24.17,9.37.23.16,0,.17.26,0,.26h0Z"/>
              </g>
              <g>
                <path class="cls-15" d="M5.44,70.04h-.5c-.15,0-.33-.1-.34-.26-.04-.64.6-.98,1.11-.98.66,0,1.19.58,1.1,1.24-.07.55-.59.95-1.15.95h-3.15s-.42,0-.42,0c-.28-.02-.47-.13-.5-.4v-.81s-.01-1.19-.02-1.19l.74,1.5s1.61.91,1.6.91l-1.93-.02c-.27-.02-.39-.22-.41-.49v-.42s0-3.1,0-3.1c0-.56.4-1.06.97-1.14.67-.09,1.26.44,1.26,1.09,0,.5-.35,1.14-1,1.09-.17-.01-.27-.19-.27-.33v-.49"/>
                <path class="cls-15" d="M5.44,70.29s-.31,0-.31,0c-1.4.03-.67-1.64.34-1.69,1.82-.25,2.11,2.43.27,2.54-.78,0-2.86-.04-3.66-.05-.27,0-.59-.2-.59-.5,0-.68,0-1.3.03-1.95-.02-.01.11-.09.11-.09,0,0,.78,1.56.73,1.48.43.23,1.11.61,1.53.84.03.03,0-.02.09.07.04.08-.07.15-.06.13-.02,0-.04,0-.06,0,0,0-1.89.01-1.9,0-.31,0-.53-.33-.52-.61,0,0-.03-2.41-.03-2.41v-1.22c.15-1.81,2.84-1.49,2.58.31-.03.97-1.75,1.71-1.71.32,0,0,0-.3,0-.3,0-.32.5-.33.5,0,0,.11-.02.47,0,.53.02.09.11.06.22.05,1.13-.38.47-2.15-.68-1.67-.75.29-.53,1.37-.58,1.98,0,0-.04,2.45-.03,2.4,0,.22.13.38.28.38,0,0,1.89.04,1.89.04h.03s.03,0,0,0c0-.02-.11.04-.08.13.06.08-.01,0-.01.01l-.1-.06c-.26-.17-1.25-.7-1.46-.87,0,0-.74-1.49-.74-1.49-.1-.13.1-.23.11-.07,0,0,.06,2.07.06,2.03,0,.2.22.3.4.3,0,0,2.43-.04,2.43-.04l1.2-.02c.73-.02,1.21-.91.71-1.48-.42-.61-1.67-.31-1.6.42.05.06.15.04.29.04,0,0,.3,0,.3,0,.33-.01.34.51,0,.5h0Z"/>
              </g>
              <g>
                <path class="cls-15" d="M4.32,67.93c.09-3.08.03-3.76-2.59-3.73v-24.72"/>
                <path class="cls-15" d="M4.16,67.92c-.1-2.34.33-3.59-2.59-3.57,0,0,0-.16,0-.16v-24.72c0-.19.32-.21.31,0,0,0,0,24.72,0,24.72l-.16-.16c.93-.09,2.31-.06,2.66,1.02.28.97.16,1.9.09,2.87-.01.19-.31.18-.31,0h0Z"/>
              </g>
              <g>
                <path class="cls-15" d="M4.6,68.18c3.58-.14,4.02.54,3.96,2.8h16.64"/>
                <path class="cls-15" d="M4.59,68.01c2.38-.21,4.56-.04,4.14,2.98,0,0-.18-.18-.18-.18,0,0,16.64,0,16.64,0,.22,0,.23.35,0,.35,0,0-16.64,0-16.64,0h-.18s0-.18,0-.18c.03-1.79-.48-2.51-2.32-2.57-.48-.03-.97-.04-1.46-.05-.1,0-.18-.08-.18-.18,0-.09.07-.17.16-.18h0Z"/>
              </g>
              <g>
                <path class="cls-15" d="M3.31,63.06c.1-21.55.09-24.79-1.84-26.88"/>
                <path class="cls-15" d="M3.23,63.06l-.09-13.61c-.02-2.27-.07-4.54-.19-6.79-.17-2.24-.28-4.57-1.53-6.41-.05-.07.05-.18.12-.11,1.83,1.56,1.64,4.32,1.86,6.5.11,2.28.13,4.55.13,6.82.02,4.54-.05,9.08-.14,13.62,0,.1-.17.11-.17,0h0Z"/>
              </g>
              <ellipse class="cls-15" cx="2.47" cy="36.18" rx=".46" ry=".26"/>
              <ellipse class="cls-15" cx="53.05" cy="36.18" rx=".46" ry=".26"/>
              <g>
                <path class="cls-15" d="M9.67,68.58c10.02,0,15.54,0,18.13,2.85"/>
                <path class="cls-15" d="M9.67,68.45c3.13-.04,6.26-.09,9.39.07,2.98.22,6.41.37,8.71,2.53.06.08.19.1.13.29-.03.09-.09.15-.18.17-.2.07-.23-.05-.31-.11-2.21-2.09-5.49-2.22-8.38-2.47-3.11-.17-6.24-.17-9.37-.23-.16,0-.17-.26,0-.26h0Z"/>
              </g>
              <path class="cls-15" d="M49.02,56.08c-2.26-.27-4.03-.62-3.99.59.02.78.97.62,1.36,1.59.6,1.51-2.19,2.08-2.64,1.1-.5-1.08-2.48-2.29-4.04-2.38-2.8-.17-3,1.44-3.73,1.57-1.8.31-1.82-.28-4.27.14-2.76.47-.78,1.81-2.88,2.27-6.34,1.38-14.39.84-14.66-.54-.11-.52.88-.9.74-1.38-.28-.96-4.56-.58-8.69,0"/>
              <path class="cls-15" d="M49.02,53.36c-2.26-.27-1.84-.74-3.09-.28-.95.35-.26.89-1.6,1.31-1.41.45-1.28-.62-2.31-.29q-.76.24-2.33.15c-2.8-.17-3,1.44-3.73,1.57-1.8.31-1.82-.28-4.27.14-2.76.47-.78,1.81-2.88,2.27-6.34,1.38-11.94.7-12.22-.68-.11-.52-1.56-.75-1.7-1.23-.28-.96-4.56-.58-8.69,0"/>
              <path class="cls-15" d="M48.85,50.44c-1.74-.31-2.84.9-4.95,1.03-.8.05-2.63-.16-4.19-.25-2.8-.17-4.92.29-6.03.74-1.58.64-.96,3.02-3.41,3.44-2.76.47-.19,1.79-7.83.54"/>
              <g>
                <path class="cls-15" d="M50.02,70.04h.5c.15,0,.33-.1.34-.26.04-.64-.6-.98-1.11-.98-.66,0-1.19.58-1.1,1.24.07.55.59.95,1.15.95h3.15s.42,0,.42,0c.28-.02.47-.13.5-.4v-.81s.01-1.19.02-1.19l-.74,1.5s-1.61.91-1.6.91l1.93-.02c.27-.02.39-.22.41-.49v-.42s0-3.1,0-3.1c0-.56-.4-1.06-.97-1.14-.67-.09-1.26.44-1.26,1.09,0,.5.35,1.14,1,1.09.17-.01.27-.19.27-.33v-.49"/>
                <path class="cls-15" d="M50.03,69.79c.11,0,.46.02.53,0,.04-.01.06-.04.06-.04,0,.01,0-.13,0-.18-.39-1.11-2.23-.47-1.7.7.29.72,1.43.52,2.04.56,0,0,2.43.04,2.43.04.18,0,.41-.12.4-.29,0-.01.06-2.04.07-2.05.03-.14.21-.04.11.08,0,0-.74,1.49-.74,1.49,0,0-.01.02-.02.03-.43.25-1.12.66-1.54.9,0,0-.07.06-.01-.01.04-.1-.09-.14-.09-.12,0,0,.01,0,.01,0,.06,0,1.87-.04,1.92-.04.15,0,.28-.16.28-.38,0,.05-.03-2.41-.03-2.4,0,0-.02-1.19-.02-1.19-.04-.72-.94-1.14-1.49-.67-.55.37-.37,1.42.25,1.55.11,0,.19.04.22-.05.01-.06,0-.42,0-.52-.01-.32.5-.34.5-.01,0,0,0,.31,0,.31.03.24-.05.65-.39.74-.2.04-.27.01-.42,0-1.04-.27-1.22-1.74-.4-2.33.79-.65,2.06-.04,2.09.96,0,.77-.03,2.84-.04,3.63,0,.28-.22.62-.53.61,0,0-1.89,0-1.89,0-.02,0-.05,0-.06,0,0,.02-.1-.05-.06-.13.09-.1.06-.04.09-.07.42-.23,1.11-.61,1.53-.84-.05.09.74-1.49.73-1.48,0,0,.11.08.11.08h0c.03.66.04,1.28.03,1.96,0,.14-.08.29-.2.38-.13.09-.26.11-.39.13-.81,0-2.87.05-3.65.05-1.85-.11-1.55-2.79.27-2.54.83.04,1.63,1.28.71,1.66-.29.06-.43.02-.68.03-.33,0-.32-.51,0-.5h0Z"/>
              </g>
              <g>
                <path class="cls-15" d="M51.14,67.93c-.09-3.08-.03-3.76,2.59-3.73v-24.72"/>
                <path class="cls-15" d="M50.99,67.93c-.22-2.37-.28-4.25,2.75-3.89,0,0-.16.16-.16.16v-24.72c0-.19.32-.21.31,0,0,0,0,24.72,0,24.72v.16h-.16c-1.69.07-2.42.34-2.39,2.18,0,0-.04,1.39-.04,1.39,0,.19-.3.2-.31,0h0Z"/>
              </g>
              <g>
                <path class="cls-15" d="M50.86,68.18c-3.58-.14-4.02.54-3.96,2.8h-16.64"/>
                <path class="cls-15" d="M50.86,68.36c-2.15.06-3.93-.14-3.78,2.62,0,0,0,.18,0,.18h-16.82c-.22,0-.23-.35,0-.35,0,0,16.64,0,16.64,0,0,0-.18.18-.18.18-.42-3.02,1.77-3.19,4.14-2.98.22.01.21.35-.01.35h0Z"/>
              </g>
              <g>
                <path class="cls-15" d="M52.14,63.06c-.1-21.55-.09-24.79,1.84-26.88"/>
                <path class="cls-15" d="M52.06,63.06c-.09-4.54-.15-9.08-.14-13.62,0-2.27.02-4.54.13-6.82.22-2.18.03-4.94,1.86-6.5.07-.06.18.03.12.11-1.24,1.85-1.36,4.18-1.53,6.41-.13,2.26-.17,4.53-.19,6.79l-.09,13.61c0,.1-.17.11-.17,0h0Z"/>
              </g>
              <g>
                <path class="cls-15" d="M45.79,68.58c-10.02,0-15.54,0-18.13,2.85"/>
                <path class="cls-15" d="M45.79,68.71c-3.13.05-6.26.06-9.37.23-2.89.25-6.17.38-8.38,2.47-.08.06-.11.18-.31.11-.2-.07-.29-.29-.04-.46,2.3-2.17,5.73-2.31,8.71-2.53,3.14-.16,6.26-.11,9.39-.07.16,0,.17.26,0,.26h0Z"/>
              </g>
            </g>
            <line class="cls-15" x1="32.56" y1="34.04" x2="50.51" y2="34.04"/>
            <line class="cls-15" x1="8.76" y1="34.05" x2="31.7" y2="34.04"/>
            <line class="cls-15" x1="39.76" y1="35.05" x2="50.44" y2="35.05"/>
            <line class="cls-15" x1="12.97" y1="34.98" x2="34.96" y2="35.02"/>
            <line class="cls-15" x1="17.01" y1="37.3" x2="43.73" y2="37.3"/>
            <line class="cls-15" x1="14.16" y1="37.3" x2="15.76" y2="37.3"/>
            <path class="cls-15" d="M18.32,55.82c-1.16-.2-2.51-.53-2.56-1.07-.05-.57,1.38-.75.54-1.04-.84-.29-1.68.72-4.47.85"/>
            <line class="cls-15" x1="30.14" y1="23.38" x2="27.88" y2="14.93"/>
            <path class="cls-15" d="M24.35,21.85l-2.21-2.21"/>
            <path class="cls-15" d="M27.44,24.94c-.71-.71-1.42-1.42-2.13-2.13"/>
            <path class="cls-15" d="M25.89,27.64c-2.2-.59-4.4-1.18-6.6-1.77"/>
            <path class="cls-15" d="M42.73,26.24l3.23-.87"/>
            <path class="cls-15" d="M37.51,27.64c1.41-.38,2.82-.76,4.23-1.13"/>
            <path class="cls-15" d="M40.01,20.88l2.13-2.13"/>
            <path class="cls-15" d="M35.95,24.94c1.03-1.03,2.06-2.06,3.09-3.09"/>
            <path class="cls-15" d="M33.26,23.38c.57-2.14,1.15-4.28,1.72-6.42"/>
            <line class="cls-15" x1="32.22" y1="23.2" x2="32.99" y2="14.48"/>
            <path class="cls-15" d="M31.17,23.2c-.12-1.34-.23-2.68-.35-4.02"/>
            <line class="cls-15" x1="30.14" y1="23.38" x2="27.88" y2="14.93"/>
            <path class="cls-15" d="M27.19,19.53c-.47-1-.94-2.01-1.4-3.01"/>
            <path class="cls-15" d="M29.16,23.74l-1.4-3.01"/>
            <line class="cls-15" x1="28.25" y1="24.27" x2="23.23" y2="17.1"/>
            <path class="cls-15" d="M24.35,21.85c-.74-.74-1.47-1.47-2.21-2.21"/>
            <path class="cls-15" d="M27.44,24.94c-.71-.71-1.42-1.42-2.13-2.13"/>
            <path class="cls-15" d="M26.77,25.74c-1.45-1.02-2.9-2.03-4.35-3.05"/>
            <path class="cls-15" d="M21.04,24.23l-2.73-1.27"/>
            <path class="cls-15" d="M26.24,26.65l-3.97-1.85"/>
            <path class="cls-15" d="M25.89,27.64c-2.2-.59-4.4-1.18-6.6-1.77"/>
            <path class="cls-15" d="M21.69,28.32c-1.57-.14-3.14-.27-4.7-.41"/>
            <path class="cls-15" d="M25.7,28.67l-3-.26"/>
            <line class="cls-15" x1="37.69" y1="28.67" x2="46.41" y2="27.91"/>
            <path class="cls-15" d="M42.73,26.24c1.08-.29,2.16-.58,3.23-.87"/>
            <path class="cls-15" d="M37.51,27.64c1.41-.38,2.82-.76,4.23-1.13"/>
            <path class="cls-15" d="M37.15,26.65c2.21-1.03,4.41-2.06,6.62-3.09"/>
            <path class="cls-15" d="M40.72,22.87l3.07-2.15"/>
            <path class="cls-15" d="M36.63,25.74l2.47-1.73"/>
            <path class="cls-15" d="M40.01,20.88c.71-.71,1.42-1.42,2.13-2.13"/>
            <path class="cls-15" d="M35.95,24.94c1.03-1.03,2.06-2.06,3.09-3.09"/>
            <path class="cls-15" d="M35.15,24.27c.71-1.01,1.41-2.01,2.12-3.02"/>
            <path class="cls-15" d="M36.09,19.77c.62-1.32,1.23-2.64,1.85-3.97"/>
            <path class="cls-15" d="M34.24,23.74c.47-1.01.94-2.02,1.42-3.03"/>
            <path class="cls-15" d="M33.26,23.38c.57-2.14,1.15-4.28,1.72-6.42"/>
            <line class="cls-15" x1="32.22" y1="23.2" x2="32.99" y2="14.48"/>
            <path class="cls-15" d="M31.17,23.2c-.12-1.34-.23-2.68-.35-4.02"/>
            <line class="cls-15" x1="30.14" y1="23.38" x2="27.88" y2="14.93"/>
            <path class="cls-15" d="M27.19,19.53l-1.4-3.01"/>
            <path class="cls-15" d="M29.16,23.74l-1.4-3.01"/>
            <line class="cls-15" x1="28.25" y1="24.27" x2="23.23" y2="17.1"/>
            <path class="cls-15" d="M24.35,21.85l-2.21-2.21"/>
            <path class="cls-15" d="M27.44,24.94c-.71-.71-1.42-1.42-2.13-2.13"/>
            <path class="cls-15" d="M30.51,29.3c.75-.01,1.5.05,2.25.05.73,0,1.46-.05,2.19.05.01-.08.03-.17.03-.25,0-1.81-1.47-3.28-3.28-3.28s-3.25,1.45-3.27,3.24c.49,0,.98.05,1.46.13.18.03.35.07.53.1.03-.02.06-.04.1-.04Z"/>
          </g>
        </g>
      </g>
    </g>
  </g>
</svg>