<?xml version="1.0" encoding="UTF-8"?>
<svg xmlns="http://www.w3.org/2000/svg" xmlns:xlink="http://www.w3.org/1999/xlink" viewBox="0 0 55.32 72.56">
  <defs>
    <style>
      .cls-1, .cls-2 {
        fill: #fbe1a9;
      }

      .cls-2, .cls-3, .cls-4, .cls-5 {
        stroke-miterlimit: 10;
      }

      .cls-2, .cls-3, .cls-4, .cls-5, .cls-6 {
        stroke: #fbe1a9;
        stroke-width: .5px;
      }

      .cls-7 {
        mix-blend-mode: color-burn;
        opacity: .72;
      }

      .cls-8 {
        isolation: isolate;
      }

      .cls-9 {
        mix-blend-mode: multiply;
      }

      .cls-3 {
        fill: #211006;
      }

      .cls-4, .cls-6 {
        fill: none;
      }

      .cls-10 {
        fill: url(#_名称未設定グラデーション_838);
      }

      .cls-5 {
        fill: #ad5f2b;
      }

      .cls-5, .cls-6 {
        stroke-linecap: round;
      }

      .cls-6 {
        stroke-linejoin: round;
      }

      .cls-11 {
        fill: #cf8b2e;
      }
    </style>
    <linearGradient id="_名称未設定グラデーション_838" data-name="名称未設定グラデーション 838" x1="-7.28" y1="16.11" x2="62.6" y2="56.46" gradientUnits="userSpaceOnUse">
      <stop offset="0" stop-color="#664b31"/>
      <stop offset=".08" stop-color="#46372b"/>
      <stop offset=".31" stop-color="#a6935c"/>
      <stop offset=".56" stop-color="#e0e0d4"/>
      <stop offset=".64" stop-color="#b29b78"/>
      <stop offset=".67" stop-color="#a38358"/>
      <stop offset=".96" stop-color="#674c32"/>
    </linearGradient>
  </defs>
  <g class="cls-8">
    <g id="_レイヤー_2" data-name="レイヤー 2">
      <g id="_レイヤー_2-2" data-name="レイヤー 2">
        <g>
          <g>
            <g>
              <rect class="cls-3" x=".25" y=".25" width="54.82" height="72.06" rx="3.84" ry="3.84"/>
              <rect class="cls-4" x="4.94" y="4.63" width="45.5" height="62.94" rx="3.84" ry="3.84"/>
              <path class="cls-1" d="M5.45,2.56c-.11,0-.46-.02-.53,0-.04.01-.06.04-.06.04,0-.01,0,.13,0,.18.39,1.11,2.23.47,1.7-.7-.29-.72-1.43-.52-2.04-.56,0,0-2.43-.04-2.43-.04-.18,0-.41.12-.4.29,0,.01-.06,2.04-.07,2.05-.03.14-.21.04-.11-.08,0,0,.74-1.49.74-1.49,0,0,.01-.02.02-.03.43-.25,1.12-.66,1.54-.9,0,0,.07-.06.01.01-.04.1.09.14.09.12,0,0-.01,0-.01,0-.06,0-1.87.04-1.92.04-.15,0-.28.16-.28.38,0-.05.03,2.41.03,2.4,0,0,.02,1.19.02,1.19.04.72.94,1.14,1.49.67.55-.37.37-1.42-.25-1.55-.11,0-.19-.04-.22.05-.01.06,0,.42,0,.52.01.32-.5.34-.5.01,0,0,0-.31,0-.31-.03-.24.05-.65.39-.74.2-.04.27-.01.42,0,1.04.27,1.22,1.74.4,2.33-.79.65-2.06.04-2.09-.96,0-.77.03-2.84.04-3.63,0-.28.22-.62.53-.61,0,0,1.89,0,1.89,0,.02,0,.05,0,.06,0,0-.02.1.05.06.13-.09.1-.06.04-.09.07-.42.23-1.11.61-1.53.84.05-.09-.74,1.49-.73,1.48,0,0-.11-.08-.11-.08h0c-.03-.66-.04-1.28-.03-1.96,0-.14.08-.29.2-.38.13-.09.26-.11.39-.13.81,0,2.87-.05,3.65-.05,1.85.11,1.55,2.79-.27,2.54-.83-.04-1.63-1.28-.71-1.66.29-.06.43-.02.68-.03.33,0,.32.51,0,.5h0Z"/>
              <path class="cls-1" d="M4.49,4.42c.22,2.37.28,4.25-2.75,3.89,0,0,.16-.16.16-.16v24.72c0,.19-.32.21-.31,0,0,0,0-24.72,0-24.72v-.16h.16c1.69-.07,2.42-.34,2.39-2.18,0,0,.04-1.39.04-1.39,0-.19.3-.2.31,0h0Z"/>
              <path class="cls-1" d="M4.62,4c2.15-.06,3.93.14,3.78-2.62,0,0,0-.18,0-.18h16.82c.22,0,.23.35,0,.35,0,0-16.64,0-16.64,0,0,0,.18-.18.18-.18.42,3.02-1.77,3.19-4.14,2.98-.22-.01-.21-.35.01-.35h0Z"/>
              <path class="cls-1" d="M3.42,9.3c.09,4.54.15,9.08.14,13.62,0,2.27-.02,4.54-.13,6.82-.22,2.18-.03,4.94-1.86,6.5-.07.06-.18-.03-.12-.11,1.24-1.85,1.36-4.18,1.53-6.41.13-2.26.17-4.53.19-6.79l.09-13.61c0-.1.17-.11.17,0h0Z"/>
              <ellipse class="cls-5" cx="2.49" cy="36.18" rx=".46" ry=".26"/>
              <ellipse class="cls-5" cx="53.07" cy="36.18" rx=".46" ry=".26"/>
              <path class="cls-1" d="M9.69,3.64c3.13-.05,6.26-.06,9.37-.23,2.89-.25,6.17-.38,8.38-2.47.08-.06.11-.18.31-.11.2.07.29.29.04.46-2.3,2.17-5.73,2.31-8.71,2.53-3.14.16-6.26.11-9.39.07-.16,0-.17-.26,0-.26h0Z"/>
              <path class="cls-1" d="M50.04,2.06h.31c1.4-.03.67,1.64-.34,1.69-1.82.25-2.11-2.43-.27-2.54.78,0,2.86.04,3.66.05.27,0,.59.2.59.5,0,.68,0,1.3-.03,1.95.02.01-.11.09-.11.09,0,0-.78-1.56-.73-1.48-.43-.23-1.11-.61-1.53-.84-.03-.03,0,.02-.09-.07-.04-.08.07-.15.06-.13.02,0,.04,0,.06,0,0,0,1.89-.01,1.9,0,.31,0,.53.33.52.61,0,0,.03,2.41.03,2.41v1.22c-.02,1-1.29,1.61-2.08.96-.82-.58-.64-2.06.4-2.33.28-.09.7.04.78.36.07.29.02.43.03.68,0,.32-.5.33-.5,0,0-.11.02-.47,0-.53-.02-.09-.11-.06-.22-.05-.63.13-.8,1.17-.25,1.55.55.47,1.45.06,1.49-.67,0,0,.02-1.19.02-1.19l.03-2.41c0-.17-.13-.39-.28-.37,0,0-1.89-.04-1.89-.04,0,0-.04,0-.04,0,0,.02.13-.02.09-.12-.06-.08.01,0,.01-.01l.1.06c.26.17,1.25.7,1.46.87,0,0,.74,1.49.74,1.49.1.13-.1.23-.11.07,0,0-.06-2.07-.06-2.03,0-.2-.22-.3-.4-.3,0,0-2.43.04-2.43.04l-1.2.02c-.73.02-1.21.91-.71,1.48.42.61,1.67.31,1.6-.42-.05-.06-.15-.04-.29-.04,0,0-.3,0-.3,0-.33.01-.34-.51,0-.5h0Z"/>
              <path class="cls-1" d="M51.32,4.43c.1,2.34-.33,3.59,2.59,3.57,0,.13,0,24.73,0,24.87,0,.19-.32.21-.31,0,0,0,0-24.72,0-24.72l.16.16c-.93.09-2.31.06-2.66-1.02-.28-.97-.16-1.9-.09-2.87.01-.19.31-.18.31,0h0Z"/>
              <path class="cls-1" d="M50.89,4.35c-2.38.21-4.56.04-4.14-2.98,0,0,.18.18.18.18,0,0-16.64,0-16.64,0-.22,0-.23-.35,0-.35,0,0,16.64,0,16.64,0h.18s0,.18,0,.18c-.03,1.79.48,2.51,2.32,2.57.48.03.97.04,1.46.05.1,0,.18.08.18.18,0,.09-.07.17-.16.18h0Z"/>
              <path class="cls-1" d="M52.25,9.3l.09,13.61c.02,2.27.07,4.54.19,6.79.17,2.24.28,4.57,1.53,6.41.05.07-.05.18-.12.11-1.83-1.56-1.64-4.32-1.86-6.5-.11-2.28-.13-4.55-.13-6.82-.02-4.54.05-9.08.14-13.62,0-.1.17-.11.17,0h0Z"/>
              <path class="cls-1" d="M45.81,3.9c-3.13.04-6.26.09-9.39-.07-2.98-.22-6.41-.37-8.71-2.53-.06-.08-.19-.1-.13-.29.03-.09.09-.15.18-.17.2-.07.23.05.31.11,2.21,2.09,5.49,2.22,8.38,2.47,3.11.17,6.24.17,9.37.23.16,0,.17.26,0,.26h0Z"/>
              <path class="cls-1" d="M5.44,70.29s-.31,0-.31,0c-1.4.03-.67-1.64.34-1.69,1-.2,1.9.94,1.4,1.84-.42.88-1.58.68-2.36.68-.54-.05-2.63.07-2.82-.16-.13-.08-.2-.24-.2-.38,0-.69,0-1.31.03-1.96,0,0,.11-.08.11-.08,0,.01.74,1.49.74,1.5.33.15,1.13.62,1.52.82.03.03,0-.02.09.07.04.08-.07.15-.06.13-.02,0-.04,0-.06,0,0,0-1.89.01-1.9,0-.31,0-.53-.33-.52-.61,0,0-.03-2.41-.03-2.41v-1.22c.15-1.81,2.84-1.49,2.58.31-.03.97-1.75,1.71-1.71.32,0,0,0-.3,0-.3,0-.32.5-.33.5,0,0,.11-.02.47,0,.53.02.09.11.06.22.05.62-.13.8-1.17.25-1.55-.55-.47-1.45-.06-1.49.67-.02.75-.04,2.82-.05,3.6,0,.17.13.39.28.37,0,0,1.89.04,1.89.04,0,0,.03,0,.03,0,.01,0,.03,0,0,0,0-.02-.11.04-.08.12.06.08-.01,0-.01.01l-.1-.06c-.26-.17-1.25-.7-1.46-.87,0,0-.74-1.49-.74-1.49-.1-.13.1-.23.11-.07,0,0,.06,2.07.06,2.03,0,.2.22.3.4.3,0,0,2.43-.04,2.43-.04l1.2-.02c.73-.02,1.21-.91.71-1.48-.42-.61-1.67-.31-1.6.42.05.06.15.04.29.04,0,0,.3,0,.3,0,.33-.01.34.51,0,.5h0Z"/>
              <path class="cls-1" d="M4.16,67.92c-.1-2.34.33-3.59-2.59-3.57,0-.13,0-24.73,0-24.87,0-.19.32-.21.31,0,0,0,0,24.72,0,24.72l-.16-.16c.93-.09,2.31-.06,2.66,1.02.28.97.16,1.9.09,2.87-.01.19-.31.18-.31,0h0Z"/>
              <path class="cls-1" d="M4.59,68.01c2.38-.21,4.56-.04,4.14,2.98,0,0-.18-.18-.18-.18,0,0,16.64,0,16.64,0,.22,0,.23.35,0,.35,0,0-16.64,0-16.64,0h-.18s0-.18,0-.18c.03-1.79-.48-2.51-2.32-2.57-.48-.03-.97-.04-1.46-.05-.1,0-.18-.08-.18-.18,0-.09.07-.17.16-.18h0Z"/>
              <path class="cls-1" d="M3.23,63.06l-.09-13.61c-.02-2.27-.07-4.54-.19-6.79-.17-2.24-.28-4.57-1.53-6.41-.05-.07.05-.18.12-.11,1.83,1.56,1.64,4.32,1.86,6.5.11,2.28.13,4.55.13,6.82.02,4.54-.05,9.08-.14,13.62,0,.1-.17.11-.17,0h0Z"/>
              <ellipse class="cls-5" cx="2.47" cy="36.18" rx=".46" ry=".26"/>
              <ellipse class="cls-5" cx="53.05" cy="36.18" rx=".46" ry=".26"/>
              <path class="cls-1" d="M9.67,68.45c3.13-.04,6.26-.09,9.39.07,2.98.22,6.41.37,8.71,2.53.06.08.19.1.13.29-.03.09-.09.15-.18.17-.2.07-.23-.05-.31-.11-2.21-2.09-5.49-2.22-8.38-2.47-3.11-.17-6.24-.17-9.37-.23-.16,0-.17-.26,0-.26h0Z"/>
              <path class="cls-1" d="M50.03,69.79c.11,0,.46.02.53,0,.04-.01.06-.04.06-.04,0,.01,0-.13,0-.18-.39-1.11-2.23-.47-1.7.7.29.72,1.43.52,2.04.56,0,0,2.43.04,2.43.04.18,0,.41-.12.4-.29,0-.01.06-2.04.07-2.05.03-.14.21-.04.11.08,0,0-.74,1.49-.74,1.49,0,0-.01.02-.02.03-.43.25-1.12.66-1.54.9,0,0-.07.06-.01-.01.04-.1-.09-.14-.09-.12,0,0,.01,0,.01,0,.06,0,1.87-.04,1.92-.04.15,0,.28-.16.28-.38,0,.05-.03-2.41-.03-2.4,0,0-.02-1.19-.02-1.19-.04-.72-.94-1.14-1.49-.67-.55.37-.37,1.42.25,1.55.11,0,.19.04.22-.05.01-.06,0-.42,0-.52-.01-.32.5-.34.5-.01,0,0,0,.31,0,.31.03.24-.05.65-.39.74-.2.04-.27.01-.42,0-1.04-.27-1.22-1.74-.4-2.33.79-.65,2.06-.04,2.09.96,0,.77-.03,2.84-.04,3.63,0,.28-.22.62-.53.61,0,0-1.89,0-1.89,0-.02,0-.05,0-.06,0,0,.02-.1-.05-.06-.13.09-.1.06-.04.09-.07.42-.23,1.11-.61,1.53-.84-.05.09.74-1.49.73-1.48,0,0,.12.08.11.09.03.65.04,1.27.03,1.95,0,.14-.08.29-.2.38-.13.09-.26.11-.39.13-.81,0-2.87.05-3.65.05-1.85-.11-1.55-2.79.27-2.54.83.04,1.63,1.28.71,1.66-.29.06-.43.02-.68.03-.33,0-.32-.51,0-.5h0Z"/>
              <path class="cls-1" d="M50.99,67.93c-.22-2.37-.28-4.25,2.75-3.89,0,0-.16.16-.16.16v-24.72c0-.19.32-.21.31,0,0,0,0,24.72,0,24.72v.16h-.16c-1.69.07-2.42.34-2.39,2.18,0,0-.04,1.39-.04,1.39,0,.19-.3.2-.31,0h0Z"/>
              <path class="cls-1" d="M50.86,68.36c-2.15.06-3.93-.14-3.78,2.62,0,0,0,.18,0,.18h-16.82c-.22,0-.23-.35,0-.35,0,0,16.64,0,16.64,0,0,0-.18.18-.18.18-.42-3.02,1.77-3.19,4.14-2.98.22.01.21.35-.01.35h0Z"/>
              <path class="cls-1" d="M52.06,63.06c-.09-4.54-.15-9.08-.14-13.62,0-2.27.02-4.54.13-6.82.22-2.18.03-4.94,1.86-6.5.07-.06.18.03.12.11-1.24,1.85-1.36,4.18-1.53,6.41-.13,2.26-.17,4.53-.19,6.79l-.09,13.61c0,.1-.17.11-.17,0h0Z"/>
              <path class="cls-1" d="M45.79,68.71c-3.13.05-6.26.06-9.37.23-2.89.25-6.17.38-8.38,2.47-.08.06-.11.18-.31.11-.2-.07-.29-.29-.04-.46,2.3-2.17,5.73-2.31,8.71-2.53,3.14-.16,6.26-.11,9.39-.07.16,0,.17.26,0,.26h0Z"/>
            </g>
            <g>
              <path class="cls-4" d="M32.5,33.81c-2.32-.04-5.53-.09-9.86-.82-.83-.14-.57-.7-.69-1.02-1.3-3.55-.55-7,2.38-9.77,1.26-1.19,3.01-1.03,3.31-1.04,1.17-.05,2.04.24,3.26.63.96.31,1.29.34,1.75.77.53.48.75,1.09,1.2,2.35.46,1.27.87,2.11.95,3.13.05.67.12,1.58-.24,2.65-.14.41-.29.47-.98,2.09-.28.65-.35,1.03-1.07,1.02Z"/>
              <path class="cls-2" d="M30.43,28.06c-.86,2.73-1.51,2.96-2.57,2.9-1.18-.07-1.65-.53-2.15-3.22-.31-1.67,1.26-2.99,2.57-2.9s2.66,1.61,2.15,3.22Z"/>
              <path class="cls-1" d="M23.73,24c-.99,2.3-.73,4.87.46,7.02.14.26.03.58-.23.72-.26.14-.58.03-.72-.23-.49-1.23-.79-2.57-.75-3.9.04-1.32.44-2.58,1.05-3.69.06-.11.23-.03.18.09h0Z"/>
              <path class="cls-1" d="M33.42,24.81c.77,2.5.14,5.31-1.38,7.42-.16.24-.49.31-.74.14-.24-.16-.31-.49-.14-.74,1.66-1.85,2.52-4.3,2.07-6.79-.02-.12.17-.16.2-.04h0Z"/>
              <path class="cls-1" d="M25.65,30.94c.22-.08.52.04.72.16.46.27.48.38,1.41.49,1.09.13,1.02-.07,1.45-.25.13-.05.31-.06.53.07.2.11.13.29.21.43.14.26,1.25,1.29,1.06,1.21q-3.25-1.46-6.74-.58c-.19.05.51-.64.96-.91.06-.04.04-.48.4-.62Z"/>
              <path class="cls-1" d="M24.92,23.39c2.1.15,1.24,1.34,1.24,1.34.82-1.07,2.89-1.44,4.59.48,0,0-1.11-1.99,1.54-.73.63.3-.36-1-1.18-1.41-1.99-1-4-.91-5.54-.59-.36.07-1.43.85-.66.91Z"/>
              <path class="cls-6" d="M22,33.26c-1.23,1.48-2.69,2.34-4.97,2.47-1.72.1-2.85,1.78-2.69,3.12"/>
              <path class="cls-6" d="M33.63,34.17c.96,1.67,2.26,2.76,4.49,3.27,1.68.38,2.51,2.23,2.13,3.53"/>
              <path class="cls-6" d="M27.19,34.54c-3.11,2.16-3.7,3.85-3.65,5,.13,2.72,3.93,4.35,3.5,7.15-.12.78-.52,1.36-.8,1.69"/>
              <path class="cls-6" d="M30.3,34.44c.03.59,0,1.53-.37,2.56-.88,2.42-2.79,2.89-3.57,4.88-.34.86-.55,2.24.27,4.36"/>
              <path class="cls-6" d="M31.71,34.34c-.19,2.34.4,3.43,1.03,3.98.62.54,1.22.51,1.65,1.1.68.92.26,2.4-.26,3.59"/>
              <path class="cls-6" d="M23.91,33.65c1.41,1.89,1.43,2.99,1.17,3.65-.46,1.13-1.84,1.17-2.65,2.56-.59,1.02-.54,2.17-.39,2.99"/>
              <path class="cls-6" d="M23.68,34.03c.13,1.38-.29,2.18-.54,2.54-.97,1.44-3.02,1.79-4.29,2-1.43.24-1.88.03-2.64.49-.96.58-1.4,1.63-1.62,2.43"/>
              <path class="cls-6" d="M22.54,34.04c-.44.16-2.54.99-3.59,3.28-1.37,2.97.24,5.76.39,6.01"/>
              <path class="cls-6" d="M32.43,35.11c3.36,1.7,4.18,3.21,4.23,4.32.09,1.76-1.69,3.07-1.2,5.13.2.87.72,1.5,1.12,1.89"/>
              <path class="cls-6" d="M30.32,38.4c.99.95,3.13,3.29,3.57,6.79.12.96.1,1.82,0,2.57"/>
              <path class="cls-6" d="M27.39,42.12c.59.3,3.01,1.64,3.6,4.27.13.57-.03,1.89-1.19,2.98"/>
              <circle class="cls-1" cx="14.51" cy="39.73" r=".38"/>
              <circle class="cls-1" cx="14.39" cy="42.38" r=".38"/>
              <circle class="cls-1" cx="19.77" cy="44.09" r=".38"/>
              <circle class="cls-1" cx="22.17" cy="43.71" r=".38"/>
              <circle class="cls-1" cx="26.81" cy="47.06" r=".38"/>
              <circle class="cls-1" cx="25.68" cy="49" r=".38"/>
              <circle class="cls-1" cx="29.21" cy="50.04" r=".38"/>
              <circle class="cls-1" cx="33.69" cy="48.62" r=".38"/>
              <circle class="cls-1" cx="33.69" cy="43.8" r=".38"/>
              <circle class="cls-1" cx="37.22" cy="47.09" r=".38"/>
              <circle class="cls-1" cx="39.96" cy="41.85" r=".38"/>
            </g>
          </g>
          <g class="cls-9">
            <g>
              <rect class="cls-10" x=".25" y=".25" width="54.82" height="72.06" rx="3.84" ry="3.84"/>
              <rect class="cls-10" x="4.94" y="4.63" width="45.5" height="62.94" rx="3.84" ry="3.84"/>
              <g>
                <path class="cls-10" d="M5.46,2.31h-.5c-.15,0-.33.1-.34.26-.04.64.6.98,1.11.98.66,0,1.19-.58,1.1-1.24-.07-.55-.59-.95-1.15-.95h-3.15s-.42,0-.42,0c-.28.02-.47.13-.5.4v.81s-.01,1.19-.02,1.19l.74-1.5s1.61-.91,1.6-.91l-1.93.02c-.27.02-.39.22-.41.49v.42s0,3.1,0,3.1c0,.56.4,1.06.97,1.14.67.09,1.26-.44,1.26-1.09,0-.5-.35-1.14-1-1.09-.17.01-.27.19-.27.33v.49"/>
                <path class="cls-10" d="M5.45,2.56c-.11,0-.46-.02-.53,0-.04.01-.06.04-.06.04,0-.01,0,.13,0,.18.39,1.11,2.23.47,1.7-.7-.29-.72-1.43-.52-2.04-.56,0,0-2.43-.04-2.43-.04-.18,0-.41.12-.4.29,0,.01-.06,2.04-.07,2.05-.03.14-.21.04-.11-.08,0,0,.74-1.49.74-1.49,0,0,.01-.02.02-.03.43-.25,1.12-.66,1.54-.9,0,0,.07-.06.01.01-.04.1.09.14.09.12,0,0-.01,0-.01,0-.06,0-1.87.04-1.92.04-.15,0-.28.16-.28.38,0-.05.03,2.41.03,2.4,0,0,.02,1.19.02,1.19.04.72.94,1.14,1.49.67.55-.37.37-1.42-.25-1.55-.11,0-.19-.04-.22.05-.01.06,0,.42,0,.52.01.32-.5.34-.5.01,0,0,0-.31,0-.31-.03-.24.05-.65.39-.74.2-.04.27-.01.42,0,1.04.27,1.22,1.74.4,2.33-.79.65-2.06.04-2.09-.96,0-.77.03-2.84.04-3.63,0-.28.22-.62.53-.61,0,0,1.89,0,1.89,0,.02,0,.05,0,.06,0,0-.02.1.05.06.13-.09.1-.06.04-.09.07-.42.23-1.11.61-1.53.84.05-.09-.74,1.49-.73,1.48,0,0-.11-.08-.11-.08h0c-.03-.66-.04-1.28-.03-1.96,0-.14.08-.29.2-.38.13-.09.26-.11.39-.13.81,0,2.87-.05,3.65-.05,1.85.11,1.55,2.79-.27,2.54-.83-.04-1.63-1.28-.71-1.66.29-.06.43-.02.68-.03.33,0,.32.51,0,.5h0Z"/>
              </g>
              <g>
                <path class="cls-10" d="M4.34,4.43c.09,3.08.03,3.76-2.59,3.73v24.72"/>
                <path class="cls-10" d="M4.49,4.42c.22,2.37.28,4.25-2.75,3.89,0,0,.16-.16.16-.16v24.72c0,.19-.32.21-.31,0,0,0,0-24.72,0-24.72v-.16h.16c1.69-.07,2.42-.34,2.39-2.18,0,0,.04-1.39.04-1.39,0-.19.3-.2.31,0h0Z"/>
              </g>
              <g>
                <path class="cls-10" d="M4.62,4.17c3.58.14,4.02-.54,3.96-2.8h16.64"/>
                <path class="cls-10" d="M4.62,4c2.15-.06,3.93.14,3.78-2.62,0,0,0-.18,0-.18h16.82c.22,0,.23.35,0,.35,0,0-16.64,0-16.64,0,0,0,.18-.18.18-.18.42,3.02-1.77,3.19-4.14,2.98-.22-.01-.21-.35.01-.35h0Z"/>
              </g>
              <g>
                <path class="cls-10" d="M3.34,9.3c.1,21.55.09,24.79-1.84,26.88"/>
                <path class="cls-10" d="M3.42,9.3c.09,4.54.15,9.08.14,13.62,0,2.27-.02,4.54-.13,6.82-.22,2.18-.03,4.94-1.86,6.5-.07.06-.18-.03-.12-.11,1.24-1.85,1.36-4.18,1.53-6.41.13-2.26.17-4.53.19-6.79l.09-13.61c0-.1.17-.11.17,0h0Z"/>
              </g>
              <ellipse class="cls-10" cx="2.49" cy="36.18" rx=".46" ry=".26"/>
              <ellipse class="cls-10" cx="53.07" cy="36.18" rx=".46" ry=".26"/>
              <g>
                <path class="cls-10" d="M9.69,3.77c10.02,0,15.54,0,18.13-2.85"/>
                <path class="cls-10" d="M9.69,3.64c3.13-.05,6.26-.06,9.37-.23,2.89-.25,6.17-.38,8.38-2.47.08-.06.11-.18.31-.11.2.07.29.29.04.46-2.3,2.17-5.73,2.31-8.71,2.53-3.14.16-6.26.11-9.39.07-.16,0-.17-.26,0-.26h0Z"/>
              </g>
              <g>
                <path class="cls-10" d="M50.04,2.31h.5c.15,0,.33.1.34.26.04.64-.6.98-1.11.98-.66,0-1.19-.58-1.1-1.24.07-.55.59-.95,1.15-.95h3.15s.42,0,.42,0c.28.02.47.13.5.4v.81s.01,1.19.02,1.19l-.74-1.5s-1.61-.91-1.6-.91l1.93.02c.27.02.39.22.41.49v.42s0,3.1,0,3.1c0,.56-.4,1.06-.97,1.14-.67.09-1.26-.44-1.26-1.09,0-.5.35-1.14,1-1.09.17.01.27.19.27.33v.49"/>
                <path class="cls-10" d="M50.04,2.06h.31c1.4-.03.67,1.64-.34,1.69-1.82.25-2.11-2.43-.27-2.54.78,0,2.86.04,3.66.05.27,0,.59.2.59.5,0,.68,0,1.3-.03,1.95.02.01-.11.09-.11.09,0,0-.78-1.56-.73-1.48-.43-.23-1.11-.61-1.53-.84-.03-.03,0,.02-.09-.07-.04-.08.07-.15.06-.13.02,0,.04,0,.06,0,0,0,1.89-.01,1.9,0,.31,0,.53.33.52.61,0,0,.03,2.41.03,2.41v1.22c-.02,1-1.29,1.61-2.08.96-.82-.58-.64-2.06.4-2.33.28-.09.7.04.78.36.07.29.02.43.03.68,0,.32-.5.33-.5,0,0-.11.02-.47,0-.53-.02-.09-.11-.06-.22-.05-.63.13-.8,1.17-.25,1.55.55.47,1.45.06,1.49-.67,0,0,.02-1.19.02-1.19l.03-2.41c0-.17-.13-.39-.28-.37,0,0-1.89-.04-1.89-.04,0,0-.04,0-.04,0,0,.02.13-.02.09-.12-.06-.08.01,0,.01-.01l.1.06c.26.17,1.25.7,1.46.87,0,0,.74,1.49.74,1.49.1.13-.1.23-.11.07,0,0-.06-2.07-.06-2.03,0-.2-.22-.3-.4-.3,0,0-2.43.04-2.43.04l-1.2.02c-.73.02-1.21.91-.71,1.48.42.61,1.67.31,1.6-.42-.05-.06-.15-.04-.29-.04,0,0-.3,0-.3,0-.33.01-.34-.51,0-.5h0Z"/>
              </g>
              <g>
                <path class="cls-10" d="M51.16,4.43c-.09,3.08-.03,3.76,2.59,3.73v24.72"/>
                <path class="cls-10" d="M51.32,4.43c.1,2.34-.33,3.59,2.59,3.57,0,.13,0,24.73,0,24.87,0,.19-.32.21-.31,0,0,0,0-24.72,0-24.72l.16.16c-.93.09-2.31.06-2.66-1.02-.28-.97-.16-1.9-.09-2.87.01-.19.31-.18.31,0h0Z"/>
              </g>
              <g>
                <path class="cls-10" d="M50.88,4.17c-3.58.14-4.02-.54-3.96-2.8h-16.64"/>
                <path class="cls-10" d="M50.89,4.35c-2.38.21-4.56.04-4.14-2.98,0,0,.18.18.18.18,0,0-16.64,0-16.64,0-.22,0-.23-.35,0-.35,0,0,16.64,0,16.64,0h.18s0,.18,0,.18c-.03,1.79.48,2.51,2.32,2.57.48.03.97.04,1.46.05.1,0,.18.08.18.18,0,.09-.07.17-.16.18h0Z"/>
              </g>
              <g>
                <path class="cls-10" d="M52.17,9.3c-.1,21.55-.09,24.79,1.84,26.88"/>
                <path class="cls-10" d="M52.25,9.3l.09,13.61c.02,2.27.07,4.54.19,6.79.17,2.24.28,4.57,1.53,6.41.05.07-.05.18-.12.11-1.83-1.56-1.64-4.32-1.86-6.5-.11-2.28-.13-4.55-.13-6.82-.02-4.54.05-9.08.14-13.62,0-.1.17-.11.17,0h0Z"/>
              </g>
              <g>
                <path class="cls-10" d="M45.81,3.77c-10.02,0-15.54,0-18.13-2.85"/>
                <path class="cls-10" d="M45.81,3.9c-3.13.04-6.26.09-9.39-.07-2.98-.22-6.41-.37-8.71-2.53-.06-.08-.19-.1-.13-.29.03-.09.09-.15.18-.17.2-.07.23.05.31.11,2.21,2.09,5.49,2.22,8.38,2.47,3.11.17,6.24.17,9.37.23.16,0,.17.26,0,.26h0Z"/>
              </g>
              <g>
                <path class="cls-10" d="M5.44,70.04h-.5c-.15,0-.33-.1-.34-.26-.04-.64.6-.98,1.11-.98.66,0,1.19.58,1.1,1.24-.07.55-.59.95-1.15.95h-3.15s-.42,0-.42,0c-.28-.02-.47-.13-.5-.4v-.81s-.01-1.19-.02-1.19l.74,1.5s1.61.91,1.6.91l-1.93-.02c-.27-.02-.39-.22-.41-.49v-.42s0-3.1,0-3.1c0-.56.4-1.06.97-1.14.67-.09,1.26.44,1.26,1.09,0,.5-.35,1.14-1,1.09-.17-.01-.27-.19-.27-.33v-.49"/>
                <path class="cls-10" d="M5.44,70.29s-.31,0-.31,0c-1.4.03-.67-1.64.34-1.69,1-.2,1.9.94,1.4,1.84-.42.88-1.58.68-2.36.68-.54-.05-2.63.07-2.82-.16-.13-.08-.2-.24-.2-.38,0-.69,0-1.31.03-1.96,0,0,.11-.08.11-.08,0,.01.74,1.49.74,1.5.33.15,1.13.62,1.52.82.03.03,0-.02.09.07.04.08-.07.15-.06.13-.02,0-.04,0-.06,0,0,0-1.89.01-1.9,0-.31,0-.53-.33-.52-.61,0,0-.03-2.41-.03-2.41v-1.22c.15-1.81,2.84-1.49,2.58.31-.03.97-1.75,1.71-1.71.32,0,0,0-.3,0-.3,0-.32.5-.33.5,0,0,.11-.02.47,0,.53.02.09.11.06.22.05.62-.13.8-1.17.25-1.55-.55-.47-1.45-.06-1.49.67-.02.75-.04,2.82-.05,3.6,0,.17.13.39.28.37,0,0,1.89.04,1.89.04,0,0,.03,0,.03,0,.01,0,.03,0,0,0,0-.02-.11.04-.08.12.06.08-.01,0-.01.01l-.1-.06c-.26-.17-1.25-.7-1.46-.87,0,0-.74-1.49-.74-1.49-.1-.13.1-.23.11-.07,0,0,.06,2.07.06,2.03,0,.2.22.3.4.3,0,0,2.43-.04,2.43-.04l1.2-.02c.73-.02,1.21-.91.71-1.48-.42-.61-1.67-.31-1.6.42.05.06.15.04.29.04,0,0,.3,0,.3,0,.33-.01.34.51,0,.5h0Z"/>
              </g>
              <g>
                <path class="cls-10" d="M4.32,67.93c.09-3.08.03-3.76-2.59-3.73v-24.72"/>
                <path class="cls-10" d="M4.16,67.92c-.1-2.34.33-3.59-2.59-3.57,0-.13,0-24.73,0-24.87,0-.19.32-.21.31,0,0,0,0,24.72,0,24.72l-.16-.16c.93-.09,2.31-.06,2.66,1.02.28.97.16,1.9.09,2.87-.01.19-.31.18-.31,0h0Z"/>
              </g>
              <g>
                <path class="cls-10" d="M4.6,68.18c3.58-.14,4.02.54,3.96,2.8h16.64"/>
                <path class="cls-10" d="M4.59,68.01c2.38-.21,4.56-.04,4.14,2.98,0,0-.18-.18-.18-.18,0,0,16.64,0,16.64,0,.22,0,.23.35,0,.35,0,0-16.64,0-16.64,0h-.18s0-.18,0-.18c.03-1.79-.48-2.51-2.32-2.57-.48-.03-.97-.04-1.46-.05-.1,0-.18-.08-.18-.18,0-.09.07-.17.16-.18h0Z"/>
              </g>
              <g>
                <path class="cls-10" d="M3.31,63.06c.1-21.55.09-24.79-1.84-26.88"/>
                <path class="cls-10" d="M3.23,63.06l-.09-13.61c-.02-2.27-.07-4.54-.19-6.79-.17-2.24-.28-4.57-1.53-6.41-.05-.07.05-.18.12-.11,1.83,1.56,1.64,4.32,1.86,6.5.11,2.28.13,4.55.13,6.82.02,4.54-.05,9.08-.14,13.62,0,.1-.17.11-.17,0h0Z"/>
              </g>
              <ellipse class="cls-10" cx="2.47" cy="36.18" rx=".46" ry=".26"/>
              <ellipse class="cls-10" cx="53.05" cy="36.18" rx=".46" ry=".26"/>
              <g>
                <path class="cls-10" d="M9.67,68.58c10.02,0,15.54,0,18.13,2.85"/>
                <path class="cls-10" d="M9.67,68.45c3.13-.04,6.26-.09,9.39.07,2.98.22,6.41.37,8.71,2.53.06.08.19.1.13.29-.03.09-.09.15-.18.17-.2.07-.23-.05-.31-.11-2.21-2.09-5.49-2.22-8.38-2.47-3.11-.17-6.24-.17-9.37-.23-.16,0-.17-.26,0-.26h0Z"/>
              </g>
              <g>
                <path class="cls-10" d="M50.02,70.04h.5c.15,0,.33-.1.34-.26.04-.64-.6-.98-1.11-.98-.66,0-1.19.58-1.1,1.24.07.55.59.95,1.15.95h3.15s.42,0,.42,0c.28-.02.47-.13.5-.4v-.81s.01-1.19.02-1.19l-.74,1.5s-1.61.91-1.6.91l1.93-.02c.27-.02.39-.22.41-.49v-.42s0-3.1,0-3.1c0-.56-.4-1.06-.97-1.14-.67-.09-1.26.44-1.26,1.09,0,.5.35,1.14,1,1.09.17-.01.27-.19.27-.33v-.49"/>
                <path class="cls-10" d="M50.03,69.79c.11,0,.46.02.53,0,.04-.01.06-.04.06-.04,0,.01,0-.13,0-.18-.39-1.11-2.23-.47-1.7.7.29.72,1.43.52,2.04.56,0,0,2.43.04,2.43.04.18,0,.41-.12.4-.29,0-.01.06-2.04.07-2.05.03-.14.21-.04.11.08,0,0-.74,1.49-.74,1.49,0,0-.01.02-.02.03-.43.25-1.12.66-1.54.9,0,0-.07.06-.01-.01.04-.1-.09-.14-.09-.12,0,0,.01,0,.01,0,.06,0,1.87-.04,1.92-.04.15,0,.28-.16.28-.38,0,.05-.03-2.41-.03-2.4,0,0-.02-1.19-.02-1.19-.04-.72-.94-1.14-1.49-.67-.55.37-.37,1.42.25,1.55.11,0,.19.04.22-.05.01-.06,0-.42,0-.52-.01-.32.5-.34.5-.01,0,0,0,.31,0,.31.03.24-.05.65-.39.74-.2.04-.27.01-.42,0-1.04-.27-1.22-1.74-.4-2.33.79-.65,2.06-.04,2.09.96,0,.77-.03,2.84-.04,3.63,0,.28-.22.62-.53.61,0,0-1.89,0-1.89,0-.02,0-.05,0-.06,0,0,.02-.1-.05-.06-.13.09-.1.06-.04.09-.07.42-.23,1.11-.61,1.53-.84-.05.09.74-1.49.73-1.48,0,0,.12.08.11.09.03.65.04,1.27.03,1.95,0,.14-.08.29-.2.38-.13.09-.26.11-.39.13-.81,0-2.87.05-3.65.05-1.85-.11-1.55-2.79.27-2.54.83.04,1.63,1.28.71,1.66-.29.06-.43.02-.68.03-.33,0-.32-.51,0-.5h0Z"/>
              </g>
              <g>
                <path class="cls-10" d="M51.14,67.93c-.09-3.08-.03-3.76,2.59-3.73v-24.72"/>
                <path class="cls-10" d="M50.99,67.93c-.22-2.37-.28-4.25,2.75-3.89,0,0-.16.16-.16.16v-24.72c0-.19.32-.21.31,0,0,0,0,24.72,0,24.72v.16h-.16c-1.69.07-2.42.34-2.39,2.18,0,0-.04,1.39-.04,1.39,0,.19-.3.2-.31,0h0Z"/>
              </g>
              <g>
                <path class="cls-10" d="M50.86,68.18c-3.58-.14-4.02.54-3.96,2.8h-16.64"/>
                <path class="cls-10" d="M50.86,68.36c-2.15.06-3.93-.14-3.78,2.62,0,0,0,.18,0,.18h-16.82c-.22,0-.23-.35,0-.35,0,0,16.64,0,16.64,0,0,0-.18.18-.18.18-.42-3.02,1.77-3.19,4.14-2.98.22.01.21.35-.01.35h0Z"/>
              </g>
              <g>
                <path class="cls-10" d="M52.14,63.06c-.1-21.55-.09-24.79,1.84-26.88"/>
                <path class="cls-10" d="M52.06,63.06c-.09-4.54-.15-9.08-.14-13.62,0-2.27.02-4.54.13-6.82.22-2.18.03-4.94,1.86-6.5.07-.06.18.03.12.11-1.24,1.85-1.36,4.18-1.53,6.41-.13,2.26-.17,4.53-.19,6.79l-.09,13.61c0,.1-.17.11-.17,0h0Z"/>
              </g>
              <g>
                <path class="cls-10" d="M45.79,68.58c-10.02,0-15.54,0-18.13,2.85"/>
                <path class="cls-10" d="M45.79,68.71c-3.13.05-6.26.06-9.37.23-2.89.25-6.17.38-8.38,2.47-.08.06-.11.18-.31.11-.2-.07-.29-.29-.04-.46,2.3-2.17,5.73-2.31,8.71-2.53,3.14-.16,6.26-.11,9.39-.07.16,0,.17.26,0,.26h0Z"/>
              </g>
            </g>
            <g>
              <path class="cls-10" d="M32.5,33.81c-2.32-.04-5.53-.09-9.86-.82-.83-.14-.57-.7-.69-1.02-1.3-3.55-.55-7,2.38-9.77,1.26-1.19,3.01-1.03,3.31-1.04,1.17-.05,2.04.24,3.26.63.96.31,1.29.34,1.75.77.53.48.75,1.09,1.2,2.35.46,1.27.87,2.11.95,3.13.05.67.12,1.58-.24,2.65-.14.41-.29.47-.98,2.09-.28.65-.35,1.03-1.07,1.02Z"/>
              <path class="cls-10" d="M30.43,28.06c-.86,2.73-1.51,2.96-2.57,2.9-1.18-.07-1.65-.53-2.15-3.22-.31-1.67,1.26-2.99,2.57-2.9s2.66,1.61,2.15,3.22Z"/>
              <g>
                <path class="cls-10" d="M23.64,23.96c-1.13,2.41-1.1,4.69.07,7.28"/>
                <path class="cls-10" d="M23.73,24c-.99,2.3-.73,4.87.46,7.02.14.26.03.58-.23.72-.26.14-.58.03-.72-.23-.49-1.23-.79-2.57-.75-3.9.04-1.32.44-2.58,1.05-3.69.06-.11.23-.03.18.09h0Z"/>
              </g>
              <g>
                <path class="cls-10" d="M33.32,24.83c.55,2.6.01,4.82-1.71,7.08"/>
                <path class="cls-10" d="M33.42,24.81c.77,2.5.14,5.31-1.38,7.42-.16.24-.49.31-.74.14-.24-.16-.31-.49-.14-.74,1.66-1.85,2.52-4.3,2.07-6.79-.02-.12.17-.16.2-.04h0Z"/>
              </g>
              <path class="cls-10" d="M25.65,30.94c.22-.08.52.04.72.16.46.27.48.38,1.41.49,1.09.13,1.02-.07,1.45-.25.13-.05.31-.06.53.07.2.11.13.29.21.43.14.26,1.25,1.29,1.06,1.21q-3.25-1.46-6.74-.58c-.19.05.51-.64.96-.91.06-.04.04-.48.4-.62Z"/>
              <path class="cls-10" d="M24.92,23.39c2.1.15,1.24,1.34,1.24,1.34.82-1.07,2.89-1.44,4.59.48,0,0-1.11-1.99,1.54-.73.63.3-.36-1-1.18-1.41-1.99-1-4-.91-5.54-.59-.36.07-1.43.85-.66.91Z"/>
              <path class="cls-10" d="M22,33.26c-1.23,1.48-2.69,2.34-4.97,2.47-1.72.1-2.85,1.78-2.69,3.12"/>
              <path class="cls-10" d="M33.63,34.17c.96,1.67,2.26,2.76,4.49,3.27,1.68.38,2.51,2.23,2.13,3.53"/>
              <path class="cls-10" d="M27.19,34.54c-3.11,2.16-3.7,3.85-3.65,5,.13,2.72,3.93,4.35,3.5,7.15-.12.78-.52,1.36-.8,1.69"/>
              <path class="cls-10" d="M30.3,34.44c.03.59,0,1.53-.37,2.56-.88,2.42-2.79,2.89-3.57,4.88-.34.86-.55,2.24.27,4.36"/>
              <path class="cls-10" d="M31.71,34.34c-.19,2.34.4,3.43,1.03,3.98.62.54,1.22.51,1.65,1.1.68.92.26,2.4-.26,3.59"/>
              <path class="cls-10" d="M23.91,33.65c1.41,1.89,1.43,2.99,1.17,3.65-.46,1.13-1.84,1.17-2.65,2.56-.59,1.02-.54,2.17-.39,2.99"/>
              <path class="cls-10" d="M23.68,34.03c.13,1.38-.29,2.18-.54,2.54-.97,1.44-3.02,1.79-4.29,2-1.43.24-1.88.03-2.64.49-.96.58-1.4,1.63-1.62,2.43"/>
              <path class="cls-10" d="M22.54,34.04c-.44.16-2.54.99-3.59,3.28-1.37,2.97.24,5.76.39,6.01"/>
              <path class="cls-10" d="M32.43,35.11c3.36,1.7,4.18,3.21,4.23,4.32.09,1.76-1.69,3.07-1.2,5.13.2.87.72,1.5,1.12,1.89"/>
              <path class="cls-10" d="M30.32,38.4c.99.95,3.13,3.29,3.57,6.79.12.96.1,1.82,0,2.57"/>
              <path class="cls-10" d="M27.39,42.12c.59.3,3.01,1.64,3.6,4.27.13.57-.03,1.89-1.19,2.98"/>
              <circle class="cls-10" cx="14.51" cy="39.73" r=".38"/>
              <circle class="cls-10" cx="14.39" cy="42.38" r=".38"/>
              <circle class="cls-10" cx="19.77" cy="44.09" r=".38"/>
              <circle class="cls-10" cx="22.17" cy="43.71" r=".38"/>
              <circle class="cls-10" cx="26.81" cy="47.06" r=".38"/>
              <circle class="cls-10" cx="25.68" cy="49" r=".38"/>
              <circle class="cls-10" cx="29.21" cy="50.04" r=".38"/>
              <circle class="cls-10" cx="33.69" cy="48.62" r=".38"/>
              <circle class="cls-10" cx="33.69" cy="43.8" r=".38"/>
              <circle class="cls-10" cx="37.22" cy="47.09" r=".38"/>
              <circle class="cls-10" cx="39.96" cy="41.85" r=".38"/>
            </g>
          </g>
          <g class="cls-7">
            <g>
              <rect class="cls-11" x=".25" y=".25" width="54.82" height="72.06" rx="3.84" ry="3.84"/>
              <rect class="cls-11" x="4.94" y="4.63" width="45.5" height="62.94" rx="3.84" ry="3.84"/>
              <g>
                <path class="cls-11" d="M5.46,2.31h-.5c-.15,0-.33.1-.34.26-.04.64.6.98,1.11.98.66,0,1.19-.58,1.1-1.24-.07-.55-.59-.95-1.15-.95h-3.15s-.42,0-.42,0c-.28.02-.47.13-.5.4v.81s-.01,1.19-.02,1.19l.74-1.5s1.61-.91,1.6-.91l-1.93.02c-.27.02-.39.22-.41.49v.42s0,3.1,0,3.1c0,.56.4,1.06.97,1.14.67.09,1.26-.44,1.26-1.09,0-.5-.35-1.14-1-1.09-.17.01-.27.19-.27.33v.49"/>
                <path class="cls-11" d="M5.45,2.56c-.11,0-.46-.02-.53,0-.04.01-.06.04-.06.04,0-.01,0,.13,0,.18.39,1.11,2.23.47,1.7-.7-.29-.72-1.43-.52-2.04-.56,0,0-2.43-.04-2.43-.04-.18,0-.41.12-.4.29,0,.01-.06,2.04-.07,2.05-.03.14-.21.04-.11-.08,0,0,.74-1.49.74-1.49,0,0,.01-.02.02-.03.43-.25,1.12-.66,1.54-.9,0,0,.07-.06.01.01-.04.1.09.14.09.12,0,0-.01,0-.01,0-.06,0-1.87.04-1.92.04-.15,0-.28.16-.28.38,0-.05.03,2.41.03,2.4,0,0,.02,1.19.02,1.19.04.72.94,1.14,1.49.67.55-.37.37-1.42-.25-1.55-.11,0-.19-.04-.22.05-.01.06,0,.42,0,.52.01.32-.5.34-.5.01,0,0,0-.31,0-.31-.03-.24.05-.65.39-.74.2-.04.27-.01.42,0,1.04.27,1.22,1.74.4,2.33-.79.65-2.06.04-2.09-.96,0-.77.03-2.84.04-3.63,0-.28.22-.62.53-.61,0,0,1.89,0,1.89,0,.02,0,.05,0,.06,0,0-.02.1.05.06.13-.09.1-.06.04-.09.07-.42.23-1.11.61-1.53.84.05-.09-.74,1.49-.73,1.48,0,0-.11-.08-.11-.08h0c-.03-.66-.04-1.28-.03-1.96,0-.14.08-.29.2-.38.13-.09.26-.11.39-.13.81,0,2.87-.05,3.65-.05,1.85.11,1.55,2.79-.27,2.54-.83-.04-1.63-1.28-.71-1.66.29-.06.43-.02.68-.03.33,0,.32.51,0,.5h0Z"/>
              </g>
              <g>
                <path class="cls-11" d="M4.34,4.43c.09,3.08.03,3.76-2.59,3.73v24.72"/>
                <path class="cls-11" d="M4.49,4.42c.22,2.37.28,4.25-2.75,3.89,0,0,.16-.16.16-.16v24.72c0,.19-.32.21-.31,0,0,0,0-24.72,0-24.72v-.16h.16c1.69-.07,2.42-.34,2.39-2.18,0,0,.04-1.39.04-1.39,0-.19.3-.2.31,0h0Z"/>
              </g>
              <g>
                <path class="cls-11" d="M4.62,4.17c3.58.14,4.02-.54,3.96-2.8h16.64"/>
                <path class="cls-11" d="M4.62,4c2.15-.06,3.93.14,3.78-2.62,0,0,0-.18,0-.18h16.82c.22,0,.23.35,0,.35,0,0-16.64,0-16.64,0,0,0,.18-.18.18-.18.42,3.02-1.77,3.19-4.14,2.98-.22-.01-.21-.35.01-.35h0Z"/>
              </g>
              <g>
                <path class="cls-11" d="M3.34,9.3c.1,21.55.09,24.79-1.84,26.88"/>
                <path class="cls-11" d="M3.42,9.3c.09,4.54.15,9.08.14,13.62,0,2.27-.02,4.54-.13,6.82-.22,2.18-.03,4.94-1.86,6.5-.07.06-.18-.03-.12-.11,1.24-1.85,1.36-4.18,1.53-6.41.13-2.26.17-4.53.19-6.79l.09-13.61c0-.1.17-.11.17,0h0Z"/>
              </g>
              <ellipse class="cls-11" cx="2.49" cy="36.18" rx=".46" ry=".26"/>
              <ellipse class="cls-11" cx="53.07" cy="36.18" rx=".46" ry=".26"/>
              <g>
                <path class="cls-11" d="M9.69,3.77c10.02,0,15.54,0,18.13-2.85"/>
                <path class="cls-11" d="M9.69,3.64c3.13-.05,6.26-.06,9.37-.23,2.89-.25,6.17-.38,8.38-2.47.08-.06.11-.18.31-.11.2.07.29.29.04.46-2.3,2.17-5.73,2.31-8.71,2.53-3.14.16-6.26.11-9.39.07-.16,0-.17-.26,0-.26h0Z"/>
              </g>
              <g>
                <path class="cls-11" d="M50.04,2.31h.5c.15,0,.33.1.34.26.04.64-.6.98-1.11.98-.66,0-1.19-.58-1.1-1.24.07-.55.59-.95,1.15-.95h3.15s.42,0,.42,0c.28.02.47.13.5.4v.81s.01,1.19.02,1.19l-.74-1.5s-1.61-.91-1.6-.91l1.93.02c.27.02.39.22.41.49v.42s0,3.1,0,3.1c0,.56-.4,1.06-.97,1.14-.67.09-1.26-.44-1.26-1.09,0-.5.35-1.14,1-1.09.17.01.27.19.27.33v.49"/>
                <path class="cls-11" d="M50.04,2.06h.31c1.4-.03.67,1.64-.34,1.69-1.82.25-2.11-2.43-.27-2.54.78,0,2.86.04,3.66.05.27,0,.59.2.59.5,0,.68,0,1.3-.03,1.95.02.01-.11.09-.11.09,0,0-.78-1.56-.73-1.48-.43-.23-1.11-.61-1.53-.84-.03-.03,0,.02-.09-.07-.04-.08.07-.15.06-.13.02,0,.04,0,.06,0,0,0,1.89-.01,1.9,0,.31,0,.53.33.52.61,0,0,.03,2.41.03,2.41v1.22c-.02,1-1.29,1.61-2.08.96-.82-.58-.64-2.06.4-2.33.28-.09.7.04.78.36.07.29.02.43.03.68,0,.32-.5.33-.5,0,0-.11.02-.47,0-.53-.02-.09-.11-.06-.22-.05-.63.13-.8,1.17-.25,1.55.55.47,1.45.06,1.49-.67,0,0,.02-1.19.02-1.19l.03-2.41c0-.17-.13-.39-.28-.37,0,0-1.89-.04-1.89-.04,0,0-.04,0-.04,0,0,.02.13-.02.09-.12-.06-.08.01,0,.01-.01l.1.06c.26.17,1.25.7,1.46.87,0,0,.74,1.49.74,1.49.1.13-.1.23-.11.07,0,0-.06-2.07-.06-2.03,0-.2-.22-.3-.4-.3,0,0-2.43.04-2.43.04l-1.2.02c-.73.02-1.21.91-.71,1.48.42.61,1.67.31,1.6-.42-.05-.06-.15-.04-.29-.04,0,0-.3,0-.3,0-.33.01-.34-.51,0-.5h0Z"/>
              </g>
              <g>
                <path class="cls-11" d="M51.16,4.43c-.09,3.08-.03,3.76,2.59,3.73v24.72"/>
                <path class="cls-11" d="M51.32,4.43c.1,2.34-.33,3.59,2.59,3.57,0,.13,0,24.73,0,24.87,0,.19-.32.21-.31,0,0,0,0-24.72,0-24.72l.16.16c-.93.09-2.31.06-2.66-1.02-.28-.97-.16-1.9-.09-2.87.01-.19.31-.18.31,0h0Z"/>
              </g>
              <g>
                <path class="cls-11" d="M50.88,4.17c-3.58.14-4.02-.54-3.96-2.8h-16.64"/>
                <path class="cls-11" d="M50.89,4.35c-2.38.21-4.56.04-4.14-2.98,0,0,.18.18.18.18,0,0-16.64,0-16.64,0-.22,0-.23-.35,0-.35,0,0,16.64,0,16.64,0h.18s0,.18,0,.18c-.03,1.79.48,2.51,2.32,2.57.48.03.97.04,1.46.05.1,0,.18.08.18.18,0,.09-.07.17-.16.18h0Z"/>
              </g>
              <g>
                <path class="cls-11" d="M52.17,9.3c-.1,21.55-.09,24.79,1.84,26.88"/>
                <path class="cls-11" d="M52.25,9.3l.09,13.61c.02,2.27.07,4.54.19,6.79.17,2.24.28,4.57,1.53,6.41.05.07-.05.18-.12.11-1.83-1.56-1.64-4.32-1.86-6.5-.11-2.28-.13-4.55-.13-6.82-.02-4.54.05-9.08.14-13.62,0-.1.17-.11.17,0h0Z"/>
              </g>
              <g>
                <path class="cls-11" d="M45.81,3.77c-10.02,0-15.54,0-18.13-2.85"/>
                <path class="cls-11" d="M45.81,3.9c-3.13.04-6.26.09-9.39-.07-2.98-.22-6.41-.37-8.71-2.53-.06-.08-.19-.1-.13-.29.03-.09.09-.15.18-.17.2-.07.23.05.31.11,2.21,2.09,5.49,2.22,8.38,2.47,3.11.17,6.24.17,9.37.23.16,0,.17.26,0,.26h0Z"/>
              </g>
              <g>
                <path class="cls-11" d="M5.44,70.04h-.5c-.15,0-.33-.1-.34-.26-.04-.64.6-.98,1.11-.98.66,0,1.19.58,1.1,1.24-.07.55-.59.95-1.15.95h-3.15s-.42,0-.42,0c-.28-.02-.47-.13-.5-.4v-.81s-.01-1.19-.02-1.19l.74,1.5s1.61.91,1.6.91l-1.93-.02c-.27-.02-.39-.22-.41-.49v-.42s0-3.1,0-3.1c0-.56.4-1.06.97-1.14.67-.09,1.26.44,1.26,1.09,0,.5-.35,1.14-1,1.09-.17-.01-.27-.19-.27-.33v-.49"/>
                <path class="cls-11" d="M5.44,70.29s-.31,0-.31,0c-1.4.03-.67-1.64.34-1.69,1-.2,1.9.94,1.4,1.84-.42.88-1.58.68-2.36.68-.54-.05-2.63.07-2.82-.16-.13-.08-.2-.24-.2-.38,0-.69,0-1.31.03-1.96,0,0,.11-.08.11-.08,0,.01.74,1.49.74,1.5.33.15,1.13.62,1.52.82.03.03,0-.02.09.07.04.08-.07.15-.06.13-.02,0-.04,0-.06,0,0,0-1.89.01-1.9,0-.31,0-.53-.33-.52-.61,0,0-.03-2.41-.03-2.41v-1.22c.15-1.81,2.84-1.49,2.58.31-.03.97-1.75,1.71-1.71.32,0,0,0-.3,0-.3,0-.32.5-.33.5,0,0,.11-.02.47,0,.53.02.09.11.06.22.05.62-.13.8-1.17.25-1.55-.55-.47-1.45-.06-1.49.67-.02.75-.04,2.82-.05,3.6,0,.17.13.39.28.37,0,0,1.89.04,1.89.04,0,0,.03,0,.03,0,.01,0,.03,0,0,0,0-.02-.11.04-.08.12.06.08-.01,0-.01.01l-.1-.06c-.26-.17-1.25-.7-1.46-.87,0,0-.74-1.49-.74-1.49-.1-.13.1-.23.11-.07,0,0,.06,2.07.06,2.03,0,.2.22.3.4.3,0,0,2.43-.04,2.43-.04l1.2-.02c.73-.02,1.21-.91.71-1.48-.42-.61-1.67-.31-1.6.42.05.06.15.04.29.04,0,0,.3,0,.3,0,.33-.01.34.51,0,.5h0Z"/>
              </g>
              <g>
                <path class="cls-11" d="M4.32,67.93c.09-3.08.03-3.76-2.59-3.73v-24.72"/>
                <path class="cls-11" d="M4.16,67.92c-.1-2.34.33-3.59-2.59-3.57,0-.13,0-24.73,0-24.87,0-.19.32-.21.31,0,0,0,0,24.72,0,24.72l-.16-.16c.93-.09,2.31-.06,2.66,1.02.28.97.16,1.9.09,2.87-.01.19-.31.18-.31,0h0Z"/>
              </g>
              <g>
                <path class="cls-11" d="M4.6,68.18c3.58-.14,4.02.54,3.96,2.8h16.64"/>
                <path class="cls-11" d="M4.59,68.01c2.38-.21,4.56-.04,4.14,2.98,0,0-.18-.18-.18-.18,0,0,16.64,0,16.64,0,.22,0,.23.35,0,.35,0,0-16.64,0-16.64,0h-.18s0-.18,0-.18c.03-1.79-.48-2.51-2.32-2.57-.48-.03-.97-.04-1.46-.05-.1,0-.18-.08-.18-.18,0-.09.07-.17.16-.18h0Z"/>
              </g>
              <g>
                <path class="cls-11" d="M3.31,63.06c.1-21.55.09-24.79-1.84-26.88"/>
                <path class="cls-11" d="M3.23,63.06l-.09-13.61c-.02-2.27-.07-4.54-.19-6.79-.17-2.24-.28-4.57-1.53-6.41-.05-.07.05-.18.12-.11,1.83,1.56,1.64,4.32,1.86,6.5.11,2.28.13,4.55.13,6.82.02,4.54-.05,9.08-.14,13.62,0,.1-.17.11-.17,0h0Z"/>
              </g>
              <ellipse class="cls-11" cx="2.47" cy="36.18" rx=".46" ry=".26"/>
              <ellipse class="cls-11" cx="53.05" cy="36.18" rx=".46" ry=".26"/>
              <g>
                <path class="cls-11" d="M9.67,68.58c10.02,0,15.54,0,18.13,2.85"/>
                <path class="cls-11" d="M9.67,68.45c3.13-.04,6.26-.09,9.39.07,2.98.22,6.41.37,8.71,2.53.06.08.19.1.13.29-.03.09-.09.15-.18.17-.2.07-.23-.05-.31-.11-2.21-2.09-5.49-2.22-8.38-2.47-3.11-.17-6.24-.17-9.37-.23-.16,0-.17-.26,0-.26h0Z"/>
              </g>
              <g>
                <path class="cls-11" d="M50.02,70.04h.5c.15,0,.33-.1.34-.26.04-.64-.6-.98-1.11-.98-.66,0-1.19.58-1.1,1.24.07.55.59.95,1.15.95h3.15s.42,0,.42,0c.28-.02.47-.13.5-.4v-.81s.01-1.19.02-1.19l-.74,1.5s-1.61.91-1.6.91l1.93-.02c.27-.02.39-.22.41-.49v-.42s0-3.1,0-3.1c0-.56-.4-1.06-.97-1.14-.67-.09-1.26.44-1.26,1.09,0,.5.35,1.14,1,1.09.17-.01.27-.19.27-.33v-.49"/>
                <path class="cls-11" d="M50.03,69.79c.11,0,.46.02.53,0,.04-.01.06-.04.06-.04,0,.01,0-.13,0-.18-.39-1.11-2.23-.47-1.7.7.29.72,1.43.52,2.04.56,0,0,2.43.04,2.43.04.18,0,.41-.12.4-.29,0-.01.06-2.04.07-2.05.03-.14.21-.04.11.08,0,0-.74,1.49-.74,1.49,0,0-.01.02-.02.03-.43.25-1.12.66-1.54.9,0,0-.07.06-.01-.01.04-.1-.09-.14-.09-.12,0,0,.01,0,.01,0,.06,0,1.87-.04,1.92-.04.15,0,.28-.16.28-.38,0,.05-.03-2.41-.03-2.4,0,0-.02-1.19-.02-1.19-.04-.72-.94-1.14-1.49-.67-.55.37-.37,1.42.25,1.55.11,0,.19.04.22-.05.01-.06,0-.42,0-.52-.01-.32.5-.34.5-.01,0,0,0,.31,0,.31.03.24-.05.65-.39.74-.2.04-.27.01-.42,0-1.04-.27-1.22-1.74-.4-2.33.79-.65,2.06-.04,2.09.96,0,.77-.03,2.84-.04,3.63,0,.28-.22.62-.53.61,0,0-1.89,0-1.89,0-.02,0-.05,0-.06,0,0,.02-.1-.05-.06-.13.09-.1.06-.04.09-.07.42-.23,1.11-.61,1.53-.84-.05.09.74-1.49.73-1.48,0,0,.12.08.11.09.03.65.04,1.27.03,1.95,0,.14-.08.29-.2.38-.13.09-.26.11-.39.13-.81,0-2.87.05-3.65.05-1.85-.11-1.55-2.79.27-2.54.83.04,1.63,1.28.71,1.66-.29.06-.43.02-.68.03-.33,0-.32-.51,0-.5h0Z"/>
              </g>
              <g>
                <path class="cls-11" d="M51.14,67.93c-.09-3.08-.03-3.76,2.59-3.73v-24.72"/>
                <path class="cls-11" d="M50.99,67.93c-.22-2.37-.28-4.25,2.75-3.89,0,0-.16.16-.16.16v-24.72c0-.19.32-.21.31,0,0,0,0,24.72,0,24.72v.16h-.16c-1.69.07-2.42.34-2.39,2.18,0,0-.04,1.39-.04,1.39,0,.19-.3.2-.31,0h0Z"/>
              </g>
              <g>
                <path class="cls-11" d="M50.86,68.18c-3.58-.14-4.02.54-3.96,2.8h-16.64"/>
                <path class="cls-11" d="M50.86,68.36c-2.15.06-3.93-.14-3.78,2.62,0,0,0,.18,0,.18h-16.82c-.22,0-.23-.35,0-.35,0,0,16.64,0,16.64,0,0,0-.18.18-.18.18-.42-3.02,1.77-3.19,4.14-2.98.22.01.21.35-.01.35h0Z"/>
              </g>
              <g>
                <path class="cls-11" d="M52.14,63.06c-.1-21.55-.09-24.79,1.84-26.88"/>
                <path class="cls-11" d="M52.06,63.06c-.09-4.54-.15-9.08-.14-13.62,0-2.27.02-4.54.13-6.82.22-2.18.03-4.94,1.86-6.5.07-.06.18.03.12.11-1.24,1.85-1.36,4.18-1.53,6.41-.13,2.26-.17,4.53-.19,6.79l-.09,13.61c0,.1-.17.11-.17,0h0Z"/>
              </g>
              <g>
                <path class="cls-11" d="M45.79,68.58c-10.02,0-15.54,0-18.13,2.85"/>
                <path class="cls-11" d="M45.79,68.71c-3.13.05-6.26.06-9.37.23-2.89.25-6.17.38-8.38,2.47-.08.06-.11.18-.31.11-.2-.07-.29-.29-.04-.46,2.3-2.17,5.73-2.31,8.71-2.53,3.14-.16,6.26-.11,9.39-.07.16,0,.17.26,0,.26h0Z"/>
              </g>
            </g>
            <g>
              <path class="cls-11" d="M32.5,33.81c-2.32-.04-5.53-.09-9.86-.82-.83-.14-.57-.7-.69-1.02-1.3-3.55-.55-7,2.38-9.77,1.26-1.19,3.01-1.03,3.31-1.04,1.17-.05,2.04.24,3.26.63.96.31,1.29.34,1.75.77.53.48.75,1.09,1.2,2.35.46,1.27.87,2.11.95,3.13.05.67.12,1.58-.24,2.65-.14.41-.29.47-.98,2.09-.28.65-.35,1.03-1.07,1.02Z"/>
              <path class="cls-11" d="M30.43,28.06c-.86,2.73-1.51,2.96-2.57,2.9-1.18-.07-1.65-.53-2.15-3.22-.31-1.67,1.26-2.99,2.57-2.9s2.66,1.61,2.15,3.22Z"/>
              <g>
                <path class="cls-11" d="M23.64,23.96c-1.13,2.41-1.1,4.69.07,7.28"/>
                <path class="cls-11" d="M23.73,24c-.99,2.3-.73,4.87.46,7.02.14.26.03.58-.23.72-.26.14-.58.03-.72-.23-.49-1.23-.79-2.57-.75-3.9.04-1.32.44-2.58,1.05-3.69.06-.11.23-.03.18.09h0Z"/>
              </g>
              <g>
                <path class="cls-11" d="M33.32,24.83c.55,2.6.01,4.82-1.71,7.08"/>
                <path class="cls-11" d="M33.42,24.81c.77,2.5.14,5.31-1.38,7.42-.16.24-.49.31-.74.14-.24-.16-.31-.49-.14-.74,1.66-1.85,2.52-4.3,2.07-6.79-.02-.12.17-.16.2-.04h0Z"/>
              </g>
              <path class="cls-11" d="M25.65,30.94c.22-.08.52.04.72.16.46.27.48.38,1.41.49,1.09.13,1.02-.07,1.45-.25.13-.05.31-.06.53.07.2.11.13.29.21.43.14.26,1.25,1.29,1.06,1.21q-3.25-1.46-6.74-.58c-.19.05.51-.64.96-.91.06-.04.04-.48.4-.62Z"/>
              <path class="cls-11" d="M24.92,23.39c2.1.15,1.24,1.34,1.24,1.34.82-1.07,2.89-1.44,4.59.48,0,0-1.11-1.99,1.54-.73.63.3-.36-1-1.18-1.41-1.99-1-4-.91-5.54-.59-.36.07-1.43.85-.66.91Z"/>
              <path class="cls-11" d="M22,33.26c-1.23,1.48-2.69,2.34-4.97,2.47-1.72.1-2.85,1.78-2.69,3.12"/>
              <path class="cls-11" d="M33.63,34.17c.96,1.67,2.26,2.76,4.49,3.27,1.68.38,2.51,2.23,2.13,3.53"/>
              <path class="cls-11" d="M27.19,34.54c-3.11,2.16-3.7,3.85-3.65,5,.13,2.72,3.93,4.35,3.5,7.15-.12.78-.52,1.36-.8,1.69"/>
              <path class="cls-11" d="M30.3,34.44c.03.59,0,1.53-.37,2.56-.88,2.42-2.79,2.89-3.57,4.88-.34.86-.55,2.24.27,4.36"/>
              <path class="cls-11" d="M31.71,34.34c-.19,2.34.4,3.43,1.03,3.98.62.54,1.22.51,1.65,1.1.68.92.26,2.4-.26,3.59"/>
              <path class="cls-11" d="M23.91,33.65c1.41,1.89,1.43,2.99,1.17,3.65-.46,1.13-1.84,1.17-2.65,2.56-.59,1.02-.54,2.17-.39,2.99"/>
              <path class="cls-11" d="M23.68,34.03c.13,1.38-.29,2.18-.54,2.54-.97,1.44-3.02,1.79-4.29,2-1.43.24-1.88.03-2.64.49-.96.58-1.4,1.63-1.62,2.43"/>
              <path class="cls-11" d="M22.54,34.04c-.44.16-2.54.99-3.59,3.28-1.37,2.97.24,5.76.39,6.01"/>
              <path class="cls-11" d="M32.43,35.11c3.36,1.7,4.18,3.21,4.23,4.32.09,1.76-1.69,3.07-1.2,5.13.2.87.72,1.5,1.12,1.89"/>
              <path class="cls-11" d="M30.32,38.4c.99.95,3.13,3.29,3.57,6.79.12.96.1,1.82,0,2.57"/>
              <path class="cls-11" d="M27.39,42.12c.59.3,3.01,1.64,3.6,4.27.13.57-.03,1.89-1.19,2.98"/>
              <circle class="cls-11" cx="14.51" cy="39.73" r=".38"/>
              <circle class="cls-11" cx="14.39" cy="42.38" r=".38"/>
              <circle class="cls-11" cx="19.77" cy="44.09" r=".38"/>
              <circle class="cls-11" cx="22.17" cy="43.71" r=".38"/>
              <circle class="cls-11" cx="26.81" cy="47.06" r=".38"/>
              <circle class="cls-11" cx="25.68" cy="49" r=".38"/>
              <circle class="cls-11" cx="29.21" cy="50.04" r=".38"/>
              <circle class="cls-11" cx="33.69" cy="48.62" r=".38"/>
              <circle class="cls-11" cx="33.69" cy="43.8" r=".38"/>
              <circle class="cls-11" cx="37.22" cy="47.09" r=".38"/>
              <circle class="cls-11" cx="39.96" cy="41.85" r=".38"/>
            </g>
          </g>
        </g>
      </g>
    </g>
  </g>
</svg>