<?xml version="1.0" encoding="UTF-8"?>
<svg xmlns="http://www.w3.org/2000/svg" xmlns:xlink="http://www.w3.org/1999/xlink" viewBox="0 0 55.32 72.56">
  <defs>
    <style>
      .cls-1, .cls-2 {
        fill: #fbe1a9;
      }

      .cls-3, .cls-4 {
        fill: #211006;
      }

      .cls-5 {
        mix-blend-mode: color-burn;
        opacity: .72;
      }

      .cls-6 {
        isolation: isolate;
      }

      .cls-7 {
        mix-blend-mode: multiply;
      }

      .cls-4, .cls-8, .cls-2, .cls-9, .cls-10 {
        stroke: #fbe1a9;
        stroke-miterlimit: 10;
      }

      .cls-4, .cls-8, .cls-10 {
        stroke-width: .5px;
      }

      .cls-8, .cls-9 {
        fill: none;
      }

      .cls-11 {
        fill: url(#_名称未設定グラデーション_838);
      }

      .cls-10 {
        fill: #ad5f2b;
        stroke-linecap: round;
      }

      .cls-12 {
        fill: #cf8b2e;
      }
    </style>
    <linearGradient id="_名称未設定グラデーション_838" data-name="名称未設定グラデーション 838" x1="-7.28" y1="16.11" x2="62.6" y2="56.46" gradientUnits="userSpaceOnUse">
      <stop offset="0" stop-color="#664b31"/>
      <stop offset=".08" stop-color="#46372b"/>
      <stop offset=".31" stop-color="#a6935c"/>
      <stop offset=".56" stop-color="#e0e0d4"/>
      <stop offset=".64" stop-color="#b29b78"/>
      <stop offset=".67" stop-color="#a38358"/>
      <stop offset=".96" stop-color="#674c32"/>
    </linearGradient>
  </defs>
  <g class="cls-6">
    <g id="_レイヤー_2" data-name="レイヤー 2">
      <g id="_レイヤー_2-2" data-name="レイヤー 2">
        <g>
          <g>
            <g>
              <rect class="cls-4" x=".25" y=".25" width="54.82" height="72.06" rx="3.84" ry="3.84"/>
              <rect class="cls-8" x="4.94" y="4.63" width="45.5" height="62.94" rx="3.84" ry="3.84"/>
              <path class="cls-1" d="M5.45,2.56c-.11,0-.46-.02-.53,0-.04.01-.06.04-.06.04,0-.01,0,.13,0,.18.39,1.11,2.23.47,1.7-.7-.29-.72-1.43-.52-2.04-.56,0,0-2.43-.04-2.43-.04-.18,0-.41.12-.4.29,0,.01-.06,2.04-.07,2.05-.03.14-.21.04-.11-.08,0,0,.74-1.49.74-1.49,0,0,.01-.02.02-.03.43-.25,1.12-.66,1.54-.9,0,0,.07-.06.01.01-.04.1.09.14.09.12,0,0-.01,0-.01,0-.06,0-1.87.04-1.92.04-.15,0-.28.16-.28.38,0-.05.03,2.41.03,2.4,0,0,.02,1.19.02,1.19.04.72.94,1.14,1.49.67.55-.37.37-1.42-.25-1.55-.11,0-.19-.04-.22.05-.01.06,0,.42,0,.52.01.32-.5.34-.5.01,0,0,0-.31,0-.31-.03-.24.05-.65.39-.74.2-.04.27-.01.42,0,1.04.27,1.22,1.74.4,2.33-.79.65-2.06.04-2.09-.96,0-.77.03-2.84.04-3.63,0-.28.22-.62.53-.61,0,0,1.89,0,1.89,0,.02,0,.05,0,.06,0,0-.02.1.05.06.13-.09.1-.06.04-.09.07-.42.23-1.11.61-1.53.84.05-.09-.74,1.49-.73,1.48,0,0-.12-.08-.11-.09-.03-.65-.04-1.27-.03-1.95,0-.14.08-.29.2-.38.13-.09.26-.11.39-.13.81,0,2.87-.05,3.65-.05,1.85.11,1.55,2.79-.27,2.54-.83-.04-1.63-1.28-.71-1.66.29-.06.43-.02.68-.03.33,0,.32.51,0,.5h0Z"/>
              <path class="cls-1" d="M4.49,4.42c.22,2.37.28,4.25-2.75,3.89,0,0,.16-.16.16-.16v24.72c0,.19-.32.21-.31,0,0,0,0-24.72,0-24.72v-.16h.16c1.69-.07,2.42-.34,2.39-2.18,0,0,.04-1.39.04-1.39,0-.19.3-.2.31,0h0Z"/>
              <path class="cls-1" d="M4.62,4c2.15-.06,3.93.14,3.78-2.62,0,0,0-.18,0-.18h16.82c.22,0,.23.35,0,.35,0,0-16.64,0-16.64,0,0,0,.18-.18.18-.18.42,3.02-1.77,3.19-4.14,2.98-.22-.01-.21-.35.01-.35h0Z"/>
              <path class="cls-1" d="M3.42,9.3c.09,4.54.15,9.08.14,13.62,0,2.27-.02,4.54-.13,6.82-.22,2.18-.03,4.94-1.86,6.5-.07.06-.18-.03-.12-.11,1.24-1.85,1.36-4.18,1.53-6.41.13-2.26.17-4.53.19-6.79l.09-13.61c0-.1.17-.11.17,0h0Z"/>
              <ellipse class="cls-10" cx="2.49" cy="36.18" rx=".46" ry=".26"/>
              <ellipse class="cls-10" cx="53.07" cy="36.18" rx=".46" ry=".26"/>
              <path class="cls-1" d="M9.69,3.64c3.13-.05,6.26-.06,9.37-.23,2.89-.25,6.17-.38,8.38-2.47.08-.06.11-.18.31-.11.2.08.29.29.04.46-2.3,2.17-5.73,2.31-8.71,2.53-3.14.16-6.26.11-9.39.07-.16,0-.17-.26,0-.26h0Z"/>
              <path class="cls-1" d="M50.04,2.06h.31c1.4-.03.67,1.64-.34,1.69-1.82.25-2.11-2.43-.27-2.54.78,0,2.86.04,3.66.05.27,0,.59.2.59.5,0,.68,0,1.3-.03,1.95.02.01-.11.09-.11.09,0,0-.78-1.56-.73-1.48-.43-.23-1.11-.61-1.53-.84-.03-.03,0,.02-.09-.07-.04-.08.07-.15.06-.13.02,0,.04,0,.06,0,0,0,1.89-.01,1.9,0,.31,0,.53.33.52.61,0,0,.03,2.41.03,2.41v1.22c-.02,1-1.29,1.61-2.08.96-.82-.58-.64-2.06.4-2.33.28-.09.7.04.78.36.07.29.02.43.03.68,0,.32-.5.33-.5,0,0-.11.02-.47,0-.53-.02-.09-.11-.06-.22-.05-1.13.38-.47,2.15.68,1.67.75-.29.53-1.37.58-1.98,0,0,.04-2.45.03-2.4,0-.22-.13-.38-.28-.38,0,0-1.89-.04-1.89-.04h-.03s-.03,0,0,0c0,.02.11-.04.08-.13-.06-.08.01,0,.01-.01l.1.06c.26.17,1.24.7,1.46.87,0,0,.74,1.49.74,1.49.1.13-.1.23-.11.07,0,0-.06-2.07-.06-2.03,0-.2-.22-.3-.4-.3,0,0-2.43.04-2.43.04l-1.2.02c-.73.02-1.21.91-.71,1.48.42.61,1.67.31,1.6-.42-.05-.06-.15-.04-.29-.04,0,0-.3,0-.3,0-.33.01-.34-.51,0-.5h0Z"/>
              <path class="cls-1" d="M51.32,4.43c.1,2.34-.33,3.59,2.59,3.57,0,.13,0,24.73,0,24.87,0,.19-.32.21-.31,0,0,0,0-24.72,0-24.72l.16.16c-.93.09-2.31.06-2.66-1.02-.28-.97-.16-1.9-.09-2.87.01-.19.31-.18.31,0h0Z"/>
              <path class="cls-1" d="M50.89,4.35c-2.38.21-4.56.04-4.14-2.98,0,0,.18.18.18.18,0,0-16.64,0-16.64,0-.22,0-.23-.35,0-.35,0,0,16.64,0,16.64,0h.18v.18c-.03,1.79.48,2.51,2.32,2.57.48.03.97.04,1.46.05.1,0,.18.08.18.18,0,.09-.07.17-.16.18h0Z"/>
              <path class="cls-1" d="M52.25,9.3l.09,13.61c.02,2.27.07,4.54.19,6.79.17,2.24.28,4.57,1.53,6.41.05.07-.05.18-.12.11-1.83-1.56-1.64-4.32-1.86-6.5-.11-2.28-.13-4.55-.13-6.82-.02-4.54.05-9.08.14-13.62,0-.1.17-.11.17,0h0Z"/>
              <path class="cls-1" d="M45.81,3.9c-3.13.04-6.26.09-9.39-.07-2.98-.22-6.41-.37-8.71-2.53-.06-.08-.19-.1-.13-.29.03-.09.09-.15.18-.17.2-.07.23.05.31.11,2.21,2.09,5.49,2.22,8.38,2.47,3.11.17,6.24.17,9.37.23.16,0,.17.26,0,.26h0Z"/>
              <path class="cls-1" d="M5.44,70.29h-.31c-1.4.03-.67-1.64.34-1.69,1-.2,1.9.94,1.4,1.84-.42.88-1.58.68-2.36.68-.54-.05-2.63.07-2.82-.16-.13-.08-.2-.24-.2-.38,0-.69,0-1.31.03-1.96,0,0,.11-.08.11-.08,0,.01.74,1.49.74,1.5.33.15,1.13.62,1.52.82.03.03,0-.02.09.07.04.08-.07.15-.06.13-.02,0-.04,0-.06,0,0,0-1.89.01-1.9,0-.31,0-.53-.33-.52-.61,0,0-.03-2.41-.03-2.41,0,0-.01-1.22-.01-1.22.03-1,1.3-1.61,2.09-.96.82.58.64,2.06-.4,2.33-.28.09-.7-.04-.78-.36-.07-.29-.02-.43-.03-.68,0-.32.5-.33.5,0,0,.11-.02.47,0,.53.02.09.11.06.22.05,1.13-.38.47-2.15-.68-1.67-.75.29-.53,1.37-.58,1.98,0,0-.04,2.45-.03,2.4,0,.22.13.38.28.38,0,0,1.89.04,1.89.04,0,0,.04,0,.04,0,0-.02-.13.02-.09.12.06.08-.01,0-.01.01l-.1-.06c-.26-.17-1.25-.7-1.46-.87,0,0-.74-1.49-.74-1.49-.1-.13.1-.23.11-.07,0,0,.06,2.07.06,2.03,0,.2.22.3.4.3,0,0,2.43-.04,2.43-.04l1.2-.02c.73-.02,1.21-.91.71-1.48-.42-.61-1.67-.31-1.6.42.05.06.15.04.29.04,0,0,.3,0,.3,0,.33-.01.34.51,0,.5h0Z"/>
              <path class="cls-1" d="M4.16,67.92c-.1-2.34.33-3.59-2.59-3.57,0,0,0-.16,0-.16v-24.72c0-.19.32-.21.31,0,0,0,0,24.72,0,24.72l-.16-.16c.93-.09,2.31-.06,2.66,1.02.28.97.16,1.9.09,2.87-.01.19-.31.18-.31,0h0Z"/>
              <path class="cls-1" d="M4.59,68.01c2.38-.21,4.56-.04,4.14,2.98,0,0-.18-.18-.18-.18,0,0,16.64,0,16.64,0,.22,0,.23.35,0,.35,0,0-16.64,0-16.64,0h-.18s0-.18,0-.18c.03-1.79-.48-2.51-2.32-2.57-.48-.03-.97-.04-1.46-.05-.1,0-.18-.08-.18-.18,0-.09.07-.17.16-.18h0Z"/>
              <path class="cls-1" d="M3.23,63.06l-.09-13.61c-.02-2.27-.07-4.54-.19-6.79-.17-2.24-.28-4.57-1.53-6.41-.05-.07.05-.18.12-.11,1.83,1.56,1.64,4.32,1.86,6.5.11,2.28.13,4.55.13,6.82.02,4.54-.05,9.08-.14,13.62,0,.1-.17.11-.17,0h0Z"/>
              <ellipse class="cls-10" cx="2.47" cy="36.18" rx=".46" ry=".26"/>
              <ellipse class="cls-10" cx="53.05" cy="36.18" rx=".46" ry=".26"/>
              <path class="cls-1" d="M9.67,68.45c3.13-.04,6.26-.09,9.39.07,2.98.22,6.41.37,8.71,2.53.06.08.19.1.13.29-.03.09-.09.15-.18.17-.2.07-.23-.05-.31-.11-2.21-2.09-5.49-2.22-8.38-2.47-3.11-.17-6.24-.17-9.37-.23-.16,0-.17-.26,0-.26h0Z"/>
              <path class="cls-1" d="M50.03,69.79c.11,0,.46.02.53,0,.04-.01.06-.04.06-.04,0,.01,0-.13,0-.18-.39-1.11-2.23-.47-1.7.7.29.72,1.43.52,2.04.56,0,0,2.43.04,2.43.04.18,0,.41-.12.4-.29,0-.01.06-2.04.07-2.05.03-.14.21-.04.11.08,0,0-.74,1.49-.74,1.49,0,0-.01.02-.02.03-.43.25-1.12.66-1.54.9,0,0-.07.06-.01-.01.04-.1-.09-.14-.09-.12,0,0,.01,0,.01,0,.06,0,1.87-.04,1.92-.04.15,0,.28-.16.28-.38,0,.05-.03-2.41-.03-2.4,0,0-.02-1.19-.02-1.19-.04-.72-.94-1.14-1.49-.67-.55.37-.37,1.42.25,1.55.11,0,.19.04.22-.05.01-.06,0-.42,0-.52-.01-.32.5-.34.5-.01,0,0,0,.31,0,.31.03.24-.05.65-.39.74-.2.04-.27.01-.42,0-1.04-.27-1.22-1.74-.4-2.33.79-.65,2.06-.04,2.09.96,0,.77-.03,2.84-.04,3.63,0,.28-.22.62-.53.61,0,0-1.89,0-1.89,0-.02,0-.05,0-.06,0,0,.02-.1-.05-.06-.13.09-.1.06-.04.09-.07.42-.23,1.11-.61,1.53-.84-.05.09.74-1.49.73-1.48,0,0,.12.08.11.09.03.65.04,1.27.03,1.95,0,.14-.08.29-.2.38-.13.09-.26.11-.39.13-.81,0-2.87.05-3.65.05-1.85-.11-1.55-2.79.27-2.54.83.04,1.63,1.28.71,1.66-.29.06-.43.02-.68.03-.33,0-.32-.51,0-.5h0Z"/>
              <path class="cls-1" d="M50.99,67.93c-.22-2.37-.28-4.25,2.75-3.89,0,0-.16.16-.16.16v-24.72c0-.19.32-.21.31,0,0,0,0,24.72,0,24.72v.16h-.16c-1.69.07-2.42.34-2.39,2.18,0,0-.04,1.39-.04,1.39,0,.19-.3.2-.31,0h0Z"/>
              <path class="cls-1" d="M50.86,68.36c-2.15.06-3.93-.14-3.78,2.62,0,0,0,.18,0,.18h-16.82c-.22,0-.23-.35,0-.35,0,0,16.64,0,16.64,0,0,0-.18.18-.18.18-.42-3.02,1.77-3.19,4.14-2.98.22.01.21.35-.01.35h0Z"/>
              <path class="cls-1" d="M52.06,63.06c-.09-4.54-.15-9.08-.14-13.62,0-2.27.02-4.54.13-6.82.22-2.18.03-4.94,1.86-6.5.07-.06.18.03.12.11-1.24,1.85-1.36,4.18-1.53,6.41-.13,2.26-.17,4.53-.19,6.79l-.09,13.61c0,.1-.17.11-.17,0h0Z"/>
              <path class="cls-1" d="M45.79,68.71c-3.13.05-6.26.06-9.37.23-2.89.25-6.17.38-8.38,2.47-.08.06-.11.18-.31.11-.2-.07-.29-.29-.04-.46,2.3-2.17,5.73-2.31,8.71-2.53,3.14-.16,6.26-.11,9.39-.07.16,0,.17.26,0,.26h0Z"/>
            </g>
            <path class="cls-2" d="M48.66,24.51s-11.91,31.51-41.81,32.1l-.08,6.09c29.98-4.39,36.97-24.9,41.65-34.91l.24-3.29Z"/>
            <g>
              <path class="cls-2" d="M43.78,24.67l-.62.65s-1.22-1.78-2.89-2.76l.62-.65c1.96,1.47,2.89,2.76,2.89,2.76Z"/>
              <path class="cls-2" d="M40.77,21.73l-.7.74c-.6-.27-1.9-.4-2.46-.44-.11,0-.16-.14-.09-.22l2.27-2.63c.06-.08.18-.07.24.02.55.91.72,1.5.74,2.54Z"/>
              <path class="cls-2" d="M37.62,22.02c-1.3.04-1.83.07-3.4,1.39-1.19,1.01-1.75-3.2-1.08-3.88.31-.31,1-.05,2.01-.14,0,0-1.54-.97-.47-2.17.95-1.06,1.26-.59,2.6,0,0,0-.68-1.36.8-2.07,1.43-.69,2.34.13,2.3,1.85,0,.25.1,1.15-.36,2.2-.38.87-.99,2.79-2.41,2.83Z"/>
              <circle class="cls-2" cx="40.08" cy="15.21" r=".21"/>
              <circle class="cls-2" cx="38.77" cy="14.96" r=".21"/>
              <circle class="cls-2" cx="38.16" cy="15" r=".21"/>
              <circle class="cls-2" cx="37.05" cy="15.92" r=".21"/>
              <circle class="cls-2" cx="34.7" cy="16.69" r=".21"/>
              <circle class="cls-2" cx="35.18" cy="16.79" r=".21"/>
              <circle class="cls-2" cx="36.97" cy="16.08" r=".21"/>
              <circle class="cls-2" cx="34.38" cy="17.17" r=".21"/>
              <circle class="cls-2" cx="32.53" cy="21.21" r=".21"/>
              <circle class="cls-2" cx="33.02" cy="22.41" r=".21"/>
              <circle class="cls-2" cx="32.75" cy="20.78" r=".21"/>
              <circle class="cls-2" cx="32.7" cy="23.17" r=".21"/>
              <circle class="cls-2" cx="33.18" cy="23.48" r=".21"/>
              <circle class="cls-2" cx="33.22" cy="23.94" r=".21"/>
              <circle class="cls-2" cx="35.61" cy="16.11" r=".21"/>
              <circle class="cls-2" cx="35.28" cy="16.36" r=".21"/>
              <circle class="cls-2" cx="39.48" cy="14.84" r=".29"/>
              <circle class="cls-2" cx="37.52" cy="15.17" r=".29"/>
              <circle class="cls-2" cx="36.96" cy="15.49" r=".29"/>
              <circle class="cls-2" cx="33.91" cy="17.67" r=".29"/>
              <circle class="cls-2" cx="33.93" cy="18.36" r=".29"/>
              <circle class="cls-2" cx="34.16" cy="18.12" r=".29"/>
              <circle class="cls-2" cx="34.44" cy="17.55" r=".29"/>
              <circle class="cls-2" cx="34.82" cy="17.27" r=".29"/>
              <circle class="cls-2" cx="35.93" cy="16.51" r=".29"/>
              <circle class="cls-2" cx="32.66" cy="19.58" r=".29"/>
              <circle class="cls-2" cx="32.46" cy="20.26" r=".29"/>
              <circle class="cls-2" cx="32.22" cy="21.57" r=".29"/>
              <circle class="cls-2" cx="32.56" cy="22.19" r=".29"/>
              <circle class="cls-2" cx="32.53" cy="22.54" r=".29"/>
              <circle class="cls-2" cx="33.68" cy="23.78" r=".29"/>
              <circle class="cls-2" cx="33.03" cy="22.83" r=".29"/>
              <circle class="cls-2" cx="32.76" cy="21.74" r=".29"/>
            </g>
            <g>
              <path class="cls-1" d="M9.67,64.44c21.88-7.72,35.18-25.34,35.18-56.65h1.11c.32,42.03-22.85,56.3-22.85,56.3l-13.44.34Z"/>
              <path class="cls-9" d="M9.67,64.44c21.88-7.72,35.18-25.34,35.18-56.65h1.11c.32,42.03-22.85,56.3-22.85,56.3l-13.44.34Z"/>
              <path class="cls-3" d="M45.96,7.79c.32,42.03-22.85,56.3-22.85,56.3l-13.44.34c21.88-7.72,35.18-25.34,35.18-56.65h1.11M46.95,6.79h-3.1v1c0,14.93-3.1,27.25-9.22,36.63-5.72,8.76-14.23,15.18-25.29,19.08l-5.97,2.1,6.33-.16,13.44-.34h.27s.23-.15.23-.15c.24-.15,6.05-3.79,11.86-12.7,5.32-8.17,11.63-22.51,11.47-44.47v-.99h0Z"/>
            </g>
            <g>
              <g>
                <path class="cls-2" d="M38.75,40.23l-1.56,1.72s-3.05-4.69-7.22-7.26l1.56-1.72c4.9,3.87,7.22,7.26,7.22,7.26Z"/>
                <path class="cls-2" d="M31.25,32.49l-1.74,1.94c-1.49-.72-4.75-1.05-6.14-1.17-.27-.02-.4-.36-.22-.58l5.65-6.92c.16-.2.46-.17.59.05,1.36,2.39,1.81,3.94,1.86,6.68Z"/>
                <path class="cls-2" d="M23.37,33.26c-3.25.1-4.57.19-8.48,3.67-2.97,2.64-4.38-8.43-2.69-10.22.78-.83,2.5-.13,5.03-.36,0,0-3.84-2.56-1.16-5.71,2.36-2.78,3.14-1.56,6.49,0,0,0-1.71-3.58,1.99-5.46,3.56-1.81,5.84.33,5.74,4.85-.02.66.25,3.01-.89,5.78-.95,2.3-2.47,7.34-6.02,7.45Z"/>
                <ellipse class="cls-2" cx="29.53" cy="15.33" rx=".52" ry=".55"/>
                <ellipse class="cls-2" cx="26.25" cy="14.69" rx=".52" ry=".55"/>
                <ellipse class="cls-2" cx="24.72" cy="14.79" rx=".52" ry=".55"/>
                <ellipse class="cls-2" cx="21.95" cy="17.21" rx=".52" ry=".55"/>
                <ellipse class="cls-2" cx="16.08" cy="19.23" rx=".52" ry=".55"/>
                <ellipse class="cls-2" cx="17.29" cy="19.51" rx=".52" ry=".55"/>
                <ellipse class="cls-2" cx="21.74" cy="17.62" rx=".52" ry=".55"/>
                <ellipse class="cls-2" cx="15.28" cy="20.5" rx=".52" ry=".55"/>
                <ellipse class="cls-2" cx="10.68" cy="31.13" rx=".52" ry=".55"/>
                <ellipse class="cls-2" cx="11.89" cy="34.27" rx=".52" ry=".55"/>
                <ellipse class="cls-2" cx="11.21" cy="29.99" rx=".52" ry=".55"/>
                <ellipse class="cls-2" cx="11.1" cy="36.29" rx=".52" ry=".55"/>
                <ellipse class="cls-2" cx="12.3" cy="37.1" rx=".52" ry=".55"/>
                <ellipse class="cls-2" cx="12.39" cy="38.31" rx=".52" ry=".55"/>
                <ellipse class="cls-2" cx="18.37" cy="17.71" rx=".52" ry=".55"/>
                <ellipse class="cls-2" cx="17.53" cy="18.37" rx=".52" ry=".55"/>
                <ellipse class="cls-2" cx="28.01" cy="14.37" rx=".73" ry=".77"/>
                <ellipse class="cls-2" cx="23.13" cy="15.24" rx=".73" ry=".77"/>
                <ellipse class="cls-2" cx="21.72" cy="16.07" rx=".73" ry=".77"/>
                <ellipse class="cls-2" cx="14.13" cy="21.8" rx=".73" ry=".77"/>
                <ellipse class="cls-2" cx="14.16" cy="23.64" rx=".73" ry=".77"/>
                <ellipse class="cls-2" cx="14.75" cy="22.98" rx=".73" ry=".77"/>
                <ellipse class="cls-2" cx="15.44" cy="21.5" rx=".73" ry=".77"/>
                <ellipse class="cls-2" cx="16.4" cy="20.76" rx=".73" ry=".77"/>
                <ellipse class="cls-2" cx="19.16" cy="18.76" rx=".73" ry=".77"/>
                <ellipse class="cls-2" cx="11" cy="26.83" rx=".73" ry=".77"/>
                <ellipse class="cls-2" cx="10.49" cy="28.63" rx=".73" ry=".77"/>
                <ellipse class="cls-2" cx="9.9" cy="32.08" rx=".73" ry=".77"/>
                <ellipse class="cls-2" cx="10.75" cy="33.7" rx=".73" ry=".77"/>
                <ellipse class="cls-2" cx="10.68" cy="34.62" rx=".73" ry=".77"/>
                <ellipse class="cls-2" cx="13.55" cy="37.88" rx=".73" ry=".77"/>
                <ellipse class="cls-2" cx="11.92" cy="35.38" rx=".73" ry=".77"/>
                <ellipse class="cls-2" cx="11.25" cy="32.53" rx=".73" ry=".77"/>
              </g>
              <circle class="cls-3" cx="14.68" cy="35.56" r="1.28"/>
              <circle class="cls-3" cx="22.71" cy="27.34" r="1.28"/>
              <circle class="cls-3" cx="22.71" cy="29.52" r="1.28"/>
              <circle class="cls-3" cx="24.81" cy="30.15" r="1.28"/>
              <circle class="cls-3" cx="26.38" cy="28.46" r="1.28"/>
              <circle class="cls-3" cx="24.98" cy="26.56" r="1.28"/>
              <circle class="cls-3" cx="28.01" cy="15.78" r="1.28"/>
              <circle class="cls-3" cx="13.28" cy="34.33" r="1.01"/>
              <circle class="cls-3" cx="28" cy="18.66" r="1.01"/>
            </g>
          </g>
          <g class="cls-7">
            <g>
              <rect class="cls-11" x=".25" y=".25" width="54.82" height="72.06" rx="3.84" ry="3.84"/>
              <rect class="cls-11" x="4.94" y="4.63" width="45.5" height="62.94" rx="3.84" ry="3.84"/>
              <g>
                <path class="cls-11" d="M5.46,2.31h-.5c-.15,0-.33.1-.34.26-.04.64.6.98,1.11.98.66,0,1.19-.58,1.1-1.24-.07-.55-.59-.95-1.15-.95h-3.15s-.42,0-.42,0c-.28.02-.47.13-.5.4v.81s-.01,1.19-.02,1.19l.74-1.5s1.61-.91,1.6-.91l-1.93.02c-.27.02-.39.22-.41.49v.42s0,3.1,0,3.1c0,.56.4,1.06.97,1.14.67.09,1.26-.44,1.26-1.09,0-.5-.35-1.14-1-1.09-.17.01-.27.19-.27.33v.49"/>
                <path class="cls-11" d="M5.45,2.56c-.11,0-.46-.02-.53,0-.04.01-.06.04-.06.04,0-.01,0,.13,0,.18.39,1.11,2.23.47,1.7-.7-.29-.72-1.43-.52-2.04-.56,0,0-2.43-.04-2.43-.04-.18,0-.41.12-.4.29,0,.01-.06,2.04-.07,2.05-.03.14-.21.04-.11-.08,0,0,.74-1.49.74-1.49,0,0,.01-.02.02-.03.43-.25,1.12-.66,1.54-.9,0,0,.07-.06.01.01-.04.1.09.14.09.12,0,0-.01,0-.01,0-.06,0-1.87.04-1.92.04-.15,0-.28.16-.28.38,0-.05.03,2.41.03,2.4,0,0,.02,1.19.02,1.19.04.72.94,1.14,1.49.67.55-.37.37-1.42-.25-1.55-.11,0-.19-.04-.22.05-.01.06,0,.42,0,.52.01.32-.5.34-.5.01,0,0,0-.31,0-.31-.03-.24.05-.65.39-.74.2-.04.27-.01.42,0,1.04.27,1.22,1.74.4,2.33-.79.65-2.06.04-2.09-.96,0-.77.03-2.84.04-3.63,0-.28.22-.62.53-.61,0,0,1.89,0,1.89,0,.02,0,.05,0,.06,0,0-.02.1.05.06.13-.09.1-.06.04-.09.07-.42.23-1.11.61-1.53.84.05-.09-.74,1.49-.73,1.48,0,0-.12-.08-.11-.09-.03-.65-.04-1.27-.03-1.95,0-.14.08-.29.2-.38.13-.09.26-.11.39-.13.81,0,2.87-.05,3.65-.05,1.85.11,1.55,2.79-.27,2.54-.83-.04-1.63-1.28-.71-1.66.29-.06.43-.02.68-.03.33,0,.32.51,0,.5h0Z"/>
              </g>
              <g>
                <path class="cls-11" d="M4.34,4.43c.09,3.08.03,3.76-2.59,3.73v24.72"/>
                <path class="cls-11" d="M4.49,4.42c.22,2.37.28,4.25-2.75,3.89,0,0,.16-.16.16-.16v24.72c0,.19-.32.21-.31,0,0,0,0-24.72,0-24.72v-.16h.16c1.69-.07,2.42-.34,2.39-2.18,0,0,.04-1.39.04-1.39,0-.19.3-.2.31,0h0Z"/>
              </g>
              <g>
                <path class="cls-11" d="M4.62,4.17c3.58.14,4.02-.54,3.96-2.8h16.64"/>
                <path class="cls-11" d="M4.62,4c2.15-.06,3.93.14,3.78-2.62,0,0,0-.18,0-.18h16.82c.22,0,.23.35,0,.35,0,0-16.64,0-16.64,0,0,0,.18-.18.18-.18.42,3.02-1.77,3.19-4.14,2.98-.22-.01-.21-.35.01-.35h0Z"/>
              </g>
              <g>
                <path class="cls-11" d="M3.34,9.3c.1,21.55.09,24.79-1.84,26.88"/>
                <path class="cls-11" d="M3.42,9.3c.09,4.54.15,9.08.14,13.62,0,2.27-.02,4.54-.13,6.82-.22,2.18-.03,4.94-1.86,6.5-.07.06-.18-.03-.12-.11,1.24-1.85,1.36-4.18,1.53-6.41.13-2.26.17-4.53.19-6.79l.09-13.61c0-.1.17-.11.17,0h0Z"/>
              </g>
              <ellipse class="cls-11" cx="2.49" cy="36.18" rx=".46" ry=".26"/>
              <ellipse class="cls-11" cx="53.07" cy="36.18" rx=".46" ry=".26"/>
              <g>
                <path class="cls-11" d="M9.69,3.77c10.02,0,15.54,0,18.13-2.85"/>
                <path class="cls-11" d="M9.69,3.64c3.13-.05,6.26-.06,9.37-.23,2.89-.25,6.17-.38,8.38-2.47.08-.06.11-.18.31-.11.2.08.29.29.04.46-2.3,2.17-5.73,2.31-8.71,2.53-3.14.16-6.26.11-9.39.07-.16,0-.17-.26,0-.26h0Z"/>
              </g>
              <g>
                <path class="cls-11" d="M50.04,2.31h.5c.15,0,.33.1.34.26.04.64-.6.98-1.11.98-.66,0-1.19-.58-1.1-1.24.07-.55.59-.95,1.15-.95h3.15s.42,0,.42,0c.28.02.47.13.5.4v.81s.01,1.19.02,1.19l-.74-1.5s-1.61-.91-1.6-.91l1.93.02c.27.02.39.22.41.49v.42s0,3.1,0,3.1c0,.56-.4,1.06-.97,1.14-.67.09-1.26-.44-1.26-1.09,0-.5.35-1.14,1-1.09.17.01.27.19.27.33v.49"/>
                <path class="cls-11" d="M50.04,2.06h.31c1.4-.03.67,1.64-.34,1.69-1.82.25-2.11-2.43-.27-2.54.78,0,2.86.04,3.66.05.27,0,.59.2.59.5,0,.68,0,1.3-.03,1.95.02.01-.11.09-.11.09,0,0-.78-1.56-.73-1.48-.43-.23-1.11-.61-1.53-.84-.03-.03,0,.02-.09-.07-.04-.08.07-.15.06-.13.02,0,.04,0,.06,0,0,0,1.89-.01,1.9,0,.31,0,.53.33.52.61,0,0,.03,2.41.03,2.41v1.22c-.02,1-1.29,1.61-2.08.96-.82-.58-.64-2.06.4-2.33.28-.09.7.04.78.36.07.29.02.43.03.68,0,.32-.5.33-.5,0,0-.11.02-.47,0-.53-.02-.09-.11-.06-.22-.05-1.13.38-.47,2.15.68,1.67.75-.29.53-1.37.58-1.98,0,0,.04-2.45.03-2.4,0-.22-.13-.38-.28-.38,0,0-1.89-.04-1.89-.04h-.03s-.03,0,0,0c0,.02.11-.04.08-.13-.06-.08.01,0,.01-.01l.1.06c.26.17,1.24.7,1.46.87,0,0,.74,1.49.74,1.49.1.13-.1.23-.11.07,0,0-.06-2.07-.06-2.03,0-.2-.22-.3-.4-.3,0,0-2.43.04-2.43.04l-1.2.02c-.73.02-1.21.91-.71,1.48.42.61,1.67.31,1.6-.42-.05-.06-.15-.04-.29-.04,0,0-.3,0-.3,0-.33.01-.34-.51,0-.5h0Z"/>
              </g>
              <g>
                <path class="cls-11" d="M51.16,4.43c-.09,3.08-.03,3.76,2.59,3.73v24.72"/>
                <path class="cls-11" d="M51.32,4.43c.1,2.34-.33,3.59,2.59,3.57,0,.13,0,24.73,0,24.87,0,.19-.32.21-.31,0,0,0,0-24.72,0-24.72l.16.16c-.93.09-2.31.06-2.66-1.02-.28-.97-.16-1.9-.09-2.87.01-.19.31-.18.31,0h0Z"/>
              </g>
              <g>
                <path class="cls-11" d="M50.88,4.17c-3.58.14-4.02-.54-3.96-2.8h-16.64"/>
                <path class="cls-11" d="M50.89,4.35c-2.38.21-4.56.04-4.14-2.98,0,0,.18.18.18.18,0,0-16.64,0-16.64,0-.22,0-.23-.35,0-.35,0,0,16.64,0,16.64,0h.18v.18c-.03,1.79.48,2.51,2.32,2.57.48.03.97.04,1.46.05.1,0,.18.08.18.18,0,.09-.07.17-.16.18h0Z"/>
              </g>
              <g>
                <path class="cls-11" d="M52.17,9.3c-.1,21.55-.09,24.79,1.84,26.88"/>
                <path class="cls-11" d="M52.25,9.3l.09,13.61c.02,2.27.07,4.54.19,6.79.17,2.24.28,4.57,1.53,6.41.05.07-.05.18-.12.11-1.83-1.56-1.64-4.32-1.86-6.5-.11-2.28-.13-4.55-.13-6.82-.02-4.54.05-9.08.14-13.62,0-.1.17-.11.17,0h0Z"/>
              </g>
              <g>
                <path class="cls-11" d="M45.81,3.77c-10.02,0-15.54,0-18.13-2.85"/>
                <path class="cls-11" d="M45.81,3.9c-3.13.04-6.26.09-9.39-.07-2.98-.22-6.41-.37-8.71-2.53-.06-.08-.19-.1-.13-.29.03-.09.09-.15.18-.17.2-.07.23.05.31.11,2.21,2.09,5.49,2.22,8.38,2.47,3.11.17,6.24.17,9.37.23.16,0,.17.26,0,.26h0Z"/>
              </g>
              <g>
                <path class="cls-11" d="M5.44,70.04h-.5c-.15,0-.33-.1-.34-.26-.04-.64.6-.98,1.11-.98.66,0,1.19.58,1.1,1.24-.07.55-.59.95-1.15.95h-3.15s-.42,0-.42,0c-.28-.02-.47-.13-.5-.4v-.81s-.01-1.19-.02-1.19l.74,1.5s1.61.91,1.6.91l-1.93-.02c-.27-.02-.39-.22-.41-.49v-.42s0-3.1,0-3.1c0-.56.4-1.06.97-1.14.67-.09,1.26.44,1.26,1.09,0,.5-.35,1.14-1,1.09-.17-.01-.27-.19-.27-.33v-.49"/>
                <path class="cls-11" d="M5.44,70.29h-.31c-1.4.03-.67-1.64.34-1.69,1-.2,1.9.94,1.4,1.84-.42.88-1.58.68-2.36.68-.54-.05-2.63.07-2.82-.16-.13-.08-.2-.24-.2-.38,0-.69,0-1.31.03-1.96,0,0,.11-.08.11-.08,0,.01.74,1.49.74,1.5.33.15,1.13.62,1.52.82.03.03,0-.02.09.07.04.08-.07.15-.06.13-.02,0-.04,0-.06,0,0,0-1.89.01-1.9,0-.31,0-.53-.33-.52-.61,0,0-.03-2.41-.03-2.41,0,0-.01-1.22-.01-1.22.03-1,1.3-1.61,2.09-.96.82.58.64,2.06-.4,2.33-.28.09-.7-.04-.78-.36-.07-.29-.02-.43-.03-.68,0-.32.5-.33.5,0,0,.11-.02.47,0,.53.02.09.11.06.22.05,1.13-.38.47-2.15-.68-1.67-.75.29-.53,1.37-.58,1.98,0,0-.04,2.45-.03,2.4,0,.22.13.38.28.38,0,0,1.89.04,1.89.04,0,0,.04,0,.04,0,0-.02-.13.02-.09.12.06.08-.01,0-.01.01l-.1-.06c-.26-.17-1.25-.7-1.46-.87,0,0-.74-1.49-.74-1.49-.1-.13.1-.23.11-.07,0,0,.06,2.07.06,2.03,0,.2.22.3.4.3,0,0,2.43-.04,2.43-.04l1.2-.02c.73-.02,1.21-.91.71-1.48-.42-.61-1.67-.31-1.6.42.05.06.15.04.29.04,0,0,.3,0,.3,0,.33-.01.34.51,0,.5h0Z"/>
              </g>
              <g>
                <path class="cls-11" d="M4.32,67.93c.09-3.08.03-3.76-2.59-3.73v-24.72"/>
                <path class="cls-11" d="M4.16,67.92c-.1-2.34.33-3.59-2.59-3.57,0,0,0-.16,0-.16v-24.72c0-.19.32-.21.31,0,0,0,0,24.72,0,24.72l-.16-.16c.93-.09,2.31-.06,2.66,1.02.28.97.16,1.9.09,2.87-.01.19-.31.18-.31,0h0Z"/>
              </g>
              <g>
                <path class="cls-11" d="M4.6,68.18c3.58-.14,4.02.54,3.96,2.8h16.64"/>
                <path class="cls-11" d="M4.59,68.01c2.38-.21,4.56-.04,4.14,2.98,0,0-.18-.18-.18-.18,0,0,16.64,0,16.64,0,.22,0,.23.35,0,.35,0,0-16.64,0-16.64,0h-.18s0-.18,0-.18c.03-1.79-.48-2.51-2.32-2.57-.48-.03-.97-.04-1.46-.05-.1,0-.18-.08-.18-.18,0-.09.07-.17.16-.18h0Z"/>
              </g>
              <g>
                <path class="cls-11" d="M3.31,63.06c.1-21.55.09-24.79-1.84-26.88"/>
                <path class="cls-11" d="M3.23,63.06l-.09-13.61c-.02-2.27-.07-4.54-.19-6.79-.17-2.24-.28-4.57-1.53-6.41-.05-.07.05-.18.12-.11,1.83,1.56,1.64,4.32,1.86,6.5.11,2.28.13,4.55.13,6.82.02,4.54-.05,9.08-.14,13.62,0,.1-.17.11-.17,0h0Z"/>
              </g>
              <ellipse class="cls-11" cx="2.47" cy="36.18" rx=".46" ry=".26"/>
              <ellipse class="cls-11" cx="53.05" cy="36.18" rx=".46" ry=".26"/>
              <g>
                <path class="cls-11" d="M9.67,68.58c10.02,0,15.54,0,18.13,2.85"/>
                <path class="cls-11" d="M9.67,68.45c3.13-.04,6.26-.09,9.39.07,2.98.22,6.41.37,8.71,2.53.06.08.19.1.13.29-.03.09-.09.15-.18.17-.2.07-.23-.05-.31-.11-2.21-2.09-5.49-2.22-8.38-2.47-3.11-.17-6.24-.17-9.37-.23-.16,0-.17-.26,0-.26h0Z"/>
              </g>
              <g>
                <path class="cls-11" d="M50.02,70.04h.5c.15,0,.33-.1.34-.26.04-.64-.6-.98-1.11-.98-.66,0-1.19.58-1.1,1.24.07.55.59.95,1.15.95h3.15s.42,0,.42,0c.28-.02.47-.13.5-.4v-.81s.01-1.19.02-1.19l-.74,1.5s-1.61.91-1.6.91l1.93-.02c.27-.02.39-.22.41-.49v-.42s0-3.1,0-3.1c0-.56-.4-1.06-.97-1.14-.67-.09-1.26.44-1.26,1.09,0,.5.35,1.14,1,1.09.17-.01.27-.19.27-.33v-.49"/>
                <path class="cls-11" d="M50.03,69.79c.11,0,.46.02.53,0,.04-.01.06-.04.06-.04,0,.01,0-.13,0-.18-.39-1.11-2.23-.47-1.7.7.29.72,1.43.52,2.04.56,0,0,2.43.04,2.43.04.18,0,.41-.12.4-.29,0-.01.06-2.04.07-2.05.03-.14.21-.04.11.08,0,0-.74,1.49-.74,1.49,0,0-.01.02-.02.03-.43.25-1.12.66-1.54.9,0,0-.07.06-.01-.01.04-.1-.09-.14-.09-.12,0,0,.01,0,.01,0,.06,0,1.87-.04,1.92-.04.15,0,.28-.16.28-.38,0,.05-.03-2.41-.03-2.4,0,0-.02-1.19-.02-1.19-.04-.72-.94-1.14-1.49-.67-.55.37-.37,1.42.25,1.55.11,0,.19.04.22-.05.01-.06,0-.42,0-.52-.01-.32.5-.34.5-.01,0,0,0,.31,0,.31.03.24-.05.65-.39.74-.2.04-.27.01-.42,0-1.04-.27-1.22-1.74-.4-2.33.79-.65,2.06-.04,2.09.96,0,.77-.03,2.84-.04,3.63,0,.28-.22.62-.53.61,0,0-1.89,0-1.89,0-.02,0-.05,0-.06,0,0,.02-.1-.05-.06-.13.09-.1.06-.04.09-.07.42-.23,1.11-.61,1.53-.84-.05.09.74-1.49.73-1.48,0,0,.12.08.11.09.03.65.04,1.27.03,1.95,0,.14-.08.29-.2.38-.13.09-.26.11-.39.13-.81,0-2.87.05-3.65.05-1.85-.11-1.55-2.79.27-2.54.83.04,1.63,1.28.71,1.66-.29.06-.43.02-.68.03-.33,0-.32-.51,0-.5h0Z"/>
              </g>
              <g>
                <path class="cls-11" d="M51.14,67.93c-.09-3.08-.03-3.76,2.59-3.73v-24.72"/>
                <path class="cls-11" d="M50.99,67.93c-.22-2.37-.28-4.25,2.75-3.89,0,0-.16.16-.16.16v-24.72c0-.19.32-.21.31,0,0,0,0,24.72,0,24.72v.16h-.16c-1.69.07-2.42.34-2.39,2.18,0,0-.04,1.39-.04,1.39,0,.19-.3.2-.31,0h0Z"/>
              </g>
              <g>
                <path class="cls-11" d="M50.86,68.18c-3.58-.14-4.02.54-3.96,2.8h-16.64"/>
                <path class="cls-11" d="M50.86,68.36c-2.15.06-3.93-.14-3.78,2.62,0,0,0,.18,0,.18h-16.82c-.22,0-.23-.35,0-.35,0,0,16.64,0,16.64,0,0,0-.18.18-.18.18-.42-3.02,1.77-3.19,4.14-2.98.22.01.21.35-.01.35h0Z"/>
              </g>
              <g>
                <path class="cls-11" d="M52.14,63.06c-.1-21.55-.09-24.79,1.84-26.88"/>
                <path class="cls-11" d="M52.06,63.06c-.09-4.54-.15-9.08-.14-13.62,0-2.27.02-4.54.13-6.82.22-2.18.03-4.94,1.86-6.5.07-.06.18.03.12.11-1.24,1.85-1.36,4.18-1.53,6.41-.13,2.26-.17,4.53-.19,6.79l-.09,13.61c0,.1-.17.11-.17,0h0Z"/>
              </g>
              <g>
                <path class="cls-11" d="M45.79,68.58c-10.02,0-15.54,0-18.13,2.85"/>
                <path class="cls-11" d="M45.79,68.71c-3.13.05-6.26.06-9.37.23-2.89.25-6.17.38-8.38,2.47-.08.06-.11.18-.31.11-.2-.07-.29-.29-.04-.46,2.3-2.17,5.73-2.31,8.71-2.53,3.14-.16,6.26-.11,9.39-.07.16,0,.17.26,0,.26h0Z"/>
              </g>
            </g>
            <path class="cls-11" d="M48.66,24.51s-11.91,31.51-41.81,32.1l-.08,6.09c29.98-4.39,36.97-24.9,41.65-34.91l.24-3.29Z"/>
            <g>
              <path class="cls-11" d="M43.78,24.67l-.62.65s-1.22-1.78-2.89-2.76l.62-.65c1.96,1.47,2.89,2.76,2.89,2.76Z"/>
              <path class="cls-11" d="M40.77,21.73l-.7.74c-.6-.27-1.9-.4-2.46-.44-.11,0-.16-.14-.09-.22l2.27-2.63c.06-.08.18-.07.24.02.55.91.72,1.5.74,2.54Z"/>
              <path class="cls-11" d="M37.62,22.02c-1.3.04-1.83.07-3.4,1.39-1.19,1.01-1.75-3.2-1.08-3.88.31-.31,1-.05,2.01-.14,0,0-1.54-.97-.47-2.17.95-1.06,1.26-.59,2.6,0,0,0-.68-1.36.8-2.07,1.43-.69,2.34.13,2.3,1.85,0,.25.1,1.15-.36,2.2-.38.87-.99,2.79-2.41,2.83Z"/>
              <circle class="cls-11" cx="40.08" cy="15.21" r=".21"/>
              <circle class="cls-11" cx="38.77" cy="14.96" r=".21"/>
              <circle class="cls-11" cx="38.16" cy="15" r=".21"/>
              <circle class="cls-11" cx="37.05" cy="15.92" r=".21"/>
              <circle class="cls-11" cx="34.7" cy="16.69" r=".21"/>
              <circle class="cls-11" cx="35.18" cy="16.79" r=".21"/>
              <circle class="cls-11" cx="36.97" cy="16.08" r=".21"/>
              <circle class="cls-11" cx="34.38" cy="17.17" r=".21"/>
              <circle class="cls-11" cx="32.53" cy="21.21" r=".21"/>
              <circle class="cls-11" cx="33.02" cy="22.41" r=".21"/>
              <circle class="cls-11" cx="32.75" cy="20.78" r=".21"/>
              <circle class="cls-11" cx="32.7" cy="23.17" r=".21"/>
              <circle class="cls-11" cx="33.18" cy="23.48" r=".21"/>
              <circle class="cls-11" cx="33.22" cy="23.94" r=".21"/>
              <circle class="cls-11" cx="35.61" cy="16.11" r=".21"/>
              <circle class="cls-11" cx="35.28" cy="16.36" r=".21"/>
              <circle class="cls-11" cx="39.48" cy="14.84" r=".29"/>
              <circle class="cls-11" cx="37.52" cy="15.17" r=".29"/>
              <circle class="cls-11" cx="36.96" cy="15.49" r=".29"/>
              <circle class="cls-11" cx="33.91" cy="17.67" r=".29"/>
              <circle class="cls-11" cx="33.93" cy="18.36" r=".29"/>
              <circle class="cls-11" cx="34.16" cy="18.12" r=".29"/>
              <circle class="cls-11" cx="34.44" cy="17.55" r=".29"/>
              <circle class="cls-11" cx="34.82" cy="17.27" r=".29"/>
              <circle class="cls-11" cx="35.93" cy="16.51" r=".29"/>
              <circle class="cls-11" cx="32.66" cy="19.58" r=".29"/>
              <circle class="cls-11" cx="32.46" cy="20.26" r=".29"/>
              <circle class="cls-11" cx="32.22" cy="21.57" r=".29"/>
              <circle class="cls-11" cx="32.56" cy="22.19" r=".29"/>
              <circle class="cls-11" cx="32.53" cy="22.54" r=".29"/>
              <circle class="cls-11" cx="33.68" cy="23.78" r=".29"/>
              <circle class="cls-11" cx="33.03" cy="22.83" r=".29"/>
              <circle class="cls-11" cx="32.76" cy="21.74" r=".29"/>
            </g>
            <g>
              <path class="cls-11" d="M9.67,64.44c21.88-7.72,35.18-25.34,35.18-56.65h1.11c.32,42.03-22.85,56.3-22.85,56.3l-13.44.34Z"/>
              <path class="cls-11" d="M9.67,64.44c21.88-7.72,35.18-25.34,35.18-56.65h1.11c.32,42.03-22.85,56.3-22.85,56.3l-13.44.34Z"/>
              <path class="cls-11" d="M45.96,7.79c.32,42.03-22.85,56.3-22.85,56.3l-13.44.34c21.88-7.72,35.18-25.34,35.18-56.65h1.11M46.95,6.79h-3.1v1c0,14.93-3.1,27.25-9.22,36.63-5.72,8.76-14.23,15.18-25.29,19.08l-5.97,2.1,6.33-.16,13.44-.34h.27s.23-.15.23-.15c.24-.15,6.05-3.79,11.86-12.7,5.32-8.17,11.63-22.51,11.47-44.47v-.99h0Z"/>
            </g>
            <g>
              <g>
                <path class="cls-11" d="M38.75,40.23l-1.56,1.72s-3.05-4.69-7.22-7.26l1.56-1.72c4.9,3.87,7.22,7.26,7.22,7.26Z"/>
                <path class="cls-11" d="M31.25,32.49l-1.74,1.94c-1.49-.72-4.75-1.05-6.14-1.17-.27-.02-.4-.36-.22-.58l5.65-6.92c.16-.2.46-.17.59.05,1.36,2.39,1.81,3.94,1.86,6.68Z"/>
                <path class="cls-11" d="M23.37,33.26c-3.25.1-4.57.19-8.48,3.67-2.97,2.64-4.38-8.43-2.69-10.22.78-.83,2.5-.13,5.03-.36,0,0-3.84-2.56-1.16-5.71,2.36-2.78,3.14-1.56,6.49,0,0,0-1.71-3.58,1.99-5.46,3.56-1.81,5.84.33,5.74,4.85-.02.66.25,3.01-.89,5.78-.95,2.3-2.47,7.34-6.02,7.45Z"/>
                <ellipse class="cls-11" cx="29.53" cy="15.33" rx=".52" ry=".55"/>
                <ellipse class="cls-11" cx="26.25" cy="14.69" rx=".52" ry=".55"/>
                <ellipse class="cls-11" cx="24.72" cy="14.79" rx=".52" ry=".55"/>
                <ellipse class="cls-11" cx="21.95" cy="17.21" rx=".52" ry=".55"/>
                <ellipse class="cls-11" cx="16.08" cy="19.23" rx=".52" ry=".55"/>
                <ellipse class="cls-11" cx="17.29" cy="19.51" rx=".52" ry=".55"/>
                <ellipse class="cls-11" cx="21.74" cy="17.62" rx=".52" ry=".55"/>
                <ellipse class="cls-11" cx="15.28" cy="20.5" rx=".52" ry=".55"/>
                <ellipse class="cls-11" cx="10.68" cy="31.13" rx=".52" ry=".55"/>
                <ellipse class="cls-11" cx="11.89" cy="34.27" rx=".52" ry=".55"/>
                <ellipse class="cls-11" cx="11.21" cy="29.99" rx=".52" ry=".55"/>
                <ellipse class="cls-11" cx="11.1" cy="36.29" rx=".52" ry=".55"/>
                <ellipse class="cls-11" cx="12.3" cy="37.1" rx=".52" ry=".55"/>
                <ellipse class="cls-11" cx="12.39" cy="38.31" rx=".52" ry=".55"/>
                <ellipse class="cls-11" cx="18.37" cy="17.71" rx=".52" ry=".55"/>
                <ellipse class="cls-11" cx="17.53" cy="18.37" rx=".52" ry=".55"/>
                <ellipse class="cls-11" cx="28.01" cy="14.37" rx=".73" ry=".77"/>
                <ellipse class="cls-11" cx="23.13" cy="15.24" rx=".73" ry=".77"/>
                <ellipse class="cls-11" cx="21.72" cy="16.07" rx=".73" ry=".77"/>
                <ellipse class="cls-11" cx="14.13" cy="21.8" rx=".73" ry=".77"/>
                <ellipse class="cls-11" cx="14.16" cy="23.64" rx=".73" ry=".77"/>
                <ellipse class="cls-11" cx="14.75" cy="22.98" rx=".73" ry=".77"/>
                <ellipse class="cls-11" cx="15.44" cy="21.5" rx=".73" ry=".77"/>
                <ellipse class="cls-11" cx="16.4" cy="20.76" rx=".73" ry=".77"/>
                <ellipse class="cls-11" cx="19.16" cy="18.76" rx=".73" ry=".77"/>
                <ellipse class="cls-11" cx="11" cy="26.83" rx=".73" ry=".77"/>
                <ellipse class="cls-11" cx="10.49" cy="28.63" rx=".73" ry=".77"/>
                <ellipse class="cls-11" cx="9.9" cy="32.08" rx=".73" ry=".77"/>
                <ellipse class="cls-11" cx="10.75" cy="33.7" rx=".73" ry=".77"/>
                <ellipse class="cls-11" cx="10.68" cy="34.62" rx=".73" ry=".77"/>
                <ellipse class="cls-11" cx="13.55" cy="37.88" rx=".73" ry=".77"/>
                <ellipse class="cls-11" cx="11.92" cy="35.38" rx=".73" ry=".77"/>
                <ellipse class="cls-11" cx="11.25" cy="32.53" rx=".73" ry=".77"/>
              </g>
              <circle class="cls-11" cx="14.68" cy="35.56" r="1.28"/>
              <circle class="cls-11" cx="22.71" cy="27.34" r="1.28"/>
              <circle class="cls-11" cx="22.71" cy="29.52" r="1.28"/>
              <circle class="cls-11" cx="24.81" cy="30.15" r="1.28"/>
              <circle class="cls-11" cx="26.38" cy="28.46" r="1.28"/>
              <circle class="cls-11" cx="24.98" cy="26.56" r="1.28"/>
              <circle class="cls-11" cx="28.01" cy="15.78" r="1.28"/>
              <circle class="cls-11" cx="13.28" cy="34.33" r="1.01"/>
              <circle class="cls-11" cx="28" cy="18.66" r="1.01"/>
            </g>
          </g>
          <g class="cls-5">
            <g>
              <rect class="cls-12" x=".25" y=".25" width="54.82" height="72.06" rx="3.84" ry="3.84"/>
              <rect class="cls-12" x="4.94" y="4.63" width="45.5" height="62.94" rx="3.84" ry="3.84"/>
              <g>
                <path class="cls-12" d="M5.46,2.31h-.5c-.15,0-.33.1-.34.26-.04.64.6.98,1.11.98.66,0,1.19-.58,1.1-1.24-.07-.55-.59-.95-1.15-.95h-3.15s-.42,0-.42,0c-.28.02-.47.13-.5.4v.81s-.01,1.19-.02,1.19l.74-1.5s1.61-.91,1.6-.91l-1.93.02c-.27.02-.39.22-.41.49v.42s0,3.1,0,3.1c0,.56.4,1.06.97,1.14.67.09,1.26-.44,1.26-1.09,0-.5-.35-1.14-1-1.09-.17.01-.27.19-.27.33v.49"/>
                <path class="cls-12" d="M5.45,2.56c-.11,0-.46-.02-.53,0-.04.01-.06.04-.06.04,0-.01,0,.13,0,.18.39,1.11,2.23.47,1.7-.7-.29-.72-1.43-.52-2.04-.56,0,0-2.43-.04-2.43-.04-.18,0-.41.12-.4.29,0,.01-.06,2.04-.07,2.05-.03.14-.21.04-.11-.08,0,0,.74-1.49.74-1.49,0,0,.01-.02.02-.03.43-.25,1.12-.66,1.54-.9,0,0,.07-.06.01.01-.04.1.09.14.09.12,0,0-.01,0-.01,0-.06,0-1.87.04-1.92.04-.15,0-.28.16-.28.38,0-.05.03,2.41.03,2.4,0,0,.02,1.19.02,1.19.04.72.94,1.14,1.49.67.55-.37.37-1.42-.25-1.55-.11,0-.19-.04-.22.05-.01.06,0,.42,0,.52.01.32-.5.34-.5.01,0,0,0-.31,0-.31-.03-.24.05-.65.39-.74.2-.04.27-.01.42,0,1.04.27,1.22,1.74.4,2.33-.79.65-2.06.04-2.09-.96,0-.77.03-2.84.04-3.63,0-.28.22-.62.53-.61,0,0,1.89,0,1.89,0,.02,0,.05,0,.06,0,0-.02.1.05.06.13-.09.1-.06.04-.09.07-.42.23-1.11.61-1.53.84.05-.09-.74,1.49-.73,1.48,0,0-.12-.08-.11-.09-.03-.65-.04-1.27-.03-1.95,0-.14.08-.29.2-.38.13-.09.26-.11.39-.13.81,0,2.87-.05,3.65-.05,1.85.11,1.55,2.79-.27,2.54-.83-.04-1.63-1.28-.71-1.66.29-.06.43-.02.68-.03.33,0,.32.51,0,.5h0Z"/>
              </g>
              <g>
                <path class="cls-12" d="M4.34,4.43c.09,3.08.03,3.76-2.59,3.73v24.72"/>
                <path class="cls-12" d="M4.49,4.42c.22,2.37.28,4.25-2.75,3.89,0,0,.16-.16.16-.16v24.72c0,.19-.32.21-.31,0,0,0,0-24.72,0-24.72v-.16h.16c1.69-.07,2.42-.34,2.39-2.18,0,0,.04-1.39.04-1.39,0-.19.3-.2.31,0h0Z"/>
              </g>
              <g>
                <path class="cls-12" d="M4.62,4.17c3.58.14,4.02-.54,3.96-2.8h16.64"/>
                <path class="cls-12" d="M4.62,4c2.15-.06,3.93.14,3.78-2.62,0,0,0-.18,0-.18h16.82c.22,0,.23.35,0,.35,0,0-16.64,0-16.64,0,0,0,.18-.18.18-.18.42,3.02-1.77,3.19-4.14,2.98-.22-.01-.21-.35.01-.35h0Z"/>
              </g>
              <g>
                <path class="cls-12" d="M3.34,9.3c.1,21.55.09,24.79-1.84,26.88"/>
                <path class="cls-12" d="M3.42,9.3c.09,4.54.15,9.08.14,13.62,0,2.27-.02,4.54-.13,6.82-.22,2.18-.03,4.94-1.86,6.5-.07.06-.18-.03-.12-.11,1.24-1.85,1.36-4.18,1.53-6.41.13-2.26.17-4.53.19-6.79l.09-13.61c0-.1.17-.11.17,0h0Z"/>
              </g>
              <ellipse class="cls-12" cx="2.49" cy="36.18" rx=".46" ry=".26"/>
              <ellipse class="cls-12" cx="53.07" cy="36.18" rx=".46" ry=".26"/>
              <g>
                <path class="cls-12" d="M9.69,3.77c10.02,0,15.54,0,18.13-2.85"/>
                <path class="cls-12" d="M9.69,3.64c3.13-.05,6.26-.06,9.37-.23,2.89-.25,6.17-.38,8.38-2.47.08-.06.11-.18.31-.11.2.08.29.29.04.46-2.3,2.17-5.73,2.31-8.71,2.53-3.14.16-6.26.11-9.39.07-.16,0-.17-.26,0-.26h0Z"/>
              </g>
              <g>
                <path class="cls-12" d="M50.04,2.31h.5c.15,0,.33.1.34.26.04.64-.6.98-1.11.98-.66,0-1.19-.58-1.1-1.24.07-.55.59-.95,1.15-.95h3.15s.42,0,.42,0c.28.02.47.13.5.4v.81s.01,1.19.02,1.19l-.74-1.5s-1.61-.91-1.6-.91l1.93.02c.27.02.39.22.41.49v.42s0,3.1,0,3.1c0,.56-.4,1.06-.97,1.14-.67.09-1.26-.44-1.26-1.09,0-.5.35-1.14,1-1.09.17.01.27.19.27.33v.49"/>
                <path class="cls-12" d="M50.04,2.06h.31c1.4-.03.67,1.64-.34,1.69-1.82.25-2.11-2.43-.27-2.54.78,0,2.86.04,3.66.05.27,0,.59.2.59.5,0,.68,0,1.3-.03,1.95.02.01-.11.09-.11.09,0,0-.78-1.56-.73-1.48-.43-.23-1.11-.61-1.53-.84-.03-.03,0,.02-.09-.07-.04-.08.07-.15.06-.13.02,0,.04,0,.06,0,0,0,1.89-.01,1.9,0,.31,0,.53.33.52.61,0,0,.03,2.41.03,2.41v1.22c-.02,1-1.29,1.61-2.08.96-.82-.58-.64-2.06.4-2.33.28-.09.7.04.78.36.07.29.02.43.03.68,0,.32-.5.33-.5,0,0-.11.02-.47,0-.53-.02-.09-.11-.06-.22-.05-1.13.38-.47,2.15.68,1.67.75-.29.53-1.37.58-1.98,0,0,.04-2.45.03-2.4,0-.22-.13-.38-.28-.38,0,0-1.89-.04-1.89-.04h-.03s-.03,0,0,0c0,.02.11-.04.08-.13-.06-.08.01,0,.01-.01l.1.06c.26.17,1.24.7,1.46.87,0,0,.74,1.49.74,1.49.1.13-.1.23-.11.07,0,0-.06-2.07-.06-2.03,0-.2-.22-.3-.4-.3,0,0-2.43.04-2.43.04l-1.2.02c-.73.02-1.21.91-.71,1.48.42.61,1.67.31,1.6-.42-.05-.06-.15-.04-.29-.04,0,0-.3,0-.3,0-.33.01-.34-.51,0-.5h0Z"/>
              </g>
              <g>
                <path class="cls-12" d="M51.16,4.43c-.09,3.08-.03,3.76,2.59,3.73v24.72"/>
                <path class="cls-12" d="M51.32,4.43c.1,2.34-.33,3.59,2.59,3.57,0,.13,0,24.73,0,24.87,0,.19-.32.21-.31,0,0,0,0-24.72,0-24.72l.16.16c-.93.09-2.31.06-2.66-1.02-.28-.97-.16-1.9-.09-2.87.01-.19.31-.18.31,0h0Z"/>
              </g>
              <g>
                <path class="cls-12" d="M50.88,4.17c-3.58.14-4.02-.54-3.96-2.8h-16.64"/>
                <path class="cls-12" d="M50.89,4.35c-2.38.21-4.56.04-4.14-2.98,0,0,.18.18.18.18,0,0-16.64,0-16.64,0-.22,0-.23-.35,0-.35,0,0,16.64,0,16.64,0h.18v.18c-.03,1.79.48,2.51,2.32,2.57.48.03.97.04,1.46.05.1,0,.18.08.18.18,0,.09-.07.17-.16.18h0Z"/>
              </g>
              <g>
                <path class="cls-12" d="M52.17,9.3c-.1,21.55-.09,24.79,1.84,26.88"/>
                <path class="cls-12" d="M52.25,9.3l.09,13.61c.02,2.27.07,4.54.19,6.79.17,2.24.28,4.57,1.53,6.41.05.07-.05.18-.12.11-1.83-1.56-1.64-4.32-1.86-6.5-.11-2.28-.13-4.55-.13-6.82-.02-4.54.05-9.08.14-13.62,0-.1.17-.11.17,0h0Z"/>
              </g>
              <g>
                <path class="cls-12" d="M45.81,3.77c-10.02,0-15.54,0-18.13-2.85"/>
                <path class="cls-12" d="M45.81,3.9c-3.13.04-6.26.09-9.39-.07-2.98-.22-6.41-.37-8.71-2.53-.06-.08-.19-.1-.13-.29.03-.09.09-.15.18-.17.2-.07.23.05.31.11,2.21,2.09,5.49,2.22,8.38,2.47,3.11.17,6.24.17,9.37.23.16,0,.17.26,0,.26h0Z"/>
              </g>
              <g>
                <path class="cls-12" d="M5.44,70.04h-.5c-.15,0-.33-.1-.34-.26-.04-.64.6-.98,1.11-.98.66,0,1.19.58,1.1,1.24-.07.55-.59.95-1.15.95h-3.15s-.42,0-.42,0c-.28-.02-.47-.13-.5-.4v-.81s-.01-1.19-.02-1.19l.74,1.5s1.61.91,1.6.91l-1.93-.02c-.27-.02-.39-.22-.41-.49v-.42s0-3.1,0-3.1c0-.56.4-1.06.97-1.14.67-.09,1.26.44,1.26,1.09,0,.5-.35,1.14-1,1.09-.17-.01-.27-.19-.27-.33v-.49"/>
                <path class="cls-12" d="M5.44,70.29h-.31c-1.4.03-.67-1.64.34-1.69,1-.2,1.9.94,1.4,1.84-.42.88-1.58.68-2.36.68-.54-.05-2.63.07-2.82-.16-.13-.08-.2-.24-.2-.38,0-.69,0-1.31.03-1.96,0,0,.11-.08.11-.08,0,.01.74,1.49.74,1.5.33.15,1.13.62,1.52.82.03.03,0-.02.09.07.04.08-.07.15-.06.13-.02,0-.04,0-.06,0,0,0-1.89.01-1.9,0-.31,0-.53-.33-.52-.61,0,0-.03-2.41-.03-2.41,0,0-.01-1.22-.01-1.22.03-1,1.3-1.61,2.09-.96.82.58.64,2.06-.4,2.33-.28.09-.7-.04-.78-.36-.07-.29-.02-.43-.03-.68,0-.32.5-.33.5,0,0,.11-.02.47,0,.53.02.09.11.06.22.05,1.13-.38.47-2.15-.68-1.67-.75.29-.53,1.37-.58,1.98,0,0-.04,2.45-.03,2.4,0,.22.13.38.28.38,0,0,1.89.04,1.89.04,0,0,.04,0,.04,0,0-.02-.13.02-.09.12.06.08-.01,0-.01.01l-.1-.06c-.26-.17-1.25-.7-1.46-.87,0,0-.74-1.49-.74-1.49-.1-.13.1-.23.11-.07,0,0,.06,2.07.06,2.03,0,.2.22.3.4.3,0,0,2.43-.04,2.43-.04l1.2-.02c.73-.02,1.21-.91.71-1.48-.42-.61-1.67-.31-1.6.42.05.06.15.04.29.04,0,0,.3,0,.3,0,.33-.01.34.51,0,.5h0Z"/>
              </g>
              <g>
                <path class="cls-12" d="M4.32,67.93c.09-3.08.03-3.76-2.59-3.73v-24.72"/>
                <path class="cls-12" d="M4.16,67.92c-.1-2.34.33-3.59-2.59-3.57,0,0,0-.16,0-.16v-24.72c0-.19.32-.21.31,0,0,0,0,24.72,0,24.72l-.16-.16c.93-.09,2.31-.06,2.66,1.02.28.97.16,1.9.09,2.87-.01.19-.31.18-.31,0h0Z"/>
              </g>
              <g>
                <path class="cls-12" d="M4.6,68.18c3.58-.14,4.02.54,3.96,2.8h16.64"/>
                <path class="cls-12" d="M4.59,68.01c2.38-.21,4.56-.04,4.14,2.98,0,0-.18-.18-.18-.18,0,0,16.64,0,16.64,0,.22,0,.23.35,0,.35,0,0-16.64,0-16.64,0h-.18s0-.18,0-.18c.03-1.79-.48-2.51-2.32-2.57-.48-.03-.97-.04-1.46-.05-.1,0-.18-.08-.18-.18,0-.09.07-.17.16-.18h0Z"/>
              </g>
              <g>
                <path class="cls-12" d="M3.31,63.06c.1-21.55.09-24.79-1.84-26.88"/>
                <path class="cls-12" d="M3.23,63.06l-.09-13.61c-.02-2.27-.07-4.54-.19-6.79-.17-2.24-.28-4.57-1.53-6.41-.05-.07.05-.18.12-.11,1.83,1.56,1.64,4.32,1.86,6.5.11,2.28.13,4.55.13,6.82.02,4.54-.05,9.08-.14,13.62,0,.1-.17.11-.17,0h0Z"/>
              </g>
              <ellipse class="cls-12" cx="2.47" cy="36.18" rx=".46" ry=".26"/>
              <ellipse class="cls-12" cx="53.05" cy="36.18" rx=".46" ry=".26"/>
              <g>
                <path class="cls-12" d="M9.67,68.58c10.02,0,15.54,0,18.13,2.85"/>
                <path class="cls-12" d="M9.67,68.45c3.13-.04,6.26-.09,9.39.07,2.98.22,6.41.37,8.71,2.53.06.08.19.1.13.29-.03.09-.09.15-.18.17-.2.07-.23-.05-.31-.11-2.21-2.09-5.49-2.22-8.38-2.47-3.11-.17-6.24-.17-9.37-.23-.16,0-.17-.26,0-.26h0Z"/>
              </g>
              <g>
                <path class="cls-12" d="M50.02,70.04h.5c.15,0,.33-.1.34-.26.04-.64-.6-.98-1.11-.98-.66,0-1.19.58-1.1,1.24.07.55.59.95,1.15.95h3.15s.42,0,.42,0c.28-.02.47-.13.5-.4v-.81s.01-1.19.02-1.19l-.74,1.5s-1.61.91-1.6.91l1.93-.02c.27-.02.39-.22.41-.49v-.42s0-3.1,0-3.1c0-.56-.4-1.06-.97-1.14-.67-.09-1.26.44-1.26,1.09,0,.5.35,1.14,1,1.09.17-.01.27-.19.27-.33v-.49"/>
                <path class="cls-12" d="M50.03,69.79c.11,0,.46.02.53,0,.04-.01.06-.04.06-.04,0,.01,0-.13,0-.18-.39-1.11-2.23-.47-1.7.7.29.72,1.43.52,2.04.56,0,0,2.43.04,2.43.04.18,0,.41-.12.4-.29,0-.01.06-2.04.07-2.05.03-.14.21-.04.11.08,0,0-.74,1.49-.74,1.49,0,0-.01.02-.02.03-.43.25-1.12.66-1.54.9,0,0-.07.06-.01-.01.04-.1-.09-.14-.09-.12,0,0,.01,0,.01,0,.06,0,1.87-.04,1.92-.04.15,0,.28-.16.28-.38,0,.05-.03-2.41-.03-2.4,0,0-.02-1.19-.02-1.19-.04-.72-.94-1.14-1.49-.67-.55.37-.37,1.42.25,1.55.11,0,.19.04.22-.05.01-.06,0-.42,0-.52-.01-.32.5-.34.5-.01,0,0,0,.31,0,.31.03.24-.05.65-.39.74-.2.04-.27.01-.42,0-1.04-.27-1.22-1.74-.4-2.33.79-.65,2.06-.04,2.09.96,0,.77-.03,2.84-.04,3.63,0,.28-.22.62-.53.61,0,0-1.89,0-1.89,0-.02,0-.05,0-.06,0,0,.02-.1-.05-.06-.13.09-.1.06-.04.09-.07.42-.23,1.11-.61,1.53-.84-.05.09.74-1.49.73-1.48,0,0,.12.08.11.09.03.65.04,1.27.03,1.95,0,.14-.08.29-.2.38-.13.09-.26.11-.39.13-.81,0-2.87.05-3.65.05-1.85-.11-1.55-2.79.27-2.54.83.04,1.63,1.28.71,1.66-.29.06-.43.02-.68.03-.33,0-.32-.51,0-.5h0Z"/>
              </g>
              <g>
                <path class="cls-12" d="M51.14,67.93c-.09-3.08-.03-3.76,2.59-3.73v-24.72"/>
                <path class="cls-12" d="M50.99,67.93c-.22-2.37-.28-4.25,2.75-3.89,0,0-.16.16-.16.16v-24.72c0-.19.32-.21.31,0,0,0,0,24.72,0,24.72v.16h-.16c-1.69.07-2.42.34-2.39,2.18,0,0-.04,1.39-.04,1.39,0,.19-.3.2-.31,0h0Z"/>
              </g>
              <g>
                <path class="cls-12" d="M50.86,68.18c-3.58-.14-4.02.54-3.96,2.8h-16.64"/>
                <path class="cls-12" d="M50.86,68.36c-2.15.06-3.93-.14-3.78,2.62,0,0,0,.18,0,.18h-16.82c-.22,0-.23-.35,0-.35,0,0,16.64,0,16.64,0,0,0-.18.18-.18.18-.42-3.02,1.77-3.19,4.14-2.98.22.01.21.35-.01.35h0Z"/>
              </g>
              <g>
                <path class="cls-12" d="M52.14,63.06c-.1-21.55-.09-24.79,1.84-26.88"/>
                <path class="cls-12" d="M52.06,63.06c-.09-4.54-.15-9.08-.14-13.62,0-2.27.02-4.54.13-6.82.22-2.18.03-4.94,1.86-6.5.07-.06.18.03.12.11-1.24,1.85-1.36,4.18-1.53,6.41-.13,2.26-.17,4.53-.19,6.79l-.09,13.61c0,.1-.17.11-.17,0h0Z"/>
              </g>
              <g>
                <path class="cls-12" d="M45.79,68.58c-10.02,0-15.54,0-18.13,2.85"/>
                <path class="cls-12" d="M45.79,68.71c-3.13.05-6.26.06-9.37.23-2.89.25-6.17.38-8.38,2.47-.08.06-.11.18-.31.11-.2-.07-.29-.29-.04-.46,2.3-2.17,5.73-2.31,8.71-2.53,3.14-.16,6.26-.11,9.39-.07.16,0,.17.26,0,.26h0Z"/>
              </g>
            </g>
            <path class="cls-12" d="M48.66,24.51s-11.91,31.51-41.81,32.1l-.08,6.09c29.98-4.39,36.97-24.9,41.65-34.91l.24-3.29Z"/>
            <g>
              <path class="cls-12" d="M43.78,24.67l-.62.65s-1.22-1.78-2.89-2.76l.62-.65c1.96,1.47,2.89,2.76,2.89,2.76Z"/>
              <path class="cls-12" d="M40.77,21.73l-.7.74c-.6-.27-1.9-.4-2.46-.44-.11,0-.16-.14-.09-.22l2.27-2.63c.06-.08.18-.07.24.02.55.91.72,1.5.74,2.54Z"/>
              <path class="cls-12" d="M37.62,22.02c-1.3.04-1.83.07-3.4,1.39-1.19,1.01-1.75-3.2-1.08-3.88.31-.31,1-.05,2.01-.14,0,0-1.54-.97-.47-2.17.95-1.06,1.26-.59,2.6,0,0,0-.68-1.36.8-2.07,1.43-.69,2.34.13,2.3,1.85,0,.25.1,1.15-.36,2.2-.38.87-.99,2.79-2.41,2.83Z"/>
              <circle class="cls-12" cx="40.08" cy="15.21" r=".21"/>
              <circle class="cls-12" cx="38.77" cy="14.96" r=".21"/>
              <circle class="cls-12" cx="38.16" cy="15" r=".21"/>
              <circle class="cls-12" cx="37.05" cy="15.92" r=".21"/>
              <circle class="cls-12" cx="34.7" cy="16.69" r=".21"/>
              <circle class="cls-12" cx="35.18" cy="16.79" r=".21"/>
              <circle class="cls-12" cx="36.97" cy="16.08" r=".21"/>
              <circle class="cls-12" cx="34.38" cy="17.17" r=".21"/>
              <circle class="cls-12" cx="32.53" cy="21.21" r=".21"/>
              <circle class="cls-12" cx="33.02" cy="22.41" r=".21"/>
              <circle class="cls-12" cx="32.75" cy="20.78" r=".21"/>
              <circle class="cls-12" cx="32.7" cy="23.17" r=".21"/>
              <circle class="cls-12" cx="33.18" cy="23.48" r=".21"/>
              <circle class="cls-12" cx="33.22" cy="23.94" r=".21"/>
              <circle class="cls-12" cx="35.61" cy="16.11" r=".21"/>
              <circle class="cls-12" cx="35.28" cy="16.36" r=".21"/>
              <circle class="cls-12" cx="39.48" cy="14.84" r=".29"/>
              <circle class="cls-12" cx="37.52" cy="15.17" r=".29"/>
              <circle class="cls-12" cx="36.96" cy="15.49" r=".29"/>
              <circle class="cls-12" cx="33.91" cy="17.67" r=".29"/>
              <circle class="cls-12" cx="33.93" cy="18.36" r=".29"/>
              <circle class="cls-12" cx="34.16" cy="18.12" r=".29"/>
              <circle class="cls-12" cx="34.44" cy="17.55" r=".29"/>
              <circle class="cls-12" cx="34.82" cy="17.27" r=".29"/>
              <circle class="cls-12" cx="35.93" cy="16.51" r=".29"/>
              <circle class="cls-12" cx="32.66" cy="19.58" r=".29"/>
              <circle class="cls-12" cx="32.46" cy="20.26" r=".29"/>
              <circle class="cls-12" cx="32.22" cy="21.57" r=".29"/>
              <circle class="cls-12" cx="32.56" cy="22.19" r=".29"/>
              <circle class="cls-12" cx="32.53" cy="22.54" r=".29"/>
              <circle class="cls-12" cx="33.68" cy="23.78" r=".29"/>
              <circle class="cls-12" cx="33.03" cy="22.83" r=".29"/>
              <circle class="cls-12" cx="32.76" cy="21.74" r=".29"/>
            </g>
            <g>
              <path class="cls-12" d="M9.67,64.44c21.88-7.72,35.18-25.34,35.18-56.65h1.11c.32,42.03-22.85,56.3-22.85,56.3l-13.44.34Z"/>
              <path class="cls-12" d="M9.67,64.44c21.88-7.72,35.18-25.34,35.18-56.65h1.11c.32,42.03-22.85,56.3-22.85,56.3l-13.44.34Z"/>
              <path class="cls-12" d="M45.96,7.79c.32,42.03-22.85,56.3-22.85,56.3l-13.44.34c21.88-7.72,35.18-25.34,35.18-56.65h1.11M46.95,6.79h-3.1v1c0,14.93-3.1,27.25-9.22,36.63-5.72,8.76-14.23,15.18-25.29,19.08l-5.97,2.1,6.33-.16,13.44-.34h.27s.23-.15.23-.15c.24-.15,6.05-3.79,11.86-12.7,5.32-8.17,11.63-22.51,11.47-44.47v-.99h0Z"/>
            </g>
            <g>
              <g>
                <path class="cls-12" d="M38.75,40.23l-1.56,1.72s-3.05-4.69-7.22-7.26l1.56-1.72c4.9,3.87,7.22,7.26,7.22,7.26Z"/>
                <path class="cls-12" d="M31.25,32.49l-1.74,1.94c-1.49-.72-4.75-1.05-6.14-1.17-.27-.02-.4-.36-.22-.58l5.65-6.92c.16-.2.46-.17.59.05,1.36,2.39,1.81,3.94,1.86,6.68Z"/>
                <path class="cls-12" d="M23.37,33.26c-3.25.1-4.57.19-8.48,3.67-2.97,2.64-4.38-8.43-2.69-10.22.78-.83,2.5-.13,5.03-.36,0,0-3.84-2.56-1.16-5.71,2.36-2.78,3.14-1.56,6.49,0,0,0-1.71-3.58,1.99-5.46,3.56-1.81,5.84.33,5.74,4.85-.02.66.25,3.01-.89,5.78-.95,2.3-2.47,7.34-6.02,7.45Z"/>
                <ellipse class="cls-12" cx="29.53" cy="15.33" rx=".52" ry=".55"/>
                <ellipse class="cls-12" cx="26.25" cy="14.69" rx=".52" ry=".55"/>
                <ellipse class="cls-12" cx="24.72" cy="14.79" rx=".52" ry=".55"/>
                <ellipse class="cls-12" cx="21.95" cy="17.21" rx=".52" ry=".55"/>
                <ellipse class="cls-12" cx="16.08" cy="19.23" rx=".52" ry=".55"/>
                <ellipse class="cls-12" cx="17.29" cy="19.51" rx=".52" ry=".55"/>
                <ellipse class="cls-12" cx="21.74" cy="17.62" rx=".52" ry=".55"/>
                <ellipse class="cls-12" cx="15.28" cy="20.5" rx=".52" ry=".55"/>
                <ellipse class="cls-12" cx="10.68" cy="31.13" rx=".52" ry=".55"/>
                <ellipse class="cls-12" cx="11.89" cy="34.27" rx=".52" ry=".55"/>
                <ellipse class="cls-12" cx="11.21" cy="29.99" rx=".52" ry=".55"/>
                <ellipse class="cls-12" cx="11.1" cy="36.29" rx=".52" ry=".55"/>
                <ellipse class="cls-12" cx="12.3" cy="37.1" rx=".52" ry=".55"/>
                <ellipse class="cls-12" cx="12.39" cy="38.31" rx=".52" ry=".55"/>
                <ellipse class="cls-12" cx="18.37" cy="17.71" rx=".52" ry=".55"/>
                <ellipse class="cls-12" cx="17.53" cy="18.37" rx=".52" ry=".55"/>
                <ellipse class="cls-12" cx="28.01" cy="14.37" rx=".73" ry=".77"/>
                <ellipse class="cls-12" cx="23.13" cy="15.24" rx=".73" ry=".77"/>
                <ellipse class="cls-12" cx="21.72" cy="16.07" rx=".73" ry=".77"/>
                <ellipse class="cls-12" cx="14.13" cy="21.8" rx=".73" ry=".77"/>
                <ellipse class="cls-12" cx="14.16" cy="23.64" rx=".73" ry=".77"/>
                <ellipse class="cls-12" cx="14.75" cy="22.98" rx=".73" ry=".77"/>
                <ellipse class="cls-12" cx="15.44" cy="21.5" rx=".73" ry=".77"/>
                <ellipse class="cls-12" cx="16.4" cy="20.76" rx=".73" ry=".77"/>
                <ellipse class="cls-12" cx="19.16" cy="18.76" rx=".73" ry=".77"/>
                <ellipse class="cls-12" cx="11" cy="26.83" rx=".73" ry=".77"/>
                <ellipse class="cls-12" cx="10.49" cy="28.63" rx=".73" ry=".77"/>
                <ellipse class="cls-12" cx="9.9" cy="32.08" rx=".73" ry=".77"/>
                <ellipse class="cls-12" cx="10.75" cy="33.7" rx=".73" ry=".77"/>
                <ellipse class="cls-12" cx="10.68" cy="34.62" rx=".73" ry=".77"/>
                <ellipse class="cls-12" cx="13.55" cy="37.88" rx=".73" ry=".77"/>
                <ellipse class="cls-12" cx="11.92" cy="35.38" rx=".73" ry=".77"/>
                <ellipse class="cls-12" cx="11.25" cy="32.53" rx=".73" ry=".77"/>
              </g>
              <circle class="cls-12" cx="14.68" cy="35.56" r="1.28"/>
              <circle class="cls-12" cx="22.71" cy="27.34" r="1.28"/>
              <circle class="cls-12" cx="22.71" cy="29.52" r="1.28"/>
              <circle class="cls-12" cx="24.81" cy="30.15" r="1.28"/>
              <circle class="cls-12" cx="26.38" cy="28.46" r="1.28"/>
              <circle class="cls-12" cx="24.98" cy="26.56" r="1.28"/>
              <circle class="cls-12" cx="28.01" cy="15.78" r="1.28"/>
              <circle class="cls-12" cx="13.28" cy="34.33" r="1.01"/>
              <circle class="cls-12" cx="28" cy="18.66" r="1.01"/>
            </g>
          </g>
        </g>
      </g>
    </g>
  </g>
</svg>