<?xml version="1.0" encoding="UTF-8"?>
<svg xmlns="http://www.w3.org/2000/svg" xmlns:xlink="http://www.w3.org/1999/xlink" viewBox="0 0 55.32 72.56">
  <defs>
    <style>
      .cls-1, .cls-2, .cls-3 {
        fill: #fbe1a9;
      }

      .cls-2, .cls-3, .cls-4, .cls-5, .cls-6 {
        stroke: #fbe1a9;
        stroke-miterlimit: 10;
      }

      .cls-2, .cls-4, .cls-5, .cls-6 {
        stroke-width: .5px;
      }

      .cls-3 {
        stroke-width: .25px;
      }

      .cls-7 {
        mix-blend-mode: color-burn;
        opacity: .72;
      }

      .cls-8 {
        isolation: isolate;
      }

      .cls-9 {
        mix-blend-mode: multiply;
      }

      .cls-4 {
        fill: #211006;
      }

      .cls-5 {
        fill: none;
      }

      .cls-10 {
        fill: url(#_名称未設定グラデーション_838);
      }

      .cls-6 {
        fill: #ad5f2b;
        stroke-linecap: round;
      }

      .cls-11 {
        fill: #cf8b2e;
      }
    </style>
    <linearGradient id="_名称未設定グラデーション_838" data-name="名称未設定グラデーション 838" x1="-7.28" y1="16.11" x2="62.6" y2="56.46" gradientUnits="userSpaceOnUse">
      <stop offset="0" stop-color="#664b31"/>
      <stop offset=".08" stop-color="#46372b"/>
      <stop offset=".31" stop-color="#a6935c"/>
      <stop offset=".56" stop-color="#e0e0d4"/>
      <stop offset=".64" stop-color="#b29b78"/>
      <stop offset=".67" stop-color="#a38358"/>
      <stop offset=".96" stop-color="#674c32"/>
    </linearGradient>
  </defs>
  <g class="cls-8">
    <g id="_レイヤー_2" data-name="レイヤー 2">
      <g id="_レイヤー_2-2" data-name="レイヤー 2">
        <g>
          <g>
            <g>
              <rect class="cls-4" x=".25" y=".25" width="54.82" height="72.06" rx="3.84" ry="3.84"/>
              <rect class="cls-5" x="4.94" y="4.63" width="45.5" height="62.94" rx="3.84" ry="3.84"/>
              <path class="cls-1" d="M5.45,2.56c-.11,0-.46-.02-.53,0-.04.01-.06.04-.06.04,0-.01,0,.13,0,.18.39,1.11,2.23.47,1.7-.7-.29-.72-1.43-.52-2.04-.56,0,0-2.43-.04-2.43-.04-.18,0-.41.12-.4.29,0,.01-.06,2.04-.07,2.05-.03.14-.21.04-.11-.08,0,0,.74-1.49.74-1.49,0,0,.01-.02.02-.03.43-.25,1.12-.66,1.54-.9,0,0,.07-.06.01.01-.04.1.09.14.09.12,0,0-.01,0-.01,0-.06,0-1.87.04-1.92.04-.15,0-.28.16-.28.38,0-.05.03,2.41.03,2.4,0,0,.02,1.19.02,1.19.04.72.94,1.14,1.49.67.55-.37.37-1.42-.25-1.55-.11,0-.19-.04-.22.05-.01.06,0,.42,0,.52.01.32-.5.34-.5.01,0,0,0-.31,0-.31-.03-.24.05-.65.39-.74.2-.04.27-.01.42,0,1.04.27,1.22,1.74.4,2.33-.79.65-2.06.04-2.09-.96,0-.77.03-2.84.04-3.63,0-.28.22-.62.53-.61,0,0,1.89,0,1.89,0,.02,0,.05,0,.06,0,0-.02.1.05.06.13-.09.1-.06.04-.09.07-.42.23-1.11.61-1.53.84.05-.09-.74,1.49-.73,1.48,0,0-.12-.08-.11-.09-.03-.65-.04-1.27-.03-1.95,0-.14.08-.29.2-.38.13-.09.26-.11.39-.13.81,0,2.87-.05,3.65-.05,1.85.11,1.55,2.79-.27,2.54-.83-.04-1.63-1.28-.71-1.66.29-.06.43-.02.68-.03.33,0,.32.51,0,.5h0Z"/>
              <path class="cls-1" d="M4.49,4.42c.22,2.37.28,4.25-2.75,3.89,0,0,.16-.16.16-.16v24.72c0,.19-.32.21-.31,0,0,0,0-24.72,0-24.72v-.16h.16c1.69-.07,2.42-.34,2.39-2.18,0,0,.04-1.39.04-1.39,0-.19.3-.2.31,0h0Z"/>
              <path class="cls-1" d="M4.62,4c2.15-.06,3.93.14,3.78-2.62,0,0,0-.18,0-.18h16.82c.22,0,.23.35,0,.35,0,0-16.64,0-16.64,0,0,0,.18-.18.18-.18.42,3.02-1.77,3.19-4.14,2.98-.22-.01-.21-.35.01-.35h0Z"/>
              <path class="cls-1" d="M3.42,9.3c.09,4.54.15,9.08.14,13.62,0,2.27-.02,4.54-.13,6.82-.22,2.18-.03,4.94-1.86,6.5-.07.06-.18-.03-.12-.11,1.24-1.85,1.36-4.18,1.53-6.41.13-2.26.17-4.53.19-6.79l.09-13.61c0-.1.17-.11.17,0h0Z"/>
              <ellipse class="cls-6" cx="2.49" cy="36.18" rx=".46" ry=".26"/>
              <ellipse class="cls-6" cx="53.07" cy="36.18" rx=".46" ry=".26"/>
              <path class="cls-1" d="M9.69,3.64c3.13-.05,6.26-.06,9.37-.23,2.89-.25,6.17-.38,8.38-2.47.08-.06.11-.18.31-.11.2.08.29.29.04.46-2.3,2.17-5.73,2.31-8.71,2.53-3.14.16-6.26.11-9.39.07-.16,0-.17-.26,0-.26h0Z"/>
              <path class="cls-1" d="M50.04,2.06h.31c1.4-.03.67,1.64-.34,1.69-1.82.25-2.11-2.43-.27-2.54.78,0,2.86.04,3.66.05.27,0,.59.2.59.5,0,.68,0,1.3-.03,1.95.02.01-.11.09-.11.09,0,0-.78-1.56-.73-1.48-.43-.23-1.11-.61-1.53-.84-.03-.03,0,.02-.09-.07-.04-.08.07-.15.06-.13.02,0,.04,0,.06,0,0,0,1.89-.01,1.9,0,.31,0,.53.33.52.61,0,0,.03,2.41.03,2.41v1.22c-.02,1-1.29,1.61-2.08.96-.82-.58-.64-2.06.4-2.33.28-.09.7.04.78.36.07.29.02.43.03.68,0,.32-.5.33-.5,0,0-.11.02-.47,0-.53-.02-.09-.11-.06-.22-.05-1.13.38-.47,2.15.68,1.67.75-.29.53-1.37.58-1.98,0,0,.04-2.45.03-2.4,0-.22-.13-.38-.28-.38,0,0-1.89-.04-1.89-.04h-.03s-.03,0,0,0c0,.02.11-.04.08-.12-.06-.08.01,0,.01-.01l.1.06c.26.17,1.25.7,1.46.87,0,0,.74,1.49.74,1.49.1.13-.1.23-.11.07,0,0-.06-2.07-.06-2.03,0-.2-.22-.3-.4-.3,0,0-2.43.04-2.43.04l-1.2.02c-.73.02-1.21.91-.71,1.48.42.61,1.67.31,1.6-.42-.05-.06-.15-.04-.29-.04,0,0-.3,0-.3,0-.33.01-.34-.51,0-.5h0Z"/>
              <path class="cls-1" d="M51.32,4.43c.1,2.34-.33,3.59,2.59,3.57,0,.13,0,24.73,0,24.87,0,.19-.32.21-.31,0,0,0,0-24.72,0-24.72l.16.16c-.93.09-2.31.06-2.66-1.02-.28-.97-.16-1.9-.09-2.87.01-.19.31-.18.31,0h0Z"/>
              <path class="cls-1" d="M50.89,4.35c-2.38.21-4.56.04-4.14-2.98,0,0,.18.18.18.18,0,0-16.64,0-16.64,0-.22,0-.23-.35,0-.35,0,0,16.64,0,16.64,0h.18s0,.18,0,.18c-.03,1.79.48,2.51,2.32,2.57.48.03.97.04,1.46.05.1,0,.18.08.18.18,0,.09-.07.17-.16.18h0Z"/>
              <path class="cls-1" d="M52.25,9.3l.09,13.61c.02,2.27.07,4.54.19,6.79.17,2.24.28,4.57,1.53,6.41.05.07-.05.18-.12.11-1.83-1.56-1.64-4.32-1.86-6.5-.11-2.28-.13-4.55-.13-6.82-.02-4.54.05-9.08.14-13.62,0-.1.17-.11.17,0h0Z"/>
              <path class="cls-1" d="M45.81,3.9c-3.13.04-6.26.09-9.39-.07-2.98-.22-6.41-.37-8.71-2.53-.06-.08-.19-.1-.13-.29.03-.09.09-.15.18-.17.2-.07.23.05.31.11,2.21,2.09,5.49,2.22,8.38,2.47,3.11.17,6.24.17,9.37.23.16,0,.17.26,0,.26h0Z"/>
              <path class="cls-1" d="M5.44,70.29h-.31c-1.4.03-.67-1.64.34-1.69,1-.2,1.9.94,1.4,1.84-.42.88-1.58.68-2.36.68-.53-.05-2.63.07-2.82-.16-.13-.08-.2-.24-.2-.38,0-.69,0-1.31.03-1.96,0,0,.11-.08.11-.08,0,.01.74,1.49.74,1.5.33.15,1.13.62,1.52.82.03.03,0-.02.09.07.04.08-.07.15-.06.13-.02,0-.04,0-.06,0,0,0-1.89.01-1.9,0-.31,0-.53-.33-.52-.61,0,0-.03-2.41-.03-2.41v-1.22c.15-1.81,2.84-1.49,2.58.31-.03.97-1.75,1.71-1.71.32,0,0,0-.3,0-.3,0-.32.5-.33.5,0,0,.11-.02.47,0,.53.02.09.11.06.22.05,1.13-.38.47-2.15-.68-1.67-.75.29-.53,1.37-.58,1.98,0,0-.04,2.45-.03,2.4,0,.22.13.38.28.38,0,0,1.89.04,1.89.04h.03s.03,0,0,0c0-.02-.11.04-.08.13.06.08-.01,0-.01.01l-.1-.06c-.26-.17-1.25-.7-1.46-.87,0,0-.74-1.49-.74-1.49-.1-.13.1-.23.11-.07,0,0,.06,2.07.06,2.03,0,.2.22.3.4.3,0,0,2.43-.04,2.43-.04l1.2-.02c.73-.02,1.21-.91.71-1.48-.42-.61-1.67-.31-1.6.42.05.06.15.04.29.04,0,0,.3,0,.3,0,.33-.01.34.51,0,.5h0Z"/>
              <path class="cls-1" d="M4.16,67.92c-.1-2.34.33-3.59-2.59-3.57,0,0,0-.16,0-.16v-24.72c0-.19.32-.21.31,0,0,0,0,24.72,0,24.72l-.16-.16c.93-.09,2.31-.06,2.66,1.02.28.97.16,1.9.09,2.87-.01.19-.31.18-.31,0h0Z"/>
              <path class="cls-1" d="M4.59,68.01c2.38-.21,4.56-.04,4.14,2.98,0,0-.18-.18-.18-.18,0,0,16.64,0,16.64,0,.22,0,.23.35,0,.35,0,0-16.64,0-16.64,0h-.18s0-.18,0-.18c.03-1.79-.48-2.51-2.32-2.57-.48-.03-.97-.04-1.46-.05-.1,0-.18-.08-.18-.18,0-.09.07-.17.16-.18h0Z"/>
              <path class="cls-1" d="M3.23,63.06l-.09-13.61c-.02-2.27-.07-4.54-.19-6.79-.17-2.24-.28-4.57-1.53-6.41-.05-.07.05-.18.12-.11,1.83,1.56,1.64,4.32,1.86,6.5.11,2.28.13,4.55.13,6.82.02,4.54-.05,9.08-.14,13.62,0,.1-.17.11-.17,0h0Z"/>
              <ellipse class="cls-6" cx="2.47" cy="36.18" rx=".46" ry=".26"/>
              <ellipse class="cls-6" cx="53.05" cy="36.18" rx=".46" ry=".26"/>
              <path class="cls-1" d="M9.67,68.45c3.13-.04,6.26-.09,9.39.07,2.98.22,6.41.37,8.71,2.53.06.08.19.1.13.29-.03.09-.09.15-.18.17-.2.07-.23-.05-.31-.11-2.21-2.09-5.49-2.22-8.38-2.47-3.11-.17-6.24-.17-9.37-.23-.16,0-.17-.26,0-.26h0Z"/>
              <path class="cls-1" d="M50.03,69.79c.11,0,.46.02.53,0,.04-.01.06-.04.06-.04,0,.01,0-.13,0-.18-.39-1.11-2.23-.47-1.7.7.29.72,1.43.52,2.04.56,0,0,2.43.04,2.43.04.18,0,.41-.12.4-.29,0-.01.06-2.04.07-2.05.03-.14.21-.04.11.08,0,0-.74,1.49-.74,1.49,0,0-.01.02-.02.03-.43.25-1.12.66-1.54.9,0,0-.07.06-.01-.01.04-.1-.09-.14-.09-.12,0,0,.01,0,.01,0,.06,0,1.87-.04,1.92-.04.15,0,.28-.16.28-.38,0,.05-.03-2.41-.03-2.4,0,0-.02-1.19-.02-1.19-.04-.72-.94-1.14-1.49-.67-.55.37-.37,1.42.25,1.55.11,0,.19.04.22-.05.01-.06,0-.42,0-.52-.01-.32.5-.34.5-.01,0,0,0,.31,0,.31.03.24-.05.65-.39.74-.2.04-.27.01-.42,0-1.04-.27-1.22-1.74-.4-2.33.79-.65,2.06-.04,2.09.96,0,.77-.03,2.84-.04,3.63,0,.28-.22.62-.53.61,0,0-1.89,0-1.89,0-.02,0-.05,0-.06,0,0,.02-.1-.05-.06-.13.09-.1.06-.04.09-.07.42-.23,1.11-.61,1.53-.84-.05.09.74-1.49.73-1.48,0,0,.11.08.11.08h0c.03.66.04,1.28.03,1.96,0,.14-.08.29-.2.38-.13.09-.26.11-.39.13-.81,0-2.87.05-3.65.05-1.85-.11-1.55-2.79.27-2.54.83.04,1.63,1.28.71,1.66-.29.06-.43.02-.68.03-.33,0-.32-.51,0-.5h0Z"/>
              <path class="cls-1" d="M50.99,67.93c-.22-2.37-.28-4.25,2.75-3.89,0,0-.16.16-.16.16,0,0,0-24.72,0-24.72,0-.19.32-.21.31,0,0,0,0,24.72,0,24.72v.16h-.16c-1.69.07-2.42.34-2.39,2.18,0,0-.04,1.39-.04,1.39,0,.19-.3.2-.31,0h0Z"/>
              <path class="cls-1" d="M50.86,68.36c-2.15.06-3.93-.14-3.78,2.62,0,0,0,.18,0,.18h-16.82c-.22,0-.23-.35,0-.35,0,0,16.64,0,16.64,0,0,0-.18.18-.18.18-.42-3.02,1.77-3.19,4.14-2.98.22.01.21.35-.01.35h0Z"/>
              <path class="cls-1" d="M52.06,63.06c-.09-4.54-.15-9.08-.14-13.62,0-2.27.02-4.54.13-6.82.22-2.18.03-4.94,1.86-6.5.07-.06.18.03.12.11-1.24,1.85-1.36,4.18-1.53,6.41-.13,2.26-.17,4.53-.19,6.79l-.09,13.61c0,.1-.17.11-.17,0h0Z"/>
              <path class="cls-1" d="M45.79,68.71c-3.13.05-6.26.06-9.37.23-2.89.25-6.17.38-8.38,2.47-.08.06-.11.18-.31.11-.2-.07-.29-.29-.04-.46,2.3-2.17,5.73-2.31,8.71-2.53,3.14-.16,6.26-.11,9.39-.07.16,0,.17.26,0,.26h0Z"/>
            </g>
            <path class="cls-2" d="M11.27,17.6c4.64-8.01,14.52-11.49,23.15-8.13,9.64,3.75,14.49,14.76,10.75,24.41-3.75,9.64-14.76,14.49-24.41,10.75-9.64-3.75-14.49-14.76-10.75-24.41l-.03.07c-4.01,10.33,1.18,22.14,11.52,26.15,10.33,4.01,22.14-1.18,26.15-11.52,4.01-10.33-1.18-22.14-11.52-26.15-9.25-3.59-19.84.13-24.81,8.72"/>
            <path class="cls-3" d="M8.84,48.38c.27.17.62-.03.63-.35l.02-1.6.02,1.62c0,.32.35.53.63.37l.63-.34-.7.42c-.25.15-.27.51-.04.68l.66.49-.52-.36c-.28-.19-.67,0-.67.35l-.03,1.62v-1.72c0-.31-.35-.51-.62-.36l-.62.35.63-.39c.27-.17.27-.55.01-.72l-.64-.43.61.37Z"/>
            <path class="cls-3" d="M39.29,59.47c.27.17.62-.03.63-.35l.03-2.64.04,2.66c0,.32.35.53.63.37l1.2-.64-1.25.74c-.25.15-.27.51-.04.68l1.17.87-1.05-.72c-.28-.19-.67,0-.67.35l-.05,2.7v-2.81c-.01-.31-.35-.51-.63-.36l-1.17.65,1.16-.72c.27-.17.27-.55.01-.72l-1.18-.79,1.15.71Z"/>
            <path class="cls-3" d="M40.5,45.88c.21.2.57.05.57-.24l.02-2.84.06,2.82c0,.3.37.45.58.24l2.01-1.99-1.97,2.05c-.2.21-.05.57.24.57l2.84.02-2.82.06c-.3,0-.45.37-.24.58l1.99,2.01-2.05-1.97c-.21-.2-.57-.05-.57.24l-.02,2.84-.06-2.82c0-.3-.37-.45-.58-.24l-2.01,1.99,1.97-2.05c.2-.21.05-.57-.24-.57l-2.84-.02,2.82-.06c.3,0,.45-.37.24-.58l-1.99-2.01,2.05,1.97Z"/>
            <path class="cls-3" d="M50.34,62.22s.02-.05.03-.08l-2.19-3.24c-.27-.39.04-.92.51-.89l1.53.11c0-.08.08-.13.15-.18.02-.02-.18-.06-.16-.07,0,0,0-.01,0-.02,0-.04.01-.08.02-.12l-1.47-.28c-.47-.09-.62-.68-.27-.99l1.66-1.44s0-.02,0-.03c0,0,0,0-.01,0,0-.05.01-.09.01-.14,0-.03,0-.07,0-.1,0,0,0-.01,0-.02,0-.05.03-.09.05-.14l-2.07,1.4c-.39.27-.92-.04-.89-.51l.34-4.77-.91,4.69c-.09.47-.68.62-.99.27l-3.13-3.61,2.68,3.96c.27.39-.04.92-.51.89l-4.77-.34,4.69.91c.47.09.62.68.27.99l-3.61,3.13,3.96-2.68c.39-.27.92.04.89.51l-.34,4.77.91-4.69c.09-.47.68-.62.99-.27l2.62,3.02v-.05Z"/>
            <path class="cls-3" d="M18.99,65.69c.1.1.27.03.27-.11v-1.34s.04,1.35.04,1.35c0,.13.16.2.25.1l.96-.95-.92.96c-.1.1-.03.27.11.27h1.34s-1.35.04-1.35.04c-.13,0-.2.16-.1.25l.95.96-.96-.92c-.1-.1-.27-.03-.27.11v1.34s-.04-1.35-.04-1.35c0-.13-.16-.2-.25-.1l-.96.95.92-.96c.1-.1.03-.27-.11-.27h-1.34s1.35-.04,1.35-.04c.13,0,.2-.16.1-.25l-.95-.96.96.92Z"/>
            <path class="cls-3" d="M12.26,60.22c.1.1.27.03.27-.11v-2.12s.06,2.13.06,2.13c0,.13.16.2.25.1l1.52-1.5-1.46,1.53c-.1.1-.03.27.11.27h2.12s-2.13.06-2.13.06c-.13,0-.2.16-.1.25l1.5,1.52-1.53-1.46c-.1-.1-.27-.03-.27.11v2.12s-.06-2.13-.06-2.13c0-.13-.16-.2-.25-.1l-1.52,1.5,1.46-1.53c.1-.1.03-.27-.11-.27h-2.12s2.13-.06,2.13-.06c.13,0,.2-.16.1-.25l-1.5-1.52,1.53,1.46Z"/>
            <path class="cls-3" d="M42.14,63.18c.1.1.27.03.27-.11v-2.12s.06,2.13.06,2.13c0,.13.16.2.25.1l1.52-1.5-1.46,1.53c-.1.1-.03.27.11.27h2.12s-2.13.06-2.13.06c-.13,0-.2.16-.1.25l1.5,1.52-1.53-1.46c-.1-.1-.27-.03-.27.11v2.12s-.06-2.13-.06-2.13c0-.13-.16-.2-.25-.1l-1.52,1.5,1.46-1.53c.1-.1.03-.27-.11-.27h-2.12s2.13-.06,2.13-.06c.13,0,.2-.16.1-.25l-1.5-1.52,1.53,1.46Z"/>
            <polygon class="cls-3" points="10.92 7.04 11.48 5.39 11.13 7.08 12.94 6.99 11.14 7.29 11.7 8.89 10.94 7.38 9.47 8.46 10.8 7.22 9.34 6.29 10.92 7.04"/>
            <polygon class="cls-3" points="34.5 62.96 35.06 61.3 34.71 63 36.52 62.91 34.72 63.21 35.28 64.81 34.52 63.3 33.05 64.38 34.38 63.14 32.92 62.21 34.5 62.96"/>
            <path class="cls-3" d="M43.32,50.37c.46.19.99-.02,1.19-.48l5.93-13.79-5.78,13.93c-.17.42.03.9.44,1.07l5.34,2.23-5.39-2.07c-.44-.16-.94.04-1.14.47l-7.23,15.84,7.07-15.94c.18-.41,0-.89-.4-1.08l-8.62-3.43,8.61,3.23Z"/>
            <path class="cls-3" d="M5.97,54.55c.5-.04.87-.46.85-.96l-.12-2.92.21,2.98c.03.45.42.79.87.76l1.56-.1-1.54.17c-.47.05-.82.45-.82.93l.04,2.83-.12-2.86c-.02-.45-.39-.79-.84-.78l-1.4.03,1.31-.09Z"/>
            <path class="cls-3" d="M37.39,64.99c.5-.04.87-.46.85-.96l-.07-1.81.13,1.88c.03.45.42.79.87.76l.87-.06-.85.09c-.47.05-.82.45-.82.93l.02,1.77-.08-1.8c-.02-.45-.39-.79-.84-.78l-.76.02.67-.05Z"/>
            <circle class="cls-2" cx="10.75" cy="10.82" r=".23"/>
            <circle class="cls-2" cx="26.79" cy="58.99" r=".23"/>
            <circle class="cls-2" cx="30.73" cy="65.99" r=".23"/>
            <circle class="cls-2" cx="10.92" cy="55.85" r=".23"/>
            <circle class="cls-2" cx="47.85" cy="64.44" r=".23"/>
            <circle class="cls-2" cx="24.16" cy="62.22" r=".23"/>
          </g>
          <g class="cls-9">
            <g>
              <rect class="cls-10" x=".25" y=".25" width="54.82" height="72.06" rx="3.84" ry="3.84"/>
              <rect class="cls-10" x="4.94" y="4.63" width="45.5" height="62.94" rx="3.84" ry="3.84"/>
              <g>
                <path class="cls-10" d="M5.46,2.31h-.5c-.15,0-.33.1-.34.26-.04.64.6.98,1.11.98.66,0,1.19-.58,1.1-1.24-.07-.55-.59-.95-1.15-.95h-3.15s-.42,0-.42,0c-.28.02-.47.13-.5.4v.81s-.01,1.19-.02,1.19l.74-1.5s1.61-.91,1.6-.91l-1.93.02c-.27.02-.39.22-.41.49v.42s0,3.1,0,3.1c0,.56.4,1.06.97,1.14.67.09,1.26-.44,1.26-1.09,0-.5-.35-1.14-1-1.09-.17.01-.27.19-.27.33v.49"/>
                <path class="cls-10" d="M5.45,2.56c-.11,0-.46-.02-.53,0-.04.01-.06.04-.06.04,0-.01,0,.13,0,.18.39,1.11,2.23.47,1.7-.7-.29-.72-1.43-.52-2.04-.56,0,0-2.43-.04-2.43-.04-.18,0-.41.12-.4.29,0,.01-.06,2.04-.07,2.05-.03.14-.21.04-.11-.08,0,0,.74-1.49.74-1.49,0,0,.01-.02.02-.03.43-.25,1.12-.66,1.54-.9,0,0,.07-.06.01.01-.04.1.09.14.09.12,0,0-.01,0-.01,0-.06,0-1.87.04-1.92.04-.15,0-.28.16-.28.38,0-.05.03,2.41.03,2.4,0,0,.02,1.19.02,1.19.04.72.94,1.14,1.49.67.55-.37.37-1.42-.25-1.55-.11,0-.19-.04-.22.05-.01.06,0,.42,0,.52.01.32-.5.34-.5.01,0,0,0-.31,0-.31-.03-.24.05-.65.39-.74.2-.04.27-.01.42,0,1.04.27,1.22,1.74.4,2.33-.79.65-2.06.04-2.09-.96,0-.77.03-2.84.04-3.63,0-.28.22-.62.53-.61,0,0,1.89,0,1.89,0,.02,0,.05,0,.06,0,0-.02.1.05.06.13-.09.1-.06.04-.09.07-.42.23-1.11.61-1.53.84.05-.09-.74,1.49-.73,1.48,0,0-.12-.08-.11-.09-.03-.65-.04-1.27-.03-1.95,0-.14.08-.29.2-.38.13-.09.26-.11.39-.13.81,0,2.87-.05,3.65-.05,1.85.11,1.55,2.79-.27,2.54-.83-.04-1.63-1.28-.71-1.66.29-.06.43-.02.68-.03.33,0,.32.51,0,.5h0Z"/>
              </g>
              <g>
                <path class="cls-10" d="M4.34,4.43c.09,3.08.03,3.76-2.59,3.73v24.72"/>
                <path class="cls-10" d="M4.49,4.42c.22,2.37.28,4.25-2.75,3.89,0,0,.16-.16.16-.16v24.72c0,.19-.32.21-.31,0,0,0,0-24.72,0-24.72v-.16h.16c1.69-.07,2.42-.34,2.39-2.18,0,0,.04-1.39.04-1.39,0-.19.3-.2.31,0h0Z"/>
              </g>
              <g>
                <path class="cls-10" d="M4.62,4.17c3.58.14,4.02-.54,3.96-2.8h16.64"/>
                <path class="cls-10" d="M4.62,4c2.15-.06,3.93.14,3.78-2.62,0,0,0-.18,0-.18h16.82c.22,0,.23.35,0,.35,0,0-16.64,0-16.64,0,0,0,.18-.18.18-.18.42,3.02-1.77,3.19-4.14,2.98-.22-.01-.21-.35.01-.35h0Z"/>
              </g>
              <g>
                <path class="cls-10" d="M3.34,9.3c.1,21.55.09,24.79-1.84,26.88"/>
                <path class="cls-10" d="M3.42,9.3c.09,4.54.15,9.08.14,13.62,0,2.27-.02,4.54-.13,6.82-.22,2.18-.03,4.94-1.86,6.5-.07.06-.18-.03-.12-.11,1.24-1.85,1.36-4.18,1.53-6.41.13-2.26.17-4.53.19-6.79l.09-13.61c0-.1.17-.11.17,0h0Z"/>
              </g>
              <ellipse class="cls-10" cx="2.49" cy="36.18" rx=".46" ry=".26"/>
              <ellipse class="cls-10" cx="53.07" cy="36.18" rx=".46" ry=".26"/>
              <g>
                <path class="cls-10" d="M9.69,3.77c10.02,0,15.54,0,18.13-2.85"/>
                <path class="cls-10" d="M9.69,3.64c3.13-.05,6.26-.06,9.37-.23,2.89-.25,6.17-.38,8.38-2.47.08-.06.11-.18.31-.11.2.08.29.29.04.46-2.3,2.17-5.73,2.31-8.71,2.53-3.14.16-6.26.11-9.39.07-.16,0-.17-.26,0-.26h0Z"/>
              </g>
              <g>
                <path class="cls-10" d="M50.04,2.31h.5c.15,0,.33.1.34.26.04.64-.6.98-1.11.98-.66,0-1.19-.58-1.1-1.24.07-.55.59-.95,1.15-.95h3.15s.42,0,.42,0c.28.02.47.13.5.4v.81s.01,1.19.02,1.19l-.74-1.5s-1.61-.91-1.6-.91l1.93.02c.27.02.39.22.41.49v.42s0,3.1,0,3.1c0,.56-.4,1.06-.97,1.14-.67.09-1.26-.44-1.26-1.09,0-.5.35-1.14,1-1.09.17.01.27.19.27.33v.49"/>
                <path class="cls-10" d="M50.04,2.06h.31c1.4-.03.67,1.64-.34,1.69-1.82.25-2.11-2.43-.27-2.54.78,0,2.86.04,3.66.05.27,0,.59.2.59.5,0,.68,0,1.3-.03,1.95.02.01-.11.09-.11.09,0,0-.78-1.56-.73-1.48-.43-.23-1.11-.61-1.53-.84-.03-.03,0,.02-.09-.07-.04-.08.07-.15.06-.13.02,0,.04,0,.06,0,0,0,1.89-.01,1.9,0,.31,0,.53.33.52.61,0,0,.03,2.41.03,2.41v1.22c-.02,1-1.29,1.61-2.08.96-.82-.58-.64-2.06.4-2.33.28-.09.7.04.78.36.07.29.02.43.03.68,0,.32-.5.33-.5,0,0-.11.02-.47,0-.53-.02-.09-.11-.06-.22-.05-1.13.38-.47,2.15.68,1.67.75-.29.53-1.37.58-1.98,0,0,.04-2.45.03-2.4,0-.22-.13-.38-.28-.38,0,0-1.89-.04-1.89-.04h-.03s-.03,0,0,0c0,.02.11-.04.08-.12-.06-.08.01,0,.01-.01l.1.06c.26.17,1.25.7,1.46.87,0,0,.74,1.49.74,1.49.1.13-.1.23-.11.07,0,0-.06-2.07-.06-2.03,0-.2-.22-.3-.4-.3,0,0-2.43.04-2.43.04l-1.2.02c-.73.02-1.21.91-.71,1.48.42.61,1.67.31,1.6-.42-.05-.06-.15-.04-.29-.04,0,0-.3,0-.3,0-.33.01-.34-.51,0-.5h0Z"/>
              </g>
              <g>
                <path class="cls-10" d="M51.16,4.43c-.09,3.08-.03,3.76,2.59,3.73v24.72"/>
                <path class="cls-10" d="M51.32,4.43c.1,2.34-.33,3.59,2.59,3.57,0,.13,0,24.73,0,24.87,0,.19-.32.21-.31,0,0,0,0-24.72,0-24.72l.16.16c-.93.09-2.31.06-2.66-1.02-.28-.97-.16-1.9-.09-2.87.01-.19.31-.18.31,0h0Z"/>
              </g>
              <g>
                <path class="cls-10" d="M50.88,4.17c-3.58.14-4.02-.54-3.96-2.8h-16.64"/>
                <path class="cls-10" d="M50.89,4.35c-2.38.21-4.56.04-4.14-2.98,0,0,.18.18.18.18,0,0-16.64,0-16.64,0-.22,0-.23-.35,0-.35,0,0,16.64,0,16.64,0h.18s0,.18,0,.18c-.03,1.79.48,2.51,2.32,2.57.48.03.97.04,1.46.05.1,0,.18.08.18.18,0,.09-.07.17-.16.18h0Z"/>
              </g>
              <g>
                <path class="cls-10" d="M52.17,9.3c-.1,21.55-.09,24.79,1.84,26.88"/>
                <path class="cls-10" d="M52.25,9.3l.09,13.61c.02,2.27.07,4.54.19,6.79.17,2.24.28,4.57,1.53,6.41.05.07-.05.18-.12.11-1.83-1.56-1.64-4.32-1.86-6.5-.11-2.28-.13-4.55-.13-6.82-.02-4.54.05-9.08.14-13.62,0-.1.17-.11.17,0h0Z"/>
              </g>
              <g>
                <path class="cls-10" d="M45.81,3.77c-10.02,0-15.54,0-18.13-2.85"/>
                <path class="cls-10" d="M45.81,3.9c-3.13.04-6.26.09-9.39-.07-2.98-.22-6.41-.37-8.71-2.53-.06-.08-.19-.1-.13-.29.03-.09.09-.15.18-.17.2-.07.23.05.31.11,2.21,2.09,5.49,2.22,8.38,2.47,3.11.17,6.24.17,9.37.23.16,0,.17.26,0,.26h0Z"/>
              </g>
              <g>
                <path class="cls-10" d="M5.44,70.04h-.5c-.15,0-.33-.1-.34-.26-.04-.64.6-.98,1.11-.98.66,0,1.19.58,1.1,1.24-.07.55-.59.95-1.15.95h-3.15s-.42,0-.42,0c-.28-.02-.47-.13-.5-.4v-.81s-.01-1.19-.02-1.19l.74,1.5s1.61.91,1.6.91l-1.93-.02c-.27-.02-.39-.22-.41-.49v-.42s0-3.1,0-3.1c0-.56.4-1.06.97-1.14.67-.09,1.26.44,1.26,1.09,0,.5-.35,1.14-1,1.09-.17-.01-.27-.19-.27-.33v-.49"/>
                <path class="cls-10" d="M5.44,70.29h-.31c-1.4.03-.67-1.64.34-1.69,1-.2,1.9.94,1.4,1.84-.42.88-1.58.68-2.36.68-.53-.05-2.63.07-2.82-.16-.13-.08-.2-.24-.2-.38,0-.69,0-1.31.03-1.96,0,0,.11-.08.11-.08,0,.01.74,1.49.74,1.5.33.15,1.13.62,1.52.82.03.03,0-.02.09.07.04.08-.07.15-.06.13-.02,0-.04,0-.06,0,0,0-1.89.01-1.9,0-.31,0-.53-.33-.52-.61,0,0-.03-2.41-.03-2.41v-1.22c.15-1.81,2.84-1.49,2.58.31-.03.97-1.75,1.71-1.71.32,0,0,0-.3,0-.3,0-.32.5-.33.5,0,0,.11-.02.47,0,.53.02.09.11.06.22.05,1.13-.38.47-2.15-.68-1.67-.75.29-.53,1.37-.58,1.98,0,0-.04,2.45-.03,2.4,0,.22.13.38.28.38,0,0,1.89.04,1.89.04h.03s.03,0,0,0c0-.02-.11.04-.08.13.06.08-.01,0-.01.01l-.1-.06c-.26-.17-1.25-.7-1.46-.87,0,0-.74-1.49-.74-1.49-.1-.13.1-.23.11-.07,0,0,.06,2.07.06,2.03,0,.2.22.3.4.3,0,0,2.43-.04,2.43-.04l1.2-.02c.73-.02,1.21-.91.71-1.48-.42-.61-1.67-.31-1.6.42.05.06.15.04.29.04,0,0,.3,0,.3,0,.33-.01.34.51,0,.5h0Z"/>
              </g>
              <g>
                <path class="cls-10" d="M4.32,67.93c.09-3.08.03-3.76-2.59-3.73v-24.72"/>
                <path class="cls-10" d="M4.16,67.92c-.1-2.34.33-3.59-2.59-3.57,0,0,0-.16,0-.16v-24.72c0-.19.32-.21.31,0,0,0,0,24.72,0,24.72l-.16-.16c.93-.09,2.31-.06,2.66,1.02.28.97.16,1.9.09,2.87-.01.19-.31.18-.31,0h0Z"/>
              </g>
              <g>
                <path class="cls-10" d="M4.6,68.18c3.58-.14,4.02.54,3.96,2.8h16.64"/>
                <path class="cls-10" d="M4.59,68.01c2.38-.21,4.56-.04,4.14,2.98,0,0-.18-.18-.18-.18,0,0,16.64,0,16.64,0,.22,0,.23.35,0,.35,0,0-16.64,0-16.64,0h-.18s0-.18,0-.18c.03-1.79-.48-2.51-2.32-2.57-.48-.03-.97-.04-1.46-.05-.1,0-.18-.08-.18-.18,0-.09.07-.17.16-.18h0Z"/>
              </g>
              <g>
                <path class="cls-10" d="M3.31,63.06c.1-21.55.09-24.79-1.84-26.88"/>
                <path class="cls-10" d="M3.23,63.06l-.09-13.61c-.02-2.27-.07-4.54-.19-6.79-.17-2.24-.28-4.57-1.53-6.41-.05-.07.05-.18.12-.11,1.83,1.56,1.64,4.32,1.86,6.5.11,2.28.13,4.55.13,6.82.02,4.54-.05,9.08-.14,13.62,0,.1-.17.11-.17,0h0Z"/>
              </g>
              <ellipse class="cls-10" cx="2.47" cy="36.18" rx=".46" ry=".26"/>
              <ellipse class="cls-10" cx="53.05" cy="36.18" rx=".46" ry=".26"/>
              <g>
                <path class="cls-10" d="M9.67,68.58c10.02,0,15.54,0,18.13,2.85"/>
                <path class="cls-10" d="M9.67,68.45c3.13-.04,6.26-.09,9.39.07,2.98.22,6.41.37,8.71,2.53.06.08.19.1.13.29-.03.09-.09.15-.18.17-.2.07-.23-.05-.31-.11-2.21-2.09-5.49-2.22-8.38-2.47-3.11-.17-6.24-.17-9.37-.23-.16,0-.17-.26,0-.26h0Z"/>
              </g>
              <g>
                <path class="cls-10" d="M50.02,70.04h.5c.15,0,.33-.1.34-.26.04-.64-.6-.98-1.11-.98-.66,0-1.19.58-1.1,1.24.07.55.59.95,1.15.95h3.15s.42,0,.42,0c.28-.02.47-.13.5-.4v-.81s.01-1.19.02-1.19l-.74,1.5s-1.61.91-1.6.91l1.93-.02c.27-.02.39-.22.41-.49v-.42s0-3.1,0-3.1c0-.56-.4-1.06-.97-1.14-.67-.09-1.26.44-1.26,1.09,0,.5.35,1.14,1,1.09.17-.01.27-.19.27-.33v-.49"/>
                <path class="cls-10" d="M50.03,69.79c.11,0,.46.02.53,0,.04-.01.06-.04.06-.04,0,.01,0-.13,0-.18-.39-1.11-2.23-.47-1.7.7.29.72,1.43.52,2.04.56,0,0,2.43.04,2.43.04.18,0,.41-.12.4-.29,0-.01.06-2.04.07-2.05.03-.14.21-.04.11.08,0,0-.74,1.49-.74,1.49,0,0-.01.02-.02.03-.43.25-1.12.66-1.54.9,0,0-.07.06-.01-.01.04-.1-.09-.14-.09-.12,0,0,.01,0,.01,0,.06,0,1.87-.04,1.92-.04.15,0,.28-.16.28-.38,0,.05-.03-2.41-.03-2.4,0,0-.02-1.19-.02-1.19-.04-.72-.94-1.14-1.49-.67-.55.37-.37,1.42.25,1.55.11,0,.19.04.22-.05.01-.06,0-.42,0-.52-.01-.32.5-.34.5-.01,0,0,0,.31,0,.31.03.24-.05.65-.39.74-.2.04-.27.01-.42,0-1.04-.27-1.22-1.74-.4-2.33.79-.65,2.06-.04,2.09.96,0,.77-.03,2.84-.04,3.63,0,.28-.22.62-.53.61,0,0-1.89,0-1.89,0-.02,0-.05,0-.06,0,0,.02-.1-.05-.06-.13.09-.1.06-.04.09-.07.42-.23,1.11-.61,1.53-.84-.05.09.74-1.49.73-1.48,0,0,.11.08.11.08h0c.03.66.04,1.28.03,1.96,0,.14-.08.29-.2.38-.13.09-.26.11-.39.13-.81,0-2.87.05-3.65.05-1.85-.11-1.55-2.79.27-2.54.83.04,1.63,1.28.71,1.66-.29.06-.43.02-.68.03-.33,0-.32-.51,0-.5h0Z"/>
              </g>
              <g>
                <path class="cls-10" d="M51.14,67.93c-.09-3.08-.03-3.76,2.59-3.73v-24.72"/>
                <path class="cls-10" d="M50.99,67.93c-.22-2.37-.28-4.25,2.75-3.89,0,0-.16.16-.16.16,0,0,0-24.72,0-24.72,0-.19.32-.21.31,0,0,0,0,24.72,0,24.72v.16h-.16c-1.69.07-2.42.34-2.39,2.18,0,0-.04,1.39-.04,1.39,0,.19-.3.2-.31,0h0Z"/>
              </g>
              <g>
                <path class="cls-10" d="M50.86,68.18c-3.58-.14-4.02.54-3.96,2.8h-16.64"/>
                <path class="cls-10" d="M50.86,68.36c-2.15.06-3.93-.14-3.78,2.62,0,0,0,.18,0,.18h-16.82c-.22,0-.23-.35,0-.35,0,0,16.64,0,16.64,0,0,0-.18.18-.18.18-.42-3.02,1.77-3.19,4.14-2.98.22.01.21.35-.01.35h0Z"/>
              </g>
              <g>
                <path class="cls-10" d="M52.14,63.06c-.1-21.55-.09-24.79,1.84-26.88"/>
                <path class="cls-10" d="M52.06,63.06c-.09-4.54-.15-9.08-.14-13.62,0-2.27.02-4.54.13-6.82.22-2.18.03-4.94,1.86-6.5.07-.06.18.03.12.11-1.24,1.85-1.36,4.18-1.53,6.41-.13,2.26-.17,4.53-.19,6.79l-.09,13.61c0,.1-.17.11-.17,0h0Z"/>
              </g>
              <g>
                <path class="cls-10" d="M45.79,68.58c-10.02,0-15.54,0-18.13,2.85"/>
                <path class="cls-10" d="M45.79,68.71c-3.13.05-6.26.06-9.37.23-2.89.25-6.17.38-8.38,2.47-.08.06-.11.18-.31.11-.2-.07-.29-.29-.04-.46,2.3-2.17,5.73-2.31,8.71-2.53,3.14-.16,6.26-.11,9.39-.07.16,0,.17.26,0,.26h0Z"/>
              </g>
            </g>
            <path class="cls-10" d="M11.27,17.6c4.64-8.01,14.52-11.49,23.15-8.13,9.64,3.75,14.49,14.76,10.75,24.41-3.75,9.64-14.76,14.49-24.41,10.75-9.64-3.75-14.49-14.76-10.75-24.41l-.03.07c-4.01,10.33,1.18,22.14,11.52,26.15,10.33,4.01,22.14-1.18,26.15-11.52,4.01-10.33-1.18-22.14-11.52-26.15-9.25-3.59-19.84.13-24.81,8.72"/>
            <path class="cls-10" d="M8.84,48.38c.27.17.62-.03.63-.35l.02-1.6.02,1.62c0,.32.35.53.63.37l.63-.34-.7.42c-.25.15-.27.51-.04.68l.66.49-.52-.36c-.28-.19-.67,0-.67.35l-.03,1.62v-1.72c0-.31-.35-.51-.62-.36l-.62.35.63-.39c.27-.17.27-.55.01-.72l-.64-.43.61.37Z"/>
            <path class="cls-10" d="M39.29,59.47c.27.17.62-.03.63-.35l.03-2.64.04,2.66c0,.32.35.53.63.37l1.2-.64-1.25.74c-.25.15-.27.51-.04.68l1.17.87-1.05-.72c-.28-.19-.67,0-.67.35l-.05,2.7v-2.81c-.01-.31-.35-.51-.63-.36l-1.17.65,1.16-.72c.27-.17.27-.55.01-.72l-1.18-.79,1.15.71Z"/>
            <path class="cls-10" d="M40.5,45.88c.21.2.57.05.57-.24l.02-2.84.06,2.82c0,.3.37.45.58.24l2.01-1.99-1.97,2.05c-.2.21-.05.57.24.57l2.84.02-2.82.06c-.3,0-.45.37-.24.58l1.99,2.01-2.05-1.97c-.21-.2-.57-.05-.57.24l-.02,2.84-.06-2.82c0-.3-.37-.45-.58-.24l-2.01,1.99,1.97-2.05c.2-.21.05-.57-.24-.57l-2.84-.02,2.82-.06c.3,0,.45-.37.24-.58l-1.99-2.01,2.05,1.97Z"/>
            <path class="cls-10" d="M50.34,62.22s.02-.05.03-.08l-2.19-3.24c-.27-.39.04-.92.51-.89l1.53.11c0-.08.08-.13.15-.18.02-.02-.18-.06-.16-.07,0,0,0-.01,0-.02,0-.04.01-.08.02-.12l-1.47-.28c-.47-.09-.62-.68-.27-.99l1.66-1.44s0-.02,0-.03c0,0,0,0-.01,0,0-.05.01-.09.01-.14,0-.03,0-.07,0-.1,0,0,0-.01,0-.02,0-.05.03-.09.05-.14l-2.07,1.4c-.39.27-.92-.04-.89-.51l.34-4.77-.91,4.69c-.09.47-.68.62-.99.27l-3.13-3.61,2.68,3.96c.27.39-.04.92-.51.89l-4.77-.34,4.69.91c.47.09.62.68.27.99l-3.61,3.13,3.96-2.68c.39-.27.92.04.89.51l-.34,4.77.91-4.69c.09-.47.68-.62.99-.27l2.62,3.02v-.05Z"/>
            <path class="cls-10" d="M18.99,65.69c.1.1.27.03.27-.11v-1.34s.04,1.35.04,1.35c0,.13.16.2.25.1l.96-.95-.92.96c-.1.1-.03.27.11.27h1.34s-1.35.04-1.35.04c-.13,0-.2.16-.1.25l.95.96-.96-.92c-.1-.1-.27-.03-.27.11v1.34s-.04-1.35-.04-1.35c0-.13-.16-.2-.25-.1l-.96.95.92-.96c.1-.1.03-.27-.11-.27h-1.34s1.35-.04,1.35-.04c.13,0,.2-.16.1-.25l-.95-.96.96.92Z"/>
            <path class="cls-10" d="M12.26,60.22c.1.1.27.03.27-.11v-2.12s.06,2.13.06,2.13c0,.13.16.2.25.1l1.52-1.5-1.46,1.53c-.1.1-.03.27.11.27h2.12s-2.13.06-2.13.06c-.13,0-.2.16-.1.25l1.5,1.52-1.53-1.46c-.1-.1-.27-.03-.27.11v2.12s-.06-2.13-.06-2.13c0-.13-.16-.2-.25-.1l-1.52,1.5,1.46-1.53c.1-.1.03-.27-.11-.27h-2.12s2.13-.06,2.13-.06c.13,0,.2-.16.1-.25l-1.5-1.52,1.53,1.46Z"/>
            <path class="cls-10" d="M42.14,63.18c.1.1.27.03.27-.11v-2.12s.06,2.13.06,2.13c0,.13.16.2.25.1l1.52-1.5-1.46,1.53c-.1.1-.03.27.11.27h2.12s-2.13.06-2.13.06c-.13,0-.2.16-.1.25l1.5,1.52-1.53-1.46c-.1-.1-.27-.03-.27.11v2.12s-.06-2.13-.06-2.13c0-.13-.16-.2-.25-.1l-1.52,1.5,1.46-1.53c.1-.1.03-.27-.11-.27h-2.12s2.13-.06,2.13-.06c.13,0,.2-.16.1-.25l-1.5-1.52,1.53,1.46Z"/>
            <polygon class="cls-10" points="10.92 7.04 11.48 5.39 11.13 7.08 12.94 6.99 11.14 7.29 11.7 8.89 10.94 7.38 9.47 8.46 10.8 7.22 9.34 6.29 10.92 7.04"/>
            <polygon class="cls-10" points="34.5 62.96 35.06 61.3 34.71 63 36.52 62.91 34.72 63.21 35.28 64.81 34.52 63.3 33.05 64.38 34.38 63.14 32.92 62.21 34.5 62.96"/>
            <path class="cls-10" d="M43.32,50.37c.46.19.99-.02,1.19-.48l5.93-13.79-5.78,13.93c-.17.42.03.9.44,1.07l5.34,2.23-5.39-2.07c-.44-.16-.94.04-1.14.47l-7.23,15.84,7.07-15.94c.18-.41,0-.89-.4-1.08l-8.62-3.43,8.61,3.23Z"/>
            <path class="cls-10" d="M5.97,54.55c.5-.04.87-.46.85-.96l-.12-2.92.21,2.98c.03.45.42.79.87.76l1.56-.1-1.54.17c-.47.05-.82.45-.82.93l.04,2.83-.12-2.86c-.02-.45-.39-.79-.84-.78l-1.4.03,1.31-.09Z"/>
            <path class="cls-10" d="M37.39,64.99c.5-.04.87-.46.85-.96l-.07-1.81.13,1.88c.03.45.42.79.87.76l.87-.06-.85.09c-.47.05-.82.45-.82.93l.02,1.77-.08-1.8c-.02-.45-.39-.79-.84-.78l-.76.02.67-.05Z"/>
            <circle class="cls-10" cx="10.75" cy="10.82" r=".23"/>
            <circle class="cls-10" cx="26.79" cy="58.99" r=".23"/>
            <circle class="cls-10" cx="30.73" cy="65.99" r=".23"/>
            <circle class="cls-10" cx="10.92" cy="55.85" r=".23"/>
            <circle class="cls-10" cx="47.85" cy="64.44" r=".23"/>
            <circle class="cls-10" cx="24.16" cy="62.22" r=".23"/>
          </g>
          <g class="cls-7">
            <g>
              <rect class="cls-11" x=".25" y=".25" width="54.82" height="72.06" rx="3.84" ry="3.84"/>
              <rect class="cls-11" x="4.94" y="4.63" width="45.5" height="62.94" rx="3.84" ry="3.84"/>
              <g>
                <path class="cls-11" d="M5.46,2.31h-.5c-.15,0-.33.1-.34.26-.04.64.6.98,1.11.98.66,0,1.19-.58,1.1-1.24-.07-.55-.59-.95-1.15-.95h-3.15s-.42,0-.42,0c-.28.02-.47.13-.5.4v.81s-.01,1.19-.02,1.19l.74-1.5s1.61-.91,1.6-.91l-1.93.02c-.27.02-.39.22-.41.49v.42s0,3.1,0,3.1c0,.56.4,1.06.97,1.14.67.09,1.26-.44,1.26-1.09,0-.5-.35-1.14-1-1.09-.17.01-.27.19-.27.33v.49"/>
                <path class="cls-11" d="M5.45,2.56c-.11,0-.46-.02-.53,0-.04.01-.06.04-.06.04,0-.01,0,.13,0,.18.39,1.11,2.23.47,1.7-.7-.29-.72-1.43-.52-2.04-.56,0,0-2.43-.04-2.43-.04-.18,0-.41.12-.4.29,0,.01-.06,2.04-.07,2.05-.03.14-.21.04-.11-.08,0,0,.74-1.49.74-1.49,0,0,.01-.02.02-.03.43-.25,1.12-.66,1.54-.9,0,0,.07-.06.01.01-.04.1.09.14.09.12,0,0-.01,0-.01,0-.06,0-1.87.04-1.92.04-.15,0-.28.16-.28.38,0-.05.03,2.41.03,2.4,0,0,.02,1.19.02,1.19.04.72.94,1.14,1.49.67.55-.37.37-1.42-.25-1.55-.11,0-.19-.04-.22.05-.01.06,0,.42,0,.52.01.32-.5.34-.5.01,0,0,0-.31,0-.31-.03-.24.05-.65.39-.74.2-.04.27-.01.42,0,1.04.27,1.22,1.74.4,2.33-.79.65-2.06.04-2.09-.96,0-.77.03-2.84.04-3.63,0-.28.22-.62.53-.61,0,0,1.89,0,1.89,0,.02,0,.05,0,.06,0,0-.02.1.05.06.13-.09.1-.06.04-.09.07-.42.23-1.11.61-1.53.84.05-.09-.74,1.49-.73,1.48,0,0-.12-.08-.11-.09-.03-.65-.04-1.27-.03-1.95,0-.14.08-.29.2-.38.13-.09.26-.11.39-.13.81,0,2.87-.05,3.65-.05,1.85.11,1.55,2.79-.27,2.54-.83-.04-1.63-1.28-.71-1.66.29-.06.43-.02.68-.03.33,0,.32.51,0,.5h0Z"/>
              </g>
              <g>
                <path class="cls-11" d="M4.34,4.43c.09,3.08.03,3.76-2.59,3.73v24.72"/>
                <path class="cls-11" d="M4.49,4.42c.22,2.37.28,4.25-2.75,3.89,0,0,.16-.16.16-.16v24.72c0,.19-.32.21-.31,0,0,0,0-24.72,0-24.72v-.16h.16c1.69-.07,2.42-.34,2.39-2.18,0,0,.04-1.39.04-1.39,0-.19.3-.2.31,0h0Z"/>
              </g>
              <g>
                <path class="cls-11" d="M4.62,4.17c3.58.14,4.02-.54,3.96-2.8h16.64"/>
                <path class="cls-11" d="M4.62,4c2.15-.06,3.93.14,3.78-2.62,0,0,0-.18,0-.18h16.82c.22,0,.23.35,0,.35,0,0-16.64,0-16.64,0,0,0,.18-.18.18-.18.42,3.02-1.77,3.19-4.14,2.98-.22-.01-.21-.35.01-.35h0Z"/>
              </g>
              <g>
                <path class="cls-11" d="M3.34,9.3c.1,21.55.09,24.79-1.84,26.88"/>
                <path class="cls-11" d="M3.42,9.3c.09,4.54.15,9.08.14,13.62,0,2.27-.02,4.54-.13,6.82-.22,2.18-.03,4.94-1.86,6.5-.07.06-.18-.03-.12-.11,1.24-1.85,1.36-4.18,1.53-6.41.13-2.26.17-4.53.19-6.79l.09-13.61c0-.1.17-.11.17,0h0Z"/>
              </g>
              <ellipse class="cls-11" cx="2.49" cy="36.18" rx=".46" ry=".26"/>
              <ellipse class="cls-11" cx="53.07" cy="36.18" rx=".46" ry=".26"/>
              <g>
                <path class="cls-11" d="M9.69,3.77c10.02,0,15.54,0,18.13-2.85"/>
                <path class="cls-11" d="M9.69,3.64c3.13-.05,6.26-.06,9.37-.23,2.89-.25,6.17-.38,8.38-2.47.08-.06.11-.18.31-.11.2.08.29.29.04.46-2.3,2.17-5.73,2.31-8.71,2.53-3.14.16-6.26.11-9.39.07-.16,0-.17-.26,0-.26h0Z"/>
              </g>
              <g>
                <path class="cls-11" d="M50.04,2.31h.5c.15,0,.33.1.34.26.04.64-.6.98-1.11.98-.66,0-1.19-.58-1.1-1.24.07-.55.59-.95,1.15-.95h3.15s.42,0,.42,0c.28.02.47.13.5.4v.81s.01,1.19.02,1.19l-.74-1.5s-1.61-.91-1.6-.91l1.93.02c.27.02.39.22.41.49v.42s0,3.1,0,3.1c0,.56-.4,1.06-.97,1.14-.67.09-1.26-.44-1.26-1.09,0-.5.35-1.14,1-1.09.17.01.27.19.27.33v.49"/>
                <path class="cls-11" d="M50.04,2.06h.31c1.4-.03.67,1.64-.34,1.69-1.82.25-2.11-2.43-.27-2.54.78,0,2.86.04,3.66.05.27,0,.59.2.59.5,0,.68,0,1.3-.03,1.95.02.01-.11.09-.11.09,0,0-.78-1.56-.73-1.48-.43-.23-1.11-.61-1.53-.84-.03-.03,0,.02-.09-.07-.04-.08.07-.15.06-.13.02,0,.04,0,.06,0,0,0,1.89-.01,1.9,0,.31,0,.53.33.52.61,0,0,.03,2.41.03,2.41v1.22c-.02,1-1.29,1.61-2.08.96-.82-.58-.64-2.06.4-2.33.28-.09.7.04.78.36.07.29.02.43.03.68,0,.32-.5.33-.5,0,0-.11.02-.47,0-.53-.02-.09-.11-.06-.22-.05-1.13.38-.47,2.15.68,1.67.75-.29.53-1.37.58-1.98,0,0,.04-2.45.03-2.4,0-.22-.13-.38-.28-.38,0,0-1.89-.04-1.89-.04h-.03s-.03,0,0,0c0,.02.11-.04.08-.12-.06-.08.01,0,.01-.01l.1.06c.26.17,1.25.7,1.46.87,0,0,.74,1.49.74,1.49.1.13-.1.23-.11.07,0,0-.06-2.07-.06-2.03,0-.2-.22-.3-.4-.3,0,0-2.43.04-2.43.04l-1.2.02c-.73.02-1.21.91-.71,1.48.42.61,1.67.31,1.6-.42-.05-.06-.15-.04-.29-.04,0,0-.3,0-.3,0-.33.01-.34-.51,0-.5h0Z"/>
              </g>
              <g>
                <path class="cls-11" d="M51.16,4.43c-.09,3.08-.03,3.76,2.59,3.73v24.72"/>
                <path class="cls-11" d="M51.32,4.43c.1,2.34-.33,3.59,2.59,3.57,0,.13,0,24.73,0,24.87,0,.19-.32.21-.31,0,0,0,0-24.72,0-24.72l.16.16c-.93.09-2.31.06-2.66-1.02-.28-.97-.16-1.9-.09-2.87.01-.19.31-.18.31,0h0Z"/>
              </g>
              <g>
                <path class="cls-11" d="M50.88,4.17c-3.58.14-4.02-.54-3.96-2.8h-16.64"/>
                <path class="cls-11" d="M50.89,4.35c-2.38.21-4.56.04-4.14-2.98,0,0,.18.18.18.18,0,0-16.64,0-16.64,0-.22,0-.23-.35,0-.35,0,0,16.64,0,16.64,0h.18s0,.18,0,.18c-.03,1.79.48,2.51,2.32,2.57.48.03.97.04,1.46.05.1,0,.18.08.18.18,0,.09-.07.17-.16.18h0Z"/>
              </g>
              <g>
                <path class="cls-11" d="M52.17,9.3c-.1,21.55-.09,24.79,1.84,26.88"/>
                <path class="cls-11" d="M52.25,9.3l.09,13.61c.02,2.27.07,4.54.19,6.79.17,2.24.28,4.57,1.53,6.41.05.07-.05.18-.12.11-1.83-1.56-1.64-4.32-1.86-6.5-.11-2.28-.13-4.55-.13-6.82-.02-4.54.05-9.08.14-13.62,0-.1.17-.11.17,0h0Z"/>
              </g>
              <g>
                <path class="cls-11" d="M45.81,3.77c-10.02,0-15.54,0-18.13-2.85"/>
                <path class="cls-11" d="M45.81,3.9c-3.13.04-6.26.09-9.39-.07-2.98-.22-6.41-.37-8.71-2.53-.06-.08-.19-.1-.13-.29.03-.09.09-.15.18-.17.2-.07.23.05.31.11,2.21,2.09,5.49,2.22,8.38,2.47,3.11.17,6.24.17,9.37.23.16,0,.17.26,0,.26h0Z"/>
              </g>
              <g>
                <path class="cls-11" d="M5.44,70.04h-.5c-.15,0-.33-.1-.34-.26-.04-.64.6-.98,1.11-.98.66,0,1.19.58,1.1,1.24-.07.55-.59.95-1.15.95h-3.15s-.42,0-.42,0c-.28-.02-.47-.13-.5-.4v-.81s-.01-1.19-.02-1.19l.74,1.5s1.61.91,1.6.91l-1.93-.02c-.27-.02-.39-.22-.41-.49v-.42s0-3.1,0-3.1c0-.56.4-1.06.97-1.14.67-.09,1.26.44,1.26,1.09,0,.5-.35,1.14-1,1.09-.17-.01-.27-.19-.27-.33v-.49"/>
                <path class="cls-11" d="M5.44,70.29h-.31c-1.4.03-.67-1.64.34-1.69,1-.2,1.9.94,1.4,1.84-.42.88-1.58.68-2.36.68-.53-.05-2.63.07-2.82-.16-.13-.08-.2-.24-.2-.38,0-.69,0-1.31.03-1.96,0,0,.11-.08.11-.08,0,.01.74,1.49.74,1.5.33.15,1.13.62,1.52.82.03.03,0-.02.09.07.04.08-.07.15-.06.13-.02,0-.04,0-.06,0,0,0-1.89.01-1.9,0-.31,0-.53-.33-.52-.61,0,0-.03-2.41-.03-2.41v-1.22c.15-1.81,2.84-1.49,2.58.31-.03.97-1.75,1.71-1.71.32,0,0,0-.3,0-.3,0-.32.5-.33.5,0,0,.11-.02.47,0,.53.02.09.11.06.22.05,1.13-.38.47-2.15-.68-1.67-.75.29-.53,1.37-.58,1.98,0,0-.04,2.45-.03,2.4,0,.22.13.38.28.38,0,0,1.89.04,1.89.04h.03s.03,0,0,0c0-.02-.11.04-.08.13.06.08-.01,0-.01.01l-.1-.06c-.26-.17-1.25-.7-1.46-.87,0,0-.74-1.49-.74-1.49-.1-.13.1-.23.11-.07,0,0,.06,2.07.06,2.03,0,.2.22.3.4.3,0,0,2.43-.04,2.43-.04l1.2-.02c.73-.02,1.21-.91.71-1.48-.42-.61-1.67-.31-1.6.42.05.06.15.04.29.04,0,0,.3,0,.3,0,.33-.01.34.51,0,.5h0Z"/>
              </g>
              <g>
                <path class="cls-11" d="M4.32,67.93c.09-3.08.03-3.76-2.59-3.73v-24.72"/>
                <path class="cls-11" d="M4.16,67.92c-.1-2.34.33-3.59-2.59-3.57,0,0,0-.16,0-.16v-24.72c0-.19.32-.21.31,0,0,0,0,24.72,0,24.72l-.16-.16c.93-.09,2.31-.06,2.66,1.02.28.97.16,1.9.09,2.87-.01.19-.31.18-.31,0h0Z"/>
              </g>
              <g>
                <path class="cls-11" d="M4.6,68.18c3.58-.14,4.02.54,3.96,2.8h16.64"/>
                <path class="cls-11" d="M4.59,68.01c2.38-.21,4.56-.04,4.14,2.98,0,0-.18-.18-.18-.18,0,0,16.64,0,16.64,0,.22,0,.23.35,0,.35,0,0-16.64,0-16.64,0h-.18s0-.18,0-.18c.03-1.79-.48-2.51-2.32-2.57-.48-.03-.97-.04-1.46-.05-.1,0-.18-.08-.18-.18,0-.09.07-.17.16-.18h0Z"/>
              </g>
              <g>
                <path class="cls-11" d="M3.31,63.06c.1-21.55.09-24.79-1.84-26.88"/>
                <path class="cls-11" d="M3.23,63.06l-.09-13.61c-.02-2.27-.07-4.54-.19-6.79-.17-2.24-.28-4.57-1.53-6.41-.05-.07.05-.18.12-.11,1.83,1.56,1.64,4.32,1.86,6.5.11,2.28.13,4.55.13,6.82.02,4.54-.05,9.08-.14,13.62,0,.1-.17.11-.17,0h0Z"/>
              </g>
              <ellipse class="cls-11" cx="2.47" cy="36.18" rx=".46" ry=".26"/>
              <ellipse class="cls-11" cx="53.05" cy="36.18" rx=".46" ry=".26"/>
              <g>
                <path class="cls-11" d="M9.67,68.58c10.02,0,15.54,0,18.13,2.85"/>
                <path class="cls-11" d="M9.67,68.45c3.13-.04,6.26-.09,9.39.07,2.98.22,6.41.37,8.71,2.53.06.08.19.1.13.29-.03.09-.09.15-.18.17-.2.07-.23-.05-.31-.11-2.21-2.09-5.49-2.22-8.38-2.47-3.11-.17-6.24-.17-9.37-.23-.16,0-.17-.26,0-.26h0Z"/>
              </g>
              <g>
                <path class="cls-11" d="M50.02,70.04h.5c.15,0,.33-.1.34-.26.04-.64-.6-.98-1.11-.98-.66,0-1.19.58-1.1,1.24.07.55.59.95,1.15.95h3.15s.42,0,.42,0c.28-.02.47-.13.5-.4v-.81s.01-1.19.02-1.19l-.74,1.5s-1.61.91-1.6.91l1.93-.02c.27-.02.39-.22.41-.49v-.42s0-3.1,0-3.1c0-.56-.4-1.06-.97-1.14-.67-.09-1.26.44-1.26,1.09,0,.5.35,1.14,1,1.09.17-.01.27-.19.27-.33v-.49"/>
                <path class="cls-11" d="M50.03,69.79c.11,0,.46.02.53,0,.04-.01.06-.04.06-.04,0,.01,0-.13,0-.18-.39-1.11-2.23-.47-1.7.7.29.72,1.43.52,2.04.56,0,0,2.43.04,2.43.04.18,0,.41-.12.4-.29,0-.01.06-2.04.07-2.05.03-.14.21-.04.11.08,0,0-.74,1.49-.74,1.49,0,0-.01.02-.02.03-.43.25-1.12.66-1.54.9,0,0-.07.06-.01-.01.04-.1-.09-.14-.09-.12,0,0,.01,0,.01,0,.06,0,1.87-.04,1.92-.04.15,0,.28-.16.28-.38,0,.05-.03-2.41-.03-2.4,0,0-.02-1.19-.02-1.19-.04-.72-.94-1.14-1.49-.67-.55.37-.37,1.42.25,1.55.11,0,.19.04.22-.05.01-.06,0-.42,0-.52-.01-.32.5-.34.5-.01,0,0,0,.31,0,.31.03.24-.05.65-.39.74-.2.04-.27.01-.42,0-1.04-.27-1.22-1.74-.4-2.33.79-.65,2.06-.04,2.09.96,0,.77-.03,2.84-.04,3.63,0,.28-.22.62-.53.61,0,0-1.89,0-1.89,0-.02,0-.05,0-.06,0,0,.02-.1-.05-.06-.13.09-.1.06-.04.09-.07.42-.23,1.11-.61,1.53-.84-.05.09.74-1.49.73-1.48,0,0,.11.08.11.08h0c.03.66.04,1.28.03,1.96,0,.14-.08.29-.2.38-.13.09-.26.11-.39.13-.81,0-2.87.05-3.65.05-1.85-.11-1.55-2.79.27-2.54.83.04,1.63,1.28.71,1.66-.29.06-.43.02-.68.03-.33,0-.32-.51,0-.5h0Z"/>
              </g>
              <g>
                <path class="cls-11" d="M51.14,67.93c-.09-3.08-.03-3.76,2.59-3.73v-24.72"/>
                <path class="cls-11" d="M50.99,67.93c-.22-2.37-.28-4.25,2.75-3.89,0,0-.16.16-.16.16,0,0,0-24.72,0-24.72,0-.19.32-.21.31,0,0,0,0,24.72,0,24.72v.16h-.16c-1.69.07-2.42.34-2.39,2.18,0,0-.04,1.39-.04,1.39,0,.19-.3.2-.31,0h0Z"/>
              </g>
              <g>
                <path class="cls-11" d="M50.86,68.18c-3.58-.14-4.02.54-3.96,2.8h-16.64"/>
                <path class="cls-11" d="M50.86,68.36c-2.15.06-3.93-.14-3.78,2.62,0,0,0,.18,0,.18h-16.82c-.22,0-.23-.35,0-.35,0,0,16.64,0,16.64,0,0,0-.18.18-.18.18-.42-3.02,1.77-3.19,4.14-2.98.22.01.21.35-.01.35h0Z"/>
              </g>
              <g>
                <path class="cls-11" d="M52.14,63.06c-.1-21.55-.09-24.79,1.84-26.88"/>
                <path class="cls-11" d="M52.06,63.06c-.09-4.54-.15-9.08-.14-13.62,0-2.27.02-4.54.13-6.82.22-2.18.03-4.94,1.86-6.5.07-.06.18.03.12.11-1.24,1.85-1.36,4.18-1.53,6.41-.13,2.26-.17,4.53-.19,6.79l-.09,13.61c0,.1-.17.11-.17,0h0Z"/>
              </g>
              <g>
                <path class="cls-11" d="M45.79,68.58c-10.02,0-15.54,0-18.13,2.85"/>
                <path class="cls-11" d="M45.79,68.71c-3.13.05-6.26.06-9.37.23-2.89.25-6.17.38-8.38,2.47-.08.06-.11.18-.31.11-.2-.07-.29-.29-.04-.46,2.3-2.17,5.73-2.31,8.71-2.53,3.14-.16,6.26-.11,9.39-.07.16,0,.17.26,0,.26h0Z"/>
              </g>
            </g>
            <path class="cls-11" d="M11.27,17.6c4.64-8.01,14.52-11.49,23.15-8.13,9.64,3.75,14.49,14.76,10.75,24.41-3.75,9.64-14.76,14.49-24.41,10.75-9.64-3.75-14.49-14.76-10.75-24.41l-.03.07c-4.01,10.33,1.18,22.14,11.52,26.15,10.33,4.01,22.14-1.18,26.15-11.52,4.01-10.33-1.18-22.14-11.52-26.15-9.25-3.59-19.84.13-24.81,8.72"/>
            <path class="cls-11" d="M8.84,48.38c.27.17.62-.03.63-.35l.02-1.6.02,1.62c0,.32.35.53.63.37l.63-.34-.7.42c-.25.15-.27.51-.04.68l.66.49-.52-.36c-.28-.19-.67,0-.67.35l-.03,1.62v-1.72c0-.31-.35-.51-.62-.36l-.62.35.63-.39c.27-.17.27-.55.01-.72l-.64-.43.61.37Z"/>
            <path class="cls-11" d="M39.29,59.47c.27.17.62-.03.63-.35l.03-2.64.04,2.66c0,.32.35.53.63.37l1.2-.64-1.25.74c-.25.15-.27.51-.04.68l1.17.87-1.05-.72c-.28-.19-.67,0-.67.35l-.05,2.7v-2.81c-.01-.31-.35-.51-.63-.36l-1.17.65,1.16-.72c.27-.17.27-.55.01-.72l-1.18-.79,1.15.71Z"/>
            <path class="cls-11" d="M40.5,45.88c.21.2.57.05.57-.24l.02-2.84.06,2.82c0,.3.37.45.58.24l2.01-1.99-1.97,2.05c-.2.21-.05.57.24.57l2.84.02-2.82.06c-.3,0-.45.37-.24.58l1.99,2.01-2.05-1.97c-.21-.2-.57-.05-.57.24l-.02,2.84-.06-2.82c0-.3-.37-.45-.58-.24l-2.01,1.99,1.97-2.05c.2-.21.05-.57-.24-.57l-2.84-.02,2.82-.06c.3,0,.45-.37.24-.58l-1.99-2.01,2.05,1.97Z"/>
            <path class="cls-11" d="M50.34,62.22s.02-.05.03-.08l-2.19-3.24c-.27-.39.04-.92.51-.89l1.53.11c0-.08.08-.13.15-.18.02-.02-.18-.06-.16-.07,0,0,0-.01,0-.02,0-.04.01-.08.02-.12l-1.47-.28c-.47-.09-.62-.68-.27-.99l1.66-1.44s0-.02,0-.03c0,0,0,0-.01,0,0-.05.01-.09.01-.14,0-.03,0-.07,0-.1,0,0,0-.01,0-.02,0-.05.03-.09.05-.14l-2.07,1.4c-.39.27-.92-.04-.89-.51l.34-4.77-.91,4.69c-.09.47-.68.62-.99.27l-3.13-3.61,2.68,3.96c.27.39-.04.92-.51.89l-4.77-.34,4.69.91c.47.09.62.68.27.99l-3.61,3.13,3.96-2.68c.39-.27.92.04.89.51l-.34,4.77.91-4.69c.09-.47.68-.62.99-.27l2.62,3.02v-.05Z"/>
            <path class="cls-11" d="M18.99,65.69c.1.1.27.03.27-.11v-1.34s.04,1.35.04,1.35c0,.13.16.2.25.1l.96-.95-.92.96c-.1.1-.03.27.11.27h1.34s-1.35.04-1.35.04c-.13,0-.2.16-.1.25l.95.96-.96-.92c-.1-.1-.27-.03-.27.11v1.34s-.04-1.35-.04-1.35c0-.13-.16-.2-.25-.1l-.96.95.92-.96c.1-.1.03-.27-.11-.27h-1.34s1.35-.04,1.35-.04c.13,0,.2-.16.1-.25l-.95-.96.96.92Z"/>
            <path class="cls-11" d="M12.26,60.22c.1.1.27.03.27-.11v-2.12s.06,2.13.06,2.13c0,.13.16.2.25.1l1.52-1.5-1.46,1.53c-.1.1-.03.27.11.27h2.12s-2.13.06-2.13.06c-.13,0-.2.16-.1.25l1.5,1.52-1.53-1.46c-.1-.1-.27-.03-.27.11v2.12s-.06-2.13-.06-2.13c0-.13-.16-.2-.25-.1l-1.52,1.5,1.46-1.53c.1-.1.03-.27-.11-.27h-2.12s2.13-.06,2.13-.06c.13,0,.2-.16.1-.25l-1.5-1.52,1.53,1.46Z"/>
            <path class="cls-11" d="M42.14,63.18c.1.1.27.03.27-.11v-2.12s.06,2.13.06,2.13c0,.13.16.2.25.1l1.52-1.5-1.46,1.53c-.1.1-.03.27.11.27h2.12s-2.13.06-2.13.06c-.13,0-.2.16-.1.25l1.5,1.52-1.53-1.46c-.1-.1-.27-.03-.27.11v2.12s-.06-2.13-.06-2.13c0-.13-.16-.2-.25-.1l-1.52,1.5,1.46-1.53c.1-.1.03-.27-.11-.27h-2.12s2.13-.06,2.13-.06c.13,0,.2-.16.1-.25l-1.5-1.52,1.53,1.46Z"/>
            <polygon class="cls-11" points="10.92 7.04 11.48 5.39 11.13 7.08 12.94 6.99 11.14 7.29 11.7 8.89 10.94 7.38 9.47 8.46 10.8 7.22 9.34 6.29 10.92 7.04"/>
            <polygon class="cls-11" points="34.5 62.96 35.06 61.3 34.71 63 36.52 62.91 34.72 63.21 35.28 64.81 34.52 63.3 33.05 64.38 34.38 63.14 32.92 62.21 34.5 62.96"/>
            <path class="cls-11" d="M43.32,50.37c.46.19.99-.02,1.19-.48l5.93-13.79-5.78,13.93c-.17.42.03.9.44,1.07l5.34,2.23-5.39-2.07c-.44-.16-.94.04-1.14.47l-7.23,15.84,7.07-15.94c.18-.41,0-.89-.4-1.08l-8.62-3.43,8.61,3.23Z"/>
            <path class="cls-11" d="M5.97,54.55c.5-.04.87-.46.85-.96l-.12-2.92.21,2.98c.03.45.42.79.87.76l1.56-.1-1.54.17c-.47.05-.82.45-.82.93l.04,2.83-.12-2.86c-.02-.45-.39-.79-.84-.78l-1.4.03,1.31-.09Z"/>
            <path class="cls-11" d="M37.39,64.99c.5-.04.87-.46.85-.96l-.07-1.81.13,1.88c.03.45.42.79.87.76l.87-.06-.85.09c-.47.05-.82.45-.82.93l.02,1.77-.08-1.8c-.02-.45-.39-.79-.84-.78l-.76.02.67-.05Z"/>
            <circle class="cls-11" cx="10.75" cy="10.82" r=".23"/>
            <circle class="cls-11" cx="26.79" cy="58.99" r=".23"/>
            <circle class="cls-11" cx="30.73" cy="65.99" r=".23"/>
            <circle class="cls-11" cx="10.92" cy="55.85" r=".23"/>
            <circle class="cls-11" cx="47.85" cy="64.44" r=".23"/>
            <circle class="cls-11" cx="24.16" cy="62.22" r=".23"/>
          </g>
        </g>
      </g>
    </g>
  </g>
</svg>