<?xml version="1.0" encoding="UTF-8"?>
<svg xmlns="http://www.w3.org/2000/svg" xmlns:xlink="http://www.w3.org/1999/xlink" viewBox="0 0 55.32 72.56">
  <defs>
    <style>
      .cls-1, .cls-2 {
        fill: #fbe1a9;
      }

      .cls-2, .cls-3, .cls-4, .cls-5, .cls-6 {
        stroke-miterlimit: 10;
        stroke-width: .5px;
      }

      .cls-2, .cls-4, .cls-5, .cls-6 {
        stroke: #fbe1a9;
      }

      .cls-7, .cls-4 {
        fill: #211006;
      }

      .cls-8 {
        fill: url(#_名称未設定グラデーション_838-12);
      }

      .cls-9 {
        fill: url(#_名称未設定グラデーション_838-10);
      }

      .cls-10 {
        fill: url(#_名称未設定グラデーション_838-15);
      }

      .cls-11 {
        fill: url(#_名称未設定グラデーション_838-14);
      }

      .cls-12 {
        fill: url(#_名称未設定グラデーション_838-13);
      }

      .cls-13 {
        fill: url(#_名称未設定グラデーション_838-11);
      }

      .cls-14 {
        fill: url(#_名称未設定グラデーション_838-16);
      }

      .cls-15 {
        fill: url(#_名称未設定グラデーション_838-19);
      }

      .cls-16 {
        fill: url(#_名称未設定グラデーション_838-17);
      }

      .cls-17 {
        fill: url(#_名称未設定グラデーション_838-18);
      }

      .cls-18 {
        mix-blend-mode: color-burn;
        opacity: .72;
      }

      .cls-19 {
        fill: url(#_名称未設定グラデーション_838-2);
      }

      .cls-20 {
        fill: url(#_名称未設定グラデーション_838-3);
      }

      .cls-21 {
        fill: url(#_名称未設定グラデーション_838-5);
      }

      .cls-22 {
        fill: url(#_名称未設定グラデーション_838-7);
      }

      .cls-23 {
        fill: url(#_名称未設定グラデーション_838-8);
      }

      .cls-24 {
        fill: url(#_名称未設定グラデーション_838-4);
      }

      .cls-25 {
        fill: url(#_名称未設定グラデーション_838-9);
      }

      .cls-26 {
        fill: url(#_名称未設定グラデーション_838-6);
      }

      .cls-27 {
        isolation: isolate;
      }

      .cls-28 {
        mix-blend-mode: multiply;
      }

      .cls-3 {
        stroke: #211006;
      }

      .cls-3, .cls-5 {
        fill: none;
      }

      .cls-3, .cls-6 {
        stroke-linecap: round;
      }

      .cls-29 {
        fill: url(#_名称未設定グラデーション_838);
      }

      .cls-6 {
        fill: #ad5f2b;
      }

      .cls-30 {
        fill: #cf8b2e;
      }
    </style>
    <linearGradient id="_名称未設定グラデーション_838" data-name="名称未設定グラデーション 838" x1="-7.28" y1="16.11" x2="62.6" y2="56.46" gradientUnits="userSpaceOnUse">
      <stop offset="0" stop-color="#664b31"/>
      <stop offset=".08" stop-color="#46372b"/>
      <stop offset=".31" stop-color="#a6935c"/>
      <stop offset=".56" stop-color="#e0e0d4"/>
      <stop offset=".64" stop-color="#b29b78"/>
      <stop offset=".67" stop-color="#a38358"/>
      <stop offset=".96" stop-color="#674c32"/>
    </linearGradient>
    <linearGradient id="_名称未設定グラデーション_838-2" data-name="名称未設定グラデーション 838" gradientTransform="translate(22.99 1.53) rotate(60.61)" xlink:href="#_名称未設定グラデーション_838"/>
    <linearGradient id="_名称未設定グラデーション_838-3" data-name="名称未設定グラデーション 838" gradientTransform="translate(28.75 4.92) rotate(69.83)" xlink:href="#_名称未設定グラデーション_838"/>
    <linearGradient id="_名称未設定グラデーション_838-4" data-name="名称未設定グラデーション 838" gradientTransform="translate(34.26 -23.99) rotate(47.97)" xlink:href="#_名称未設定グラデーション_838"/>
    <linearGradient id="_名称未設定グラデーション_838-5" data-name="名称未設定グラデーション 838" gradientTransform="translate(19.57 -16.84) rotate(30)" xlink:href="#_名称未設定グラデーション_838"/>
    <linearGradient id="_名称未設定グラデーション_838-6" data-name="名称未設定グラデーション 838" gradientTransform="translate(16.22 -6.11) rotate(30)" xlink:href="#_名称未設定グラデーション_838"/>
    <linearGradient id="_名称未設定グラデーション_838-7" data-name="名称未設定グラデーション 838" gradientTransform="translate(16.22 -6.11) rotate(30)" xlink:href="#_名称未設定グラデーション_838"/>
    <linearGradient id="_名称未設定グラデーション_838-8" data-name="名称未設定グラデーション 838" gradientTransform="translate(8.84 -4.96) rotate(17.15)" xlink:href="#_名称未設定グラデーション_838"/>
    <linearGradient id="_名称未設定グラデーション_838-9" data-name="名称未設定グラデーション 838" gradientTransform="translate(8.84 -4.96) rotate(17.15)" xlink:href="#_名称未設定グラデーション_838"/>
    <linearGradient id="_名称未設定グラデーション_838-10" data-name="名称未設定グラデーション 838" gradientTransform="translate(11.23 -6.58) rotate(21.32)" xlink:href="#_名称未設定グラデーション_838"/>
    <linearGradient id="_名称未設定グラデーション_838-11" data-name="名称未設定グラデーション 838" gradientTransform="translate(11.23 -6.58) rotate(21.32)" xlink:href="#_名称未設定グラデーション_838"/>
    <linearGradient id="_名称未設定グラデーション_838-12" data-name="名称未設定グラデーション 838" gradientTransform="translate(11.6 -7.45) rotate(21.32)" xlink:href="#_名称未設定グラデーション_838"/>
    <linearGradient id="_名称未設定グラデーション_838-13" data-name="名称未設定グラデーション 838" gradientTransform="translate(11.6 -7.45) rotate(21.32)" xlink:href="#_名称未設定グラデーション_838"/>
    <linearGradient id="_名称未設定グラデーション_838-14" data-name="名称未設定グラデーション 838" gradientTransform="translate(19.7 -10.36) rotate(33.94)" xlink:href="#_名称未設定グラデーション_838"/>
    <linearGradient id="_名称未設定グラデーション_838-15" data-name="名称未設定グラデーション 838" gradientTransform="translate(19.7 -10.36) rotate(33.94)" xlink:href="#_名称未設定グラデーション_838"/>
    <linearGradient id="_名称未設定グラデーション_838-16" data-name="名称未設定グラデーション 838" gradientTransform="translate(20.85 -11.98) rotate(33.94)" xlink:href="#_名称未設定グラデーション_838"/>
    <linearGradient id="_名称未設定グラデーション_838-17" data-name="名称未設定グラデーション 838" gradientTransform="translate(20.85 -11.98) rotate(33.94)" xlink:href="#_名称未設定グラデーション_838"/>
    <linearGradient id="_名称未設定グラデーション_838-18" data-name="名称未設定グラデーション 838" gradientTransform="translate(30.87 -15.21) rotate(45)" xlink:href="#_名称未設定グラデーション_838"/>
    <linearGradient id="_名称未設定グラデーション_838-19" data-name="名称未設定グラデーション 838" gradientTransform="translate(30.87 -15.21) rotate(45)" xlink:href="#_名称未設定グラデーション_838"/>
  </defs>
  <g class="cls-27">
    <g id="_レイヤー_2" data-name="レイヤー 2">
      <g id="_レイヤー_2-2" data-name="レイヤー 2">
        <g>
          <g>
            <g>
              <rect class="cls-4" x=".25" y=".25" width="54.82" height="72.06" rx="3.84" ry="3.84"/>
              <rect class="cls-5" x="4.94" y="4.63" width="45.5" height="62.94" rx="3.84" ry="3.84"/>
              <path class="cls-1" d="M5.45,2.56c-.11,0-.46-.02-.53,0-.04.01-.06.04-.06.04,0-.01,0,.13,0,.18.39,1.11,2.23.47,1.7-.7-.29-.72-1.43-.52-2.04-.56,0,0-2.43-.04-2.43-.04-.18,0-.41.12-.4.29,0,.01-.06,2.04-.07,2.05-.03.14-.21.04-.11-.08,0,0,.74-1.49.74-1.49,0,0,.01-.02.02-.03.43-.25,1.12-.66,1.54-.9,0,0,.07-.06.01.01-.04.1.09.14.09.12,0,0-.01,0-.01,0-.06,0-1.87.04-1.92.04-.15,0-.28.16-.28.38,0-.05.03,2.41.03,2.4,0,0,.02,1.19.02,1.19.04.72.94,1.14,1.49.67.55-.37.37-1.42-.25-1.55-.11,0-.19-.04-.22.05-.01.06,0,.42,0,.52.01.32-.5.34-.5.01,0,0,0-.31,0-.31-.03-.24.05-.65.39-.74.2-.04.27-.01.42,0,1.04.27,1.22,1.74.4,2.33-.79.65-2.06.04-2.09-.96,0-.77.03-2.84.04-3.63,0-.28.22-.62.53-.61,0,0,1.89,0,1.89,0,.02,0,.05,0,.06,0,0-.02.1.05.06.13-.09.1-.06.04-.09.07-.42.23-1.11.61-1.53.84.05-.09-.74,1.49-.73,1.48,0,0-.12-.08-.11-.09-.03-.65-.04-1.27-.03-1.95,0-.14.08-.29.2-.38.13-.09.26-.11.39-.13.81,0,2.87-.05,3.65-.05,1.85.11,1.55,2.79-.27,2.54-.83-.04-1.63-1.28-.71-1.66.29-.06.43-.02.68-.03.33,0,.32.51,0,.5h0Z"/>
              <path class="cls-1" d="M4.49,4.42c.22,2.37.28,4.25-2.75,3.89,0,0,.16-.16.16-.16v24.72c0,.19-.32.21-.31,0,0,0,0-24.72,0-24.72v-.16h.16c1.69-.07,2.42-.34,2.39-2.18,0,0,.04-1.39.04-1.39,0-.19.3-.2.31,0h0Z"/>
              <path class="cls-1" d="M4.62,4c2.15-.06,3.93.14,3.78-2.62,0,0,0-.18,0-.18h16.82c.22,0,.23.35,0,.35,0,0-16.64,0-16.64,0,0,0,.18-.18.18-.18.42,3.02-1.77,3.19-4.14,2.98-.22-.01-.21-.35.01-.35h0Z"/>
              <path class="cls-1" d="M3.42,9.3c.09,4.54.15,9.08.14,13.62,0,2.27-.02,4.54-.13,6.82-.22,2.18-.03,4.94-1.86,6.5-.07.06-.18-.03-.12-.11,1.24-1.85,1.36-4.18,1.53-6.41.13-2.26.17-4.53.19-6.79l.09-13.61c0-.1.17-.11.17,0h0Z"/>
              <ellipse class="cls-6" cx="2.49" cy="36.18" rx=".46" ry=".26"/>
              <ellipse class="cls-6" cx="53.07" cy="36.18" rx=".46" ry=".26"/>
              <path class="cls-1" d="M9.69,3.64c3.13-.05,6.26-.06,9.37-.23,2.89-.25,6.17-.38,8.38-2.47.08-.06.11-.18.31-.11.2.07.29.29.04.46-2.3,2.17-5.73,2.31-8.71,2.53-3.14.16-6.26.11-9.39.07-.16,0-.17-.26,0-.26h0Z"/>
              <path class="cls-1" d="M50.04,2.06h.31c1.4-.03.67,1.65-.34,1.69-1.82.25-2.11-2.43-.27-2.54.78,0,2.86.04,3.66.05.27,0,.59.2.59.5,0,.68,0,1.3-.03,1.95.02.01-.11.09-.11.09,0,0-.78-1.56-.73-1.48-.43-.23-1.11-.61-1.53-.84-.03-.03,0,.02-.09-.07-.04-.08.07-.15.06-.13.02,0,.04,0,.06,0,0,0,1.89,0,1.89,0,.14,0,.31.07.4.21.09.13.12.27.13.4,0,.8.04,2.85.04,3.63-.16,1.81-2.85,1.49-2.59-.31.03-.97,1.75-1.71,1.71-.32,0,0,0,.3,0,.3,0,.32-.5.32-.5,0,0-.11.02-.47,0-.53-.02-.09-.11-.06-.22-.05-1.13.38-.47,2.15.68,1.67.75-.29.53-1.37.58-1.98,0,0,.04-2.45.03-2.4,0-.22-.13-.38-.28-.38,0,0-1.89-.04-1.89-.04,0,0-.04,0-.04,0,0,.02.13-.02.09-.12-.06-.08.01,0,.01-.01l.1.06c.26.17,1.25.7,1.46.87,0,0,.74,1.49.74,1.49.1.13-.1.23-.11.07,0,0-.06-2.07-.06-2.03,0-.2-.22-.3-.4-.3,0,0-2.43.04-2.43.04l-1.2.02c-.73.02-1.21.91-.71,1.48.42.61,1.67.31,1.6-.42-.05-.06-.15-.04-.29-.04,0,0-.3,0-.3,0-.33.01-.34-.51,0-.5h0Z"/>
              <path class="cls-1" d="M51.32,4.43c.1,2.34-.33,3.59,2.59,3.57,0,.13,0,24.73,0,24.87,0,.19-.32.21-.31,0,0,0,0-24.72,0-24.72l.16.16c-.93.09-2.31.06-2.66-1.02-.28-.97-.16-1.9-.09-2.87.01-.19.31-.18.31,0h0Z"/>
              <path class="cls-1" d="M50.89,4.35c-2.38.21-4.56.04-4.14-2.98,0,0,.18.18.18.18,0,0-16.64,0-16.64,0-.22,0-.23-.35,0-.35,0,0,16.64,0,16.64,0h.18s0,.18,0,.18c-.03,1.79.48,2.51,2.32,2.57.48.03.97.04,1.46.05.1,0,.18.08.18.18,0,.09-.07.17-.16.18h0Z"/>
              <path class="cls-1" d="M52.25,9.3l.09,13.61c.02,2.27.07,4.54.19,6.79.17,2.24.28,4.57,1.53,6.41.05.07-.05.18-.12.11-1.83-1.56-1.64-4.32-1.86-6.5-.11-2.28-.13-4.55-.13-6.82-.02-4.54.05-9.08.14-13.62,0-.1.17-.11.17,0h0Z"/>
              <path class="cls-1" d="M45.81,3.9c-3.13.04-6.26.09-9.39-.07-2.98-.22-6.41-.37-8.71-2.53-.06-.08-.19-.1-.13-.29.03-.09.09-.15.18-.17.2-.07.23.05.31.11,2.21,2.09,5.49,2.22,8.38,2.47,3.11.17,6.24.17,9.37.23.16,0,.17.26,0,.26h0Z"/>
              <path class="cls-1" d="M5.44,70.29h-.31c-1.4.03-.67-1.64.34-1.69,1.82-.25,2.11,2.43.27,2.54-.78,0-2.86-.04-3.66-.05-.27,0-.59-.2-.59-.5,0-.68,0-1.3.03-1.95-.02-.01.11-.09.11-.09,0,0,.78,1.56.73,1.48.43.23,1.11.61,1.53.84.03.03,0-.02.09.07.04.08-.07.15-.06.13-.02,0-.04,0-.06,0,0,0-1.89.01-1.9,0-.31,0-.53-.33-.52-.61,0,0-.03-2.41-.03-2.41v-1.22c.02-1,1.29-1.61,2.08-.96.82.58.64,2.06-.4,2.33-.28.09-.7-.04-.78-.36-.07-.29-.02-.43-.03-.68,0-.32.5-.33.5,0,0,.11-.02.47,0,.53.02.09.11.06.22.05.62-.13.8-1.17.25-1.55-.55-.47-1.45-.06-1.49.67,0,0-.02,1.19-.02,1.19l-.03,2.41c0,.17.13.39.28.37,0,0,1.89.04,1.89.04,0,0,.04,0,.04,0,0-.02-.13.02-.09.12.06.08-.01,0-.01.01l-.1-.06c-.26-.16-1.25-.7-1.46-.87,0,0-.74-1.49-.74-1.49-.1-.13.1-.23.11-.07,0,0,.06,2.07.06,2.03,0,.2.22.3.4.3,0,0,2.43-.04,2.43-.04l1.2-.02c.73-.02,1.21-.91.71-1.48-.42-.61-1.67-.31-1.6.42.05.06.15.04.29.04,0,0,.3,0,.3,0,.33-.01.34.51,0,.5h0Z"/>
              <path class="cls-1" d="M4.16,67.92c-.1-2.34.33-3.59-2.59-3.57,0-.13,0-24.73,0-24.87,0-.19.32-.21.31,0,0,0,0,24.72,0,24.72l-.16-.16c.93-.09,2.31-.06,2.66,1.02.28.97.16,1.9.09,2.87-.01.19-.31.18-.31,0h0Z"/>
              <path class="cls-1" d="M4.59,68.01c2.38-.21,4.56-.04,4.14,2.98,0,0-.18-.18-.18-.18,0,0,16.64,0,16.64,0,.22,0,.23.35,0,.35,0,0-16.64,0-16.64,0h-.18s0-.18,0-.18c.03-1.79-.48-2.51-2.32-2.57-.48-.03-.97-.04-1.46-.05-.1,0-.18-.08-.18-.18,0-.09.07-.17.16-.18h0Z"/>
              <path class="cls-1" d="M3.23,63.06l-.09-13.61c-.02-2.27-.07-4.54-.19-6.79-.17-2.24-.28-4.57-1.53-6.41-.05-.07.05-.18.12-.11,1.83,1.56,1.64,4.32,1.86,6.5.11,2.28.13,4.55.13,6.82.02,4.54-.05,9.08-.14,13.62,0,.1-.17.11-.17,0h0Z"/>
              <ellipse class="cls-6" cx="2.47" cy="36.18" rx=".46" ry=".26"/>
              <ellipse class="cls-6" cx="53.05" cy="36.18" rx=".46" ry=".26"/>
              <path class="cls-1" d="M9.67,68.45c3.13-.04,6.26-.09,9.39.07,2.98.22,6.41.37,8.71,2.53.06.08.19.1.13.29-.03.09-.09.15-.18.17-.2.07-.23-.05-.31-.11-2.21-2.09-5.49-2.22-8.38-2.47-3.11-.17-6.24-.17-9.37-.23-.16,0-.17-.26,0-.26h0Z"/>
              <path class="cls-1" d="M50.03,69.79c.11,0,.46.02.53,0,.04-.01.06-.04.06-.04,0,.01,0-.13,0-.18-.39-1.11-2.23-.47-1.7.7.29.72,1.43.52,2.04.56,0,0,2.43.04,2.43.04.18,0,.41-.12.4-.29,0-.01.06-2.04.07-2.05.03-.14.21-.04.11.08,0,0-.74,1.49-.74,1.49,0,0-.01.02-.02.03-.43.25-1.12.66-1.54.9,0,0-.07.06-.01-.01.04-.1-.09-.14-.09-.12,0,0,.01,0,.01,0,.06,0,1.87-.04,1.92-.04.15,0,.28-.16.28-.38,0,.05-.03-2.41-.03-2.4,0,0-.02-1.19-.02-1.19-.04-.72-.94-1.14-1.49-.67-.55.37-.37,1.42.25,1.55.11,0,.19.04.22-.05.01-.06,0-.42,0-.52-.01-.32.5-.34.5-.01,0,0,0,.31,0,.31.03.24-.05.65-.39.74-.2.04-.27.01-.42,0-1.04-.27-1.22-1.74-.4-2.33.79-.65,2.06-.04,2.09.96,0,.77-.03,2.84-.04,3.63,0,.28-.22.62-.53.61,0,0-1.89,0-1.89,0-.02,0-.05,0-.06,0,0,.02-.1-.05-.06-.13.09-.1.06-.04.09-.07.42-.23,1.11-.61,1.53-.84-.05.09.74-1.49.73-1.48,0,0,.11.08.11.08h0c.03.66.04,1.28.03,1.96,0,.14-.08.29-.2.38-.13.09-.26.11-.39.13-.81,0-2.87.05-3.65.05-1.85-.11-1.55-2.79.27-2.54.83.04,1.63,1.28.71,1.66-.29.06-.43.02-.68.03-.33,0-.32-.51,0-.5h0Z"/>
              <path class="cls-1" d="M50.99,67.93c-.22-2.37-.28-4.25,2.75-3.89-.42,1.09-.03-24.84-.16-24.56,0-.19.32-.21.31,0,0,0,0,24.72,0,24.72v.16h-.16c-1.69.07-2.42.34-2.39,2.18,0,0-.04,1.39-.04,1.39,0,.19-.3.2-.31,0h0Z"/>
              <path class="cls-1" d="M50.86,68.36c-2.15.06-3.93-.14-3.78,2.62,0,0,0,.18,0,.18h-16.82c-.22,0-.23-.35,0-.35,0,0,16.64,0,16.64,0,0,0-.18.18-.18.18-.42-3.02,1.77-3.19,4.14-2.98.22.01.21.35-.01.35h0Z"/>
              <path class="cls-1" d="M52.06,63.06c-.09-4.54-.15-9.08-.14-13.62,0-2.27.02-4.54.13-6.82.22-2.18.03-4.94,1.86-6.5.07-.06.18.03.12.11-1.24,1.85-1.36,4.18-1.53,6.41-.13,2.26-.17,4.53-.19,6.79l-.09,13.61c0,.1-.17.11-.17,0h0Z"/>
              <path class="cls-1" d="M45.79,68.71c-3.13.05-6.26.06-9.37.23-2.89.25-6.17.38-8.38,2.47-.08.06-.11.18-.31.11-.2-.07-.29-.29-.04-.46,2.3-2.17,5.73-2.31,8.71-2.53,3.14-.16,6.26-.11,9.39-.07.16,0,.17.26,0,.26h0Z"/>
            </g>
            <path class="cls-5" d="M21.05,23.76c-3.3,17.06-6.3,32,10.43,43.82"/>
            <path class="cls-5" d="M22.46,23.67c-3.3,17.06-1.97,30.04,16.82,43.91"/>
            <path class="cls-5" d="M24.89,24.4c-1.96,14.74,8.91,31.34,24.36,42.12"/>
            <path class="cls-5" d="M25.98,24.68c-1.96,14.74,10.51,29.02,24.46,36.95"/>
            <path class="cls-5" d="M26.37,25.07c.92,11.72,10.11,23.97,24.06,31.89"/>
            <path class="cls-5" d="M27.04,25.07c4.43,13.87,11.17,18.12,23.4,28.17"/>
            <path class="cls-5" d="M28.25,25.5c5.12,10.94,11.03,15.21,22.19,21.55"/>
            <path class="cls-5" d="M23.86,23.76c-3.3,17.06,3.95,29.95,22.74,43.82"/>
            <g>
              <path class="cls-7" d="M23.86,23.76c-.93-.23-2.12-.35-3.46-.09-1.49.29-1.87.66-3.32.86-1.7.23-5.27-2.06-5.08-6.57.22-5.11,6.26-8.66,13.23-9.05,2.44-.13,3.85.04,5.42.57,6.82,2.31,10.11,7.64,10.11,12.03,0,3.26-1.61,5.51-4.47,6.35-2.62.77-3.66.06-5.31-1.01-1-.65-1.02-.83-3.57-1.82-1.95-.75-2.64-1.05-3.55-1.28Z"/>
              <path class="cls-1" d="M23.74,24.22c-1.48-.4-3.05-.29-4.53.2-.82.26-1.59.53-2.51.52-4.55-.66-6.33-6.68-4.01-10.22,3.43-5.38,11.92-6.94,17.75-5.43,3.1.98,6.01,2.75,8.05,5.36,3.07,3.67,4.08,10.71-.99,13.15-1.56.71-3.4,1.13-5.03.4-.81-.36-1.47-.81-2.16-1.26-1.96-1.25-4.43-1.92-6.55-2.72h0ZM23.98,23.3c1.45.31,3.25,1.17,4.62,1.7,3.33,1.4,4.5,4,8.57,2.13,4.72-2.19,3.7-8.75.96-12.21-1.91-2.57-4.73-4.38-7.77-5.41-5.55-1.51-14.07.33-17.19,5.5-2.02,3.24-.38,8.55,3.57,9.13.71-.01,1.5-.28,2.21-.53,1.57-.56,3.36-.73,5.03-.31h0Z"/>
            </g>
            <path class="cls-1" d="M24.25,22.12c-.67-.17-1.52-.29-2.5-.21-1.08.08-1.36.26-2.41.3-1.23.04-3.79-1.35-3.6-3.75.21-2.72,4.62-4.33,9.66-4.2,1.76.04,2.78.21,3.91.57,4.9,1.56,7.22,4.56,7.18,6.91-.04,1.74-1.22,2.86-3.3,3.17-1.9.28-2.64-.14-3.83-.79-.72-.39-.72-.49-2.56-1.14-1.4-.5-1.89-.69-2.55-.85Z"/>
            <path class="cls-3" d="M20.88,18.84c.4.44.52.85.56,1.09.2,1.11-.57,2.37-1.93,3.12"/>
            <path class="cls-3" d="M24.51,19.62c.09,1.11-.85.65-.58,1.51.26.82-.68.9.8,1.79"/>
            <path class="cls-3" d="M23.47,18.65c.95-.17.03-2.41-.92-1.36-1.21,1.34,2.4,4.24-1.57,5.45"/>
            <path class="cls-3" d="M28.21,20.64c.16-.36.08-1.32.24-1.52.18-.24,1.01-.95,1.27.03.19.73-.46,1.1-.6,1.32-.75,1.21-.48,1.67-.69,2.05-.28.53-.95,1.04-1.68.95-.55-.07-1.36-.55-1.13-.82.63-.74.3.15,1.28-.57.56-.41.35-.72.71-.97.37-.25.5-.3.58-.48Z"/>
            <path class="cls-3" d="M33.91,21.61c-.17-3.72,2.93.99,1.01,1.31-2.26.37-5.54.56-5.06,1.83"/>
            <path class="cls-3" d="M27.24,14.16c.68.94.66,2.31-.29,3.36-1.21,1.34.6,2.7-2.3,4.89"/>
            <path class="cls-3" d="M23.59,14.24c-4.26,1.14-2.45,2.49-3.4,3.55-1.21,1.34-3.89,2.22-.22,4.62"/>
            <path class="cls-3" d="M29.52,14.55c2.01,1.61,2.2,1.95,1.96,3.51-.27,1.72,2.14,5.54-3.76,5.56"/>
            <ellipse class="cls-2" cx="10.19" cy="20.43" rx="2.92" ry=".24" transform="translate(-12.61 19.28) rotate(-60.61)"/>
            <ellipse class="cls-2" cx="10.86" cy="23.06" rx="2.92" ry=".24" transform="translate(-14.53 25.3) rotate(-69.83)"/>
            <ellipse class="cls-2" cx="44.09" cy="26.5" rx=".24" ry="4.29" transform="translate(-5.11 41.51) rotate(-47.97)"/>
            <ellipse class="cls-2" cx="41.22" cy="28.1" rx=".4" ry="2.83" transform="translate(-8.53 24.37) rotate(-30)"/>
            <g>
              <ellipse class="cls-1" cx="19.51" cy="27.2" rx=".4" ry="2.83" transform="translate(-10.99 13.4) rotate(-30)"/>
              <ellipse class="cls-5" cx="19.51" cy="27.2" rx=".4" ry="2.83" transform="translate(-10.99 13.4) rotate(-30)"/>
            </g>
            <g>
              <ellipse class="cls-1" cx="20.85" cy="26.82" rx=".4" ry="2.83" transform="translate(-6.98 7.34) rotate(-17.15)"/>
              <ellipse class="cls-5" cx="20.85" cy="26.82" rx=".4" ry="2.83" transform="translate(-6.98 7.34) rotate(-17.15)"/>
            </g>
            <g>
              <ellipse class="cls-1" cx="23.1" cy="26.52" rx=".4" ry="2.83" transform="translate(-8.06 10.22) rotate(-21.32)"/>
              <ellipse class="cls-5" cx="23.1" cy="26.52" rx=".4" ry="2.83" transform="translate(-8.06 10.22) rotate(-21.32)"/>
            </g>
            <g>
              <ellipse class="cls-1" cx="25.59" cy="27.1" rx=".4" ry="3.24" transform="translate(-8.1 11.16) rotate(-21.32)"/>
              <ellipse class="cls-5" cx="25.59" cy="27.1" rx=".4" ry="3.24" transform="translate(-8.1 11.16) rotate(-21.32)"/>
            </g>
            <g>
              <ellipse class="cls-1" cx="26.83" cy="27.1" rx=".4" ry="3.24" transform="translate(-10.56 19.59) rotate(-33.94)"/>
              <ellipse class="cls-5" cx="26.83" cy="27.1" rx=".4" ry="3.24" transform="translate(-10.56 19.59) rotate(-33.94)"/>
            </g>
            <g>
              <ellipse class="cls-1" cx="30.06" cy="28.18" rx=".4" ry="3.24" transform="translate(-10.61 21.58) rotate(-33.94)"/>
              <ellipse class="cls-5" cx="30.06" cy="28.18" rx=".4" ry="3.24" transform="translate(-10.61 21.58) rotate(-33.94)"/>
            </g>
            <g>
              <ellipse class="cls-1" cx="33.79" cy="29.66" rx=".4" ry="3.24" transform="translate(-11.08 32.58) rotate(-45)"/>
              <ellipse class="cls-5" cx="33.79" cy="29.66" rx=".4" ry="3.24" transform="translate(-11.08 32.58) rotate(-45)"/>
            </g>
          </g>
          <g class="cls-28">
            <g>
              <rect class="cls-29" x=".25" y=".25" width="54.82" height="72.06" rx="3.84" ry="3.84"/>
              <rect class="cls-29" x="4.94" y="4.63" width="45.5" height="62.94" rx="3.84" ry="3.84"/>
              <g>
                <path class="cls-29" d="M5.46,2.31h-.5c-.15,0-.33.1-.34.26-.04.64.6.98,1.11.98.66,0,1.19-.58,1.1-1.24-.07-.55-.59-.95-1.15-.95h-3.15s-.42,0-.42,0c-.28.02-.47.13-.5.4v.81s-.01,1.19-.02,1.19l.74-1.5s1.61-.91,1.6-.91l-1.93.02c-.27.02-.39.22-.41.49v.42s0,3.1,0,3.1c0,.56.4,1.06.97,1.14.67.09,1.26-.44,1.26-1.09,0-.5-.35-1.14-1-1.09-.17.01-.27.19-.27.33v.49"/>
                <path class="cls-29" d="M5.45,2.56c-.11,0-.46-.02-.53,0-.04.01-.06.04-.06.04,0-.01,0,.13,0,.18.39,1.11,2.23.47,1.7-.7-.29-.72-1.43-.52-2.04-.56,0,0-2.43-.04-2.43-.04-.18,0-.41.12-.4.29,0,.01-.06,2.04-.07,2.05-.03.14-.21.04-.11-.08,0,0,.74-1.49.74-1.49,0,0,.01-.02.02-.03.43-.25,1.12-.66,1.54-.9,0,0,.07-.06.01.01-.04.1.09.14.09.12,0,0-.01,0-.01,0-.06,0-1.87.04-1.92.04-.15,0-.28.16-.28.38,0-.05.03,2.41.03,2.4,0,0,.02,1.19.02,1.19.04.72.94,1.14,1.49.67.55-.37.37-1.42-.25-1.55-.11,0-.19-.04-.22.05-.01.06,0,.42,0,.52.01.32-.5.34-.5.01,0,0,0-.31,0-.31-.03-.24.05-.65.39-.74.2-.04.27-.01.42,0,1.04.27,1.22,1.74.4,2.33-.79.65-2.06.04-2.09-.96,0-.77.03-2.84.04-3.63,0-.28.22-.62.53-.61,0,0,1.89,0,1.89,0,.02,0,.05,0,.06,0,0-.02.1.05.06.13-.09.1-.06.04-.09.07-.42.23-1.11.61-1.53.84.05-.09-.74,1.49-.73,1.48,0,0-.12-.08-.11-.09-.03-.65-.04-1.27-.03-1.95,0-.14.08-.29.2-.38.13-.09.26-.11.39-.13.81,0,2.87-.05,3.65-.05,1.85.11,1.55,2.79-.27,2.54-.83-.04-1.63-1.28-.71-1.66.29-.06.43-.02.68-.03.33,0,.32.51,0,.5h0Z"/>
              </g>
              <g>
                <path class="cls-29" d="M4.34,4.43c.09,3.08.03,3.76-2.59,3.73v24.72"/>
                <path class="cls-29" d="M4.49,4.42c.22,2.37.28,4.25-2.75,3.89,0,0,.16-.16.16-.16v24.72c0,.19-.32.21-.31,0,0,0,0-24.72,0-24.72v-.16h.16c1.69-.07,2.42-.34,2.39-2.18,0,0,.04-1.39.04-1.39,0-.19.3-.2.31,0h0Z"/>
              </g>
              <g>
                <path class="cls-29" d="M4.62,4.17c3.58.14,4.02-.54,3.96-2.8h16.64"/>
                <path class="cls-29" d="M4.62,4c2.15-.06,3.93.14,3.78-2.62,0,0,0-.18,0-.18h16.82c.22,0,.23.35,0,.35,0,0-16.64,0-16.64,0,0,0,.18-.18.18-.18.42,3.02-1.77,3.19-4.14,2.98-.22-.01-.21-.35.01-.35h0Z"/>
              </g>
              <g>
                <path class="cls-29" d="M3.34,9.3c.1,21.55.09,24.79-1.84,26.88"/>
                <path class="cls-29" d="M3.42,9.3c.09,4.54.15,9.08.14,13.62,0,2.27-.02,4.54-.13,6.82-.22,2.18-.03,4.94-1.86,6.5-.07.06-.18-.03-.12-.11,1.24-1.85,1.36-4.18,1.53-6.41.13-2.26.17-4.53.19-6.79l.09-13.61c0-.1.17-.11.17,0h0Z"/>
              </g>
              <ellipse class="cls-29" cx="2.49" cy="36.18" rx=".46" ry=".26"/>
              <ellipse class="cls-29" cx="53.07" cy="36.18" rx=".46" ry=".26"/>
              <g>
                <path class="cls-29" d="M9.69,3.77c10.02,0,15.54,0,18.13-2.85"/>
                <path class="cls-29" d="M9.69,3.64c3.13-.05,6.26-.06,9.37-.23,2.89-.25,6.17-.38,8.38-2.47.08-.06.11-.18.31-.11.2.07.29.29.04.46-2.3,2.17-5.73,2.31-8.71,2.53-3.14.16-6.26.11-9.39.07-.16,0-.17-.26,0-.26h0Z"/>
              </g>
              <g>
                <path class="cls-29" d="M50.04,2.31h.5c.15,0,.33.1.34.26.04.64-.6.98-1.11.98-.66,0-1.19-.58-1.1-1.24.07-.55.59-.95,1.15-.95h3.15s.42,0,.42,0c.28.02.47.13.5.4v.81s.01,1.19.02,1.19l-.74-1.5s-1.61-.91-1.6-.91l1.93.02c.27.02.39.22.41.49v.42s0,3.1,0,3.1c0,.56-.4,1.06-.97,1.14-.67.09-1.26-.44-1.26-1.09,0-.5.35-1.14,1-1.09.17.01.27.19.27.33v.49"/>
                <path class="cls-29" d="M50.04,2.06h.31c1.4-.03.67,1.65-.34,1.69-1.82.25-2.11-2.43-.27-2.54.78,0,2.86.04,3.66.05.27,0,.59.2.59.5,0,.68,0,1.3-.03,1.95.02.01-.11.09-.11.09,0,0-.78-1.56-.73-1.48-.43-.23-1.11-.61-1.53-.84-.03-.03,0,.02-.09-.07-.04-.08.07-.15.06-.13.02,0,.04,0,.06,0,0,0,1.89,0,1.89,0,.14,0,.31.07.4.21.09.13.12.27.13.4,0,.8.04,2.85.04,3.63-.16,1.81-2.85,1.49-2.59-.31.03-.97,1.75-1.71,1.71-.32,0,0,0,.3,0,.3,0,.32-.5.32-.5,0,0-.11.02-.47,0-.53-.02-.09-.11-.06-.22-.05-1.13.38-.47,2.15.68,1.67.75-.29.53-1.37.58-1.98,0,0,.04-2.45.03-2.4,0-.22-.13-.38-.28-.38,0,0-1.89-.04-1.89-.04,0,0-.04,0-.04,0,0,.02.13-.02.09-.12-.06-.08.01,0,.01-.01l.1.06c.26.17,1.25.7,1.46.87,0,0,.74,1.49.74,1.49.1.13-.1.23-.11.07,0,0-.06-2.07-.06-2.03,0-.2-.22-.3-.4-.3,0,0-2.43.04-2.43.04l-1.2.02c-.73.02-1.21.91-.71,1.48.42.61,1.67.31,1.6-.42-.05-.06-.15-.04-.29-.04,0,0-.3,0-.3,0-.33.01-.34-.51,0-.5h0Z"/>
              </g>
              <g>
                <path class="cls-29" d="M51.16,4.43c-.09,3.08-.03,3.76,2.59,3.73v24.72"/>
                <path class="cls-29" d="M51.32,4.43c.1,2.34-.33,3.59,2.59,3.57,0,.13,0,24.73,0,24.87,0,.19-.32.21-.31,0,0,0,0-24.72,0-24.72l.16.16c-.93.09-2.31.06-2.66-1.02-.28-.97-.16-1.9-.09-2.87.01-.19.31-.18.31,0h0Z"/>
              </g>
              <g>
                <path class="cls-29" d="M50.88,4.17c-3.58.14-4.02-.54-3.96-2.8h-16.64"/>
                <path class="cls-29" d="M50.89,4.35c-2.38.21-4.56.04-4.14-2.98,0,0,.18.18.18.18,0,0-16.64,0-16.64,0-.22,0-.23-.35,0-.35,0,0,16.64,0,16.64,0h.18s0,.18,0,.18c-.03,1.79.48,2.51,2.32,2.57.48.03.97.04,1.46.05.1,0,.18.08.18.18,0,.09-.07.17-.16.18h0Z"/>
              </g>
              <g>
                <path class="cls-29" d="M52.17,9.3c-.1,21.55-.09,24.79,1.84,26.88"/>
                <path class="cls-29" d="M52.25,9.3l.09,13.61c.02,2.27.07,4.54.19,6.79.17,2.24.28,4.57,1.53,6.41.05.07-.05.18-.12.11-1.83-1.56-1.64-4.32-1.86-6.5-.11-2.28-.13-4.55-.13-6.82-.02-4.54.05-9.08.14-13.62,0-.1.17-.11.17,0h0Z"/>
              </g>
              <g>
                <path class="cls-29" d="M45.81,3.77c-10.02,0-15.54,0-18.13-2.85"/>
                <path class="cls-29" d="M45.81,3.9c-3.13.04-6.26.09-9.39-.07-2.98-.22-6.41-.37-8.71-2.53-.06-.08-.19-.1-.13-.29.03-.09.09-.15.18-.17.2-.07.23.05.31.11,2.21,2.09,5.49,2.22,8.38,2.47,3.11.17,6.24.17,9.37.23.16,0,.17.26,0,.26h0Z"/>
              </g>
              <g>
                <path class="cls-29" d="M5.44,70.04h-.5c-.15,0-.33-.1-.34-.26-.04-.64.6-.98,1.11-.98.66,0,1.19.58,1.1,1.24-.07.55-.59.95-1.15.95h-3.15s-.42,0-.42,0c-.28-.02-.47-.13-.5-.4v-.81s-.01-1.19-.02-1.19l.74,1.5s1.61.91,1.6.91l-1.93-.02c-.27-.02-.39-.22-.41-.49v-.42s0-3.1,0-3.1c0-.56.4-1.06.97-1.14.67-.09,1.26.44,1.26,1.09,0,.5-.35,1.14-1,1.09-.17-.01-.27-.19-.27-.33v-.49"/>
                <path class="cls-29" d="M5.44,70.29h-.31c-1.4.03-.67-1.64.34-1.69,1.82-.25,2.11,2.43.27,2.54-.78,0-2.86-.04-3.66-.05-.27,0-.59-.2-.59-.5,0-.68,0-1.3.03-1.95-.02-.01.11-.09.11-.09,0,0,.78,1.56.73,1.48.43.23,1.11.61,1.53.84.03.03,0-.02.09.07.04.08-.07.15-.06.13-.02,0-.04,0-.06,0,0,0-1.89.01-1.9,0-.31,0-.53-.33-.52-.61,0,0-.03-2.41-.03-2.41v-1.22c.02-1,1.29-1.61,2.08-.96.82.58.64,2.06-.4,2.33-.28.09-.7-.04-.78-.36-.07-.29-.02-.43-.03-.68,0-.32.5-.33.5,0,0,.11-.02.47,0,.53.02.09.11.06.22.05.62-.13.8-1.17.25-1.55-.55-.47-1.45-.06-1.49.67,0,0-.02,1.19-.02,1.19l-.03,2.41c0,.17.13.39.28.37,0,0,1.89.04,1.89.04,0,0,.04,0,.04,0,0-.02-.13.02-.09.12.06.08-.01,0-.01.01l-.1-.06c-.26-.16-1.25-.7-1.46-.87,0,0-.74-1.49-.74-1.49-.1-.13.1-.23.11-.07,0,0,.06,2.07.06,2.03,0,.2.22.3.4.3,0,0,2.43-.04,2.43-.04l1.2-.02c.73-.02,1.21-.91.71-1.48-.42-.61-1.67-.31-1.6.42.05.06.15.04.29.04,0,0,.3,0,.3,0,.33-.01.34.51,0,.5h0Z"/>
              </g>
              <g>
                <path class="cls-29" d="M4.32,67.93c.09-3.08.03-3.76-2.59-3.73v-24.72"/>
                <path class="cls-29" d="M4.16,67.92c-.1-2.34.33-3.59-2.59-3.57,0-.13,0-24.73,0-24.87,0-.19.32-.21.31,0,0,0,0,24.72,0,24.72l-.16-.16c.93-.09,2.31-.06,2.66,1.02.28.97.16,1.9.09,2.87-.01.19-.31.18-.31,0h0Z"/>
              </g>
              <g>
                <path class="cls-29" d="M4.6,68.18c3.58-.14,4.02.54,3.96,2.8h16.64"/>
                <path class="cls-29" d="M4.59,68.01c2.38-.21,4.56-.04,4.14,2.98,0,0-.18-.18-.18-.18,0,0,16.64,0,16.64,0,.22,0,.23.35,0,.35,0,0-16.64,0-16.64,0h-.18s0-.18,0-.18c.03-1.79-.48-2.51-2.32-2.57-.48-.03-.97-.04-1.46-.05-.1,0-.18-.08-.18-.18,0-.09.07-.17.16-.18h0Z"/>
              </g>
              <g>
                <path class="cls-29" d="M3.31,63.06c.1-21.55.09-24.79-1.84-26.88"/>
                <path class="cls-29" d="M3.23,63.06l-.09-13.61c-.02-2.27-.07-4.54-.19-6.79-.17-2.24-.28-4.57-1.53-6.41-.05-.07.05-.18.12-.11,1.83,1.56,1.64,4.32,1.86,6.5.11,2.28.13,4.55.13,6.82.02,4.54-.05,9.08-.14,13.62,0,.1-.17.11-.17,0h0Z"/>
              </g>
              <ellipse class="cls-29" cx="2.47" cy="36.18" rx=".46" ry=".26"/>
              <ellipse class="cls-29" cx="53.05" cy="36.18" rx=".46" ry=".26"/>
              <g>
                <path class="cls-29" d="M9.67,68.58c10.02,0,15.54,0,18.13,2.85"/>
                <path class="cls-29" d="M9.67,68.45c3.13-.04,6.26-.09,9.39.07,2.98.22,6.41.37,8.71,2.53.06.08.19.1.13.29-.03.09-.09.15-.18.17-.2.07-.23-.05-.31-.11-2.21-2.09-5.49-2.22-8.38-2.47-3.11-.17-6.24-.17-9.37-.23-.16,0-.17-.26,0-.26h0Z"/>
              </g>
              <g>
                <path class="cls-29" d="M50.02,70.04h.5c.15,0,.33-.1.34-.26.04-.64-.6-.98-1.11-.98-.66,0-1.19.58-1.1,1.24.07.55.59.95,1.15.95h3.15s.42,0,.42,0c.28-.02.47-.13.5-.4v-.81s.01-1.19.02-1.19l-.74,1.5s-1.61.91-1.6.91l1.93-.02c.27-.02.39-.22.41-.49v-.42s0-3.1,0-3.1c0-.56-.4-1.06-.97-1.14-.67-.09-1.26.44-1.26,1.09,0,.5.35,1.14,1,1.09.17-.01.27-.19.27-.33v-.49"/>
                <path class="cls-29" d="M50.03,69.79c.11,0,.46.02.53,0,.04-.01.06-.04.06-.04,0,.01,0-.13,0-.18-.39-1.11-2.23-.47-1.7.7.29.72,1.43.52,2.04.56,0,0,2.43.04,2.43.04.18,0,.41-.12.4-.29,0-.01.06-2.04.07-2.05.03-.14.21-.04.11.08,0,0-.74,1.49-.74,1.49,0,0-.01.02-.02.03-.43.25-1.12.66-1.54.9,0,0-.07.06-.01-.01.04-.1-.09-.14-.09-.12,0,0,.01,0,.01,0,.06,0,1.87-.04,1.92-.04.15,0,.28-.16.28-.38,0,.05-.03-2.41-.03-2.4,0,0-.02-1.19-.02-1.19-.04-.72-.94-1.14-1.49-.67-.55.37-.37,1.42.25,1.55.11,0,.19.04.22-.05.01-.06,0-.42,0-.52-.01-.32.5-.34.5-.01,0,0,0,.31,0,.31.03.24-.05.65-.39.74-.2.04-.27.01-.42,0-1.04-.27-1.22-1.74-.4-2.33.79-.65,2.06-.04,2.09.96,0,.77-.03,2.84-.04,3.63,0,.28-.22.62-.53.61,0,0-1.89,0-1.89,0-.02,0-.05,0-.06,0,0,.02-.1-.05-.06-.13.09-.1.06-.04.09-.07.42-.23,1.11-.61,1.53-.84-.05.09.74-1.49.73-1.48,0,0,.11.08.11.08h0c.03.66.04,1.28.03,1.96,0,.14-.08.29-.2.38-.13.09-.26.11-.39.13-.81,0-2.87.05-3.65.05-1.85-.11-1.55-2.79.27-2.54.83.04,1.63,1.28.71,1.66-.29.06-.43.02-.68.03-.33,0-.32-.51,0-.5h0Z"/>
              </g>
              <g>
                <path class="cls-29" d="M51.14,67.93c-.09-3.08-.03-3.76,2.59-3.73v-24.72"/>
                <path class="cls-29" d="M50.99,67.93c-.22-2.37-.28-4.25,2.75-3.89-.42,1.09-.03-24.84-.16-24.56,0-.19.32-.21.31,0,0,0,0,24.72,0,24.72v.16h-.16c-1.69.07-2.42.34-2.39,2.18,0,0-.04,1.39-.04,1.39,0,.19-.3.2-.31,0h0Z"/>
              </g>
              <g>
                <path class="cls-29" d="M50.86,68.18c-3.58-.14-4.02.54-3.96,2.8h-16.64"/>
                <path class="cls-29" d="M50.86,68.36c-2.15.06-3.93-.14-3.78,2.62,0,0,0,.18,0,.18h-16.82c-.22,0-.23-.35,0-.35,0,0,16.64,0,16.64,0,0,0-.18.18-.18.18-.42-3.02,1.77-3.19,4.14-2.98.22.01.21.35-.01.35h0Z"/>
              </g>
              <g>
                <path class="cls-29" d="M52.14,63.06c-.1-21.55-.09-24.79,1.84-26.88"/>
                <path class="cls-29" d="M52.06,63.06c-.09-4.54-.15-9.08-.14-13.62,0-2.27.02-4.54.13-6.82.22-2.18.03-4.94,1.86-6.5.07-.06.18.03.12.11-1.24,1.85-1.36,4.18-1.53,6.41-.13,2.26-.17,4.53-.19,6.79l-.09,13.61c0,.1-.17.11-.17,0h0Z"/>
              </g>
              <g>
                <path class="cls-29" d="M45.79,68.58c-10.02,0-15.54,0-18.13,2.85"/>
                <path class="cls-29" d="M45.79,68.71c-3.13.05-6.26.06-9.37.23-2.89.25-6.17.38-8.38,2.47-.08.06-.11.18-.31.11-.2-.07-.29-.29-.04-.46,2.3-2.17,5.73-2.31,8.71-2.53,3.14-.16,6.26-.11,9.39-.07.16,0,.17.26,0,.26h0Z"/>
              </g>
            </g>
            <path class="cls-29" d="M21.05,23.76c-3.3,17.06-6.3,32,10.43,43.82"/>
            <path class="cls-29" d="M22.46,23.67c-3.3,17.06-1.97,30.04,16.82,43.91"/>
            <path class="cls-29" d="M24.89,24.4c-1.96,14.74,8.91,31.34,24.36,42.12"/>
            <path class="cls-29" d="M25.98,24.68c-1.96,14.74,10.51,29.02,24.46,36.95"/>
            <path class="cls-29" d="M26.37,25.07c.92,11.72,10.11,23.97,24.06,31.89"/>
            <path class="cls-29" d="M27.04,25.07c4.43,13.87,11.17,18.12,23.4,28.17"/>
            <path class="cls-29" d="M28.25,25.5c5.12,10.94,11.03,15.21,22.19,21.55"/>
            <path class="cls-29" d="M23.86,23.76c-3.3,17.06,3.95,29.95,22.74,43.82"/>
            <g>
              <path class="cls-29" d="M23.86,23.76c-.93-.23-2.12-.35-3.46-.09-1.49.29-1.87.66-3.32.86-1.7.23-5.27-2.06-5.08-6.57.22-5.11,6.26-8.66,13.23-9.05,2.44-.13,3.85.04,5.42.57,6.82,2.31,10.11,7.64,10.11,12.03,0,3.26-1.61,5.51-4.47,6.35-2.62.77-3.66.06-5.31-1.01-1-.65-1.02-.83-3.57-1.82-1.95-.75-2.64-1.05-3.55-1.28Z"/>
              <path class="cls-29" d="M23.74,24.22c-1.48-.4-3.05-.29-4.53.2-.82.26-1.59.53-2.51.52-4.55-.66-6.33-6.68-4.01-10.22,3.43-5.38,11.92-6.94,17.75-5.43,3.1.98,6.01,2.75,8.05,5.36,3.07,3.67,4.08,10.71-.99,13.15-1.56.71-3.4,1.13-5.03.4-.81-.36-1.47-.81-2.16-1.26-1.96-1.25-4.43-1.92-6.55-2.72h0ZM23.98,23.3c1.45.31,3.25,1.17,4.62,1.7,3.33,1.4,4.5,4,8.57,2.13,4.72-2.19,3.7-8.75.96-12.21-1.91-2.57-4.73-4.38-7.77-5.41-5.55-1.51-14.07.33-17.19,5.5-2.02,3.24-.38,8.55,3.57,9.13.71-.01,1.5-.28,2.21-.53,1.57-.56,3.36-.73,5.03-.31h0Z"/>
            </g>
            <path class="cls-29" d="M24.25,22.12c-.67-.17-1.52-.29-2.5-.21-1.08.08-1.36.26-2.41.3-1.23.04-3.79-1.35-3.6-3.75.21-2.72,4.62-4.33,9.66-4.2,1.76.04,2.78.21,3.91.57,4.9,1.56,7.22,4.56,7.18,6.91-.04,1.74-1.22,2.86-3.3,3.17-1.9.28-2.64-.14-3.83-.79-.72-.39-.72-.49-2.56-1.14-1.4-.5-1.89-.69-2.55-.85Z"/>
            <path class="cls-29" d="M20.88,18.84c.4.44.52.85.56,1.09.2,1.11-.57,2.37-1.93,3.12"/>
            <path class="cls-29" d="M24.51,19.62c.09,1.11-.85.65-.58,1.51.26.82-.68.9.8,1.79"/>
            <path class="cls-29" d="M23.47,18.65c.95-.17.03-2.41-.92-1.36-1.21,1.34,2.4,4.24-1.57,5.45"/>
            <path class="cls-29" d="M28.21,20.64c.16-.36.08-1.32.24-1.52.18-.24,1.01-.95,1.27.03.19.73-.46,1.1-.6,1.32-.75,1.21-.48,1.67-.69,2.05-.28.53-.95,1.04-1.68.95-.55-.07-1.36-.55-1.13-.82.63-.74.3.15,1.28-.57.56-.41.35-.72.71-.97.37-.25.5-.3.58-.48Z"/>
            <path class="cls-29" d="M33.91,21.61c-.17-3.72,2.93.99,1.01,1.31-2.26.37-5.54.56-5.06,1.83"/>
            <path class="cls-29" d="M27.24,14.16c.68.94.66,2.31-.29,3.36-1.21,1.34.6,2.7-2.3,4.89"/>
            <path class="cls-29" d="M23.59,14.24c-4.26,1.14-2.45,2.49-3.4,3.55-1.21,1.34-3.89,2.22-.22,4.62"/>
            <path class="cls-29" d="M29.52,14.55c2.01,1.61,2.2,1.95,1.96,3.51-.27,1.72,2.14,5.54-3.76,5.56"/>
            <ellipse class="cls-19" cx="10.19" cy="20.43" rx="2.92" ry=".24" transform="translate(-12.61 19.28) rotate(-60.61)"/>
            <ellipse class="cls-20" cx="10.86" cy="23.06" rx="2.92" ry=".24" transform="translate(-14.53 25.3) rotate(-69.83)"/>
            <ellipse class="cls-24" cx="44.09" cy="26.5" rx=".24" ry="4.29" transform="translate(-5.11 41.51) rotate(-47.97)"/>
            <ellipse class="cls-21" cx="41.22" cy="28.1" rx=".4" ry="2.83" transform="translate(-8.53 24.37) rotate(-30)"/>
            <g>
              <ellipse class="cls-26" cx="19.51" cy="27.2" rx=".4" ry="2.83" transform="translate(-10.99 13.4) rotate(-30)"/>
              <ellipse class="cls-22" cx="19.51" cy="27.2" rx=".4" ry="2.83" transform="translate(-10.99 13.4) rotate(-30)"/>
            </g>
            <g>
              <ellipse class="cls-23" cx="20.85" cy="26.82" rx=".4" ry="2.83" transform="translate(-6.98 7.34) rotate(-17.15)"/>
              <ellipse class="cls-25" cx="20.85" cy="26.82" rx=".4" ry="2.83" transform="translate(-6.98 7.34) rotate(-17.15)"/>
            </g>
            <g>
              <ellipse class="cls-9" cx="23.1" cy="26.52" rx=".4" ry="2.83" transform="translate(-8.06 10.22) rotate(-21.32)"/>
              <ellipse class="cls-13" cx="23.1" cy="26.52" rx=".4" ry="2.83" transform="translate(-8.06 10.22) rotate(-21.32)"/>
            </g>
            <g>
              <ellipse class="cls-8" cx="25.59" cy="27.1" rx=".4" ry="3.24" transform="translate(-8.1 11.16) rotate(-21.32)"/>
              <ellipse class="cls-12" cx="25.59" cy="27.1" rx=".4" ry="3.24" transform="translate(-8.1 11.16) rotate(-21.32)"/>
            </g>
            <g>
              <ellipse class="cls-11" cx="26.83" cy="27.1" rx=".4" ry="3.24" transform="translate(-10.56 19.59) rotate(-33.94)"/>
              <ellipse class="cls-10" cx="26.83" cy="27.1" rx=".4" ry="3.24" transform="translate(-10.56 19.59) rotate(-33.94)"/>
            </g>
            <g>
              <ellipse class="cls-14" cx="30.06" cy="28.18" rx=".4" ry="3.24" transform="translate(-10.61 21.58) rotate(-33.94)"/>
              <ellipse class="cls-16" cx="30.06" cy="28.18" rx=".4" ry="3.24" transform="translate(-10.61 21.58) rotate(-33.94)"/>
            </g>
            <g>
              <ellipse class="cls-17" cx="33.79" cy="29.66" rx=".4" ry="3.24" transform="translate(-11.08 32.58) rotate(-45)"/>
              <ellipse class="cls-15" cx="33.79" cy="29.66" rx=".4" ry="3.24" transform="translate(-11.08 32.58) rotate(-45)"/>
            </g>
          </g>
          <g class="cls-18">
            <g>
              <rect class="cls-30" x=".25" y=".25" width="54.82" height="72.06" rx="3.84" ry="3.84"/>
              <rect class="cls-30" x="4.94" y="4.63" width="45.5" height="62.94" rx="3.84" ry="3.84"/>
              <g>
                <path class="cls-30" d="M5.46,2.31h-.5c-.15,0-.33.1-.34.26-.04.64.6.98,1.11.98.66,0,1.19-.58,1.1-1.24-.07-.55-.59-.95-1.15-.95h-3.15s-.42,0-.42,0c-.28.02-.47.13-.5.4v.81s-.01,1.19-.02,1.19l.74-1.5s1.61-.91,1.6-.91l-1.93.02c-.27.02-.39.22-.41.49v.42s0,3.1,0,3.1c0,.56.4,1.06.97,1.14.67.09,1.26-.44,1.26-1.09,0-.5-.35-1.14-1-1.09-.17.01-.27.19-.27.33v.49"/>
                <path class="cls-30" d="M5.45,2.56c-.11,0-.46-.02-.53,0-.04.01-.06.04-.06.04,0-.01,0,.13,0,.18.39,1.11,2.23.47,1.7-.7-.29-.72-1.43-.52-2.04-.56,0,0-2.43-.04-2.43-.04-.18,0-.41.12-.4.29,0,.01-.06,2.04-.07,2.05-.03.14-.21.04-.11-.08,0,0,.74-1.49.74-1.49,0,0,.01-.02.02-.03.43-.25,1.12-.66,1.54-.9,0,0,.07-.06.01.01-.04.1.09.14.09.12,0,0-.01,0-.01,0-.06,0-1.87.04-1.92.04-.15,0-.28.16-.28.38,0-.05.03,2.41.03,2.4,0,0,.02,1.19.02,1.19.04.72.94,1.14,1.49.67.55-.37.37-1.42-.25-1.55-.11,0-.19-.04-.22.05-.01.06,0,.42,0,.52.01.32-.5.34-.5.01,0,0,0-.31,0-.31-.03-.24.05-.65.39-.74.2-.04.27-.01.42,0,1.04.27,1.22,1.74.4,2.33-.79.65-2.06.04-2.09-.96,0-.77.03-2.84.04-3.63,0-.28.22-.62.53-.61,0,0,1.89,0,1.89,0,.02,0,.05,0,.06,0,0-.02.1.05.06.13-.09.1-.06.04-.09.07-.42.23-1.11.61-1.53.84.05-.09-.74,1.49-.73,1.48,0,0-.12-.08-.11-.09-.03-.65-.04-1.27-.03-1.95,0-.14.08-.29.2-.38.13-.09.26-.11.39-.13.81,0,2.87-.05,3.65-.05,1.85.11,1.55,2.79-.27,2.54-.83-.04-1.63-1.28-.71-1.66.29-.06.43-.02.68-.03.33,0,.32.51,0,.5h0Z"/>
              </g>
              <g>
                <path class="cls-30" d="M4.34,4.43c.09,3.08.03,3.76-2.59,3.73v24.72"/>
                <path class="cls-30" d="M4.49,4.42c.22,2.37.28,4.25-2.75,3.89,0,0,.16-.16.16-.16v24.72c0,.19-.32.21-.31,0,0,0,0-24.72,0-24.72v-.16h.16c1.69-.07,2.42-.34,2.39-2.18,0,0,.04-1.39.04-1.39,0-.19.3-.2.31,0h0Z"/>
              </g>
              <g>
                <path class="cls-30" d="M4.62,4.17c3.58.14,4.02-.54,3.96-2.8h16.64"/>
                <path class="cls-30" d="M4.62,4c2.15-.06,3.93.14,3.78-2.62,0,0,0-.18,0-.18h16.82c.22,0,.23.35,0,.35,0,0-16.64,0-16.64,0,0,0,.18-.18.18-.18.42,3.02-1.77,3.19-4.14,2.98-.22-.01-.21-.35.01-.35h0Z"/>
              </g>
              <g>
                <path class="cls-30" d="M3.34,9.3c.1,21.55.09,24.79-1.84,26.88"/>
                <path class="cls-30" d="M3.42,9.3c.09,4.54.15,9.08.14,13.62,0,2.27-.02,4.54-.13,6.82-.22,2.18-.03,4.94-1.86,6.5-.07.06-.18-.03-.12-.11,1.24-1.85,1.36-4.18,1.53-6.41.13-2.26.17-4.53.19-6.79l.09-13.61c0-.1.17-.11.17,0h0Z"/>
              </g>
              <ellipse class="cls-30" cx="2.49" cy="36.18" rx=".46" ry=".26"/>
              <ellipse class="cls-30" cx="53.07" cy="36.18" rx=".46" ry=".26"/>
              <g>
                <path class="cls-30" d="M9.69,3.77c10.02,0,15.54,0,18.13-2.85"/>
                <path class="cls-30" d="M9.69,3.64c3.13-.05,6.26-.06,9.37-.23,2.89-.25,6.17-.38,8.38-2.47.08-.06.11-.18.31-.11.2.07.29.29.04.46-2.3,2.17-5.73,2.31-8.71,2.53-3.14.16-6.26.11-9.39.07-.16,0-.17-.26,0-.26h0Z"/>
              </g>
              <g>
                <path class="cls-30" d="M50.04,2.31h.5c.15,0,.33.1.34.26.04.64-.6.98-1.11.98-.66,0-1.19-.58-1.1-1.24.07-.55.59-.95,1.15-.95h3.15s.42,0,.42,0c.28.02.47.13.5.4v.81s.01,1.19.02,1.19l-.74-1.5s-1.61-.91-1.6-.91l1.93.02c.27.02.39.22.41.49v.42s0,3.1,0,3.1c0,.56-.4,1.06-.97,1.14-.67.09-1.26-.44-1.26-1.09,0-.5.35-1.14,1-1.09.17.01.27.19.27.33v.49"/>
                <path class="cls-30" d="M50.04,2.06h.31c1.4-.03.67,1.65-.34,1.69-1.82.25-2.11-2.43-.27-2.54.78,0,2.86.04,3.66.05.27,0,.59.2.59.5,0,.68,0,1.3-.03,1.95.02.01-.11.09-.11.09,0,0-.78-1.56-.73-1.48-.43-.23-1.11-.61-1.53-.84-.03-.03,0,.02-.09-.07-.04-.08.07-.15.06-.13.02,0,.04,0,.06,0,0,0,1.89,0,1.89,0,.14,0,.31.07.4.21.09.13.12.27.13.4,0,.8.04,2.85.04,3.63-.16,1.81-2.85,1.49-2.59-.31.03-.97,1.75-1.71,1.71-.32,0,0,0,.3,0,.3,0,.32-.5.32-.5,0,0-.11.02-.47,0-.53-.02-.09-.11-.06-.22-.05-1.13.38-.47,2.15.68,1.67.75-.29.53-1.37.58-1.98,0,0,.04-2.45.03-2.4,0-.22-.13-.38-.28-.38,0,0-1.89-.04-1.89-.04,0,0-.04,0-.04,0,0,.02.13-.02.09-.12-.06-.08.01,0,.01-.01l.1.06c.26.17,1.25.7,1.46.87,0,0,.74,1.49.74,1.49.1.13-.1.23-.11.07,0,0-.06-2.07-.06-2.03,0-.2-.22-.3-.4-.3,0,0-2.43.04-2.43.04l-1.2.02c-.73.02-1.21.91-.71,1.48.42.61,1.67.31,1.6-.42-.05-.06-.15-.04-.29-.04,0,0-.3,0-.3,0-.33.01-.34-.51,0-.5h0Z"/>
              </g>
              <g>
                <path class="cls-30" d="M51.16,4.43c-.09,3.08-.03,3.76,2.59,3.73v24.72"/>
                <path class="cls-30" d="M51.32,4.43c.1,2.34-.33,3.59,2.59,3.57,0,.13,0,24.73,0,24.87,0,.19-.32.21-.31,0,0,0,0-24.72,0-24.72l.16.16c-.93.09-2.31.06-2.66-1.02-.28-.97-.16-1.9-.09-2.87.01-.19.31-.18.31,0h0Z"/>
              </g>
              <g>
                <path class="cls-30" d="M50.88,4.17c-3.58.14-4.02-.54-3.96-2.8h-16.64"/>
                <path class="cls-30" d="M50.89,4.35c-2.38.21-4.56.04-4.14-2.98,0,0,.18.18.18.18,0,0-16.64,0-16.64,0-.22,0-.23-.35,0-.35,0,0,16.64,0,16.64,0h.18s0,.18,0,.18c-.03,1.79.48,2.51,2.32,2.57.48.03.97.04,1.46.05.1,0,.18.08.18.18,0,.09-.07.17-.16.18h0Z"/>
              </g>
              <g>
                <path class="cls-30" d="M52.17,9.3c-.1,21.55-.09,24.79,1.84,26.88"/>
                <path class="cls-30" d="M52.25,9.3l.09,13.61c.02,2.27.07,4.54.19,6.79.17,2.24.28,4.57,1.53,6.41.05.07-.05.18-.12.11-1.83-1.56-1.64-4.32-1.86-6.5-.11-2.28-.13-4.55-.13-6.82-.02-4.54.05-9.08.14-13.62,0-.1.17-.11.17,0h0Z"/>
              </g>
              <g>
                <path class="cls-30" d="M45.81,3.77c-10.02,0-15.54,0-18.13-2.85"/>
                <path class="cls-30" d="M45.81,3.9c-3.13.04-6.26.09-9.39-.07-2.98-.22-6.41-.37-8.71-2.53-.06-.08-.19-.1-.13-.29.03-.09.09-.15.18-.17.2-.07.23.05.31.11,2.21,2.09,5.49,2.22,8.38,2.47,3.11.17,6.24.17,9.37.23.16,0,.17.26,0,.26h0Z"/>
              </g>
              <g>
                <path class="cls-30" d="M5.44,70.04h-.5c-.15,0-.33-.1-.34-.26-.04-.64.6-.98,1.11-.98.66,0,1.19.58,1.1,1.24-.07.55-.59.95-1.15.95h-3.15s-.42,0-.42,0c-.28-.02-.47-.13-.5-.4v-.81s-.01-1.19-.02-1.19l.74,1.5s1.61.91,1.6.91l-1.93-.02c-.27-.02-.39-.22-.41-.49v-.42s0-3.1,0-3.1c0-.56.4-1.06.97-1.14.67-.09,1.26.44,1.26,1.09,0,.5-.35,1.14-1,1.09-.17-.01-.27-.19-.27-.33v-.49"/>
                <path class="cls-30" d="M5.44,70.29h-.31c-1.4.03-.67-1.64.34-1.69,1.82-.25,2.11,2.43.27,2.54-.78,0-2.86-.04-3.66-.05-.27,0-.59-.2-.59-.5,0-.68,0-1.3.03-1.95-.02-.01.11-.09.11-.09,0,0,.78,1.56.73,1.48.43.23,1.11.61,1.53.84.03.03,0-.02.09.07.04.08-.07.15-.06.13-.02,0-.04,0-.06,0,0,0-1.89.01-1.9,0-.31,0-.53-.33-.52-.61,0,0-.03-2.41-.03-2.41v-1.22c.02-1,1.29-1.61,2.08-.96.82.58.64,2.06-.4,2.33-.28.09-.7-.04-.78-.36-.07-.29-.02-.43-.03-.68,0-.32.5-.33.5,0,0,.11-.02.47,0,.53.02.09.11.06.22.05.62-.13.8-1.17.25-1.55-.55-.47-1.45-.06-1.49.67,0,0-.02,1.19-.02,1.19l-.03,2.41c0,.17.13.39.28.37,0,0,1.89.04,1.89.04,0,0,.04,0,.04,0,0-.02-.13.02-.09.12.06.08-.01,0-.01.01l-.1-.06c-.26-.16-1.25-.7-1.46-.87,0,0-.74-1.49-.74-1.49-.1-.13.1-.23.11-.07,0,0,.06,2.07.06,2.03,0,.2.22.3.4.3,0,0,2.43-.04,2.43-.04l1.2-.02c.73-.02,1.21-.91.71-1.48-.42-.61-1.67-.31-1.6.42.05.06.15.04.29.04,0,0,.3,0,.3,0,.33-.01.34.51,0,.5h0Z"/>
              </g>
              <g>
                <path class="cls-30" d="M4.32,67.93c.09-3.08.03-3.76-2.59-3.73v-24.72"/>
                <path class="cls-30" d="M4.16,67.92c-.1-2.34.33-3.59-2.59-3.57,0-.13,0-24.73,0-24.87,0-.19.32-.21.31,0,0,0,0,24.72,0,24.72l-.16-.16c.93-.09,2.31-.06,2.66,1.02.28.97.16,1.9.09,2.87-.01.19-.31.18-.31,0h0Z"/>
              </g>
              <g>
                <path class="cls-30" d="M4.6,68.18c3.58-.14,4.02.54,3.96,2.8h16.64"/>
                <path class="cls-30" d="M4.59,68.01c2.38-.21,4.56-.04,4.14,2.98,0,0-.18-.18-.18-.18,0,0,16.64,0,16.64,0,.22,0,.23.35,0,.35,0,0-16.64,0-16.64,0h-.18s0-.18,0-.18c.03-1.79-.48-2.51-2.32-2.57-.48-.03-.97-.04-1.46-.05-.1,0-.18-.08-.18-.18,0-.09.07-.17.16-.18h0Z"/>
              </g>
              <g>
                <path class="cls-30" d="M3.31,63.06c.1-21.55.09-24.79-1.84-26.88"/>
                <path class="cls-30" d="M3.23,63.06l-.09-13.61c-.02-2.27-.07-4.54-.19-6.79-.17-2.24-.28-4.57-1.53-6.41-.05-.07.05-.18.12-.11,1.83,1.56,1.64,4.32,1.86,6.5.11,2.28.13,4.55.13,6.82.02,4.54-.05,9.08-.14,13.62,0,.1-.17.11-.17,0h0Z"/>
              </g>
              <ellipse class="cls-30" cx="2.47" cy="36.18" rx=".46" ry=".26"/>
              <ellipse class="cls-30" cx="53.05" cy="36.18" rx=".46" ry=".26"/>
              <g>
                <path class="cls-30" d="M9.67,68.58c10.02,0,15.54,0,18.13,2.85"/>
                <path class="cls-30" d="M9.67,68.45c3.13-.04,6.26-.09,9.39.07,2.98.22,6.41.37,8.71,2.53.06.08.19.1.13.29-.03.09-.09.15-.18.17-.2.07-.23-.05-.31-.11-2.21-2.09-5.49-2.22-8.38-2.47-3.11-.17-6.24-.17-9.37-.23-.16,0-.17-.26,0-.26h0Z"/>
              </g>
              <g>
                <path class="cls-30" d="M50.02,70.04h.5c.15,0,.33-.1.34-.26.04-.64-.6-.98-1.11-.98-.66,0-1.19.58-1.1,1.24.07.55.59.95,1.15.95h3.15s.42,0,.42,0c.28-.02.47-.13.5-.4v-.81s.01-1.19.02-1.19l-.74,1.5s-1.61.91-1.6.91l1.93-.02c.27-.02.39-.22.41-.49v-.42s0-3.1,0-3.1c0-.56-.4-1.06-.97-1.14-.67-.09-1.26.44-1.26,1.09,0,.5.35,1.14,1,1.09.17-.01.27-.19.27-.33v-.49"/>
                <path class="cls-30" d="M50.03,69.79c.11,0,.46.02.53,0,.04-.01.06-.04.06-.04,0,.01,0-.13,0-.18-.39-1.11-2.23-.47-1.7.7.29.72,1.43.52,2.04.56,0,0,2.43.04,2.43.04.18,0,.41-.12.4-.29,0-.01.06-2.04.07-2.05.03-.14.21-.04.11.08,0,0-.74,1.49-.74,1.49,0,0-.01.02-.02.03-.43.25-1.12.66-1.54.9,0,0-.07.06-.01-.01.04-.1-.09-.14-.09-.12,0,0,.01,0,.01,0,.06,0,1.87-.04,1.92-.04.15,0,.28-.16.28-.38,0,.05-.03-2.41-.03-2.4,0,0-.02-1.19-.02-1.19-.04-.72-.94-1.14-1.49-.67-.55.37-.37,1.42.25,1.55.11,0,.19.04.22-.05.01-.06,0-.42,0-.52-.01-.32.5-.34.5-.01,0,0,0,.31,0,.31.03.24-.05.65-.39.74-.2.04-.27.01-.42,0-1.04-.27-1.22-1.74-.4-2.33.79-.65,2.06-.04,2.09.96,0,.77-.03,2.84-.04,3.63,0,.28-.22.62-.53.61,0,0-1.89,0-1.89,0-.02,0-.05,0-.06,0,0,.02-.1-.05-.06-.13.09-.1.06-.04.09-.07.42-.23,1.11-.61,1.53-.84-.05.09.74-1.49.73-1.48,0,0,.11.08.11.08h0c.03.66.04,1.28.03,1.96,0,.14-.08.29-.2.38-.13.09-.26.11-.39.13-.81,0-2.87.05-3.65.05-1.85-.11-1.55-2.79.27-2.54.83.04,1.63,1.28.71,1.66-.29.06-.43.02-.68.03-.33,0-.32-.51,0-.5h0Z"/>
              </g>
              <g>
                <path class="cls-30" d="M51.14,67.93c-.09-3.08-.03-3.76,2.59-3.73v-24.72"/>
                <path class="cls-30" d="M50.99,67.93c-.22-2.37-.28-4.25,2.75-3.89-.42,1.09-.03-24.84-.16-24.56,0-.19.32-.21.31,0,0,0,0,24.72,0,24.72v.16h-.16c-1.69.07-2.42.34-2.39,2.18,0,0-.04,1.39-.04,1.39,0,.19-.3.2-.31,0h0Z"/>
              </g>
              <g>
                <path class="cls-30" d="M50.86,68.18c-3.58-.14-4.02.54-3.96,2.8h-16.64"/>
                <path class="cls-30" d="M50.86,68.36c-2.15.06-3.93-.14-3.78,2.62,0,0,0,.18,0,.18h-16.82c-.22,0-.23-.35,0-.35,0,0,16.64,0,16.64,0,0,0-.18.18-.18.18-.42-3.02,1.77-3.19,4.14-2.98.22.01.21.35-.01.35h0Z"/>
              </g>
              <g>
                <path class="cls-30" d="M52.14,63.06c-.1-21.55-.09-24.79,1.84-26.88"/>
                <path class="cls-30" d="M52.06,63.06c-.09-4.54-.15-9.08-.14-13.62,0-2.27.02-4.54.13-6.82.22-2.18.03-4.94,1.86-6.5.07-.06.18.03.12.11-1.24,1.85-1.36,4.18-1.53,6.41-.13,2.26-.17,4.53-.19,6.79l-.09,13.61c0,.1-.17.11-.17,0h0Z"/>
              </g>
              <g>
                <path class="cls-30" d="M45.79,68.58c-10.02,0-15.54,0-18.13,2.85"/>
                <path class="cls-30" d="M45.79,68.71c-3.13.05-6.26.06-9.37.23-2.89.25-6.17.38-8.38,2.47-.08.06-.11.18-.31.11-.2-.07-.29-.29-.04-.46,2.3-2.17,5.73-2.31,8.71-2.53,3.14-.16,6.26-.11,9.39-.07.16,0,.17.26,0,.26h0Z"/>
              </g>
            </g>
            <path class="cls-30" d="M21.05,23.76c-3.3,17.06-6.3,32,10.43,43.82"/>
            <path class="cls-30" d="M22.46,23.67c-3.3,17.06-1.97,30.04,16.82,43.91"/>
            <path class="cls-30" d="M24.89,24.4c-1.96,14.74,8.91,31.34,24.36,42.12"/>
            <path class="cls-30" d="M25.98,24.68c-1.96,14.74,10.51,29.02,24.46,36.95"/>
            <path class="cls-30" d="M26.37,25.07c.92,11.72,10.11,23.97,24.06,31.89"/>
            <path class="cls-30" d="M27.04,25.07c4.43,13.87,11.17,18.12,23.4,28.17"/>
            <path class="cls-30" d="M28.25,25.5c5.12,10.94,11.03,15.21,22.19,21.55"/>
            <path class="cls-30" d="M23.86,23.76c-3.3,17.06,3.95,29.95,22.74,43.82"/>
            <g>
              <path class="cls-30" d="M23.86,23.76c-.93-.23-2.12-.35-3.46-.09-1.49.29-1.87.66-3.32.86-1.7.23-5.27-2.06-5.08-6.57.22-5.11,6.26-8.66,13.23-9.05,2.44-.13,3.85.04,5.42.57,6.82,2.31,10.11,7.64,10.11,12.03,0,3.26-1.61,5.51-4.47,6.35-2.62.77-3.66.06-5.31-1.01-1-.65-1.02-.83-3.57-1.82-1.95-.75-2.64-1.05-3.55-1.28Z"/>
              <path class="cls-30" d="M23.74,24.22c-1.48-.4-3.05-.29-4.53.2-.82.26-1.59.53-2.51.52-4.55-.66-6.33-6.68-4.01-10.22,3.43-5.38,11.92-6.94,17.75-5.43,3.1.98,6.01,2.75,8.05,5.36,3.07,3.67,4.08,10.71-.99,13.15-1.56.71-3.4,1.13-5.03.4-.81-.36-1.47-.81-2.16-1.26-1.96-1.25-4.43-1.92-6.55-2.72h0ZM23.98,23.3c1.45.31,3.25,1.17,4.62,1.7,3.33,1.4,4.5,4,8.57,2.13,4.72-2.19,3.7-8.75.96-12.21-1.91-2.57-4.73-4.38-7.77-5.41-5.55-1.51-14.07.33-17.19,5.5-2.02,3.24-.38,8.55,3.57,9.13.71-.01,1.5-.28,2.21-.53,1.57-.56,3.36-.73,5.03-.31h0Z"/>
            </g>
            <path class="cls-30" d="M24.25,22.12c-.67-.17-1.52-.29-2.5-.21-1.08.08-1.36.26-2.41.3-1.23.04-3.79-1.35-3.6-3.75.21-2.72,4.62-4.33,9.66-4.2,1.76.04,2.78.21,3.91.57,4.9,1.56,7.22,4.56,7.18,6.91-.04,1.74-1.22,2.86-3.3,3.17-1.9.28-2.64-.14-3.83-.79-.72-.39-.72-.49-2.56-1.14-1.4-.5-1.89-.69-2.55-.85Z"/>
            <path class="cls-30" d="M20.88,18.84c.4.44.52.85.56,1.09.2,1.11-.57,2.37-1.93,3.12"/>
            <path class="cls-30" d="M24.51,19.62c.09,1.11-.85.65-.58,1.51.26.82-.68.9.8,1.79"/>
            <path class="cls-30" d="M23.47,18.65c.95-.17.03-2.41-.92-1.36-1.21,1.34,2.4,4.24-1.57,5.45"/>
            <path class="cls-30" d="M28.21,20.64c.16-.36.08-1.32.24-1.52.18-.24,1.01-.95,1.27.03.19.73-.46,1.1-.6,1.32-.75,1.21-.48,1.67-.69,2.05-.28.53-.95,1.04-1.68.95-.55-.07-1.36-.55-1.13-.82.63-.74.3.15,1.28-.57.56-.41.35-.72.71-.97.37-.25.5-.3.58-.48Z"/>
            <path class="cls-30" d="M33.91,21.61c-.17-3.72,2.93.99,1.01,1.31-2.26.37-5.54.56-5.06,1.83"/>
            <path class="cls-30" d="M27.24,14.16c.68.94.66,2.31-.29,3.36-1.21,1.34.6,2.7-2.3,4.89"/>
            <path class="cls-30" d="M23.59,14.24c-4.26,1.14-2.45,2.49-3.4,3.55-1.21,1.34-3.89,2.22-.22,4.62"/>
            <path class="cls-30" d="M29.52,14.55c2.01,1.61,2.2,1.95,1.96,3.51-.27,1.72,2.14,5.54-3.76,5.56"/>
            <ellipse class="cls-30" cx="10.19" cy="20.43" rx="2.92" ry=".24" transform="translate(-12.61 19.28) rotate(-60.61)"/>
            <ellipse class="cls-30" cx="10.86" cy="23.06" rx="2.92" ry=".24" transform="translate(-14.53 25.3) rotate(-69.83)"/>
            <ellipse class="cls-30" cx="44.09" cy="26.5" rx=".24" ry="4.29" transform="translate(-5.11 41.51) rotate(-47.97)"/>
            <ellipse class="cls-30" cx="41.22" cy="28.1" rx=".4" ry="2.83" transform="translate(-8.53 24.37) rotate(-30)"/>
            <g>
              <ellipse class="cls-30" cx="19.51" cy="27.2" rx=".4" ry="2.83" transform="translate(-10.99 13.4) rotate(-30)"/>
              <ellipse class="cls-30" cx="19.51" cy="27.2" rx=".4" ry="2.83" transform="translate(-10.99 13.4) rotate(-30)"/>
            </g>
            <g>
              <ellipse class="cls-30" cx="20.85" cy="26.82" rx=".4" ry="2.83" transform="translate(-6.98 7.34) rotate(-17.15)"/>
              <ellipse class="cls-30" cx="20.85" cy="26.82" rx=".4" ry="2.83" transform="translate(-6.98 7.34) rotate(-17.15)"/>
            </g>
            <g>
              <ellipse class="cls-30" cx="23.1" cy="26.52" rx=".4" ry="2.83" transform="translate(-8.06 10.22) rotate(-21.32)"/>
              <ellipse class="cls-30" cx="23.1" cy="26.52" rx=".4" ry="2.83" transform="translate(-8.06 10.22) rotate(-21.32)"/>
            </g>
            <g>
              <ellipse class="cls-30" cx="25.59" cy="27.1" rx=".4" ry="3.24" transform="translate(-8.1 11.16) rotate(-21.32)"/>
              <ellipse class="cls-30" cx="25.59" cy="27.1" rx=".4" ry="3.24" transform="translate(-8.1 11.16) rotate(-21.32)"/>
            </g>
            <g>
              <ellipse class="cls-30" cx="26.83" cy="27.1" rx=".4" ry="3.24" transform="translate(-10.56 19.59) rotate(-33.94)"/>
              <ellipse class="cls-30" cx="26.83" cy="27.1" rx=".4" ry="3.24" transform="translate(-10.56 19.59) rotate(-33.94)"/>
            </g>
            <g>
              <ellipse class="cls-30" cx="30.06" cy="28.18" rx=".4" ry="3.24" transform="translate(-10.61 21.58) rotate(-33.94)"/>
              <ellipse class="cls-30" cx="30.06" cy="28.18" rx=".4" ry="3.24" transform="translate(-10.61 21.58) rotate(-33.94)"/>
            </g>
            <g>
              <ellipse class="cls-30" cx="33.79" cy="29.66" rx=".4" ry="3.24" transform="translate(-11.08 32.58) rotate(-45)"/>
              <ellipse class="cls-30" cx="33.79" cy="29.66" rx=".4" ry="3.24" transform="translate(-11.08 32.58) rotate(-45)"/>
            </g>
          </g>
        </g>
      </g>
    </g>
  </g>
</svg>