<?xml version="1.0" encoding="UTF-8"?>
<svg id="_ガイドライン" data-name="ガイドライン" xmlns="http://www.w3.org/2000/svg" version="1.1" viewBox="0 0 400 400">
  <!-- Generator: Adobe Illustrator 30.4.0, SVG Export Plug-In . SVG Version: 2.1.4 Build 226)  -->
  <defs>
    <style>
      .st0 {
        fill: none;
      }

      .st1 {
        fill: #89b4ce;
      }

      .st2, .st3 {
        fill: #fff;
      }

      .st3 {
        stroke: #fff;
        stroke-miterlimit: 10;
      }
    </style>
  </defs>
  <path class="st2" d="M331.7,95.3l-5.6-5.3,1.5-1.5c.4-.5.5-1.1.5-1.8-.1-.7-.5-1.4-1.1-2.1-.7-.6-1.3-.9-2.1-1-.7-.1-1.4,0-1.9.6l-1.4,1.5-16.2-15.3c-.6-.5-1.3-.8-2.1-.9-.8,0-1.4.1-1.9.6s-.6,1.1-.5,1.9c0,.8.4,1.5,1.1,2.1l9,8.5c-.8-.5-1.7-1.1-2.5-1.5,1.5.9,3.1,2,4.9,3.5.9.8,1.7,1.6,2.4,2.5,0,0,0,0,0,.1l2.3,2.1-.5.6h0c1.9,3.8,1.7,7.7-.5,10.3-2,2.3-5,1.9-8.7,1.5-.7,0-1.3-.2-2-.4-.7.3-2.2.2-4.3-.3-2.2-.5-4.3-1.6-6.1-3.1-.7-.5-1.3-.8-2.1-.7-.7,0-1.3.3-1.6.8-.3.5-.4,1.1-.3,1.9.1.7.5,1.4,1.2,1.9,2.7,2.2,5.5,3.7,8.5,4.5,3.1.8,5.9.8,8.7,0,3.9-1.5,6.6-4.2,8.1-7.9l4.2-4.5,5.6,5.3c.5.5,1.3.9,2.1.9.8,0,1.5-.1,1.9-.7.5-.4.7-1.1.5-1.9-.1-.9-.5-1.5-1.1-2.1Z"/>
  <path class="st2" d="M344.5,114.1c-7.4,2.2-13.4,6.4-18,12.8,0,0,0,.1,0,.2,0,0,0,.1.2.2,2.8,1,5.6,1.6,8.4,2,.7.1,1.3.5,1.9,1.2.5.7.9,1.4,1,2.2,0,.7,0,1.4-.5,2s-1,.8-1.8.8c-3.5-.5-6.9-1.4-10.3-2.8-1.7-.7-3-2.1-3.8-4.1-.8-2-.8-3.8,0-5.3,5.3-7.4,12.1-12.5,20.6-15.1.7-.1,1.4,0,2.1.5.7.5,1.1,1.1,1.3,1.7.4.8.4,1.6.2,2.2-.2.7-.6,1.2-1.2,1.5ZM357.3,135.5c-4,7.3-9,13.2-15.2,17.8-.6.3-1.3.4-2,.1-.7-.3-1.3-.8-1.8-1.5-.4-.7-.6-1.4-.6-2.2,0-.8.3-1.4.8-1.8,5.7-4.3,10.3-9.7,14-16.4.4-.5,1-.8,1.6-.9.7,0,1.3.2,2,.7s1.1,1.2,1.3,2c.2.8.2,1.5-.1,2.2Z"/>
  <g>
    <path class="st2" d="M342.9,167.8c8.1-2.9,16.5-4.2,25.2-3.7.6,0,1.2-.3,1.7-.9.5-.7.7-1.4.6-2.4,0-.8-.3-1.5-.8-2.2-.5-.6-1.1-.9-1.8-1-9-.3-17.8,1-26.3,3.9-.7.1-1.2.6-1.4,1.4-.3.8-.3,1.6-.1,2.5s.6,1.5,1.1,2c.6.5,1.2.6,1.9.5Z"/>
    <path class="st2" d="M367.5,188.1l2.7-.5s2.6-.7,2.8-.9c.3-.2.4-.5.4-.5,0-.1.1-.2.2-.4.3-.8.4-1.5.3-2.3-.2-.8-.5-1.5-1.2-1.9-.6-.5-1.3-.6-1.9-.5l-4.3.8-2.3-14.7c-.2-.8-.5-1.5-1.1-2s-1.2-.6-1.9-.5c-.6,0-1.2.5-1.5,1.1-.4.6-.6,1.3-.6,2.1l2.3,15.2-7.2,1.5c-2.1.2-4-.5-5.7-2.1-1.8-2-3.2-4.4-4-7.3-.2-.8-.7-1.5-1.3-1.9-.6-.4-1.2-.6-1.8-.4s-1.1.6-1.4,1.3c-.3.7-.5,1.4-.4,2.2,1.1,3.9,2.7,7.3,4.9,10.1,2.8,3.3,6.1,4.8,9.8,4.5l7.9-1.7.8,5.2c.1.8.5,1.4,1.1,1.9.6.5,1.2.7,1.9.6.6,0,1.1-.4,1.6-1.1.2-.3.3-.7.4-1l-.4-4.1-.4-2.7Z"/>
  </g>
  <path class="st2" d="M370.4,214.4c-.3,7.1-1.5,14.1-3.3,21.1-.8,3.1-2,5.9-3.8,8.4-2.5,3.4-5.5,5.4-9.1,6-3.5.5-6.5-.7-9-3.5-2.6-3-4.2-6.8-4.7-11.3-.5-5.8.1-11.5,1.7-17.1.3-.9.7-1.6,1.3-2.1.6-.5,1.3-.6,2-.4.7.2,1.3.7,1.6,1.5s.4,1.6.1,2.5c-1.3,4.7-1.8,9.4-1.4,14.2.4,2.9,1.4,5.3,3,7.3,1.3,1.7,3,2.5,4.9,2.3,2-.2,3.8-1.2,5.2-3.2,1.2-1.7,2.2-3.7,2.8-5.9,1.7-6.6,2.7-13.1,3-19.5,0-.9.3-1.8.9-2.5.6-.7,1.3-1.1,2-1.2s1.4.3,2,.9c.5.7.7,1.5.6,2.5Z"/>
  <path class="st2" d="M38.1,200c-2.1,0-4-1.3-4.7-3.4-6.7-20.2-3.9-50.2,7.1-74.8,1.1-2.5,4.1-3.7,6.6-2.5,2.5,1.1,3.7,4.1,2.5,6.6-9.9,22.1-12.6,49.9-6.7,67.5.9,2.6-.5,5.5-3.2,6.3-.5.2-1.1.3-1.6.3Z"/>
  <path class="st2" d="M143.8,358.8c-.7,0-1.5-.2-2.2-.5-5.6-2.7-14.1-6.9-18.9-16.8-10.3-21.3-6.5-34.8,29.4-103,1.3-2.4,4.3-3.4,6.8-2.1,2.4,1.3,3.4,4.3,2.1,6.8-35.6,67.6-37.2,77.5-29.2,94,3.1,6.3,8.1,9.2,14.3,12.2,2.5,1.2,3.5,4.2,2.3,6.7-.9,1.8-2.6,2.8-4.5,2.8Z"/>
  <path class="st2" d="M154.6,322.9c-.6,0-1.3-.1-1.9-.4-2.6-1-3.8-4-2.8-6.5l24.9-61.4c1-2.6,4-3.8,6.5-2.8,2.6,1,3.8,4,2.8,6.5l-24.9,61.4c-.8,1.9-2.7,3.1-4.6,3.1Z"/>
  <path class="st2" d="M190.5,295.8c0,0-.1,0-.2,0-2.8,0-4.9-2.4-4.8-5.2.3-9.6,1.3-13.6,7-28.2,1-2.6,3.9-3.8,6.5-2.8,2.6,1,3.8,3.9,2.8,6.5-5.6,14.3-6.1,16.9-6.3,24.9,0,2.7-2.3,4.9-5,4.9Z"/>
  <path class="st1" d="M240.3,278.4c-43.8,0-77.6-29-95.1-48.1l-.8-.9c-30.5-32.4-52.1-86.8-12.7-133.4,28.5-33.6,96.5-40.9,148.6,2.5,3.7,2.6,44.9,32.2,51.6,81.4,4,29.5.2,81.1-70.5,96.2-7.3,1.6-14.3,2.3-21.1,2.3ZM197.3,78.6c-22.6,0-43.9,7.3-58,23.9-35.1,41.5-15.3,90.6,12.4,120.1l.9,1c18.8,20.5,57.6,53.3,106.7,42.9,59.7-12.7,67-53.3,62.7-85.1-6.3-46-47.1-74.4-47.5-74.6l-.4-.3c-20.8-17.4-49.8-27.8-76.8-27.8Z"/>
  <path class="st2" d="M148.4,336.1c-.6,0-1.3-.1-1.9-.4-2.6-1-3.8-4-2.8-6.5,1-2.6,4.1-4.1,6.6-3,2.6,1,3.9,3.7,2.9,6.3l-.2.5c-.8,1.9-2.7,3.1-4.6,3.1Z"/>
  <path class="st2" d="M200.8,325.9c-.6,0-1.2-.1-1.8-.3-6.5-2.5-13.5-9.9-13.5-20.4s2.2-5,5-5,5,2.2,5,5c0,5.5,3.6,9.7,7.1,11,2.6,1,3.9,3.9,2.9,6.5-.8,2-2.7,3.2-4.7,3.2Z"/>
  <path class="st2" d="M104.7,250.4c-18.8,0-38.9-6.6-54.4-21.7-2-1.9-2-5.1,0-7.1,1.9-2,5.1-2,7.1,0,25.9,25.3,65.1,21.8,81.7,8.1,2.1-1.8,5.3-1.4,7,.7,1.8,2.1,1.4,5.3-.7,7-10.1,8.3-24.9,13-40.7,13Z"/>
  <path class="st2" d="M43,216.5c-.7,0-1.3-.1-1.9-.4-.6-.2-1.1-.6-1.6-1.1-.9-.9-1.5-2.2-1.5-3.5s.1-1.3.4-1.9c.3-.6.6-1.1,1.1-1.6.5-.5,1-.8,1.6-1.1,1.9-.7,4.1-.3,5.5,1.1.5.5.9,1,1.1,1.6.3.7.4,1.3.4,1.9,0,1.3-.5,2.6-1.5,3.5-.9.9-2.2,1.5-3.5,1.5Z"/>
  <g>
    <circle class="st2" cx="59.2" cy="81.8" r="27.5"/>
    <path class="st2" d="M59.2,114.3c-17.9,0-32.6-14.6-32.6-32.6s14.6-32.5,32.6-32.5,32.5,14.6,32.5,32.5-14.6,32.6-32.5,32.6ZM59.2,59.2c-12.4,0-22.5,10.1-22.5,22.5s10.1,22.5,22.5,22.5,22.5-10.1,22.5-22.5-10.1-22.5-22.5-22.5Z"/>
  </g>
  <path class="st2" d="M240.3,278.4c-43.8,0-77.6-29-95.1-48.1l-.8-.9c-30.5-32.4-52.1-86.8-12.7-133.4,28.5-33.6,96.5-40.9,148.6,2.5,3.7,2.6,44.9,32.2,51.6,81.4,4,29.5.2,81.1-70.5,96.2-7.3,1.6-14.3,2.3-21.1,2.3ZM197.3,78.6c-22.6,0-43.9,7.3-58,23.9-35.1,41.5-15.3,90.6,12.4,120.1l.9,1c18.8,20.5,57.6,53.3,106.7,42.9,59.7-12.7,67-53.3,62.7-85.1-6.3-46-47.1-74.4-47.5-74.6l-.4-.3c-20.8-17.4-49.8-27.8-76.8-27.8Z"/>
  <g>
    <path class="st2" d="M283.3,217.1c-4.7,5.6-10.2,10.5-16.9,14.2-8.5,4.7-13.9,6.4-27.4,9.6-16,3.8-34-2.9-34-2.9,0,0,7.9,21.7,54.4,11.9,45.2-9.5,36-51.7,36-51.7-2.9,7.6-7.4,13.3-12.2,19.1Z"/>
    <path class="st2" d="M237.6,257.3c-30.3,0-36.9-16.8-37.2-17.7-.7-1.8-.2-3.9,1.2-5.3,1.4-1.4,3.4-1.8,5.3-1.1.2,0,16.8,6.1,31.1,2.7,13-3.1,18-4.6,26.1-9.1,5.8-3.2,11-7.6,15.5-13,4.5-5.4,8.7-10.8,11.3-17.7.8-2.1,2.8-3.3,5.1-3.2,2.2.2,4,1.8,4.5,3.9.2.8,4.2,20.2-6.6,36.8-6.9,10.6-18.1,17.7-33.3,20.9-8.8,1.9-16.4,2.6-22.9,2.6ZM230.8,246.9c6.9.8,15.9.4,27.7-2.1,21.7-4.6,29.3-17.4,31.8-28.4-1,1.3-2,2.5-3.1,3.8h0c-5.3,6.4-11.5,11.5-18.3,15.3-9,5-14.8,6.8-28.6,10.1-3.1.7-6.3,1.1-9.5,1.2Z"/>
  </g>
  <path class="st2" d="M317.5,90c0,0,0,0,0,0-.1-.1-.3-.4-.5-.7-.5-.9-1-1.7-1.6-2.4l.4.3c-.7-.9-1.5-1.7-2.4-2.5-1.8-1.5-3.4-2.7-4.9-3.5-.5-.3-1.1-.5-1.6-.7-.5-.2-1.1-.3-1.6-.5-1.3-.3-2.5-.3-3.7-.2-2,.3-3.6,1.1-4.8,2.5-1.2,1.5-1.7,3.2-1.7,5.3.1,2.4.9,4.7,2.6,6.9.7.9,1.5,1.8,2.2,2.5.3.4.7.7,1,1,.2.1.3.3.5.4.4.4.8.7,1.3,1,.5.3.9.7,1.5.9.7.4,1.5.7,2.3.9.7.2,1.3.3,2,.4,3.7.4,6.7.7,8.7-1.5,2.3-2.6,2.4-6.5.5-10.2ZM312.3,95.3c-.8,1.1-2,1.5-3.6,1.2-2.7-.7-5.1-2.1-6.9-4.4-.6-.9-1-1.8-1.3-2.8-.2-1,0-1.9.5-2.7.5-.7,1.3-1.2,2.3-1.3.9-.2,1.7-.1,2.5.2,2.8,1.1,5,3,6.5,5.7.3.7.5,1.4.5,2.1s-.2,1.3-.5,1.9Z"/>
  <path class="st0" d="M297.5,94.5c.7.9,1.5,1.8,2.2,2.5-1.9-1.9-3.6-4-4.5-5.7-1.7-3.6-.8-6.5,1.3-9-1.2,1.5-1.7,3.2-1.7,5.3.1,2.4.9,4.7,2.6,6.9Z"/>
  <path class="st0" d="M301.4,79.8c-2,.3-3.6,1.1-4.8,2.5q0,0,0-.1c1.1-1.2,2.5-2.2,4.2-2.5,1.3-.2,2.7-.1,4.3.3-1.3-.3-2.5-.3-3.7-.2Z"/>
  <path class="st0" d="M312.4,91.3c.3.7.5,1.4.5,2.1s-.2,1.3-.5,1.9c-.8,1.1-2,1.5-3.6,1.2-2.7-.7-5.1-2.1-6.9-4.4-.6-.9-1-1.8-1.3-2.8-.2-1,0-1.9.5-2.7.5-.7,1.3-1.2,2.3-1.3.9-.2,1.7-.1,2.5.2,2.8,1.1,5,3,6.5,5.7Z"/>
  <path class="st0" d="M317.4,89.9c-.1-.1-.3-.4-.5-.7-.5-.9-1-1.7-1.6-2.4l.4.3c0,0,0,0,0,.1.7.9,1.3,1.7,1.7,2.7Z"/>
  <circle class="st2" cx="374.4" cy="196.2" r="3.8"/>
  <circle class="st3" cx="370.1" cy="192.5" r="3.8"/>
</svg>