<?xml version="1.0" encoding="UTF-8"?>
<svg xmlns="http://www.w3.org/2000/svg" viewBox="0 0 400 400">
  <defs>
    <style>
      .cls-1 {
        fill: none;
      }

      .cls-2, .cls-3 {
        fill: #ffd53b;
      }

      .cls-3 {
        stroke: #fff;
        stroke-miterlimit: 10;
      }

      .cls-4 {
        fill: #89b4ce;
      }

      .cls-5 {
        fill: #fff;
      }
    </style>
  </defs>
  <g id="_レイヤー_1" data-name="レイヤー 1">
    <rect class="cls-5" width="400" height="400" rx="39.32" ry="39.32"/>
  </g>
  <g id="_ガイドライン" data-name="ガイドライン">
    <path class="cls-4" d="M331.69,95.27l-5.6-5.27,1.47-1.53c.4-.47.53-1.07.47-1.8-.13-.73-.47-1.4-1.13-2.07-.67-.6-1.33-.93-2.13-1-.73-.13-1.4.07-1.87.6l-1.4,1.47-16.21-15.28c-.6-.53-1.33-.8-2.07-.87-.8-.07-1.4.13-1.87.6s-.6,1.13-.53,1.87c.07.8.4,1.53,1.07,2.13l9.01,8.47c-.8-.53-1.67-1.07-2.54-1.47,1.53.87,3.14,2,4.94,3.54.93.8,1.67,1.6,2.4,2.47,0,.07.07.07.07.13l2.27,2.07-.53.6v.07c1.87,3.74,1.73,7.61-.53,10.21-2,2.27-5,1.93-8.67,1.53-.67-.07-1.33-.2-2-.4-.73.27-2.2.2-4.34-.33-2.2-.53-4.27-1.6-6.14-3.14-.67-.53-1.33-.8-2.07-.73-.73,0-1.27.27-1.6.8-.33.53-.4,1.13-.27,1.87.13.73.53,1.4,1.2,1.93,2.67,2.2,5.54,3.74,8.54,4.47,3.07.8,5.94.8,8.74-.07,3.94-1.53,6.6-4.2,8.07-7.94l4.2-4.54,5.6,5.27c.53.53,1.27.87,2.13.93.8.07,1.47-.13,1.87-.67.47-.4.67-1.07.53-1.87-.13-.87-.47-1.53-1.07-2.07Z"/>
    <path class="cls-4" d="M344.48,114.13c-7.36,2.17-13.37,6.44-18.04,12.8-.05.06-.07.11-.08.15.03.05.09.1.17.16,2.85.97,5.65,1.63,8.39,1.99.71.12,1.34.51,1.89,1.16.55.65.88,1.39,1,2.24.1.75-.08,1.41-.54,1.99-.46.58-1.05.84-1.77.79-3.47-.47-6.91-1.4-10.3-2.79-1.74-.72-3.01-2.08-3.81-4.07-.82-2.02-.81-3.79.04-5.32,5.26-7.45,12.14-12.48,20.64-15.08.69-.15,1.37.02,2.05.51.68.49,1.13,1.07,1.35,1.75.36.81.43,1.56.22,2.24-.21.68-.61,1.17-1.21,1.48ZM357.25,135.51c-3.96,7.26-9.03,13.2-15.22,17.81-.61.35-1.28.39-2.02.13-.74-.26-1.34-.75-1.78-1.48-.43-.7-.62-1.44-.56-2.22.05-.79.33-1.39.83-1.81,5.68-4.25,10.33-9.72,13.95-16.41.41-.55.95-.84,1.64-.88.68-.04,1.35.2,1.99.7s1.07,1.17,1.27,1.98c.2.81.17,1.54-.1,2.19Z"/>
    <g>
      <path class="cls-4" d="M342.85,167.77c8.1-2.93,16.49-4.18,25.16-3.75.61.03,1.17-.29,1.68-.95.5-.66.7-1.45.59-2.35-.03-.83-.3-1.54-.82-2.16-.52-.62-1.11-.95-1.77-1-9.01-.32-17.78.98-26.3,3.88-.68.14-1.17.6-1.45,1.4-.28.8-.32,1.62-.13,2.47s.57,1.5,1.14,1.97c.57.47,1.21.63,1.92.49Z"/>
      <path class="cls-4" d="M367.45,188.06l2.69-.5s2.58-.68,2.84-.86c.26-.18.41-.51.41-.51.06-.1.13-.22.2-.36.32-.76.41-1.52.27-2.3-.15-.84-.54-1.49-1.17-1.94-.63-.46-1.25-.62-1.86-.5l-4.32.84-2.25-14.74c-.15-.84-.52-1.49-1.12-1.95s-1.21-.64-1.85-.55c-.64.1-1.16.45-1.55,1.07-.39.61-.59,1.3-.6,2.07l2.32,15.19-7.24,1.48c-2.09.17-3.98-.53-5.68-2.08-1.83-2-3.16-4.44-3.96-7.33-.25-.82-.66-1.45-1.25-1.89-.59-.43-1.18-.56-1.77-.37s-1.06.61-1.41,1.28c-.35.67-.47,1.41-.37,2.22,1.06,3.9,2.7,7.26,4.93,10.09,2.79,3.33,6.06,4.82,9.8,4.5l7.9-1.72.79,5.19c.14.78.51,1.42,1.09,1.93.59.51,1.23.71,1.92.61.62-.09,1.15-.45,1.59-1.07.21-.34.35-.68.42-1.02l-.36-4.06-.41-2.7Z"/>
    </g>
    <path class="cls-4" d="M370.36,214.41c-.35,7.07-1.46,14.1-3.33,21.09-.75,3.1-2,5.91-3.76,8.42-2.51,3.43-5.55,5.41-9.09,5.96-3.52.46-6.53-.7-9.01-3.49-2.64-3.02-4.2-6.79-4.67-11.31-.47-5.76.1-11.47,1.73-17.14.26-.91.7-1.61,1.32-2.09.63-.49,1.3-.61,2.04-.37.74.21,1.27.7,1.59,1.47s.36,1.61.13,2.52c-1.32,4.68-1.78,9.4-1.37,14.16.37,2.92,1.36,5.34,2.96,7.28,1.31,1.73,2.95,2.49,4.93,2.29,2.05-.18,3.79-1.23,5.23-3.17,1.23-1.71,2.16-3.65,2.78-5.85,1.7-6.56,2.7-13.08,3-19.53.04-.94.35-1.77.93-2.49.58-.72,1.25-1.11,2.03-1.16s1.44.26,1.98.94c.55.67.75,1.5.6,2.47Z"/>
    <path class="cls-4" d="M38.15,200.01c-2.09,0-4.05-1.33-4.75-3.42-6.72-20.15-3.87-50.2,7.1-74.77,1.12-2.52,4.09-3.65,6.61-2.53,2.52,1.13,3.65,4.08,2.53,6.61-9.86,22.1-12.64,49.86-6.75,67.53.87,2.62-.54,5.46-3.16,6.33-.52.18-1.06.26-1.58.26Z"/>
    <path class="cls-4" d="M143.77,358.85c-.74,0-1.49-.16-2.2-.51-5.6-2.75-14.05-6.9-18.87-16.84-10.35-21.35-6.51-34.83,29.36-103.04,1.28-2.45,4.3-3.38,6.76-2.1,2.45,1.29,3.38,4.31,2.1,6.76-35.56,67.63-37.2,77.54-29.21,94.02,3.07,6.34,8.07,9.18,14.28,12.23,2.48,1.22,3.5,4.22,2.29,6.7-.87,1.77-2.65,2.8-4.5,2.8Z"/>
    <path class="cls-4" d="M154.55,322.95c-.63,0-1.26-.12-1.88-.36-2.56-1.04-3.79-3.96-2.76-6.52l24.86-61.37c1.04-2.56,3.96-3.79,6.52-2.76,2.56,1.04,3.79,3.96,2.76,6.52l-24.86,61.37c-.79,1.94-2.66,3.12-4.64,3.12Z"/>
    <path class="cls-4" d="M190.46,295.85c-.05,0-.1,0-.16,0-2.76-.08-4.93-2.39-4.85-5.15.3-9.61,1.28-13.57,7.02-28.22,1.01-2.58,3.91-3.84,6.48-2.83,2.57,1.01,3.84,3.91,2.83,6.48-5.6,14.29-6.09,16.86-6.34,24.88-.08,2.71-2.31,4.85-5,4.85Z"/>
    <path class="cls-4" d="M240.28,278.4c-43.78,0-77.56-29.03-95.05-48.14l-.84-.91c-30.49-32.43-52.11-86.81-12.7-133.37,28.47-33.65,96.46-40.87,148.61,2.52,3.75,2.6,44.86,32.18,51.6,81.41,4.03,29.46.23,81.15-70.49,96.24-7.27,1.55-14.32,2.25-21.12,2.25ZM197.27,78.57c-22.63,0-43.91,7.28-57.95,23.87-35.14,41.53-15.31,90.63,12.36,120.05l.93,1.01c18.77,20.5,57.6,53.33,106.71,42.85,59.67-12.73,67.01-53.3,62.66-85.1-6.29-45.99-47.12-74.36-47.53-74.64l-.39-.29c-20.79-17.35-49.75-27.76-76.79-27.76Z"/>
    <path class="cls-2" d="M148.38,336.14c-.63,0-1.26-.12-1.88-.37-2.56-1.04-3.79-3.96-2.75-6.52,1.04-2.56,4.07-4.06,6.63-3.02,2.56,1.04,3.9,3.69,2.86,6.25l-.22.54c-.79,1.94-2.66,3.12-4.64,3.12Z"/>
    <path class="cls-4" d="M200.77,325.88c-.59,0-1.19-.1-1.78-.33-6.52-2.48-13.55-9.91-13.55-20.38,0-2.76,2.24-5,5-5s5,2.24,5,5c0,5.48,3.57,9.69,7.09,11.03,2.58.98,3.88,3.87,2.9,6.45-.76,2-2.66,3.23-4.68,3.23Z"/>
    <path class="cls-4" d="M104.75,250.43c-18.76,0-38.92-6.62-54.36-21.7-1.98-1.93-2.02-5.1-.08-7.08,1.93-1.97,5.1-2.01,7.08-.08,25.93,25.31,65.07,21.78,81.73,8.12,2.13-1.76,5.29-1.44,7.04.69,1.75,2.14,1.44,5.29-.69,7.04-10.12,8.31-24.91,13.01-40.7,13.01Z"/>
    <path class="cls-2" d="M42.98,216.48c-.67,0-1.27-.13-1.93-.4-.6-.2-1.13-.6-1.6-1.07-.93-.93-1.47-2.2-1.47-3.53,0-.67.13-1.27.4-1.93.26-.6.6-1.13,1.07-1.6.47-.47,1-.8,1.6-1.07,1.87-.73,4.07-.34,5.47,1.07.47.47.87,1,1.07,1.6.27.67.4,1.27.4,1.93,0,1.34-.53,2.6-1.47,3.53-.93.93-2.2,1.47-3.53,1.47Z"/>
    <g>
      <circle class="cls-2" cx="59.18" cy="81.78" r="27.55"/>
      <path class="cls-2" d="M59.18,114.33c-17.95,0-32.55-14.6-32.55-32.55s14.6-32.55,32.55-32.55,32.55,14.6,32.55,32.55-14.6,32.55-32.55,32.55ZM59.18,59.24c-12.43,0-22.54,10.11-22.54,22.54s10.11,22.54,22.54,22.54,22.54-10.11,22.54-22.54-10.11-22.54-22.54-22.54Z"/>
    </g>
    <path class="cls-4" d="M240.28,278.4c-43.78,0-77.56-29.03-95.05-48.14l-.84-.91c-30.49-32.43-52.11-86.81-12.7-133.37,28.47-33.65,96.46-40.87,148.61,2.52,3.75,2.6,44.86,32.18,51.6,81.41,4.03,29.46.23,81.15-70.49,96.24-7.27,1.55-14.32,2.25-21.12,2.25ZM197.27,78.57c-22.63,0-43.91,7.28-57.95,23.87-35.14,41.53-15.31,90.63,12.36,120.05l.93,1.01c18.77,20.5,57.6,53.33,106.71,42.85,59.67-12.73,67.01-53.3,62.66-85.1-6.29-45.99-47.12-74.36-47.53-74.64l-.39-.29c-20.79-17.35-49.75-27.76-76.79-27.76Z"/>
    <g>
      <path class="cls-4" d="M283.34,217.06c-4.66,5.61-10.25,10.48-16.9,14.16-8.52,4.72-13.89,6.4-27.36,9.56-16.03,3.76-33.96-2.92-33.96-2.92,0,0,7.9,21.67,54.37,11.87,45.16-9.53,36-51.73,36-51.73-2.91,7.58-7.42,13.34-12.16,19.06Z"/>
      <path class="cls-4" d="M237.6,257.26c-30.32,0-36.86-16.83-37.18-17.69-.67-1.83-.21-3.88,1.17-5.26,1.38-1.38,3.44-1.82,5.27-1.15.17.06,16.77,6.09,31.08,2.74,13.03-3.06,18.04-4.62,26.08-9.07,5.77-3.2,10.98-7.57,15.47-12.98,4.48-5.4,8.71-10.81,11.34-17.66.79-2.07,2.85-3.34,5.05-3.2,2.21.17,4.04,1.77,4.51,3.93.18.82,4.21,20.15-6.6,36.83-6.89,10.64-18.08,17.65-33.26,20.86-8.84,1.87-16.43,2.64-22.93,2.64ZM230.77,246.88c6.88.78,15.9.44,27.69-2.05,21.68-4.57,29.35-17.42,31.8-28.36-1,1.27-2.03,2.52-3.07,3.78h0c-5.29,6.38-11.46,11.54-18.32,15.35-9.03,5-14.79,6.81-28.65,10.06-3.14.74-6.33,1.11-9.45,1.23Z"/>
    </g>
    <path class="cls-2" d="M317.48,90c0-.07-.07-.07-.07-.07-.13-.13-.33-.4-.53-.73-.47-.87-1-1.67-1.6-2.4l.4.33c-.73-.87-1.47-1.67-2.4-2.47-1.8-1.53-3.4-2.67-4.94-3.54-.53-.27-1.07-.47-1.6-.67-.53-.2-1.07-.33-1.6-.47-1.27-.33-2.54-.33-3.74-.2-2,.27-3.6,1.13-4.8,2.54-1.2,1.47-1.73,3.2-1.67,5.27.13,2.4.93,4.74,2.6,6.94.73.93,1.47,1.8,2.2,2.54.33.4.67.67,1,1,.2.13.33.33.53.4.4.4.8.73,1.27,1,.47.33.93.67,1.47.93.73.4,1.47.67,2.27.93.67.2,1.33.33,2,.4,3.67.4,6.67.73,8.67-1.53,2.27-2.6,2.4-6.47.53-10.21ZM312.35,95.27c-.8,1.13-2,1.53-3.6,1.2-2.74-.67-5.07-2.13-6.94-4.4-.6-.87-1-1.8-1.27-2.8-.2-1-.07-1.93.53-2.67.53-.73,1.27-1.2,2.27-1.27.87-.2,1.73-.13,2.54.2,2.8,1.13,5,3,6.54,5.74.33.67.47,1.4.47,2.07,0,.73-.2,1.33-.53,1.93Z"/>
    <path class="cls-1" d="M297.54,94.53c.73.93,1.47,1.8,2.2,2.54-1.93-1.87-3.6-4-4.47-5.74-1.73-3.6-.8-6.54,1.33-9.01-1.2,1.47-1.73,3.2-1.67,5.27.13,2.4.93,4.74,2.6,6.94Z"/>
    <path class="cls-1" d="M301.41,79.79c-2,.27-3.6,1.13-4.8,2.54q0-.07.07-.13c1.13-1.2,2.47-2.2,4.2-2.47,1.33-.2,2.74-.13,4.27.27-1.27-.33-2.54-.33-3.74-.2Z"/>
    <path class="cls-1" d="M312.41,91.27c.33.67.47,1.4.47,2.07,0,.73-.2,1.33-.53,1.93-.8,1.13-2,1.53-3.6,1.2-2.74-.67-5.07-2.13-6.94-4.4-.6-.87-1-1.8-1.27-2.8-.2-1-.07-1.93.53-2.67.53-.73,1.27-1.2,2.27-1.27.87-.2,1.73-.13,2.54.2,2.8,1.13,5,3,6.54,5.74Z"/>
    <path class="cls-1" d="M317.42,89.93c-.13-.13-.33-.4-.53-.73-.47-.87-1-1.67-1.6-2.4l.4.33c0,.07.07.07.07.13.67.87,1.27,1.73,1.67,2.67Z"/>
    <circle class="cls-2" cx="374.36" cy="196.25" r="3.79"/>
    <circle class="cls-3" cx="370.14" cy="192.46" r="3.79"/>
  </g>
</svg>